<?xml version="1.0" encoding="utf-8"?>
<!-- Generator: Adobe Illustrator 27.5.0, SVG Export Plug-In . SVG Version: 6.00 Build 0)  -->
<svg version="1.1" xmlns="http://www.w3.org/2000/svg" xmlns:xlink="http://www.w3.org/1999/xlink" x="0px" y="0px"
	 viewBox="0 0 5000 4000" style="enable-background:new 0 0 5000 4000;" xml:space="preserve">
<g id="Background">
	<g>
		<g>
			<rect style="fill:#FFFFFF;" width="5000" height="4000"/>
		</g>
	</g>
	<g style="opacity:0.2;">
		<g>
			
				<path style="fill:none;stroke:#0F31AC;stroke-width:20;stroke-linecap:round;stroke-miterlimit:10;stroke-dasharray:50,50,50,50,50,50;" d="
				M1284.181,1141.937c-55.304-26.007-146.764,16.278-175.926,78.156c-55.668,118.122,124.378,289.192,189.854,270.831
				C1371.276,1470.406,1385.72,1189.685,1284.181,1141.937z"/>
			
				<path style="fill:none;stroke:#0F31AC;stroke-width:20;stroke-linecap:round;stroke-miterlimit:10;stroke-dasharray:50,50,50,50,50,50;" d="
				M1007.565,1409.484c-19.737-11.417-228.805-132.355-347.122-36.642c-83.076,67.205-83.871,210.855-21.441,291.591
				c123.648,159.904,507.069,88.214,546.852-26.205C1212.644,1561.176,1086.865,1455.356,1007.565,1409.484z"/>
			
				<path style="fill:none;stroke:#0F31AC;stroke-width:20;stroke-linecap:round;stroke-miterlimit:10;stroke-dasharray:50,50,50,50,50,50;" d="
				M1276.577,3384c508.89-126.31,1087.12-254.9,1985-233c502.15,12.25,615.94-143.58,996.51-337.33
				c339.21-172.68,505.81-516.06,403.49-710.67c-103.3-196.47-417.94-118.25-675.62-410.71c-117.35-133.2-96.7-226.56-164.45-374.27
				c-214.55-467.71-1018.68-833.28-1415.21-639.81c-523.87,255.59-76.01,1359.96-661.6,1661.64
				c-370.41,190.84-650.38-175.51-1016.12,104.15c-181.22,138.57-402.859,332.948-420,544C308.577,2988,284.577,3504,1276.577,3384z
				"/>
		</g>
		<path style="fill:#ACBCF8;" d="M4088.14,2809.3c0,0-92.18,122.22-184.38,289.91c-83.12,151.22-146.33,354.98-160.29,525.1
			c-39.15-1.85-82.15-3.59-128.64-5.24c-275.34-9.77-672.84-15.89-1114.83-15.89c-502.48,0-947.45,7.92-1220.8,20.1
			c-9.41,0.42-18.62,0.84-27.62,1.27C910.31,3201.56,223.1,2464.63,855.52,2161.47c0,0,46.33-14.11,115.79-44.42
			c219.84-95.95,671.6-354.14,621.35-840.95c0,0-17.12-90.84-17.12-217.24c0-295.56,93.57-785.48,718.25-763.12
			c378.29,13.56,726.68,206.06,937.31,514.18c206.6,302.21,536.94,674.04,805.96,461.76c62.1-49.02,144.21-67.18,220.87-45.63
			C4451.57,1280.44,4671.55,1562.01,4088.14,2809.3z"/>
	</g>
	<path style="opacity:0.15;fill:#040C2B;" d="M4590.475,3640.772c0,20.002-935.938,36.219-2090.475,36.219
		c-651.433,0-1233.267-5.161-1616.659-13.256c-88.307-1.865-166.074-3.885-231.739-6.031c-43.253-1.412-81.255-2.888-113.561-4.409
		c-83.119-3.894-128.516-8.113-128.516-12.523c0-5.614,73.682-10.929,205.191-15.665c53.857-1.947,117.405-3.794,189.565-5.514
		c379.688-9.109,997.761-15.04,1695.719-15.04c613.938,0,1166.067,4.582,1548.519,11.889
		C4385.271,3622.871,4590.475,3631.409,4590.475,3640.772z"/>
</g>
<g id="Design">
	<g>
		<rect x="1441.798" y="2092.885" style="fill:#8D9CCC;" width="2116.403" height="154.102"/>
		<polygon style="fill:#CDD7FB;" points="2500,1242 1252.497,2055.745 3747.503,2055.745 		"/>
		<g style="opacity:0.1;">
			<path d="M3672.926,2066.832H1327.074L2500,1301.733l6.056,3.951L3672.926,2066.832z M1401.65,2044.659h2196.7L2500,1328.206
				L1401.65,2044.659z"/>
		</g>
		<g style="opacity:0.1;">
			<path d="M3579.706,2066.832H1420.294L2500,1362.54L3579.706,2066.832z M1494.869,2044.659h2010.261L2500,1389.013
				L1494.869,2044.659z"/>
		</g>
		<path style="fill:#CDD7FB;" d="M3752.703,2093.439H1247.297c-9.527,0-17.25-7.723-17.25-17.25v-3.748
			c0-9.527,7.723-17.25,17.25-17.25h2505.405c9.527,0,17.25,7.723,17.25,17.25v3.748
			C3769.953,2085.716,3762.229,2093.439,3752.703,2093.439z"/>
		<rect x="1412.974" y="2092.885" style="fill:#CDD7FB;" width="2174.052" height="64.504"/>
		<rect x="1412.974" y="2092.885" style="opacity:0.1;" width="2174.052" height="8.869"/>
		<rect x="1412.974" y="2184.699" style="fill:#CDD7FB;" width="2174.052" height="64.504"/>
		<g>
			<rect x="1495.634" y="2250.313" style="fill:#CDD7FB;" width="201.917" height="1080.929"/>
			<path style="fill:#CDD7FB;" d="M1704.888,2352.308h-216.589c-25.681,0-46.5-20.819-46.5-46.5v-10.104
				c0-25.681,20.819-46.5,46.5-46.5h216.589c25.681,0,46.5,20.819,46.5,46.5v10.104
				C1751.388,2331.489,1730.569,2352.308,1704.888,2352.308z"/>
			<path style="opacity:0.1;" d="M1699.836,2271.377H1493.35c-16.2,0-29.379,13.179-29.379,29.379s13.179,29.379,29.379,29.379
				h206.485c16.2,0,29.379-13.179,29.379-29.379S1716.035,2271.377,1699.836,2271.377z M1699.836,2319.049H1493.35
				c-10.087,0-18.293-8.207-18.293-18.293s8.206-18.293,18.293-18.293h206.485c10.087,0,18.293,8.207,18.293,18.293
				S1709.922,2319.049,1699.836,2319.049z"/>
			<g style="opacity:0.1;">
				<rect x="1495.634" y="3166.053" width="201.917" height="58.176"/>
				<rect x="1495.634" y="3240.519" width="201.917" height="43.05"/>
			</g>
			<path style="fill:#CDD7FB;" d="M1702.435,3200.976h-211.685c-8.284,0-15-6.716-15-15v-3.26c0-8.284,6.716-15,15-15h211.685
				c8.284,0,15,6.716,15,15v3.26C1717.435,3194.26,1710.72,3200.976,1702.435,3200.976z"/>
			<path style="fill:#CDD7FB;" d="M1721.316,3261.951H1471.87v-20.582c0-11.287,9.15-20.438,20.438-20.438h208.57
				c11.287,0,20.438,9.15,20.438,20.438V3261.951z"/>
			<rect x="1471.869" y="3271.929" style="fill:#CDD7FB;" width="249.445" height="100.887"/>
			<g style="opacity:0.1;">
				<rect x="1516.771" y="2352.308" width="9.978" height="815.963"/>
				<rect x="1546.704" y="2352.308" width="9.978" height="815.963"/>
				<rect x="1576.637" y="2352.308" width="9.978" height="815.963"/>
				<rect x="1606.571" y="2352.308" width="9.978" height="815.963"/>
				<rect x="1636.504" y="2352.308" width="9.978" height="815.963"/>
				<rect x="1666.438" y="2352.308" width="9.978" height="815.963"/>
			</g>
			<rect x="1471.869" y="3361.175" style="opacity:0.1;" width="249.445" height="11.641"/>
		</g>
		<g>
			<g>
				<rect x="2076.703" y="2250.313" style="fill:#CDD7FB;" width="201.917" height="1080.929"/>
				<path style="fill:#CDD7FB;" d="M2285.956,2352.308h-216.589c-25.681,0-46.5-20.819-46.5-46.5v-10.104
					c0-25.681,20.819-46.5,46.5-46.5h216.589c25.681,0,46.5,20.819,46.5,46.5v10.104
					C2332.456,2331.489,2311.637,2352.308,2285.956,2352.308z"/>
				<path style="opacity:0.1;" d="M2280.904,2271.377h-206.485c-16.2,0-29.379,13.179-29.379,29.379s13.179,29.379,29.379,29.379
					h206.485c16.2,0,29.379-13.179,29.379-29.379S2297.104,2271.377,2280.904,2271.377z M2280.904,2319.049h-206.485
					c-10.087,0-18.293-8.207-18.293-18.293s8.206-18.293,18.293-18.293h206.485c10.087,0,18.293,8.207,18.293,18.293
					S2290.991,2319.049,2280.904,2319.049z"/>
				<g style="opacity:0.1;">
					<rect x="2076.703" y="3166.053" width="201.917" height="58.176"/>
					<rect x="2076.703" y="3240.519" width="201.917" height="43.05"/>
				</g>
				<path style="fill:#CDD7FB;" d="M2283.504,3200.976h-211.685c-8.284,0-15-6.716-15-15v-3.26c0-8.284,6.716-15,15-15h211.685
					c8.284,0,15,6.716,15,15v3.26C2298.504,3194.26,2291.788,3200.976,2283.504,3200.976z"/>
				<path style="fill:#CDD7FB;" d="M2302.384,3261.951h-249.445v-20.582c0-11.287,9.15-20.438,20.438-20.438h208.57
					c11.287,0,20.438,9.15,20.438,20.438V3261.951z"/>
				<rect x="2052.943" y="3271.929" style="fill:#CDD7FB;" width="249.445" height="100.887"/>
				<g style="opacity:0.1;">
					<rect x="2097.839" y="2352.308" width="9.978" height="815.963"/>
					<rect x="2127.772" y="2352.308" width="9.978" height="815.963"/>
					<rect x="2157.706" y="2352.308" width="9.978" height="815.963"/>
					<rect x="2187.639" y="2352.308" width="9.978" height="815.963"/>
					<rect x="2217.573" y="2352.308" width="9.978" height="815.963"/>
					<rect x="2247.506" y="2352.308" width="9.978" height="815.963"/>
				</g>
			</g>
			<g>
				<rect x="2721.38" y="2250.313" style="fill:#CDD7FB;" width="201.917" height="1080.929"/>
				<path style="fill:#CDD7FB;" d="M2930.633,2352.308h-216.589c-25.681,0-46.5-20.819-46.5-46.5v-10.104
					c0-25.681,20.819-46.5,46.5-46.5h216.589c25.681,0,46.5,20.819,46.5,46.5v10.104
					C2977.133,2331.489,2956.314,2352.308,2930.633,2352.308z"/>
				<path style="opacity:0.1;" d="M2925.581,2271.377h-206.485c-16.2,0-29.379,13.179-29.379,29.379s13.179,29.379,29.379,29.379
					h206.485c16.2,0,29.379-13.179,29.379-29.379S2941.781,2271.377,2925.581,2271.377z M2925.581,2319.049h-206.485
					c-10.087,0-18.293-8.207-18.293-18.293s8.206-18.293,18.293-18.293h206.485c10.087,0,18.293,8.207,18.293,18.293
					S2935.668,2319.049,2925.581,2319.049z"/>
				<g style="opacity:0.1;">
					<rect x="2721.38" y="3166.053" width="201.917" height="58.176"/>
					<rect x="2721.38" y="3240.519" width="201.917" height="43.05"/>
				</g>
				<path style="fill:#CDD7FB;" d="M2928.181,3200.976h-211.685c-8.284,0-15-6.716-15-15v-3.26c0-8.284,6.716-15,15-15h211.685
					c8.284,0,15,6.716,15,15v3.26C2943.181,3194.26,2936.465,3200.976,2928.181,3200.976z"/>
				<path style="fill:#CDD7FB;" d="M2947.061,3261.951h-249.445v-20.582c0-11.287,9.15-20.438,20.438-20.438h208.57
					c11.287,0,20.438,9.15,20.438,20.438V3261.951z"/>
				<rect x="2697.62" y="3271.929" style="fill:#CDD7FB;" width="249.445" height="100.887"/>
				<g style="opacity:0.1;">
					<rect x="2742.516" y="2352.308" width="9.978" height="815.963"/>
					<rect x="2772.449" y="2352.308" width="9.978" height="815.963"/>
					<rect x="2802.383" y="2352.308" width="9.978" height="815.963"/>
					<rect x="2832.316" y="2352.308" width="9.978" height="815.963"/>
					<rect x="2862.25" y="2352.308" width="9.978" height="815.963"/>
					<rect x="2892.183" y="2352.308" width="9.978" height="815.963"/>
				</g>
			</g>
			<rect x="2052.943" y="3361.175" style="opacity:0.1;" width="249.445" height="11.641"/>
			<rect x="2697.62" y="3361.175" style="opacity:0.1;" width="249.445" height="11.641"/>
		</g>
		<g>
			<rect x="3302.448" y="2250.313" style="fill:#CDD7FB;" width="201.917" height="1080.929"/>
			<path style="fill:#CDD7FB;" d="M3511.702,2352.308h-216.589c-25.681,0-46.5-20.819-46.5-46.5v-10.104
				c0-25.681,20.819-46.5,46.5-46.5h216.589c25.681,0,46.5,20.819,46.5,46.5v10.104
				C3558.201,2331.489,3537.383,2352.308,3511.702,2352.308z"/>
			<path style="opacity:0.1;" d="M3506.649,2271.377h-206.485c-16.2,0-29.379,13.179-29.379,29.379s13.179,29.379,29.379,29.379
				h206.485c16.2,0,29.379-13.179,29.379-29.379S3522.849,2271.377,3506.649,2271.377z M3506.649,2319.049h-206.485
				c-10.086,0-18.292-8.207-18.292-18.293s8.206-18.293,18.292-18.293h206.485c10.087,0,18.293,8.207,18.293,18.293
				S3516.736,2319.049,3506.649,2319.049z"/>
			<g style="opacity:0.1;">
				<rect x="3302.448" y="3166.053" width="201.917" height="58.176"/>
				<rect x="3302.448" y="3240.519" width="201.917" height="43.05"/>
			</g>
			<path style="fill:#CDD7FB;" d="M3509.249,3200.976h-211.685c-8.284,0-15-6.716-15-15v-3.26c0-8.284,6.716-15,15-15h211.685
				c8.284,0,15,6.716,15,15v3.26C3524.249,3194.26,3517.533,3200.976,3509.249,3200.976z"/>
			<path style="fill:#CDD7FB;" d="M3528.129,3261.951h-249.445v-20.582c0-11.287,9.15-20.438,20.438-20.438h208.57
				c11.287,0,20.438,9.15,20.438,20.438V3261.951z"/>
			<rect x="3278.683" y="3271.929" style="fill:#CDD7FB;" width="249.445" height="100.887"/>
			<g style="opacity:0.1;">
				<rect x="3323.585" y="2352.308" width="9.978" height="815.963"/>
				<rect x="3353.518" y="2352.308" width="9.978" height="815.963"/>
				<rect x="3383.451" y="2352.308" width="9.978" height="815.963"/>
				<rect x="3413.385" y="2352.308" width="9.978" height="815.963"/>
				<rect x="3443.318" y="2352.308" width="9.978" height="815.963"/>
				<rect x="3473.252" y="2352.308" width="9.978" height="815.963"/>
			</g>
			<rect x="3278.683" y="3361.175" style="opacity:0.1;" width="249.445" height="11.641"/>
		</g>
		<rect x="1401.333" y="3372.815" style="fill:#CDD7FB;" width="2197.334" height="151.884"/>
		<rect x="1401.61" y="3448.758" style="opacity:0.1;" width="2197.334" height="140.798"/>
		<rect x="1324.282" y="3462.616" style="fill:#CDD7FB;" width="2351.436" height="151.884"/>
		<g>
			
				<ellipse transform="matrix(0.7071 -0.7071 0.7071 0.7071 -506.1026 2280.7024)" style="fill:#BDC9F9;" cx="2500" cy="1751.271" rx="185.143" ry="185.143"/>
			<circle style="opacity:0.08;" cx="2500" cy="1751.271" r="163.758"/>
			<circle style="fill:#CDD7FB;" cx="2500" cy="1751.271" r="154.568"/>
			<g style="display:none;">
				<path style="display:inline;fill:#FFFFFF;" d="M2354.323,1764.86c-0.824-5.101-1.361-10.271-1.483-15.46
					c-0.195-5.191-0.061-10.404,0.346-15.604c0.875-10.394,2.911-20.737,6.163-30.717c6.462-19.967,17.462-38.569,32.006-53.826
					c14.477-15.319,32.32-27.399,51.784-35.211c19.446-7.844,40.57-11.357,61.208-9.974c-20.62,1.335-40.754,6.197-59.214,14.635
					c-18.458,8.417-35.169,20.377-49.059,35.012c-13.913,14.619-24.826,32.062-31.956,51.027
					c-3.539,9.491-6.191,19.352-7.782,29.433c-0.856,5.033-1.363,10.128-1.705,15.248c-0.241,2.559-0.283,5.128-0.337,7.701
					C2354.233,1759.698,2354.269,1762.275,2354.323,1764.86z"/>
			</g>
			<g>
				<rect x="2494.384" y="1695.775" style="fill:#FFFFFF;" width="11.287" height="152.755"/>
				<polygon style="fill:#FFFFFF;" points="2501.226,1659.204 2498.83,1659.204 2497.055,1702.096 2503,1702.096 				"/>
				<path style="fill:#FFFFFF;" d="M2553.564,1849.778L2553.564,1849.778c-4.471-4.644-10.64-7.118-17.086-7.118l-11.543-0.151
					c-2.661,0-5.251-0.856-7.388-2.441l0,0c-7.471-5.541-11.876-14.294-11.876-23.595l0,0h-11.287l0,0
					c0,9.302-4.405,18.054-11.876,23.595l0,0c-2.137,1.585-4.727,2.441-7.388,2.441l-11.542,0.151
					c-6.447,0-12.615,2.474-17.086,7.118l0,0c-0.636,0.661-0.168,1.762,0.75,1.762h105.574
					C2553.732,1851.54,2554.201,1850.439,2553.564,1849.778z"/>
				<g>
					<path style="fill:#FFFFFF;" d="M2500.342,1678.618l4.616-2.987c10.036-6.494,22.452-8.153,33.841-4.523l12.995,4.142
						c1.717,0.547,3.406,1.179,5.061,1.893l0,0c10.93,4.716,22.824,6.772,34.703,5.998l0.889-0.058v4.269l-8.409,0.3
						c-7.001,0.25-14.003-0.479-20.803-2.166l-8.864-2.199l-9.392-1.897c-14.816-2.992-30.051,2.633-39.369,14.534l0,0h-5.268
						V1678.618z"/>
					<rect x="2588.158" y="1679.295" style="fill:#FFFFFF;" width="2.859" height="96.695"/>
					<path style="fill:#FFFFFF;" d="M2588.656,1680.596l2.704-0.931l31.88,92.585c0.464,1.347-0.252,2.815-1.599,3.278l-0.265,0.091
						L2588.656,1680.596z"/>
					<path style="fill:#FFFFFF;" d="M2556.315,1775.109l0.265,0.091c0.673,0.232,1.407-0.126,1.639-0.8l31.88-92.585
						c0.232-0.673-0.126-1.407-0.8-1.639l-0.265-0.091c-0.673-0.232-1.407,0.126-1.639,0.799l-31.88,92.585
						C2555.284,1774.143,2555.642,1774.877,2556.315,1775.109z"/>
					<path style="fill:#FFFFFF;" d="M2594.253,1678.392c0,2.577-2.089,4.665-4.666,4.665s-4.665-2.089-4.665-4.665
						s2.089-4.665,4.665-4.665S2594.253,1675.816,2594.253,1678.392z"/>
					<path style="fill:#FFFFFF;" d="M2623.906,1774.184c0.395,16.469-14.967,30.1-34.318,30.1s-34.713-13.63-34.318-30.1H2623.906z"
						/>
				</g>
				<g>
					<path style="fill:#FFFFFF;" d="M2499.657,1678.618l-4.616-2.987c-10.036-6.494-22.452-8.153-33.841-4.523l-12.995,4.142
						c-1.717,0.547-3.406,1.179-5.061,1.893l0,0c-10.93,4.716-22.824,6.772-34.703,5.998l-0.889-0.058v4.269l8.409,0.3
						c7.001,0.25,14.003-0.479,20.803-2.166l8.864-2.199l9.392-1.897c14.816-2.992,30.051,2.633,39.369,14.534l0,0h5.267V1678.618z"
						/>
					
						<rect x="2408.983" y="1679.295" transform="matrix(-1 -1.224647e-16 1.224647e-16 -1 4820.8247 3455.2856)" style="fill:#FFFFFF;" width="2.859" height="96.695"/>
					<path style="fill:#FFFFFF;" d="M2411.344,1680.596l-2.704-0.931l-31.88,92.585c-0.464,1.347,0.252,2.815,1.599,3.278
						l0.265,0.091L2411.344,1680.596z"/>
					<path style="fill:#FFFFFF;" d="M2443.685,1775.109l-0.265,0.091c-0.674,0.232-1.407-0.126-1.639-0.8l-31.88-92.585
						c-0.232-0.673,0.126-1.407,0.8-1.639l0.265-0.091c0.673-0.232,1.407,0.126,1.639,0.799l31.88,92.585
						C2444.716,1774.143,2444.358,1774.877,2443.685,1775.109z"/>
					<path style="fill:#FFFFFF;" d="M2405.747,1678.392c0,2.577,2.089,4.665,4.666,4.665s4.665-2.089,4.665-4.665
						s-2.089-4.665-4.665-4.665S2405.747,1675.816,2405.747,1678.392z"/>
					<path style="fill:#FFFFFF;" d="M2376.094,1774.184c-0.394,16.469,14.967,30.1,34.318,30.1c19.351,0,34.713-13.63,34.318-30.1
						H2376.094z"/>
				</g>
				<path style="fill:#FFFFFF;" d="M2503.939,1665.224h-7.672c-0.375,0-0.679-0.304-0.679-0.679v-0.148
					c0-0.375,0.304-0.679,0.679-0.679h7.672c0.375,0,0.679,0.304,0.679,0.679v0.148
					C2504.618,1664.92,2504.314,1665.224,2503.939,1665.224z"/>
				<path style="fill:#FFFFFF;" d="M2506.8,1657.699c0,3.699-2.999,6.697-6.697,6.697s-6.697-2.998-6.697-6.697
					s2.998-6.697,6.697-6.697S2506.8,1654,2506.8,1657.699z"/>
				<path style="fill:#FFFFFF;" d="M2495.061,1656.269c0.028-0.576,0.219-1.144,0.507-1.655c0.288-0.511,0.68-0.975,1.156-1.331
					l0.087-0.07l0.094-0.06l0.188-0.12l0.189-0.117c0.064-0.036,0.133-0.065,0.2-0.096c0.135-0.06,0.269-0.123,0.404-0.179
					c0.14-0.046,0.281-0.088,0.422-0.127l0.21-0.061c0.072-0.012,0.144-0.025,0.216-0.035l0.431-0.062
					c0.289-0.019,0.579-0.013,0.864,0c-0.277,0.087-0.554,0.14-0.823,0.218l-0.398,0.131c-0.066,0.022-0.132,0.041-0.198,0.061
					l-0.19,0.082c-0.126,0.055-0.252,0.109-0.38,0.158c-0.121,0.063-0.24,0.13-0.36,0.194c-0.059,0.034-0.122,0.061-0.179,0.097
					l-0.168,0.114l-0.17,0.111l-0.085,0.055l-0.078,0.064l-0.317,0.253c-0.097,0.094-0.191,0.191-0.291,0.283
					c-0.097,0.095-0.181,0.202-0.273,0.302c-0.048,0.049-0.086,0.106-0.127,0.16l-0.126,0.162
					C2495.541,1655.247,2495.272,1655.736,2495.061,1656.269z"/>
				<path style="fill:#FFFFFF;" d="M2406.605,1678.002c-0.03-0.454,0.069-0.915,0.249-1.341c0.18-0.426,0.445-0.824,0.786-1.145
					c0.04-0.043,0.084-0.082,0.13-0.117l0.137-0.11l0.137-0.109c0.047-0.034,0.097-0.064,0.147-0.094
					c0.1-0.059,0.199-0.12,0.3-0.177c0.105-0.048,0.212-0.094,0.319-0.137l0.159-0.066l0.166-0.047l0.332-0.087
					c0.225-0.041,0.452-0.062,0.676-0.077c-0.209,0.093-0.421,0.159-0.625,0.244l-0.3,0.138l-0.15,0.066l-0.142,0.081
					c-0.094,0.055-0.188,0.108-0.283,0.158l-0.264,0.184c-0.043,0.032-0.09,0.058-0.132,0.091l-0.122,0.103
					c-0.079,0.072-0.169,0.131-0.239,0.212l-0.226,0.226c-0.067,0.082-0.133,0.167-0.202,0.248
					c-0.067,0.083-0.124,0.174-0.187,0.261c-0.062,0.088-0.11,0.184-0.169,0.275
					C2406.889,1677.159,2406.722,1677.566,2406.605,1678.002z"/>
				<path style="fill:#FFFFFF;" d="M2585.999,1678.002c-0.03-0.454,0.069-0.915,0.249-1.341c0.18-0.426,0.446-0.824,0.786-1.145
					c0.04-0.043,0.083-0.082,0.13-0.117l0.136-0.11l0.137-0.109c0.047-0.034,0.097-0.064,0.147-0.094
					c0.1-0.059,0.199-0.12,0.301-0.177c0.105-0.048,0.212-0.094,0.318-0.137l0.159-0.066l0.166-0.047l0.332-0.087
					c0.224-0.041,0.452-0.062,0.676-0.077c-0.209,0.093-0.421,0.159-0.625,0.244l-0.3,0.138l-0.15,0.066l-0.142,0.081
					c-0.094,0.055-0.188,0.108-0.283,0.158l-0.265,0.184c-0.043,0.032-0.09,0.058-0.132,0.091l-0.123,0.103
					c-0.079,0.072-0.169,0.131-0.239,0.212l-0.226,0.226c-0.067,0.082-0.133,0.167-0.202,0.248
					c-0.067,0.083-0.124,0.174-0.187,0.261c-0.062,0.088-0.111,0.184-0.169,0.275
					C2586.283,1677.159,2586.116,1677.566,2585.999,1678.002z"/>
				<g>
					<path style="fill:#FFFFFF;" d="M2508.608,1674.486c1.488-0.848,3.044-1.584,4.648-2.197c1.603-0.617,3.252-1.113,4.927-1.495
						c1.676-0.377,3.378-0.641,5.091-0.775c0.429-0.026,0.857-0.057,1.285-0.076c0.429-0.009,0.858-0.028,1.287-0.029
						c0.429,0.009,0.858,0.001,1.286,0.024c0.428,0.018,0.856,0.04,1.283,0.065c-1.713,0.001-3.422,0.074-5.12,0.25
						c-1.697,0.181-3.383,0.455-5.046,0.834c-1.664,0.374-3.303,0.853-4.913,1.421
						C2511.729,1673.082,2510.15,1673.741,2508.608,1674.486z"/>
					<path style="fill:#FFFFFF;" d="M2491.392,1674.486c-1.542-0.745-3.121-1.405-4.729-1.977c-1.609-0.568-3.249-1.047-4.913-1.421
						c-1.663-0.379-3.349-0.653-5.046-0.834c-1.698-0.177-3.406-0.25-5.12-0.25c0.427-0.025,0.855-0.047,1.283-0.065
						c0.428-0.023,0.857-0.015,1.286-0.024c0.429,0,0.857,0.02,1.287,0.029c0.428,0.019,0.856,0.051,1.285,0.076
						c1.712,0.134,3.414,0.398,5.091,0.775c1.675,0.382,3.325,0.878,4.927,1.495
						C2488.348,1672.903,2489.904,1673.638,2491.392,1674.486z"/>
				</g>
				<g style="opacity:0.1;">
					<path d="M2495.889,1695.399v121.076c0,9.733-4.667,19.006-12.484,24.804c-2.378,1.764-5.316,2.736-8.274,2.738l-11.554,0.151
						c-5.299,0-12.454,4.086-14.702,7.374h-1.634c-0.626,0-1.043-0.512-1.043-1.047c0-0.25,0.09-0.504,0.293-0.715
						c4.471-4.643,10.64-7.117,17.086-7.117l11.543-0.151c1.33,0,2.643-0.214,3.89-0.626c1.248-0.412,2.429-1.023,3.498-1.815
						c3.735-2.771,6.705-6.344,8.74-10.387c2.035-4.042,3.136-8.557,3.136-13.208v-120.556
						c-9.319-11.895-24.551-17.518-39.363-14.526l-9.393,1.896l-8.865,2.199c-6.799,1.687-13.801,2.417-20.802,2.166l-1.04-0.038
						l-0.519-1.506l1.612,0.041c0.873,0.031,1.758,0.047,2.631,0.047c5.979,0,11.954-0.73,17.757-2.169l8.896-2.208l9.424-1.902
						c2.7-0.546,5.462-0.822,8.21-0.822c12.827,0,24.722,5.793,32.635,15.894L2495.889,1695.399z"/>
					<path d="M2585.595,1686.108l-0.518,1.506l-1.04,0.038c-7.001,0.251-14.002-0.479-20.802-2.166l-8.865-2.199l-9.393-1.896
						c-14.783-2.986-29.984,2.608-39.307,14.457v120.626c0,4.65,1.102,9.165,3.136,13.208c2.035,4.044,5.004,7.617,8.74,10.387
						c2.137,1.585,4.727,2.441,7.388,2.441l11.543,0.151c6.446,0,12.615,2.474,17.086,7.117c0.637,0.661,0.168,1.762-0.75,1.762
						h-1.565c-1.98-3.007-9.53-7.374-14.771-7.374l-11.554-0.151c-2.959-0.001-5.897-0.974-8.274-2.738
						c-7.817-5.797-12.484-15.071-12.484-24.804v-121.148l0.322-0.409c7.913-10.055,19.788-15.822,32.58-15.822
						c2.747,0,5.51,0.275,8.208,0.822l9.424,1.902l8.896,2.208c5.803,1.439,11.778,2.169,17.757,2.169
						c0.873,0,1.758-0.015,2.631-0.047L2585.595,1686.108z"/>
				</g>
			</g>
		</g>
	</g>
	<g>
		<g>
			<rect x="3761.352" y="2877.983" style="fill:#829CF8;" width="54.428" height="736.589"/>
			<polygon style="fill:#829CF8;" points="3794.342,2701.637 3782.789,2701.637 3774.233,2908.462 3802.898,2908.462 			"/>
			<path style="fill:#829CF8;" d="M4046.72,3620.591L4046.72,3620.591c-21.56-22.394-51.306-34.321-82.391-34.321l-55.658-0.726
				c-12.83,0-25.32-4.126-35.624-11.77h0c-36.025-26.721-57.267-68.924-57.267-113.777v0h-54.428v0
				c0,44.853-21.242,87.056-57.267,113.777l0,0c-10.305,7.643-22.794,11.77-35.624,11.77l-55.659,0.726
				c-31.085,0-60.831,11.927-82.391,34.321h0c-3.068,3.187-0.81,8.496,3.614,8.496h509.081
				C4047.529,3629.086,4049.788,3623.777,4046.72,3620.591z"/>
			<g>
				<path style="fill:#829CF8;" d="M3790.082,2795.253l22.259-14.403c48.392-31.313,108.262-39.315,163.179-21.81l62.662,19.973
					c8.28,2.639,16.424,5.686,24.402,9.128l0,0c52.707,22.743,110.057,32.656,167.339,28.925l4.288-0.279v20.586l-40.55,1.447
					c-33.76,1.205-67.524-2.311-100.312-10.445l-42.741-10.604l-45.289-9.145c-71.442-14.427-144.908,12.695-189.839,70.082l0,0
					h-25.4V2795.253z"/>
				<rect x="4213.53" y="2798.518" style="fill:#829CF8;" width="13.788" height="466.265"/>
				<path style="fill:#829CF8;" d="M4215.935,2804.792l13.037-4.489l156.357,454.094c0.782,2.272-0.425,4.747-2.697,5.529
					l-8.924,3.073L4215.935,2804.792z"/>
				<path style="fill:#829CF8;" d="M4058.218,3259.927l4.808,1.655c2.272,0.782,4.749-0.425,5.531-2.698l154.94-449.978
					c0.783-2.272-0.425-4.749-2.698-5.531l-4.808-1.656c-2.272-0.782-4.749,0.426-5.532,2.698l-154.94,449.978
					C4054.737,3256.667,4055.945,3259.144,4058.218,3259.927z"/>
				<circle style="fill:#829CF8;" cx="4220.424" cy="2794.164" r="22.497"/>
				<path style="fill:#829CF8;" d="M4385.907,3256.074c1.902,79.415-72.172,145.141-165.483,145.141
					s-167.384-65.726-165.483-145.141H4385.907z"/>
			</g>
			<g>
				<path style="fill:#829CF8;" d="M3786.781,2795.253l-22.259-14.403c-48.392-31.313-108.262-39.315-163.18-21.81l-62.662,19.973
					c-8.28,2.639-16.424,5.686-24.402,9.128h0c-52.706,22.743-110.057,32.656-167.339,28.925l-4.288-0.279v20.586l40.55,1.447
					c33.761,1.205,67.524-2.311,100.312-10.445l42.741-10.604l45.289-9.145c71.441-14.427,144.908,12.695,189.839,70.082l0,0h25.4
					V2795.253z"/>
				
					<rect x="3349.544" y="2798.518" transform="matrix(-1 -1.224647e-16 1.224647e-16 -1 6712.8765 6063.3013)" style="fill:#829CF8;" width="13.788" height="466.265"/>
				<path style="fill:#829CF8;" d="M3360.928,2804.792l-13.037-4.489l-156.357,454.094c-0.782,2.272,0.425,4.747,2.697,5.529
					l8.924,3.073L3360.928,2804.792z"/>
				<path style="fill:#829CF8;" d="M3518.645,3259.927l-4.808,1.655c-2.272,0.782-4.749-0.425-5.531-2.698l-154.94-449.978
					c-0.782-2.272,0.426-4.749,2.698-5.531l4.808-1.656c2.273-0.782,4.749,0.426,5.531,2.698l154.94,449.978
					C3522.125,3256.667,3520.917,3259.144,3518.645,3259.927z"/>
				<circle style="fill:#829CF8;" cx="3356.438" cy="2794.164" r="22.497"/>
				<path style="fill:#829CF8;" d="M3190.955,3256.074c-1.902,79.415,72.172,145.141,165.483,145.141
					s167.385-65.726,165.483-145.141H3190.955z"/>
			</g>
			<path style="fill:#829CF8;" d="M3807.071,2730.665h-36.285c-2.004,0-3.629-1.625-3.629-3.628l0,0
				c0-2.004,1.625-3.629,3.629-3.629h36.285c2.004,0,3.628,1.625,3.628,3.629l0,0
				C3810.699,2729.041,3809.075,2730.665,3807.071,2730.665z"/>
			<g>
				<g>
					<circle style="fill:#829CF8;" cx="3788.928" cy="2694.38" r="32.294"/>
				</g>
			</g>
			<path style="fill:#FFFFFF;" d="M3764.617,2687.486c0.135-2.778,1.055-5.519,2.445-7.979c1.391-2.466,3.28-4.7,5.575-6.417
				l0.418-0.336l0.452-0.289l0.905-0.576l0.911-0.563c0.311-0.175,0.639-0.315,0.963-0.464c0.651-0.29,1.296-0.591,1.949-0.865
				c0.674-0.221,1.354-0.423,2.032-0.615l1.015-0.292c0.347-0.059,0.693-0.122,1.042-0.169l2.077-0.3
				c1.393-0.093,2.792-0.064,4.165-0.002c-1.337,0.421-2.671,0.674-3.968,1.053l-1.918,0.631c-0.317,0.107-0.637,0.199-0.956,0.295
				l-0.918,0.395c-0.609,0.267-1.217,0.524-1.832,0.762c-0.586,0.302-1.159,0.626-1.736,0.935c-0.284,0.164-0.587,0.293-0.864,0.466
				l-0.812,0.549l-0.819,0.537l-0.41,0.267l-0.377,0.311l-1.529,1.22c-0.467,0.455-0.922,0.922-1.403,1.367
				c-0.468,0.457-0.874,0.973-1.317,1.458c-0.229,0.238-0.414,0.51-0.613,0.771l-0.606,0.783
				C3766.93,2682.556,3765.633,2684.916,3764.617,2687.486z"/>
			<path style="fill:#FFFFFF;" d="M3338.08,2792.281c-0.142-2.187,0.333-4.414,1.202-6.464c0.869-2.054,2.148-3.972,3.791-5.521
				c0.191-0.208,0.403-0.393,0.629-0.563l0.659-0.528l0.659-0.526c0.227-0.165,0.47-0.307,0.71-0.452
				c0.484-0.285,0.962-0.578,1.448-0.851c0.508-0.233,1.022-0.451,1.536-0.663l0.768-0.319l0.801-0.226l1.599-0.42
				c1.082-0.197,2.18-0.299,3.26-0.374c-1.009,0.449-2.031,0.766-3.012,1.178l-1.445,0.665l-0.722,0.317l-0.683,0.391
				c-0.453,0.263-0.906,0.519-1.366,0.76l-1.276,0.887c-0.207,0.154-0.435,0.28-0.636,0.439l-0.59,0.498
				c-0.38,0.346-0.817,0.631-1.152,1.023l-1.088,1.091c-0.325,0.398-0.64,0.804-0.976,1.195c-0.325,0.4-0.597,0.84-0.901,1.259
				c-0.3,0.423-0.533,0.887-0.816,1.326C3339.451,2788.217,3338.646,2790.179,3338.08,2792.281z"/>
			<path style="fill:#FFFFFF;" d="M4203.119,2792.281c-0.142-2.187,0.333-4.414,1.202-6.464c0.869-2.054,2.148-3.972,3.792-5.521
				c0.191-0.208,0.403-0.393,0.628-0.563l0.66-0.528l0.659-0.526c0.227-0.165,0.47-0.307,0.71-0.452
				c0.484-0.285,0.962-0.578,1.448-0.851c0.508-0.233,1.022-0.451,1.536-0.663l0.769-0.319l0.801-0.226l1.599-0.42
				c1.082-0.197,2.18-0.299,3.26-0.374c-1.009,0.449-2.031,0.766-3.012,1.178l-1.445,0.665l-0.722,0.317l-0.684,0.391
				c-0.453,0.263-0.906,0.519-1.366,0.76l-1.276,0.887c-0.207,0.154-0.435,0.28-0.637,0.439l-0.59,0.498
				c-0.38,0.346-0.816,0.631-1.152,1.023l-1.088,1.091c-0.325,0.398-0.64,0.804-0.976,1.195c-0.326,0.4-0.597,0.84-0.901,1.259
				c-0.299,0.423-0.533,0.887-0.816,1.326C4204.489,2788.217,4203.684,2790.179,4203.119,2792.281z"/>
			<g>
				<path style="fill:#FFFFFF;" d="M3829.938,2775.329c7.176-4.089,14.677-7.636,22.412-10.591
					c7.728-2.975,15.682-5.365,23.76-7.208c8.083-1.818,16.292-3.089,24.548-3.736c2.067-0.123,4.131-0.276,6.198-0.369
					c2.069-0.043,4.136-0.137,6.204-0.137c2.069,0.042,4.136,0.003,6.201,0.113c2.065,0.089,4.128,0.195,6.188,0.314
					c-8.26,0.004-16.499,0.355-24.687,1.207c-8.184,0.873-16.314,2.195-24.331,4.023c-8.023,1.802-15.929,4.112-23.689,6.852
					C3844.987,2768.555,3837.375,2771.736,3829.938,2775.329z"/>
				<path style="fill:#FFFFFF;" d="M3746.925,2775.329c-7.437-3.593-15.049-6.774-22.803-9.533c-7.76-2.74-15.666-5.05-23.689-6.852
					c-8.017-1.829-16.147-3.15-24.331-4.023c-8.188-0.852-16.427-1.203-24.687-1.207c2.06-0.119,4.123-0.225,6.188-0.314
					c2.065-0.11,4.132-0.071,6.2-0.113c2.068,0,4.135,0.094,6.204,0.137c2.067,0.093,4.131,0.245,6.198,0.369
					c8.255,0.647,16.464,1.918,24.548,3.736c8.078,1.844,16.032,4.234,23.76,7.208
					C3732.247,2767.693,3739.749,2771.24,3746.925,2775.329z"/>
			</g>
			<g style="opacity:0.1;">
				<path d="M3768.609,2876.169v583.828c0,46.931-22.504,91.649-60.197,119.603c-11.466,8.505-25.632,13.193-39.899,13.2
					l-55.712,0.726c-25.552,0-60.052,19.703-70.894,35.56h-7.881c-3.019,0-5.029-2.468-5.029-5.051c0-1.205,0.436-2.431,1.415-3.447
					c21.561-22.388,51.307-34.319,82.389-34.319l55.661-0.726c6.415,0,12.743-1.031,18.76-3.019s11.713-4.935,16.865-8.752
					c18.012-13.36,32.33-30.588,42.142-50.088c9.812-19.492,15.124-41.263,15.124-63.688v-581.325
					c-44.936-57.36-118.384-84.472-189.808-70.045l-45.291,9.144l-42.744,10.603c-32.787,8.135-66.547,11.655-100.307,10.443
					l-5.015-0.181l-2.504-7.264l7.772,0.196c4.209,0.152,8.476,0.225,12.685,0.225c28.832,0,57.643-3.52,85.626-10.457
					l42.896-10.646l45.444-9.173c13.019-2.634,26.336-3.962,39.587-3.962c61.852,0,119.211,27.932,157.369,76.642L3768.609,2876.169
					z"/>
				<path d="M4201.171,2831.371l-2.496,7.264l-5.015,0.181c-33.76,1.212-67.52-2.308-100.307-10.443l-42.744-10.603l-45.291-9.144
					c-71.286-14.398-144.582,12.576-189.539,69.711v581.659c0,22.424,5.312,44.195,15.124,63.688
					c9.812,19.5,24.13,36.728,42.142,50.088c10.305,7.642,22.794,11.771,35.625,11.771l55.662,0.726
					c31.082,0,60.828,11.931,82.389,34.319c3.07,3.186,0.813,8.498-3.614,8.498h-7.547c-9.55-14.5-45.951-35.56-71.228-35.56
					l-55.712-0.726c-14.267-0.007-28.433-4.695-39.899-13.2c-37.693-27.954-60.197-72.672-60.197-119.603V2875.82l1.553-1.974
					c38.157-48.484,95.416-76.293,157.1-76.293c13.244,0,26.568,1.328,39.58,3.962l45.444,9.173l42.896,10.646
					c27.983,6.938,56.794,10.457,85.626,10.457c4.209,0,8.476-0.073,12.686-0.225L4201.171,2831.371z"/>
			</g>
		</g>
		<g>
			<g>
				<path style="fill:#829CF8;" d="M1465.308,3519.904v57.24H682.634v-57.24c0-0.943,0.012-1.878,0.043-2.814
					c1.331-45.358,34.849-81.67,76.001-81.67h630.585c41.313,0,74.93,36.601,76.02,82.207
					C1465.302,3518.383,1465.308,3519.14,1465.308,3519.904z"/>
				<path style="opacity:0.1;" d="M1465.308,3519.904v57.24H682.634v-57.24c0-0.943,0.012-1.878,0.043-2.814
					c2.743-0.323,5.529-0.488,8.347-0.488h762.178c4.105,0,8.142,0.351,12.081,1.025
					C1465.302,3518.383,1465.308,3519.14,1465.308,3519.904z"/>
				<path style="fill:#829CF8;" d="M1520.587,3629.086H627.355c-7.344,0-13.298-5.954-13.298-13.298v-20.978
					c0-38.634,31.319-69.953,69.952-69.953h779.923c38.634,0,69.952,31.319,69.952,69.953v20.978
					C1533.885,3623.132,1527.931,3629.086,1520.587,3629.086z"/>
			</g>
			<g>
				<path style="fill:#829CF8;" d="M1229.702,3095.694l638.025,397.243c34.422,21.431,44.953,66.712,23.521,101.133
					s-66.712,44.953-101.133,23.521l-638.025-397.243L1229.702,3095.694z"/>
				
					<rect x="1175.588" y="3125.748" transform="matrix(0.5285 -0.8489 0.8489 0.5285 -2122.7268 2566.2251)" style="opacity:0.1;" width="146.841" height="136.91"/>
				<path style="fill:#ACBCF8;" d="M1211.675,3063.58l126.738,78.909c5.501,3.425,7.184,10.661,3.759,16.162l-83.955,134.843
					c-3.425,5.501-10.661,7.184-16.162,3.759l-126.738-78.909L1211.675,3063.58z"/>
				
					<rect x="1109.828" y="3120.143" transform="matrix(0.5285 -0.8489 0.8489 0.5285 -2119.9854 2511.3586)" style="opacity:0.1;" width="182.31" height="88.317"/>
				
					<rect x="930.134" y="3004.251" transform="matrix(0.5285 -0.8489 0.8489 0.5285 -2116.0752 2433.1025)" style="fill:#6E91F4;" width="404.699" height="234.804"/>
				
					<rect x="957.622" y="3004.251" transform="matrix(0.5285 -0.8489 0.8489 0.5285 -2116.0752 2433.1025)" style="fill:#829CF8;" width="349.722" height="234.804"/>
				
					<rect x="944.653" y="3011.453" transform="matrix(0.5285 -0.8489 0.8489 0.5285 -2115.335 2418.2866)" style="opacity:0.1;fill:#FFFFFF;" width="349.722" height="204.25"/>
				
					<rect x="918.187" y="3055.84" transform="matrix(0.5285 -0.8489 0.8489 0.5285 -2113.8242 2388.0505)" style="opacity:0.1;fill:#FFFFFF;" width="349.723" height="82.52"/>
				<g>
					<polygon style="fill:#ACBCF8;" points="1339.097,3011.928 1374.009,3014.237 1122.292,2857.514 1139.77,2887.825 					"/>
					<path style="fill:#829CF8;" d="M1391.269,2986.515l-17.26,27.722l-251.717-156.723l17.26-27.722
						c5.17-8.303,16.092-10.843,24.395-5.674l221.649,138.002C1393.899,2967.29,1396.439,2978.212,1391.269,2986.515z"/>
				</g>
				<g>
					<polygon style="fill:#ACBCF8;" points="1125.103,3355.631 1142.581,3385.942 890.863,3229.219 925.776,3231.528 					"/>
					<path style="fill:#829CF8;" d="M1125.321,3413.663l17.26-27.722l-251.717-156.723l-17.26,27.722
						c-5.17,8.303-2.629,19.225,5.674,24.395l221.649,138.002C1109.229,3424.507,1120.151,3421.967,1125.321,3413.663z"/>
				</g>
				<g style="opacity:0.1;">
					
						<rect x="1210.212" y="2780.715" transform="matrix(0.5285 -0.8489 0.8489 0.5285 -1877.9241 2415.1462)" style="fill:#FFFFFF;" width="50.366" height="235.107"/>
				</g>
				<g style="opacity:0.1;">
					
						<rect x="952.163" y="3195.175" transform="matrix(-0.5285 0.8489 -0.8489 -0.5285 4306.1128 4233.9702)" style="fill:#FFFFFF;" width="50.366" height="235.107"/>
				</g>
				<g style="opacity:0.1;">
					
						<rect x="1196.843" y="2848.685" transform="matrix(0.5285 -0.8489 0.8489 0.5285 -1877.1615 2399.877)" style="fill:#FFFFFF;" width="50.366" height="82.52"/>
				</g>
				<g style="opacity:0.1;">
					
						<rect x="938.794" y="3263.146" transform="matrix(-0.5285 0.8489 -0.8489 -0.5285 4278.6128 4232.5962)" style="fill:#FFFFFF;" width="50.366" height="82.52"/>
				</g>
				<path style="fill:#ACBCF8;" d="M1335.222,3039.794l-1.887,3.03c-2.067,3.321-6.435,4.336-9.756,2.269l-206.723-128.708
					c-3.32-2.067-4.336-6.435-2.269-9.756l1.887-3.03c2.068-3.321,6.435-4.336,9.756-2.269l206.723,128.708
					C1336.273,3032.106,1337.289,3036.474,1335.222,3039.794z"/>
				<path style="fill:#ACBCF8;" d="M1150.379,3336.676l-1.887,3.03c-2.067,3.321-6.435,4.336-9.756,2.269l-206.722-128.708
					c-3.321-2.067-4.336-6.435-2.269-9.756l1.887-3.03c2.067-3.321,6.435-4.336,9.756-2.269l206.723,128.708
					C1151.43,3328.988,1152.446,3333.356,1150.379,3336.676z"/>
			</g>
		</g>
	</g>
	<g>
		<g>
			<path style="fill:#DB965F;" d="M2104.183,3528.768c0,0,9.066,73.824,0,90.661l66.701,12.304l-20.075-121.098L2104.183,3528.768z"
				/>
			<path style="fill:#040C2B;" d="M2106.465,3666.131c0,0-54.697,13.493-96.586,2.657c-6.243-1.615-10.154-7.843-8.785-14.144
				c1.658-7.632,8.591-16.808,30.987-20.443c0,0,60.21-26.042,76.963-46.762c0,0,34.683,17.332,55.372,3.889
				c0,0,15.736,11.309,18.302,33.59c1.867,16.211-9.852,30.849-26.054,32.796C2139.662,3659.757,2117.11,3662.878,2106.465,3666.131
				z"/>
			<path style="fill:#DB965F;" d="M2192.372,3520.348c0,0,9.066,73.824,0,90.661l66.701,12.304l-20.075-121.098L2192.372,3520.348z"
				/>
			<path style="fill:#040C2B;" d="M2193.491,3665.972c0,0-54.697,13.493-96.586,2.657c-6.243-1.615-10.154-7.843-8.785-14.144
				c1.658-7.632,8.591-16.808,30.987-20.443c0,0,60.21-26.042,76.963-46.762c0,0,36.485,13.387,57.175-0.055
				c0,0,13.933,15.253,16.5,37.535c1.867,16.211-9.852,30.849-26.054,32.795C2226.688,3659.598,2204.136,3662.719,2193.491,3665.972
				z"/>
			<path style="fill:#040C2B;" d="M2177.364,2958.248l-2.068,13.358l-1.304,8.451l-3.267,21.078l-38.046,245.929l8.345,92.678
				l17.554,194.854l-13.352,2.035l-54.645,8.326l-51.088-277.349c-5.21-28.304-7.608-57.049-7.153-85.827l2.859-180.646
				l0.336-21.078l0.652-41.234l80.578,11.086L2177.364,2958.248z"/>
			<polygon style="opacity:0.15;" points="2132.676,3247.067 2158.58,3534.594 2145.228,3536.631 2097.44,3253.608 
				2088.021,2971.603 2175.295,2971.603 			"/>
			<path style="fill:#040C2B;" d="M2254.424,3544.957l-71.619,4.196l-41.781-209.411v-0.02l-6.956-34.858
				c-8.701-44.284-13.411-89.266-14.07-134.393l-2.483-169.336l-0.31-21.078l-0.441-30.148l-0.277-18.858l118.828,16.513
				c0,0,4.439,10.124,8.247,32.493c1.034,6.099,2.029,13.108,2.865,21.078c2.74,25.933,3.893,61.976-0.099,109.619l-8.181,146.387
				L2254.424,3544.957z"/>
			<g>
				<path style="fill:#0A0B21;" d="M2246.428,3001.135h-211.229l0.336-21.078h208.028
					C2244.597,2986.156,2245.591,2993.165,2246.428,3001.135z"/>
				<g>
					<rect x="2052.252" y="2980.057" style="fill:#333333;" width="6.587" height="21.078"/>
					<rect x="2144.469" y="2980.057" style="fill:#333333;" width="6.587" height="21.078"/>
					<rect x="2182.014" y="2980.057" style="fill:#333333;" width="6.587" height="21.078"/>
					<rect x="2220.877" y="2980.057" style="fill:#333333;" width="6.587" height="21.078"/>
					<rect x="2081.893" y="2978.74" style="fill:#EFA534;" width="38.863" height="24.469"/>
				</g>
			</g>
			<path style="fill:#C9885B;" d="M2197.82,2679.884l-0.294,52.103l-80.068,14.13l-46.51-22.961l20.117-25.233l11.121-13.947
				c2.226-2.797,3.173-6.394,2.602-9.92l-9.702-59.815l78.008-33.853l-6.576,47.535l-1.077,7.807
				C2163.084,2661.044,2197.82,2679.884,2197.82,2679.884z"/>
			<path style="opacity:0.15;" d="M2173.093,2580.387l-7.359,53.869c-27.347,47.541-61.953,58.674-74.669,63.666l11.121-13.947
				c2.226-2.797,3.173-6.394,2.602-9.92l-9.702-59.815L2173.093,2580.387z"/>
			<path style="fill:#DB965F;" d="M2184.28,2585.685l-9.129,22.666c-2.266,3.313-4.525,6.449-6.778,9.419
				c-6.04,7.99-11.995,14.781-17.712,20.558c-1.857,1.871-3.689,3.636-5.487,5.296c-25.478,23.542-45.088,26.842-45.088,26.842
				c-11.263,1.811-19.78-9.511-26.104-25.195c-9.248-22.896-13.826-55.1-15.506-69.367c-0.54-4.565-0.777-7.292-0.777-7.292
				l54.493-35.806L2184.28,2585.685z"/>
			<path d="M2183.641,2544.148c8.782,16.475,7.002,36.61,0.356,54.052c-7.503,19.701-18.667,39.614-18.667,39.614l1.581-17.686
				l1.462-2.358l5.309-8.537c10.598-25.9-8.24-22.955-8.24-22.955c-15.308,4.117-14.722,22.955-14.722,22.955
				c-0.171,15.4-2.299,26.341-5.546,34.39c-25.478,23.542-45.088,26.842-45.088,26.842c-11.263,1.811-19.78-9.511-26.104-25.195
				c28.534,19.649,54.026-11.382,64.618-27.421c5.856-8.853,7.134-20.031,3.162-29.872c-0.593-1.475-1.047-2.292-1.047-2.292
				c-49.599-45.634-72.654-17.969-82.238-9.781c0,0-23.351-49.026,48.447-64.835
				C2106.924,2511.069,2160.897,2501.478,2183.641,2544.148z"/>
			<g>
				<path style="fill:#DB965F;" d="M2026.792,2896.245l2.967-7.683l32.192-85.29l-25.769-3.727l-11.669-1.69l-23.856-3.45
					l-11.445,45.262l-2.856,11.291l-123.425-36.532c0,0-6.263-18.476-25.944-37.356c-4.407,1.06-6.37,6.218-3.785,9.941
					l7.599,10.941c0,0-31.065-23.407-51.693-16.021c0,0-28.525,12.314-16.465,37.267c0,0,3.771,25.736,63.107,33.258l172.041,52.559
					C2015.434,2907.348,2023.61,2903.574,2026.792,2896.245L2026.792,2896.245"/>
				<path style="fill:#FFFFFF;" d="M2043.851,2857.094l-15.064,37.248c-4.228,10.453-15.793,15.886-26.538,12.466l-156.826-49.926
					l19.761-42.815l118.564,33.593c18.616-97.842,36.467-128.319,44.727-131.998c2.979-1.325,4.681-0.548,4.681-0.548l40.174,79.192
					L2043.851,2857.094z"/>
			</g>
			<path style="opacity:0.15;" d="M2063.717,2806.197l-32.192,83.543l-6.676-36.382l1.431-52.466l2.196-80.509
				c2.979-1.297,4.681-0.536,4.681-0.536l4.792,82.701L2063.717,2806.197z"/>
			<line style="fill:#9AAAF7;" x1="2117.66" y1="3011.233" x2="2117.66" y2="3011.226"/>
			<path style="fill:#FFFFFF;" d="M2267.868,2822.933l-18.667,157.783h-213.416l-3.498-107.288c0.059-0.685,0.086-1.37,0.059-2.048
				l-5.098-150.768c-0.099-2.905,1.594-5.573,4.262-6.725l50.739-21.902l0.105-0.046l2.049-0.883l18.509-7.99
				c-5.645,14.307-2.378,23.436,3.636,29.233c1.587,1.528,3.359,2.826,5.21,3.926c4.13,2.463,8.701,3.886,13.365,4.314
				c1.106,0.099,2.213,0.145,3.326,0.125c4.683-0.046,9.386-1.1,13.74-3.122c3.3-1.535,6.356-3.056,9.182-4.565
				c43.546-23.146,33.178-42.328,33.178-42.328l16.527,10.809l2.753,1.805l0.25,0.165l58.498,38.257l4.466,84.793l0.803,15.308
				C2267.868,2822.168,2267.875,2822.551,2267.868,2822.933z"/>
			<path style="fill:#040C2B;" d="M2141.176,2727.661c0,0-10.434,0.588-12.482-7.013c-0.079,0.006-0.165,0.006-0.244,0.006
				c-1.034,0.018-2.068-0.018-3.096-0.095c-0.375,0.629-6.896,11.206-12.607,6.057l-2.121,7.761l2.332,4.193
				c1.059,1.908,2.473,3.469,4.108,4.696l-17.116,211.461c-0.175,2.157,0.54,4.296,2.007,6.007l12.57,14.665
				c1.606,1.873,4.766,1.805,6.271-0.135l10.429-9.405c2.153-1.941,3.362-4.574,3.362-7.319v-213.483
				c2.925-1.314,5.469-3.476,7.14-6.487l1.812-3.266L2141.176,2727.661z"/>
			<path style="fill:#E3E9F7;" d="M2267.868,2822.933l-18.667,157.783h-213.416l-3.498-107.288c0.059-0.685,0.086-1.37,0.059-2.048
				l-5.098-150.768c-0.099-2.905,1.594-5.573,4.262-6.725l50.739-21.902c0.013,6.653,0.435,13.292,1.278,19.879
				c0.836,6.587,2.094,13.121,3.754,19.563l33.804,131.053l63.478-146.612c0.935-2.16,2.022-4.242,3.267-6.244l16.25-26.196
				l58.498,38.257l4.466,84.793l0.803,15.308C2267.868,2822.168,2267.875,2822.551,2267.868,2822.933z"/>
			<polygon style="opacity:0.15;" points="2267.879,2822.358 2264.706,2979.51 2254.338,2980.14 2230.683,2803.931 
				2267.043,2806.48 			"/>
			
				<rect x="2099.102" y="2877.283" transform="matrix(0.5285 -0.8489 0.8489 0.5285 -1525.6122 3282.4934)" style="fill:#ACBCF8;" width="186.63" height="274.94"/>
			<path style="fill:#DB965F;" d="M2298.031,2805.384l-57.194,23.75l24.481,82.162l-90.935,123.027c0,0-19.504-0.428-43.973,11.617
				c-0.509,4.504,3.667,8.112,8.049,6.954l12.879-3.403c0,0-32.614,21.197-32.721,43.106c0,0,1.825,31.016,29.397,28.209
				c0,0,25.476,5.251,52.82-47.944l105.573-142.487c5.154-6.956,7.354-15.666,6.121-24.236L2298.031,2805.384z"/>
			<path style="fill:#FFFFFF;" d="M2259.491,2721.43c0,0,36.059-0.923,49.011,122.712l7.361,58.187
				c1.604,12.681-1.763,25.49-9.395,35.743l-94.813,123.004l-36.228-33.593l84.313-117.906l-13.644-42.475
				C2246.096,2867.102,2198.115,2729.417,2259.491,2721.43z"/>
			<path style="opacity:0.15;" d="M2125.367,2720.532c0,0.007-0.007,0.013-0.013,0.026c-0.375,0.698-6.896,12.429-12.607,6.719
				l-2.121,8.609l-1.601,6.508c0,0-28.449-9.538-26.67-50.456l2.048-0.883c-1.133,12.081,1.673,30.847,23.634,47.406l1.225-5.309
				l2.305-9.999c0,0,6.719,5.012,13.773-2.595C2125.347,2720.552,2125.36,2720.539,2125.367,2720.532z"/>
			<g>
				<path style="opacity:0.15;" d="M2203.83,2683.264c-6.613,16.342-22.297,38.132-58.702,59.322l-1.587-5.671l-2.365-8.477
					c0,0-10.434,0.652-12.482-7.779c-0.013-0.04-0.026-0.086-0.033-0.125c0.02,0.04,0.04,0.086,0.066,0.125
					c2.062,3.879,9.202,6.448,13.767,5.144l1.943,9.327l0.692,3.333c0,0,47.479-24.543,55.949-57.003L2203.83,2683.264z"/>
			</g>
		</g>
		<g>
			<g>
				<path style="fill:#DB965F;" d="M2587.58,3532.076c0,0,2.772,74.341,27.377,94.837l-19.753,22.58l-13.862-7.643l-9.703-15.285
					l-24.952-44.466l-9.703-16.675l13.169-39.602L2587.58,3532.076z"/>
				<path style="fill:#040C2B;" d="M2533.865,3583.837c0,0-11.25-14.107,8.583-34.844c0,0,14.982,38.318,28.844,64.025
					c0,0,9.703,17.369,29.11,20.148c0,0,14.555,0,2.079-25.012c0,0,36.734,39.602,33.962,52.803c0,0-1.04,3.126-11.783,2.779
					c0,0-23.395,0.391-38.308-6.45c-5.965-2.737-10.346-8.055-12.205-14.362c-3.481-11.815-13.6-38.592-34.393-52.487l-1.347,22.969
					c-0.021,1.488-1.283,2.654-2.764,2.555l0,0c-1.384-0.093-2.45-1.26-2.419-2.649L2533.865,3583.837z"/>
				<polygon style="fill:#DB965F;" points="2506.141,3555.352 2535.251,3649.146 2497.823,3654.01 2487.427,3633.166 
					2473.565,3589.396 2474.951,3545.625 				"/>
				<path style="fill:#040C2B;" d="M2473.565,3603.986c0,0-13.169-10.421-4.159-37.518l5.007-3.85c0,0,13.014,69.854,22.024,74.717
					c0,0,14.555,10.422,29.803,0c0,0,4.852-1.787,0-17.22c0,0,20.793,33.895,18.714,50.57c0,0-0.346,5.211-21.486,0
					c0,0-33.269-8.337-34.655-19.454c0,0-5.545-27.791-9.703-33.349v15.285c0,1.535-1.241,2.779-2.772,2.779l0,0
					c-1.531,0-2.772-1.244-2.772-2.779V3603.986z"/>
				<g>
					<path style="fill:#040C2B;" d="M2483.961,2987.723l3.062,12.632l0.327,1.352l1.517,6.246l34.435,142.016l2.942,12.145
						l8.542,25.69l23.333,70.186c0,0,10.403,22.233,4.164,91.019l-3.444,34.518l-5.567,55.801l-17.329,113.245
						c0,0,0.846,0.457,2.374,1.199c0.622,0.298,1.354,0.651,2.194,1.035c1.436,0.664,3.182,1.425,5.169,2.24
						c10.791,4.42,28.851,10.221,45.242,8.012c9.011-1.218,17.515-4.864,24.037-12.486l6.926-173.69c0,0,6.239-53.5,2.08-93.101
						l-15.938-175.779c0,0-0.142-7.78-0.791-19.463c-1.479-26.719-5.605-73.845-16.696-94.988c-0.338-0.657-0.693-1.291-1.053-1.893
						c-0.993-1.68-2.041-3.153-3.138-4.389c-1.452-1.644-3.002-2.874-4.656-3.635l-11.833,0.256l-4.928,0.104l-29.059,0.621
						L2483.961,2987.723z"/>
				</g>
				<path style="opacity:0.15;" d="M2487.023,3000.355l0.327,1.352l1.517,6.246l34.435,142.016l2.942,12.145l8.542,25.69
					l23.333,70.186c0,0,10.403,22.233,4.164,91.019l-3.444,34.518l6.495-38.84c6.97-41.681,6.526-84.483-1.305-125.972
					l-58.548-222.675L2487.023,3000.355z"/>
				<g>
					<path style="fill:#040C2B;" d="M2465.248,2978.688c0,0-36.734,43.771-32.576,127.839c0,0,1.386,22.233,5.545,49.329
						c0,0,18.021,80.594,6.931,186.895c0,0-6.238,54.887-4.158,147.987l-1.386,85.457c0,0,50.596,25.707,76.934-10.421
						l-9.01-109.774v-117.417l5.545-61.835l13.169-163.272l9.703-127.838L2465.248,2978.688z"/>
				</g>
			</g>
			<path d="M2476.289,2561.224c0,0,3.456-11.057,28.23-11.579c0,0,28.695-2.57,46.033,26.584c1.049,1.764,2.227,3.432,3.522,4.979
				c2.617,3.125,7.053,9.355,7.53,16.139c0.184,2.619,0.42,5.233,0.882,7.809c0.772,4.309,1.967,9.814,3.232,11.264
				c0.409,0.468,0.802,0.947,1.099,1.51c1.713,3.252,6.047,12.946,4.658,25.626c0,0-1.558,5.803-1.857,11.716
				c-0.172,3.4,0.405,6.794,1.642,9.908c1.632,4.109,4.51,13.029,2.849,21.554c-0.871,4.466-1.398,9.012-1.27,13.58
				c0.07,2.495,0.251,4.885,0.643,6.331c0,0,3.714,19.074-23.511,21.861c0,0-29.008,1.858-37.999-11.392l-61.466-29.567
				l14.737-118.283L2476.289,2561.224z"/>
			<path style="fill:#C9885B;" d="M2523.493,2675.821c0,0-6.55,62.704,0,76.706l-22.651,27.091l-42.027-36.527l18.558-104.71
				L2523.493,2675.821z"/>
			<path style="fill:#FFFFFF;" d="M2550.074,2806.623c8.247,14.836,24.343,32.016,40.974,47.509
				c8.591,8.005,18.616,18.268,25.205,26.112c22.933,27.3,52.271,59.305,52.271,59.305l30.275-23.289
				c2.479-1.907,3.066-5.403,1.346-8.015l-97.133-147.463c-1.223-1.668-2.554-3.22-3.984-4.639
				c-3.231-3.227-6.964-5.79-11.052-7.476c-9.792-4.024-17.062-1.473-22.46,4.347
				C2551.248,2768.392,2550.074,2806.623,2550.074,2806.623z"/>
			<path style="fill:#E3E9F7;" d="M2457.724,2726.654l0.431,18.598l0.049,2.039l2.249,96.857l11.396,126.608l0.759,8.419
				l2.036,22.646l15.899,1.053l48.719,3.22l9.066,0.596l23.197-17.247l4.29-3.19l9.552-7.104l0.622-0.463l-30.117-130.102
				l-4.268-18.44l-18.012-73.053l-0.573-1.4l-0.748-1.839l-12.324-30.244c-0.442,11.293-7.985,20.607-10.883,23.791
				c-0.289,0.311-0.53,0.566-0.715,0.755c-0.262,0.274-0.409,0.414-0.409,0.414c-1.452-0.694-2.915-1.461-4.377-2.283
				c-0.208-0.116-0.42-0.238-0.633-0.359c-21.352-12.237-42.475-36.32-42.475-36.32L2457.724,2726.654z"/>
			<g>
				<polygon style="fill:#040C2B;" points="2459.361,2967.73 2459.361,3006.692 2492.109,3009.438 2531.953,3012.78 
					2538.89,3011.039 2574.925,3001.999 2597.188,2996.41 2597.45,2996.343 2596.096,2994.419 2592.854,2989.805 2585.366,2979.151 
					2581.622,2973.818 2568.211,2976.655 2529.77,2984.776 2471.849,2970.756 				"/>
			</g>
			<g>
				<g>
					<polygon style="fill:#040C2B;" points="2524.682,3015.248 2543.747,3013.901 2541.953,2982.308 2522.888,2983.655 					"/>
				</g>
			</g>
			<path style="opacity:0.15;" d="M2458.155,2745.252l0.049,2.039l30.631,29.282l14.726-30.287c-0.208-0.116-0.42-0.238-0.633-0.359
				l-15.73,24.558L2458.155,2745.252z"/>
			<path style="opacity:0.15;" d="M2508.347,2748.156l19.24,33.288l5.431-25.751l-0.748-1.839l-5.229,20.284l-17.979-26.738
				C2508.773,2747.712,2508.533,2747.968,2508.347,2748.156z"/>
			<path style="fill:#FFFFFF;" d="M2432.071,2886.154c7.434,33.434,7.778,66.747,5.944,93.155
				c-1.179,16.979-3.264,31.103-4.945,40.575c-1.474,8.261-2.636,12.985-2.636,12.985c-8.187,32.874-10.916,57.834-10.916,57.834
				c4.088,1.297,8.4,2.557,12.832,3.787c26.816,7.403,57.981,13.351,71.25,15.761c3.559,0.645,6.888-2.161,7.287-6.161
				c0.125-1.26,0.251-2.527,0.371-3.799c1.425-14.812,2.538-30.305,3.411-45.683c1.119-19.621,1.845-39.053,2.314-56.671
				c0.098-3.726,0.186-7.378,0.267-10.927c0.016-1.078,0.044-2.149,0.065-3.208c0.699-34.238,0.448-58.686,0.448-58.686
				l-0.508-3.239l-0.18-1.138l-10.774-68.676c-8.733-65.139-46.977-135.386-46.977-135.386l-14.999,21.045l-0.704,0.986
				l-0.087,0.122c-30.565,6.088-43.119,14.002-43.119,14.002l2.571,10.818l24.185,101.867L2432.071,2886.154z"/>
			<path style="opacity:0.15;" d="M2402.985,2763.65l24.185,101.867c7.74-39.114,10.359-81.637-20.206-101.118
				C2405.753,2763.627,2404.268,2763.857,2402.985,2763.65z"/>
			<polygon style="opacity:0.15;" points="2440.258,2753.44 2517.255,2921.877 2517.075,2920.739 2444.079,2754.049 
				2450.082,2747.353 2444.324,2737.722 2443.62,2738.708 2447.353,2747.353 			"/>
			<path style="opacity:0.15;" d="M2565.515,2768.843l25.533,85.29c8.591,8.005,17.33,19.561,25.205,26.112l-20.44-115.845
				c-3.231-3.226-10.103-6.228-14.191-7.914C2571.83,2752.46,2570.913,2763.023,2565.515,2768.843z"/>
			<path style="fill:#FFFFFF;" d="M2519.678,2723.927c0.087,0.457,3.062,15.244,7.363,36.819c0,0,7.177,67.915,22.585,154.563
				c0.098,0.554,0.197,1.108,0.295,1.668c0.109,0.578,0.213,1.163,0.317,1.747l1.092,46.876c0,0,5.458,103.492,20.741,135.758
				c0,0,54.035-15.22,52.943-42.006c0,0-28.109-109.885-29.746-133.018c0,0,0.546-32.265,3.821-71.836
				c0,0,9.824-106.536-17.466-107.145l-38.539-4.347l-1.152-0.128l-0.557-0.061l-8.329-0.944L2519.678,2723.927z"/>
			<path style="opacity:0.15;" d="M2555.423,2875.805l-5.797,39.504c0.098,0.554,0.197,1.108,0.295,1.668
				c2.167-10.349,5.016-24.272,5.12-23.834c4.585-49.567,10.501-119.442,3.657-145.79l-10.916,4.261l-4.699-8.608l-1.152-0.128
				l-0.557-0.061l4.225,12.449l9.825-4.261C2555.423,2751.005,2564.156,2765.616,2555.423,2875.805z"/>
			<path style="fill:#131A3F;stroke:#131A3F;stroke-width:0.7105;stroke-miterlimit:10;" d="M2552.694,2928.16
				c0-0.018,0-0.037,0.006-0.055"/>
			<path style="fill:#FFFFFF;" d="M2359.85,2897.643l-12.106,53.955l48.577,4.261l6.639-28.269l11.94-54.067l9.258-40.028
				c16.374-79.75-16.134-81.79-16.134-81.79c-15.219-8.055-25.099,46.175-25.099,46.175L2359.85,2897.643z"/>
			<path style="fill:#DB965F;" d="M2482.458,2687.034c0,0,39.957,41.85,55.877,16.97c0,0,41.058-91.356-3.344-129.37
				c0,0-37.89-34.811-55.456,14.365C2479.536,2588.999,2439.108,2636.524,2482.458,2687.034z"/>
			<path d="M2509.924,2558.886c52.914-4.695,47.955,95.628,47.955,95.628c-5.547-43.518-27.239-71.42-38.25-73.683
				c-4.132-0.849-8.413,0.105-11.931,2.667c-12.05,8.779-38.99,37.388-25.707,112.236c0,0,11.361,46.717-38.829,26.931
				c0,0-27.417-10.729-19.471-29.325c0,0,6.611-12.21,1.48-25.501c0,0-3.079-10.485,4.143-21.855
				c2.536-3.993,3.941-8.757,3.93-13.651c-0.016-7.526,0.756-18.432,4.832-24.761c1.925-2.989,3.588-6.174,4.76-9.615
				c1.13-3.32,2.378-7.324,3.15-10.833c1.039-4.72,2.967-9.142,5.608-13.006c5.583-8.167,15.91-18.682,30.921-15.802
				L2509.924,2558.886z"/>
			<path d="M2530.043,2574.764c0,0,3.275,28.004-58.947,74.88s12.553-82.794,12.553-82.794L2530.043,2574.764z"/>
			<g>
				<path style="fill:#DB965F;" d="M2669.685,2952.31l-74.941,42.41c0,0-31.871,47.583-71.128,35.246c0,0-36.107-7.885,4.797-43.86
					l8.453-5.249l-11.584,0.895c-4.759,0.368-9.272-2.941-10.126-7.421l0,0c0,0,34.162-13.116,56.707-8.68
					c0,0,14.577-0.286,28.033-12.495l46.553-32.211L2669.685,2952.31z"/>
				<path style="fill:#FFFFFF;" d="M2683.02,2893.744c0,0,37.709,15.421,8.771,47.309l-29.873,19.1l-19.002,12.151
					c0,0-19.414-23.901-35.013-27.192c0,0,7.37-6.458,18.381-15.036C2641.515,2918.202,2663.717,2902.267,2683.02,2893.744z"/>
				<path style="fill:#E3E9F7;" d="M2607.902,2945.113c0,0,7.37-6.458,18.381-15.036c11.069,4.949,24.583,13.916,35.634,30.077
					l-19.002,12.151C2642.915,2972.304,2623.501,2948.403,2607.902,2945.113z"/>
			</g>
			<path style="fill:#9AAAF7;stroke:#131A3F;stroke-width:0.7105;stroke-miterlimit:10;" d="M2701.017,2739.586l0.003-0.031
				C2701.021,2739.556,2701.01,2739.552,2701.017,2739.586z"/>
			<path style="opacity:0.15;" d="M2433.07,3019.885l10.037,2.947l2.92,0.858c-0.022-0.682-0.006-1.412,0.033-2.173l37.142,12.005
				l14.955,12.754l5.529,4.712c3.973,1.589,7.625,2.776,10.982,3.622c6.293,1.595,11.544,1.979,15.921,1.546
				c8.724-0.866,15.518-4.369,20.412-8.052c6.563-4.939,8.985-13.762,5.878-21.366c-2.115-5.177-5.076-9.909-9.708-12.51
				c-8.455-4.749-14.669-5.334-14.669-5.334h-1.334c1.294,0.152,1.806,0.77,2.979,0.362c0.944-0.329,5.368-1.449,6.356-1.696
				c4.001-1,6.197-4.323,7.273-6.993c0.49-1.215-0.308-2.567-1.601-2.776c-2.946-0.476-7.334-1.057-8.69-1.339
				c-6.779-1.431-12.706-2.192-17.837-2.514c-19.567-1.218-27.634,4.048-27.634,4.048c-0.622-0.018-3.95,3.934-4.632,3.855
				c-8.656-0.968-21.816-6.344-30.598-10.301c-0.824-0.371-1.61-0.731-2.347-1.072c0.464-1.205,0.737-1.899,0.737-1.899
				l-17.111-9.235l-0.049-0.024C2436.836,2996.288,2434.751,3010.412,2433.07,3019.885z"/>
			<g>
				<path style="fill:#DB965F;" d="M2551.696,3022.157c-10.278-11.205-29.569-17.097-29.569-17.097l13.199,1.557
					c2.332,0.272,4.569-0.437,6.357-1.854c1.793-1.415,3.135-3.532,3.675-6.073c-36.771-9.099-51.099,0.251-51.099,0.251
					c-9.251-0.282-25.664-7.25-34.91-11.516c-4.122-1.904-6.821-3.274-6.821-3.274l-6.926,32.579l5.369,1.739l37.145,12.007
					l20.481,17.463c28.748,11.496,40.636,2.087,45.495-6.416C2557.663,3035.275,2556.561,3027.461,2551.696,3022.157z"/>
				<path style="fill:#FFFFFF;" d="M2450.94,3020.646c-0.023-0.682-0.009-1.41,0.031-2.176c0.564-9.78,6.308-25.61,8.377-31.044
					c0.463-1.204,0.741-1.9,0.741-1.9l-17.114-9.237l-48.806-26.34l-41.454-19.63l-7.193,27.642
					c-3.746,14.395,2.771,29.637,15.157,35.451l4.198,1.971l66.675,19.572L2450.94,3020.646z"/>
				<path style="fill:#E3E9F7;" d="M2450.94,3020.646c-0.023-0.682-0.009-1.41,0.031-2.176c0.564-9.78,6.308-25.61,8.377-31.044
					c0.463-1.204,0.741-1.9,0.741-1.9l-17.114-9.237c-3.899,8.26-11.106,25.249-11.423,38.667L2450.94,3020.646z"/>
			</g>
		</g>
		<g>
			<path style="fill:#DB965F;" d="M2896.187,3528.927c0,0-9.056,73.742,0,90.561l-66.627,12.29l20.053-120.964L2896.187,3528.927z"
				/>
			<path style="fill:#040C2B;" d="M2893.907,3666.138c0,0,54.636,13.478,96.479,2.655c6.236-1.613,10.143-7.834,8.775-14.129
				c-1.656-7.624-8.582-16.789-30.952-20.42c0,0-60.144-26.013-76.878-46.71c0,0-34.645,17.313-55.311,3.885
				c0,0-15.719,11.297-18.282,33.553c-1.865,16.193,9.841,30.815,26.025,32.759
				C2860.748,3659.771,2883.274,3662.889,2893.907,3666.138z"/>
			<path style="fill:#DB965F;" d="M2808.096,3520.517c0,0-9.056,73.743,0,90.561l-66.627,12.291l20.053-120.964L2808.096,3520.517z"
				/>
			<path style="fill:#040C2B;" d="M2806.978,3665.98c0,0,54.636,13.478,96.479,2.654c6.236-1.613,10.143-7.834,8.775-14.128
				c-1.656-7.624-8.582-16.79-30.953-20.42c0,0-60.143-26.013-76.878-46.71c0,0-36.445,13.373-57.111-0.055
				c0,0-13.918,15.237-16.481,37.493c-1.865,16.193,9.841,30.815,26.025,32.759
				C2773.818,3659.613,2796.345,3662.731,2806.978,3665.98z"/>
			<path style="fill:#040C2B;" d="M2825.155,2972.38l42.572,275.159l-25.876,287.209l13.338,2.035l54.586,8.315l51.034-277.041
				c5.205-28.269,7.598-56.986,7.145-85.731l-3.846-242.691l-141.017,19.407L2825.155,2972.38z"/>
			<polygon style="opacity:0.15;" points="2867.726,3247.539 2841.85,3534.748 2855.188,3536.782 2902.923,3254.073 
				2912.332,2972.38 2825.155,2972.38 			"/>
			<path style="fill:#040C2B;" d="M2765.197,2948.367c0,0-20.7,47.221-10.997,163.01l8.17,146.224l-16.256,287.498l71.536,4.192
				l48.684-244.018c8.692-44.238,13.397-89.167,14.058-134.245l3.505-239.156L2765.197,2948.367z"/>
			<path style="fill:#DB965F;" d="M2973.493,2897.105l-2.964-7.675l-32.156-85.196l25.74-3.723l11.656-1.688l23.829-3.446
				l11.432,45.212l2.852,11.278l123.288-36.492c0,0,6.256-18.455,25.916-37.314c4.402,1.059,6.363,6.211,3.781,9.93l-7.59,10.929
				c0,0,31.031-23.381,51.636-16.003c0,0,28.493,12.3,16.447,37.226c0,0-3.767,25.708-63.037,33.221l-171.851,52.501
				C2984.838,2908.196,2976.671,2904.426,2973.493,2897.105L2973.493,2897.105"/>
			<path style="fill:#C9885B;" d="M2802.654,2680.984l0.294,52.045l79.979,14.114l46.458-22.935l-20.095-25.205l-11.109-13.932
				c-2.223-2.793-3.17-6.387-2.599-9.909l9.692-59.75l-77.921-33.815l6.569,47.482l1.076,7.798
				C2837.351,2662.165,2802.654,2680.984,2802.654,2680.984z"/>
			<path style="opacity:0.15;" d="M2827.354,2581.597l7.351,53.81c27.316,47.488,61.884,58.609,74.587,63.595l-11.109-13.932
				c-2.223-2.793-3.17-6.387-2.599-9.909l9.692-59.75L2827.354,2581.597z"/>
			<path style="fill:#DB965F;" d="M2942.618,2569.836c0,0-9.409,107.031-42.342,101.739c0,0-36.755-6.175-74.981-62.043
				l-9.115-22.641l27.052-28.816L2942.618,2569.836z"/>
			<path d="M2889.103,2516.908c0,0,96.997,14.922,49.675,81.56c0,0-8.509,1.36-18.506-28.632c0,0-7.057,32.345-60.573,17.055
				c0,0-1.176,18.23-4.705,23.523h-5.293c0,0,0.588-18.819-14.702-22.935c0,0-18.819-2.94-8.233,22.935l6.763,10.88l1.578,17.667
				c0,0-21.279-37.956-24.807-60.891c0,0-8.821-37.637,24.111-57.632C2834.411,2520.437,2861.463,2499.854,2889.103,2516.908z"/>
			<path style="fill:#FFFFFF;" d="M2959.085,2857.997l16.349-5.669l33.833-11.738l7.451-2.588
				c-18.595-97.734-36.655-117.605-44.906-121.281c-2.976-1.323-4.675-0.547-4.675-0.547l-4.787,84.337L2959.085,2857.997z"/>
			<path style="opacity:0.15;" d="M2936.608,2807.156l32.157,83.45l6.669-36.342l-1.429-52.408l-2.194-80.42
				c-2.976-1.296-4.675-0.536-4.675-0.536l-4.787,82.609L2936.608,2807.156z"/>
			<path style="fill:#FFFFFF;" d="M2732.684,2823.868l3.156,156.411l0.146,7.178c0.129,6.543,4.288,12.34,10.471,14.51
				c0.472,0.163,0.952,0.334,1.432,0.489c40.486,13.824,91.159,13.772,134.8,9.51h0.034v-0.009
				c35.683-3.482,66.658-9.793,83.484-13.652c7.718-1.758,12.906-8.987,12.152-16.851l-10.351-107.144
				c-0.069-0.677-0.086-1.364-0.069-2.05l5.102-150.588c0.094-2.907-1.595-5.574-4.253-6.715l-50.793-21.928l-2.05-0.883
				l-18.48-7.975c7.118,18.043,0.026,27.845-8.842,33.119c-4.031,2.401-8.499,3.816-13.043,4.271
				c-0.103,0.017-0.206,0.026-0.309,0.034c-1.106,0.103-2.212,0.137-3.327,0.12c-0.077,0-0.146,0-0.223-0.009
				c-4.597-0.06-9.21-1.124-13.498-3.104c-54.061-25.118-42.312-46.84-42.312-46.84l-16.508,10.797l-2.753,1.792l-58.683,38.384
				l-4.459,84.71l-0.806,15.402C2732.684,2823.182,2732.684,2823.525,2732.684,2823.868z"/>
			<path style="opacity:0.15;" d="M2769.832,2804.897l-21.946,197.56c-0.478-0.154-0.957-0.325-1.427-0.487
				c-6.185-2.17-10.345-7.97-10.473-14.513l-0.145-7.176l-3.161-156.411c0-0.342,0-0.683,0.017-1.025l0.812-15.402
				L2769.832,2804.897z"/>
			<path style="opacity:0.15;" d="M2871.948,2721.72l6.975,290.243h3.799v-0.006l-7.598-289.473l0.147-0.894
				C2874.166,2721.691,2873.06,2721.738,2871.948,2721.72z"/>
			<path style="fill:#040C2B;" d="M2855.607,2733.97l3.945,6.277c1.681,3.036,4.254,5.222,7.204,6.543v215.454
				c0,2.77,1.218,5.428,3.396,7.384l10.522,9.493c1.518,1.964,4.708,2.032,6.329,0.137l12.683-14.802
				c1.484-1.724,2.204-3.885,2.032-6.063l-17.28-213.404c1.655-1.243,3.079-2.813,4.15-4.742l3.036-5.42l-1.715-12.006
				c-5.18,4.665-12.598,0.163-14.33-1.26c-0.103,0.017-0.206,0.026-0.309,0.034c-1.106,0.103-2.212,0.137-3.327,0.12
				c-0.077,0-0.146,0-0.223-0.009c-2.324,7.195-12.683,5.403-12.683,5.403L2855.607,2733.97z"/>
			
				<rect x="2728.537" y="2825.274" transform="matrix(-0.7491 -0.6625 0.6625 -0.7491 2972.7314 7051.5015)" style="fill:#ACBCF8;" width="186.629" height="274.94"/>
			<path style="fill:#DB965F;" d="M2835.883,3022.111l25.308,3.036c4.476-0.652,6.903-5.6,4.674-9.536
				c0,0-25.074-10.411-50.253-10.531l-73.039-97.702l0.395-2.624l15.856-81.58l-59.258-17.769l-6.586,85.816l-0.292,5.103
				c-0.806,14.244,3.979,28.231,13.335,39.002l82.694,94.503c0,0,6.861,44.593,48.023,56.599c0,0,41.163,7.718,34.302-30.015
				C2871.043,3056.413,2864.183,3036.689,2835.883,3022.111z"/>
			<path style="fill:#FFFFFF;" d="M2741.052,2722.483c0,0-36.02-0.922-48.957,122.576l62.337,22.935
				C2754.431,2867.995,2802.359,2730.462,2741.052,2722.483z"/>
			<path style="opacity:0.15;" d="M2875.289,2721.862c0.159,0.306,6.54,12.267,12.344,6.463l3.717,15.102
				c0,0,28.416-9.527,26.64-50.399l-2.041-0.882c1.129,12.067-1.676,30.81-23.612,47.353l-3.528-15.29
				C2888.809,2724.208,2882.346,2729.501,2875.289,2721.862z"/>
			<path style="opacity:0.15;" d="M2866.244,2728.76c4.681-1.064,5.458-6.475,5.504-6.881
				C2870.943,2725.061,2868.584,2727.284,2866.244,2728.76z"/>
			<path style="opacity:0.15;" d="M2796.65,2684.359c6.604,16.325,22.271,38.09,58.638,59.255l5.292-12.35
				c0,0,2.823-0.706,5.663-2.505c-1.711,0.388-3.934,0.2-6.839-1.023l-4.116,11.762c0,0-47.423-24.517-55.886-56.938
				L2796.65,2684.359z"/>
			<path d="M2863.325,2729.682"/>
		</g>
	</g>
</g>
</svg>
