<?xml version="1.0" encoding="utf-8"?>
<!-- Generator: Adobe Illustrator 27.5.0, SVG Export Plug-In . SVG Version: 6.00 Build 0)  -->
<svg version="1.1" id="Capa_1" xmlns="http://www.w3.org/2000/svg" xmlns:xlink="http://www.w3.org/1999/xlink" x="0px" y="0px"
	 viewBox="0 0 425.2 425.2" style="enable-background:new 0 0 425.2 425.2;" xml:space="preserve">
<rect x="0.002" y="0.002" style="fill:#FFFFFF;" width="425.197" height="425.196"/>
<g>
	<path style="fill:#C6C6C6;" d="M340.736,345.634c0,18.277-69.691,33.092-155.66,33.092c-85.967,0-155.658-14.814-155.658-33.092
		c0-18.273,69.691-33.088,155.658-33.088C271.045,312.546,340.736,327.36,340.736,345.634z"/>
	<g>
		<g>
			<g>
				
					<path style="fill:none;stroke:#2C343F;stroke-width:3.3665;stroke-linecap:round;stroke-linejoin:round;stroke-miterlimit:10;" d="
					M232.102,162.514l-0.107-5.809c0,0-0.32-4.416-4.15-6.998c0,0-11.617-7.146-12.559-34.912c0,0-1.568-38.582-46.502-37.748
					l-20.932,0.389"/>
				
					<path style="fill:none;stroke:#2C343F;stroke-width:3.3665;stroke-linecap:round;stroke-linejoin:round;stroke-miterlimit:10;" d="
					M76.186,165.404l-0.105-5.813c0,0,0.154-4.42,3.885-7.143c0,0,11.344-7.572,11.256-35.356c0,0,0.141-38.613,45.072-39.447
					l20.926-0.385"/>
			</g>
			<g>
				<g>
					
						<rect x="106.654" y="160.291" transform="matrix(0.9998 -0.0185 0.0185 0.9998 -3.858 2.8471)" style="fill:#745615;" width="90.126" height="98.66"/>
					<path style="fill:#F7C7AD;" d="M206.477,248.375c-22.553-2.121-33.758-8.568-35.672-9.768l-40.074,0.742
						c-1.869,1.271-12.828,8.127-35.283,11.088c0,0-42.858,2.396-40.215,80.133c0,0,32.541,13.959,97.467,12.631
						c64.926-1.078,96.934-16.234,96.934-16.234C249.393,249.184,206.477,248.375,206.477,248.375z"/>
					<path style="fill:#FFFFFF;" d="M95.447,250.438c0,0-42.858,2.396-40.215,80.133c0,0,32.541,13.959,97.467,12.631
						c64.926-1.078,96.934-16.234,96.934-16.234c-0.24-77.783-43.156-78.592-43.156-78.592s-41.822-2.188-55.242,15.848
						C151.234,264.223,137.58,242.6,95.447,250.438z"/>
					<g>
						
							<rect x="130.182" y="217.356" transform="matrix(0.9998 -0.0185 0.0185 0.9998 -4.2752 2.8298)" style="fill:#F7C7AD;" width="40.924" height="29.76"/>
						<path style="fill:#DADADA;" d="M130.068,226.221v0.008c0.457,0.523,0.924,1.045,1.42,1.537
							c1.301,1.299,2.652,2.545,4.104,3.67c0.049,0.041,0.086,0.066,0.131,0.102c0.465,0.328,0.939,0.648,1.418,0.963
							c0.734,0.471,1.471,0.945,2.232,1.375c1.098,0.627,2.217,1.234,3.363,1.771c0.367,0.135,1.449,0.561,1.779,0.668
							c1.109,0.352,2.217,0.701,3.35,0.977c1.162,0.279,2.326,0.559,3.502,0.766c-0.307-0.053,3.102,0.449,2.287,0.393
							c2.762,0.256,5.537,0.412,8.313,0.307c1.188-0.045,2.383-0.088,3.566-0.205c0.377-0.037,2.148-0.332,2.326-0.338
							c1.129-0.268,2.242-0.604,3.342-0.98l-0.375-20.252l-40.918,0.756l0.158,8.395
							C130.186,226.309,130.215,226.375,130.068,226.221z"/>
					</g>
					<path style="fill:#F7C7AD;" d="M195.918,162.705c0.654,35.24-19.656,64.197-45.367,64.672
						c-25.709,0.477-47.076-27.705-47.73-62.947c-0.652-35.24,19.777-57.711,45.486-58.188
						C174.014,105.764,195.266,127.463,195.918,162.705z"/>
					<path style="opacity:0.5;fill:#FFFFFF;" d="M124.023,135.238c0.01-0.082,0.029-0.162,0.039-0.246
						c6.434-7.846,15.43-12.311,25.449-12.494c20.086-0.375,36.688,16.578,37.197,44.111c0.342,18.35-6.598,34.506-17.211,43.357
						C169.498,209.967,108.504,203.842,124.023,135.238z"/>
					<path style="fill:#EDEDED;" d="M143.039,213.475c-16.039-9.701-25-26.506-27.535-44.727
						c-2.381-17.113,1.633-36.168,12.264-49.932c3.689-4.768,8.441-8.848,13.742-11.912c-22.412,3.965-39.285,25.455-38.689,57.525
						c0.654,35.242,22.021,63.424,47.73,62.947c7.469-0.137,14.479-2.684,20.654-7.082
						C161.475,220.803,151.668,218.691,143.039,213.475z"/>
					<path style="fill:#D42A26;" d="M128.795,240.541c-4.301,2.443-14.977,7.477-33.348,9.896c0,0-42.858,2.396-40.215,80.133
						c0,0,32.541,13.959,97.467,12.631c64.926-1.078,96.934-16.234,96.934-16.234c-0.24-77.783-43.156-78.592-43.156-78.592
						c-18.453-1.736-29.313-6.369-33.699-8.65c0,0,23.813,50.537-20.195,97.227C152.582,336.951,108.396,293.074,128.795,240.541z"
						/>
					<path style="fill:#00B1C3;" d="M115.803,277.766c0.02,0.102,0.039,0.199,0.061,0.301c0.18,0.793,0.363,1.582,0.555,2.369
						c0.117-0.051,0.23-0.105,0.348-0.156C116.432,279.455,116.113,278.613,115.803,277.766z"/>
					<path style="fill:#AB251C;" d="M206.477,248.375c-18.453-1.736-29.313-6.369-33.699-8.65c0,0,23.813,50.537-20.195,97.227
						c0,0-44.186-43.877-23.787-96.41c-4.301,2.443-14.977,7.477-33.348,9.896c0,0-6.758,18.695,8.545,34.91
						c0,0,6.434-3.617,9.953-2.684l-12.258,9.355c0,0,3.582,35.315,42.385,51.342L163.566,343c0,0,33.072-16.865,38.08-59.963
						c0,0-3.166-3.449-12.805-6.262c0,0,5.842-2.109,12.666-1.232C201.508,275.543,214.014,268.67,206.477,248.375z"/>
					<path style="fill:#EDEDED;" d="M206.477,248.375c-18.453-1.736-29.313-6.369-33.699-8.65c0,0,23.813,50.537-20.195,97.227
						c0,0-0.43-0.426-1.18-1.238c-0.006,0-0.008,0-0.008,0c-5.504,1.818-11.424-1.199-15.967-4.1
						c-5.301-3.381-10.506-7.307-14.822-11.902c-4.324-4.605-9-10.359-10.045-16.803c-1.422-8.754,1.717-16.102,9.246-20.969
						c1.375-0.887,2.893-1.385,4.434-1.555c-1.742-12.197-0.938-25.705,4.555-39.844c-4.301,2.443-14.977,7.477-33.348,9.896
						c0,0-0.098,0.268-0.24,0.756c4.943-0.547,9.768-1.588,14.527,1.063c9.436,5.254,8.094,16.889,2.352,24.318
						c-2.383,3.086-5.854,5.361-9.551,7.139c0.463,0.547,0.947,1.094,1.457,1.635c0,0,6.434-3.617,9.953-2.684l-12.258,9.355
						c0,0,3.582,35.315,42.385,51.342L163.566,343c0,0,33.072-16.865,38.08-59.963c0,0-3.166-3.449-12.805-6.262
						c0,0,5.842-2.109,12.666-1.232C201.508,275.543,214.014,268.67,206.477,248.375z"/>
					<path style="fill:#EDEDED;" d="M206.477,248.375c-5.184-0.486-9.77-1.203-13.783-2.031c0.947,2.441,1.625,4.953,1.807,7.639
						c0.41,6.088-1.453,12.918-6.02,17.225c-2.797,2.639-5.971,4.48-9.359,5.773c-0.014,0.287-0.031,0.578-0.047,0.871
						c17.807,18.168-2.555,55.986-25.385,57.902c-0.367,0.402-0.729,0.799-1.107,1.197c0,0-0.055-0.053-0.129-0.135l0.117,6.389
						L163.566,343c0,0,33.072-16.865,38.08-59.963c0,0-3.166-3.449-12.805-6.262c0,0,5.842-2.109,12.666-1.232
						C201.508,275.543,214.014,268.67,206.477,248.375z"/>
					<path style="fill:#00B1C3;" d="M152.699,343.201"/>
					
						<rect x="151.243" y="264.215" transform="matrix(0.9998 -0.0193 0.0193 0.9998 -5.7522 2.9817)" style="fill:#C6C6C6;" width="1.319" height="71.746"/>
					<path style="fill:#DEDEDE;" d="M128.795,240.541c0,0-18.506,7.061-9.076,30.018c0,0,1.646-24.551,31.93,2.158
						c0,0,1.605-20.658-9.848-24.82C141.801,247.896,128.9,246.195,128.795,240.541z"/>
					<path style="fill:#DEDEDE;" d="M173.209,239.719c0,0,16.887,6.053,7.941,26.951c0,0-9.641-21.324-29.502,6.047
						c0,0-3.305-22.631,8.834-25.168C160.482,247.549,173.313,245.373,173.209,239.719z"/>
					<path style="fill:#DC9F2E;" d="M120.959,107.285c0,0,32.18,43.939,69.787,54.24l-2.848,69.289c0,0,1.227,12.941-13.77,19.715
						c0,0,26.91,6.652,31.869-12.574l-3.705-84.473C202.293,153.482,194.117,65.6,120.959,107.285z"/>
					<path style="fill:#DC9F2E;" d="M115.318,251.621l-1.645-88.664c-2.375-38.334,29.186-42.828,29.186-42.828l-15.051-15.811
						c0,0-52.824,11.375-34.334,130.379C93.475,234.697,92.523,252.713,115.318,251.621z"/>
					<g>
						<path style="fill:#C6C6C6;" d="M127.338,111.693c0,0,1.106-0.896,3.254-2.162c1.08-0.617,2.402-1.375,3.992-2.088
							c0.791-0.371,1.65-0.725,2.559-1.105c0.916-0.352,1.887-0.713,2.924-1.029c1.023-0.346,2.119-0.629,3.256-0.932
							c0.566-0.156,1.158-0.25,1.756-0.377c0.592-0.125,1.201-0.242,1.826-0.322c2.479-0.41,5.166-0.523,7.945-0.391
							c0.693,0.055,1.398,0.111,2.104,0.17c0.705,0.111,1.412,0.227,2.125,0.344c0.715,0.096,1.42,0.287,2.131,0.471l1.068,0.279
							l0.537,0.143l0.52,0.184c0.695,0.256,1.396,0.512,2.1,0.766c0.701,0.264,1.363,0.625,2.043,0.945l1.014,0.494
							c0.336,0.174,0.646,0.383,0.975,0.574l1.928,1.184c2.422,1.777,4.75,3.711,6.619,5.969c0.477,0.551,0.963,1.096,1.426,1.654
							c0.416,0.588,0.83,1.174,1.242,1.75c0.402,0.588,0.836,1.148,1.203,1.742c0.35,0.604,0.695,1.205,1.039,1.799
							c0.34,0.596,0.676,1.184,1.014,1.766c0.285,0.609,0.564,1.205,0.844,1.803c0.537,1.191,1.129,2.33,1.518,3.512
							c0.424,1.162,0.836,2.295,1.232,3.387c0.332,1.115,0.617,2.197,0.908,3.23c0.271,1.039,0.6,2.01,0.758,2.979
							c0.188,0.955,0.359,1.861,0.525,2.715c0.15,0.854,0.34,1.639,0.43,2.383c0.088,0.746,0.168,1.43,0.242,2.049
							c0.154,1.229,0.232,2.201,0.303,2.861c0.057,0.66,0.086,1.012,0.086,1.012s-0.123-0.334-0.354-0.959
							c-0.219-0.627-0.566-1.537-0.955-2.701c-0.197-0.582-0.414-1.225-0.652-1.926c-0.262-0.691-0.547-1.434-0.85-2.236
							c-0.621-1.584-1.25-3.393-2.107-5.285c-0.414-0.953-0.826-1.949-1.287-2.963c-0.498-0.998-1.01-2.024-1.535-3.082
							c-0.486-1.072-1.129-2.092-1.73-3.158c-0.303-0.535-0.611-1.072-0.918-1.613c-0.348-0.518-0.697-1.039-1.049-1.564
							c-0.35-0.521-0.701-1.051-1.059-1.586c-0.361-0.529-0.783-1.01-1.172-1.523c-0.396-0.506-0.799-1.016-1.197-1.527
							c-0.439-0.475-0.877-0.951-1.318-1.43c-1.738-1.951-3.775-3.609-5.879-5.139l-1.654-1.033
							c-0.279-0.166-0.543-0.357-0.832-0.504l-0.869-0.434l-0.867-0.434c-0.293-0.139-0.566-0.313-0.871-0.418
							c-0.6-0.236-1.199-0.473-1.795-0.713c-2.418-0.828-4.883-1.492-7.355-1.756c-2.463-0.275-4.895-0.4-7.211-0.246
							c-2.314,0.119-4.523,0.356-6.549,0.725c-4.055,0.699-7.404,1.695-9.734,2.445c-1.16,0.396-2.08,0.697-2.693,0.941
							C127.666,111.566,127.338,111.693,127.338,111.693z"/>
					</g>
					<g>
						<path style="fill:#C6C6C6;" d="M125.762,118.537c0,0,1.014-0.898,3.021-2.168c1.006-0.627,2.248-1.369,3.74-2.109
							c1.494-0.715,3.219-1.494,5.186-2.133c1.961-0.648,4.146-1.236,6.533-1.559c2.381-0.334,4.957-0.482,7.619-0.184
							c2.654,0.27,5.418,0.863,8.031,1.998l0.988,0.398c0.322,0.152,0.633,0.324,0.953,0.484c0.629,0.336,1.279,0.654,1.896,1.021
							c1.178,0.811,2.434,1.543,3.5,2.504c0.541,0.465,1.104,0.908,1.627,1.395l1.49,1.521l0.738,0.764
							c0.24,0.262,0.445,0.545,0.668,0.816c0.434,0.549,0.867,1.094,1.301,1.639c0.451,0.529,0.797,1.123,1.186,1.691
							c0.367,0.572,0.734,1.145,1.102,1.711l0.273,0.422l0.24,0.441c0.156,0.297,0.314,0.588,0.471,0.881
							c0.309,0.582,0.613,1.166,0.918,1.736c0.318,0.57,0.566,1.162,0.816,1.746c0.25,0.584,0.494,1.162,0.738,1.736
							c0.234,0.574,0.498,1.131,0.691,1.701c0.195,0.576,0.389,1.139,0.576,1.695c0.186,0.559,0.369,1.109,0.545,1.648
							c0.178,0.543,0.369,1.072,0.488,1.609c0.271,1.068,0.529,2.096,0.779,3.088c0.121,0.494,0.236,0.977,0.354,1.449
							c0.088,0.482,0.174,0.947,0.258,1.404c0.158,0.91,0.307,1.775,0.445,2.588c0.309,1.615,0.414,3.057,0.535,4.229
							c0.125,1.174,0.184,2.1,0.238,2.727c0.043,0.629,0.066,0.961,0.066,0.961s-0.111-0.316-0.324-0.916
							c-0.199-0.596-0.514-1.467-0.865-2.584c-0.357-1.115-0.77-2.469-1.346-3.99c-0.273-0.764-0.561-1.572-0.867-2.428
							c-0.145-0.426-0.299-0.865-0.457-1.314c-0.178-0.439-0.359-0.889-0.547-1.348c-0.365-0.918-0.742-1.875-1.137-2.865
							c-0.385-0.988-0.883-1.969-1.338-2.992c-0.23-0.514-0.463-1.031-0.699-1.557c-0.23-0.523-0.531-1.023-0.797-1.545
							c-0.27-0.518-0.547-1.039-0.822-1.566c-0.27-0.531-0.543-1.068-0.875-1.572c-0.316-0.512-0.631-1.029-0.953-1.553
							l-0.473-0.785l-0.24-0.395l-0.268-0.373c-0.359-0.5-0.719-1-1.082-1.504c-0.365-0.502-0.695-1.037-1.115-1.49
							c-0.396-0.475-0.801-0.947-1.203-1.43c-0.203-0.234-0.395-0.48-0.607-0.709l-0.658-0.658l-1.316-1.324
							c-0.459-0.418-0.955-0.789-1.426-1.193c-0.908-0.85-1.98-1.463-2.979-2.182c-0.523-0.315-1.066-0.59-1.594-0.896
							c-0.266-0.149-0.525-0.305-0.797-0.443l-0.832-0.361c-0.563-0.23-1.1-0.512-1.668-0.697c-0.57-0.195-1.137-0.383-1.699-0.574
							s-1.152-0.291-1.721-0.438c-0.287-0.07-0.576-0.141-0.859-0.209c-0.291-0.045-0.58-0.094-0.867-0.139
							c-0.578-0.078-1.146-0.213-1.725-0.248c-0.574-0.047-1.148-0.096-1.713-0.146c-0.566-0.033-1.133-0.021-1.691-0.037
							c-0.559-0.023-1.109,0-1.658,0.029c-2.191,0.063-4.275,0.352-6.188,0.699c-1.928,0.334-3.668,0.807-5.213,1.232
							c-1.539,0.451-2.885,0.885-3.977,1.285c-1.088,0.414-1.951,0.729-2.529,0.98C126.07,118.402,125.762,118.537,125.762,118.537z
							"/>
					</g>
					<path style="fill:#C6C6C6;" d="M120.865,122.939c0,0-0.451,0.238-1.195,0.822c-0.742,0.576-1.764,1.514-2.885,2.84
						c-1.119,1.324-2.291,3.078-3.379,5.207c-1.057,2.146-2.017,4.674-2.73,7.525c-0.699,2.852-1.193,6.006-1.424,9.375
						c-0.217,3.369-0.197,6.947,0.016,10.641c0.215,3.879,0.338,7.73,0.434,11.73c0.096,3.98,0.191,8.027,0.287,12.07
						c0.047,4.041,0.096,8.088,0.141,12.068c0.045,3.982,0,7.9,0.008,11.695c0.014,3.789-0.08,7.457-0.125,10.934
						c-0.031,3.479-0.141,6.766-0.227,9.801c-0.17,6.072-0.414,11.135-0.613,14.676c-0.197,3.547-0.363,5.572-0.363,5.572
						s-0.24-2.018-0.57-5.553c-0.328-3.535-0.762-8.582-1.154-14.643c-0.199-3.031-0.43-6.313-0.592-9.787
						c-0.172-3.473-0.404-7.135-0.525-10.926c-0.137-3.789-0.33-7.705-0.432-11.684c-0.102-3.982-0.205-8.025-0.305-12.068
						c-0.055-4.045-0.107-8.088-0.158-12.068c-0.084-3.963-0.014-7.947-0.066-11.646c-0.031-0.969-0.031-1.934-0.01-2.889
						c0.002-0.953,0.033-1.902,0.09-2.836c0.104-1.873,0.301-3.699,0.549-5.471c0.24-1.773,0.574-3.486,0.943-5.133
						c0.422-1.637,0.869-3.209,1.414-4.682c1.033-2.963,2.373-5.539,3.793-7.652c1.418-2.119,2.932-3.76,4.301-4.943
						c1.357-1.207,2.594-1.934,3.439-2.383C120.377,123.092,120.865,122.939,120.865,122.939z"/>
					<path style="fill:#C6C6C6;" d="M110.764,127.529c0,0-0.42,0.221-1.111,0.762c-0.693,0.537-1.641,1.406-2.68,2.641
						c-1.043,1.232-2.135,2.865-3.145,4.84c-0.979,1.996-1.873,4.344-2.535,6.996c-0.65,2.648-1.111,5.58-1.326,8.711
						c-0.201,3.133-0.182,6.457,0.016,9.891c0.199,3.604,0.313,7.188,0.4,10.902c0.092,3.699,0.182,7.461,0.271,11.219
						c0.043,3.758,0.086,7.516,0.131,11.215c0.039,3.701-0.002,7.344,0.006,10.869c0.014,3.523-0.072,6.934-0.115,10.164
						c-0.031,3.232-0.133,6.287-0.213,9.109c-0.156,5.643-0.383,10.35-0.568,13.643c-0.078,1.646-0.189,2.939-0.244,3.822
						c-0.063,0.883-0.094,1.354-0.094,1.354s-0.051-0.471-0.145-1.35c-0.084-0.879-0.244-2.166-0.385-3.811
						c-0.307-3.285-0.707-7.977-1.074-13.609c-0.184-2.816-0.398-5.867-0.551-9.096c-0.162-3.23-0.375-6.635-0.486-10.152
						c-0.131-3.525-0.307-7.164-0.402-10.865c-0.094-3.699-0.189-7.453-0.285-11.213c-0.047-3.762-0.096-7.518-0.143-11.219
						c-0.08-3.682-0.014-7.383-0.064-10.826c-0.084-3.605,0.107-7.109,0.582-10.404c0.227-1.646,0.535-3.238,0.879-4.768
						c0.393-1.521,0.809-2.982,1.316-4.352c0.957-2.754,2.201-5.15,3.527-7.113c1.313-1.967,2.721-3.494,3.996-4.596
						c1.258-1.121,2.408-1.797,3.195-2.209C110.311,127.668,110.764,127.529,110.764,127.529z"/>
				</g>
				<g>
					<path style="fill:#BE7500;" d="M234.861,164.377c0.039,2.207-1.725,4.029-3.943,4.07l0,0c-2.221,0.043-4.053-1.717-4.092-3.922
						l0,0c-0.041-2.207,1.723-4.029,3.943-4.07l0,0C232.988,160.414,234.82,162.17,234.861,164.377L234.861,164.377z"/>
					<g>
						<path style="fill:#464F5B;" d="M198.656,153.553c-0.104-5.641,4.41-10.299,10.08-10.402l0,0
							c5.674-0.105,10.357,4.377,10.459,10.021l0.428,22.982c0.104,5.641-4.41,10.299-10.08,10.404l0,0
							c-5.674,0.107-10.354-4.383-10.461-10.023L198.656,153.553z"/>
						<path style="fill:#C6C6C6;" d="M211.041,153.871c4.545,5.404,5.264,11.768,4.127,18.527
							c-0.979,5.793-5.174,11.703-11.176,12.652c1.615,0.986,3.514,1.549,5.551,1.508c5.67-0.105,10.184-4.764,10.08-10.404
							l-0.428-22.982c-0.102-5.645-4.785-10.127-10.459-10.021c-4.434,0.08-8.146,2.947-9.514,6.891
							C203.557,149.428,208.096,150.363,211.041,153.871z"/>
						<path style="opacity:0.5;fill:#FFFFFF;" d="M202.293,153.482c-0.008-0.584,0.459-1.07,1.051-1.078l0,0
							c0.59-0.014,1.076,0.453,1.088,1.041l0.48,25.963c0.014,0.586-0.457,1.074-1.047,1.084l0,0
							c-0.592,0.008-1.08-0.457-1.092-1.045L202.293,153.482z"/>
					</g>
					<g>
						<path style="fill:#F9B233;" d="M217.734,149.037l0.58,31.305c6.865-2.029,11.809-8.408,11.674-15.873
							C229.85,157.002,224.668,150.811,217.734,149.037z"/>
						<path style="fill:#DADADA;" d="M225.238,170.539c-5.293-3.258-6.719-7.967-7.357-13.656l0.434,23.459
							c4.436-1.309,8.063-4.447,10.045-8.514C227.268,171.557,226.213,171.139,225.238,170.539z"/>
					</g>
					
						<path style="fill:none;stroke:#2C343F;stroke-width:3.8414;stroke-linecap:round;stroke-linejoin:round;stroke-miterlimit:10;" d="
						M223.283,173.107c0,0,6.896,53.555-49.604,53.076"/>
					<path style="fill:#232A33;" d="M175.719,226.355c0.051,2.588-2.021,4.723-4.617,4.77l-6.316,0.117
						c-2.602,0.047-4.748-2.008-4.795-4.594l0,0c-0.049-2.584,2.021-4.721,4.619-4.768l6.32-0.117
						C173.525,221.715,175.674,223.771,175.719,226.355L175.719,226.355z"/>
					<path style="fill:#BE7500;" d="M73.496,167.367c0.041,2.207,1.873,3.965,4.092,3.922l0,0c2.221-0.039,3.986-1.863,3.943-4.068
						l0,0c-0.043-2.207-1.871-3.963-4.094-3.924l0,0C75.221,163.338,73.455,165.162,73.496,167.367L73.496,167.367z"/>
					<g>
						<path style="fill:#464F5B;" d="M109.275,155.209c-0.107-5.641-4.785-10.127-10.459-10.023l0,0
							c-5.672,0.105-10.186,4.764-10.082,10.404l0.428,22.984c0.104,5.639,4.785,10.129,10.459,10.021l0,0
							c5.672-0.104,10.184-4.762,10.08-10.404L109.275,155.209z"/>
						<path style="fill:#C6C6C6;" d="M96.908,155.986c-4.338,5.568-4.822,11.953-3.434,18.668
							c1.186,5.756,5.598,11.506,11.635,12.229c-1.574,1.047-3.455,1.676-5.488,1.713c-5.674,0.107-10.355-4.383-10.459-10.021
							l-0.428-22.984c-0.104-5.641,4.41-10.299,10.082-10.404c4.432-0.08,8.252,2.646,9.76,6.535
							C104.23,151.268,99.725,152.371,96.908,155.986z"/>
						<path style="opacity:0.5;fill:#FFFFFF;" d="M105.637,155.275c-0.008-0.588-0.498-1.053-1.088-1.043l0,0
							c-0.588,0.012-1.061,0.496-1.051,1.084l0.482,25.963c0.01,0.586,0.5,1.053,1.086,1.043l0,0
							c0.592-0.01,1.063-0.494,1.051-1.082L105.637,155.275z"/>
					</g>
					<g>
						<path style="fill:#F9B233;" d="M90.043,151.404l0.58,31.303c-6.934-1.77-12.115-7.965-12.254-15.428
							C78.23,159.813,83.182,153.436,90.043,151.404z"/>
						<path style="fill:#DADADA;" d="M83.338,173.17c5.17-3.449,6.418-8.213,6.852-13.92l0.434,23.457
							c-4.482-1.145-8.225-4.145-10.35-8.135C81.354,174.262,82.389,173.803,83.338,173.17z"/>
					</g>
				</g>
			</g>
		</g>
		<g>
			<path style="fill:#6AB42D;" d="M280.496,120.775c0,0,9.674,16.248,0,29.885c0,0,29.732-6.377,29.922-26.076L280.496,120.775z"/>
			<path style="fill:#C6C6C6;" d="M280.496,120.775c0,0,9.674,16.248,0,29.885c0,0,29.732-6.377,29.922-26.076L280.496,120.775z"/>
			<path style="fill:#6AB42D;" d="M365.115,89.859c0,23.961-27.15,43.385-60.645,43.385c-33.492,0-60.643-19.424-60.643-43.385
				c0-23.961,27.15-43.385,60.643-43.385C337.965,46.475,365.115,65.898,365.115,89.859z"/>
			<path style="fill:#C6C6C6;" d="M364.943,86.746c-2.01,18.637-23.771,33.316-50.338,33.316c-27.895,0-50.508-16.176-50.508-36.133
				c0-19.955,22.613-36.131,50.508-36.131c2.1,0,4.162,0.102,6.195,0.279c-5.197-1.037-10.67-1.603-16.33-1.603
				c-33.492,0-60.643,19.424-60.643,43.385c0,23.961,27.15,43.385,60.643,43.385c33.494,0,60.645-19.424,60.645-43.385
				C365.115,88.811,365.045,87.775,364.943,86.746z"/>
			<path style="fill:#FFFFFF;" d="M345.494,76.869c0,8.918-14.016,16.146-31.305,16.146c-17.287,0-31.303-7.229-31.303-16.146
				c0-8.916,14.016-16.147,31.303-16.147C331.478,60.723,345.494,67.953,345.494,76.869z"/>
			<g>
				<g>
					<path style="fill:#FFFFFF;" d="M286.469,89.859c0,3.715-3.01,6.729-6.727,6.729c-3.717,0-6.727-3.014-6.727-6.729
						c0-3.715,3.01-6.727,6.727-6.727C283.459,83.133,286.469,86.145,286.469,89.859z"/>
					<path style="fill:#DADADA;" d="M281.031,83.258c-0.416-0.08-0.844-0.125-1.289-0.125c-3.717,0-6.727,3.012-6.727,6.727
						c0,3.715,3.01,6.729,6.727,6.729c1.135,0,2.205-0.285,3.145-0.783C278.627,93.299,278.012,86.898,281.031,83.258z"/>
				</g>
				<g>
					<path style="fill:#FFFFFF;" d="M311.197,89.859c0,3.715-3.01,6.729-6.727,6.729s-6.725-3.014-6.725-6.729
						c0-3.715,3.008-6.727,6.725-6.727S311.197,86.145,311.197,89.859z"/>
					<path style="fill:#DADADA;" d="M305.764,83.258c-0.42-0.08-0.85-0.125-1.293-0.125c-3.717,0-6.725,3.012-6.725,6.727
						c0,3.715,3.008,6.729,6.725,6.729c1.137,0,2.207-0.285,3.146-0.783C303.355,93.299,302.742,86.898,305.764,83.258z"/>
				</g>
				<g>
					<path style="fill:#FFFFFF;" d="M335.928,89.859c0,3.715-3.012,6.729-6.729,6.729c-3.715,0-6.725-3.014-6.725-6.729
						c0-3.715,3.01-6.727,6.725-6.727C332.916,83.133,335.928,86.145,335.928,89.859z"/>
					<path style="fill:#DADADA;" d="M330.49,83.258c-0.416-0.08-0.846-0.125-1.291-0.125c-3.715,0-6.725,3.012-6.725,6.727
						c0,3.715,3.01,6.729,6.725,6.729c1.137,0,2.207-0.285,3.145-0.783C328.086,93.299,327.469,86.898,330.49,83.258z"/>
				</g>
			</g>
		</g>
		<path style="fill:#9D9D9C;" d="M383.748,150.488c0,0.002,0,0.002,0,0.002c4.625-14.953-5.824-33.014-24.658-43.277
			c-0.113-0.061-0.229-0.119-0.342-0.182c-0.723-0.387-1.457-0.764-2.203-1.129c-0.209-0.102-0.416-0.203-0.627-0.305
			c-0.873-0.414-1.756-0.818-2.66-1.199c-23.477-9.895-48.246-4.301-55.324,12.496c-5.572,13.221,1.484,29.436,16.188,40.566
			c-0.871,4.377-3.082,9.559-8.445,12.883c0,0,15.935,3.02,24.611-4.078c22.66,8.402,45.852,2.619,52.662-13.543
			c0.172-0.408,0.324-0.818,0.469-1.232c0.117-0.328,0.223-0.656,0.326-0.986C383.744,150.498,383.746,150.494,383.748,150.488z"/>
		<g>
			<path style="fill:#F39200;" d="M325.434,150.057c0,0,1.982,14.246-8.828,20.945c0,0,22.723,4.314,28.676-9.438L325.434,150.057z"
				/>
			<path style="fill:#C6C6C6;" d="M325.434,150.057c0,0,1.982,14.246-8.828,20.945c0,0,22.723,4.314,28.676-9.438L325.434,150.057z"
				/>
			<path style="fill:#F39200;" d="M393.879,153.383c-7.078,16.795-31.846,22.391-55.324,12.496
				c-23.477-9.893-36.77-31.529-29.691-48.326c7.078-16.795,31.848-22.389,55.324-12.494
				C387.666,114.953,400.957,136.588,393.879,153.383z"/>
			<path style="fill:#C6C6C6;" d="M394.678,151.148c-6.914,12.473-26.504,16.332-45.125,8.484
				c-19.553-8.24-30.625-26.26-24.73-40.248c5.895-13.986,26.525-18.645,46.078-10.406c1.471,0.621,2.887,1.303,4.258,2.027
				c-3.334-2.264-7.006-4.277-10.971-5.947c-23.477-9.895-48.246-4.301-55.324,12.494c-7.078,16.797,6.215,38.434,29.691,48.326
				c23.479,9.895,48.246,4.299,55.324-12.496C394.188,152.648,394.445,151.9,394.678,151.148z"/>
			<path style="fill:#FFFFFF;" d="M383.963,138.482c-2.635,6.25-14.594,7.178-26.711,2.068
				c-12.119-5.105-19.807-14.313-17.172-20.563c2.633-6.25,14.594-7.178,26.711-2.072
				C378.908,123.023,386.598,132.23,383.963,138.482z"/>
			<g>
				<g>
					<path style="fill:#FFFFFF;" d="M337.678,135.307c-0.033,2.824-2.35,5.088-5.178,5.055c-2.826-0.033-5.088-2.352-5.055-5.178
						c0.035-2.826,2.352-5.09,5.178-5.057C335.449,130.16,337.713,132.479,337.678,135.307z"/>
					<path style="fill:#DADADA;" d="M333.603,130.236c-0.316-0.066-0.644-0.105-0.98-0.109c-2.826-0.033-5.142,2.23-5.178,5.057
						c-0.033,2.826,2.228,5.145,5.055,5.178c0.863,0.012,1.682-0.197,2.4-0.566C331.682,137.85,331.273,132.977,333.603,130.236z"/>
				</g>
				<g>
					<path style="fill:#FFFFFF;" d="M356.488,135.529c-0.035,2.826-2.352,5.09-5.178,5.057c-2.826-0.035-5.088-2.352-5.055-5.178
						c0.033-2.828,2.35-5.09,5.176-5.057C354.26,130.385,356.522,132.703,356.488,135.529z"/>
					<path style="fill:#DADADA;" d="M352.414,130.459c-0.318-0.064-0.645-0.104-0.982-0.107c-2.826-0.033-5.143,2.229-5.176,5.057
						c-0.033,2.826,2.229,5.143,5.055,5.178c0.863,0.01,1.68-0.197,2.399-0.566C350.49,138.074,350.082,133.199,352.414,130.459z"/>
				</g>
				<g>
					<path style="fill:#FFFFFF;" d="M375.297,135.754c-0.033,2.826-2.354,5.09-5.178,5.055c-2.826-0.033-5.09-2.352-5.055-5.178
						c0.033-2.826,2.35-5.088,5.176-5.055C373.066,130.609,375.33,132.926,375.297,135.754z"/>
					<path style="fill:#DADADA;" d="M371.221,130.684c-0.316-0.066-0.643-0.104-0.98-0.107c-2.826-0.033-5.143,2.229-5.176,5.055
						c-0.035,2.826,2.229,5.145,5.055,5.178c0.863,0.012,1.68-0.195,2.398-0.566C369.301,138.299,368.891,133.424,371.221,130.684z"
						/>
				</g>
			</g>
		</g>
		<g>
			<g>
				<path style="fill:none;stroke:#4ABCC8;stroke-width:1.9054;stroke-miterlimit:10;" d="M307.484,302.953
					c0,0.085-3.733,4.037-2.358,4.31c0.628,0.125,2.657-7.194,3.511-7.07c0.686,0.1,0.502,7.696,1.312,7.78
					c0.711,0.074,2.113-7.392,2.905-7.339c0.724,0.049,1.107,7.64,1.888,7.665c0.733,0.022,1.589-7.527,2.364-7.531
					c0.738-0.004,1.678,7.538,2.447,7.505c0.742-0.032,1.02-7.624,1.783-7.688c0.744-0.061,2.281,7.379,3.041,7.283
					c0.742-0.094,0.375-7.682,1.125-7.811c0.74-0.128,2.955,7.141,3.697,6.975c0.732-0.166-0.383-7.678,0.35-7.884
					c0.725-0.203,3.701,6.786,4.418,6.538c0.713-0.245-1.264-7.577-0.564-7.868c0.696-0.29,4.523,6.272,5.202,5.933
					c0.674-0.335-2.272-7.335-1.618-7.722c0.646-0.383,5.378,5.558,6,5.121c0.615-0.431-3.366-6.895-2.78-7.382
					c0.578-0.478,6.2,4.628,6.745,4.094c0.533-0.523-4.46-6.241-3.96-6.82c0.486-0.565,6.879,3.53,7.33,2.91
					c0.436-0.602-5.438-5.413-5.039-6.07c0.385-0.635,7.359,2.369,7.707,1.681c0.334-0.661-6.219-4.498-5.924-5.21
					c0.284-0.684,7.625,1.264,7.873,0.531c0.234-0.701-6.783-3.606-6.584-4.354c0.191-0.715,7.721,0.286,7.877-0.472
					c0.148-0.726-7.141-2.917-7.027-3.683c0.251-1.358,7.662,0.293,7.939-1.432c0.123-0.773-7.219-2.792-7.08-3.833
					c0.113-0.837,7.732-0.847,7.838-1.832c0.094-0.866-7.344-2.504-7.264-3.467c0.073-0.884,7.681-1.278,7.734-2.229
					c0.051-0.894-7.461-2.142-7.434-3.083c0.027-0.9,7.602-1.702,7.604-2.639c0.002-0.907-7.57-1.721-7.6-2.652
					c-0.027-0.912,7.482-2.191,7.422-3.118c-0.059-0.914-7.668-1.205-7.764-2.125c-0.092-0.914,7.299-2.758,7.166-3.672
					c-0.133-0.91-7.739-0.559-7.914-1.463c-0.176-0.907,7.005-3.447,6.781-4.339c-0.226-0.896-7.747,0.277-8.025-0.597
					c-0.279-0.884,6.531-4.288,6.193-5.14c-0.342-0.862-7.62,1.359-8.024,0.538c-0.41-0.831,5.758-5.289,5.278-6.07
					c-0.484-0.788-7.226,2.733-7.785,2.005c-0.562-0.73,4.548-6.365,3.907-7.027c-0.639-0.657-6.4,4.301-7.124,3.72
					c-0.709-0.57,2.882-7.271,2.086-7.76c-0.772-0.473-5.12,5.764-5.976,5.375c-0.818-0.371,1.027-7.748,0.125-8.034
					c-0.853-0.271-3.644,6.805-4.574,6.615c-0.875-0.179-0.628-7.784-1.573-7.885c-0.888-0.095-2.299,7.384-3.251,7.36
					c-0.893-0.021-1.901-7.567-2.853-7.522c-0.893,0.043-1.222,7.649-2.168,7.753"/>
			</g>
			<g>
				<g>
					<g>
						<path style="fill:#4ABCC8;" d="M180.607,223.391c0,0-13.158,12.811-6.232,33.586h22.477h3.492h22.475
							c6.924-20.775-6.232-33.586-6.232-33.586s-17.521-14.66,35.227-11.832v-18.174
							C251.813,193.385,205.883,192.691,180.607,223.391z"/>
						<path style="fill:#C6C6C6;" d="M219.768,247.023c-6.438,1.873-13.508,2.383-20.096,1c-6.51-1.367-10.537-3.693-14.564-8.475
							c-2.441-2.9-8.617-12.297-4.5-16.158c-0.006,0.006-13.156,12.816-6.232,33.586h48.443c1.436-4.309,2.006-8.275,2.012-11.857
							C223.18,245.893,221.471,246.527,219.768,247.023z"/>
						<g>
							<path style="fill:#127180;" d="M172.57,251.436c-0.063,0.299-0.096,0.607-0.096,0.924v2.998c0,2.486,2.016,4.502,4.5,4.502
								h43.355c2.486,0,4.502-2.016,4.502-4.502v-2.998c0-0.316-0.033-0.625-0.096-0.924H172.57z"/>
							<path style="fill:#C6C6C6;" d="M198.367,256.877c-4.188-0.73-8.959-1.635-12.568-4.014c-0.617-0.406-1.25-0.883-1.814-1.428
								h-11.471c-0.063,0.299-0.096,0.607-0.096,0.924v2.998c0,2.486,2.014,4.502,4.5,4.502h43.355c2.486,0,4.502-2.016,4.502-4.502
								v-2.248c-2.889,1.611-6.172,2.461-9.369,3.256C209.623,257.805,204.168,257.887,198.367,256.877z"/>
						</g>
						<path style="fill:#FFFFFF;" d="M172.947,251.436h51.299c0.129-0.705,0.234-1.396,0.318-2.078h-51.934
							C172.713,250.039,172.818,250.73,172.947,251.436z"/>
						<path style="fill:#FFFFFF;" d="M212.809,225.697h-8.248c3.473,4.918,7.307,12.131,7.172,19.877
							c5.326-0.773,8.691-3.025,8.691-3.025C221.117,233.662,212.809,225.697,212.809,225.697z"/>
					</g>
					<g>
						<path style="fill:#4ABCC8;" d="M325.414,223.391c0,0,13.156,12.811,6.232,33.586H309.17h-3.492h-22.475
							c-6.926-20.775,6.232-33.586,6.232-33.586s14.576-14.66-38.17-11.832v-18.174
							C251.266,193.385,300.139,192.691,325.414,223.391z"/>
						<path style="fill:#C6C6C6;" d="M286.254,247.023c6.438,1.873,13.508,2.383,20.096,1c6.51-1.367,10.537-3.693,14.563-8.475
							c2.443-2.9,8.617-12.297,4.502-16.158c0.006,0.006,13.154,12.816,6.232,33.586h-48.443c-1.435-4.309-2.008-8.275-2.012-11.857
							C282.84,245.893,284.549,246.527,286.254,247.023z"/>
						<g>
							<path style="fill:#127180;" d="M333.451,251.436c0.063,0.299,0.094,0.607,0.094,0.924v2.998c0,2.486-2.014,4.502-4.5,4.502
								h-43.355c-2.486,0-4.502-2.016-4.502-4.502v-2.998c0-0.316,0.035-0.625,0.098-0.924H333.451z"/>
							<path style="fill:#C6C6C6;" d="M307.652,256.877c4.189-0.73,8.959-1.635,12.57-4.014c0.615-0.406,1.25-0.883,1.814-1.428
								h11.469c0.063,0.299,0.098,0.607,0.098,0.924v2.998c0,2.486-2.016,4.502-4.502,4.502h-43.355c-2.484,0-4.5-2.016-4.5-4.502
								v-2.248c2.887,1.611,6.172,2.461,9.369,3.256C296.398,257.805,301.853,257.887,307.652,256.877z"/>
						</g>
						<path style="fill:#FFFFFF;" d="M333.074,251.436h-51.301c-0.125-0.705-0.23-1.396-0.316-2.078h51.934
							C333.307,250.039,333.203,250.73,333.074,251.436z"/>
						<path style="fill:#FFFFFF;" d="M293.213,225.697h8.248c-3.473,4.918-7.307,12.131-7.172,19.877
							c-5.328-0.773-8.693-3.025-8.693-3.025C284.904,233.662,293.213,225.697,293.213,225.697z"/>
					</g>
				</g>
				<g>
					<path style="fill:#127180;" d="M310.525,332.629c0,4.943-3.412,8.951-7.621,8.951h-99.787c-4.209,0-7.621-4.008-7.621-8.951
						v-10.674c0-4.945,3.412-8.955,7.621-8.955h99.787c4.209,0,7.621,4.01,7.621,8.955V332.629z"/>
					<path style="fill:#C6C6C6;" d="M294.162,335.713c-13.328,3.25-27.17,4.514-40.869,3.879c-7.375-0.34-14.744-1.125-22.02-2.391
						c-5.348-0.928-11.021-2.648-15.4-5.979c-4.775-3.631-8.293-8.43-8.494-14.643c-0.037-1.182,0.016-2.383,0.154-3.58h-4.416
						c-4.209,0-7.621,4.01-7.621,8.955v10.674c0,4.943,3.412,8.951,7.621,8.951h99.787c4.209,0,7.621-4.008,7.621-8.951v-3.412
						C305.555,332.26,299.941,334.303,294.162,335.713z"/>
					<path style="fill:#4ABCC8;" d="M297.088,244.242c0-2.613-1.459-4.896-3.643-6.172h-81.992
						c-1.809,1.326-2.979,3.398-2.979,5.736l-12.979,70.963c0,4,3.412,7.244,7.621,7.244h99.787c4.209,0,7.621-3.244,7.621-7.244
						L297.088,244.242z"/>
					<path style="fill:#FFFFFF;" d="M217.301,301.807c3.086-11.092,7.557-22.275,14.639-31.652
						c7.221-9.559,16.691-17.611,27.475-23.406c3.037-1.633,6.207-3.164,9.471-4.516h-53.313c-1.629,1.193-2.684,3.059-2.684,5.166
						l-11.691,63.928c0,3.604,3.074,6.525,6.863,6.525h5.959C214.73,312.434,215.84,307.059,217.301,301.807z"/>
					<path style="fill:#C6C6C6;" d="M297.088,244.242c0-2.613-1.459-4.896-3.643-6.172h-10.006
						c2.815,6.891,4.932,14.002,5.184,21.436c0.395,11.738-3.877,23.205-10.404,33.059c-9.236,13.943-22.303,23.543-37.185,29.449
						h61.871c4.209,0,7.621-3.244,7.621-7.244L297.088,244.242z"/>
					<path style="fill:#B2B2B2;" d="M255.912,250.227c-16.137,0-29.217,13.08-29.217,29.215c0,16.135,13.08,29.215,29.217,29.215
						c16.133,0,29.215-13.08,29.215-29.215C285.127,263.307,272.045,250.227,255.912,250.227z M255.912,295.435
						c-8.834,0-15.996-7.162-15.996-15.994c0-8.834,7.162-15.996,15.996-15.996c8.832,0,15.994,7.162,15.994,15.996
						C271.906,288.273,264.744,295.435,255.912,295.435z"/>
					<g>
						<path style="fill:#DADADA;" d="M237.223,288.174c0,2.105-1.705,3.811-3.809,3.811c-2.105,0-3.809-1.705-3.809-3.811
							c0-2.103,1.703-3.809,3.809-3.809C235.518,284.365,237.223,286.07,237.223,288.174z"/>
						<path style="fill:#DADADA;" d="M234.145,284.435c-0.236-0.045-0.48-0.07-0.73-0.07c-2.105,0-3.809,1.705-3.809,3.809
							c0,2.105,1.703,3.811,3.809,3.811c0.643,0,1.248-0.162,1.779-0.443C232.781,290.121,232.434,286.496,234.145,284.435z"/>
					</g>
					<path style="fill:#FFFFFF;" d="M253.01,248.637c-16.135,0-29.215,13.082-29.215,29.217c0,16.135,13.08,29.215,29.215,29.215
						c16.135,0,29.217-13.08,29.217-29.215C282.227,261.719,269.145,248.637,253.01,248.637z M253.01,293.848
						c-8.834,0-15.994-7.162-15.994-15.994c0-8.834,7.16-15.996,15.994-15.996c8.834,0,15.996,7.162,15.996,15.996
						C269.006,286.685,261.844,293.848,253.01,293.848z"/>
					<g>
						<path style="fill:#DADADA;" d="M278.637,273.25c0,2.103-1.705,3.81-3.81,3.81c-2.104,0-3.809-1.707-3.809-3.81
							s1.705-3.811,3.809-3.811C276.932,269.439,278.637,271.147,278.637,273.25z"/>
						<path style="fill:#DADADA;" d="M275.133,272.457v-0.158c0-0.99,0.33-1.91,0.879-2.668c-0.373-0.123-0.771-0.191-1.185-0.191
							c-2.104,0-3.809,1.707-3.809,3.811s1.705,3.81,3.809,3.81c0.883,0,1.695-0.305,2.338-0.809
							C275.947,275.42,275.133,274.02,275.133,272.457z"/>
					</g>
					<g>
						<path style="fill:#DADADA;" d="M273.873,263.564c0,2.104-1.705,3.809-3.809,3.809c-2.105,0-3.81-1.705-3.81-3.809
							c0-2.103,1.705-3.809,3.81-3.809C272.168,259.756,273.873,261.461,273.873,263.564z"/>
						<path style="fill:#DADADA;" d="M270.795,259.826c-0.238-0.045-0.482-0.07-0.73-0.07c-2.105,0-3.81,1.705-3.81,3.809
							c0,2.104,1.705,3.809,3.81,3.809c0.643,0,1.248-0.16,1.779-0.441C269.432,265.512,269.082,261.889,270.795,259.826z"/>
					</g>
					<g>
						<path style="fill:#DADADA;" d="M254.662,255.945c0,2.106-1.705,3.811-3.809,3.811c-2.105,0-3.811-1.705-3.811-3.811
							c0-2.104,1.705-3.809,3.811-3.809C252.957,252.137,254.662,253.842,254.662,255.945z"/>
						<path style="fill:#DADADA;" d="M251.584,252.207c-0.236-0.047-0.48-0.07-0.73-0.07c-2.105,0-3.811,1.705-3.811,3.809
							c0,2.106,1.705,3.811,3.811,3.811c0.643,0,1.25-0.162,1.781-0.443C250.221,257.892,249.873,254.27,251.584,252.207z"/>
					</g>
					<g>
						<path style="fill:#DADADA;" d="M266.254,257.055c0,2.104-1.707,3.809-3.811,3.809c-2.104,0-3.809-1.705-3.809-3.809
							c0-2.104,1.705-3.811,3.809-3.811C264.547,253.244,266.254,254.951,266.254,257.055z"/>
						<path style="fill:#DADADA;" d="M263.176,253.318c-0.236-0.047-0.48-0.074-0.732-0.074c-2.104,0-3.809,1.707-3.809,3.811
							c0,2.104,1.705,3.809,3.809,3.809c0.645,0,1.25-0.16,1.781-0.441C261.81,259.002,261.463,255.377,263.176,253.318z"/>
					</g>
					<g>
						<path style="fill:#DADADA;" d="M244.844,259.756c0,2.104-1.707,3.809-3.811,3.809c-2.105,0-3.811-1.705-3.811-3.809
							c0-2.105,1.705-3.811,3.811-3.811C243.137,255.945,244.844,257.65,244.844,259.756z"/>
						<path style="fill:#DADADA;" d="M241.764,256.017c-0.236-0.047-0.48-0.072-0.73-0.072c-2.105,0-3.811,1.705-3.811,3.811
							c0,2.104,1.705,3.809,3.811,3.809c0.643,0,1.248-0.162,1.779-0.443C240.4,261.703,240.051,258.078,241.764,256.017z"/>
					</g>
					<g>
						<path style="fill:#DADADA;" d="M237.223,267.373c0,2.105-1.705,3.811-3.809,3.811c-2.105,0-3.809-1.705-3.809-3.811
							c0-2.103,1.703-3.809,3.809-3.809C235.518,263.564,237.223,265.27,237.223,267.373z"/>
						<path style="fill:#DADADA;" d="M234.145,263.637c-0.236-0.047-0.48-0.072-0.73-0.072c-2.105,0-3.809,1.705-3.809,3.809
							c0,2.105,1.703,3.811,3.809,3.811c0.643,0,1.248-0.16,1.779-0.443C232.781,269.322,232.434,265.697,234.145,263.637z"/>
					</g>
					<g>
						<path style="fill:#DADADA;" d="M234.316,277.853c0,2.104-1.707,3.811-3.811,3.811c-2.104,0-3.811-1.707-3.811-3.811
							c0-2.105,1.707-3.811,3.811-3.811C232.609,274.043,234.316,275.748,234.316,277.853z"/>
						<path style="fill:#DADADA;" d="M231.238,274.115c-0.238-0.047-0.482-0.072-0.732-0.072c-2.104,0-3.811,1.705-3.811,3.811
							c0,2.104,1.707,3.811,3.811,3.811c0.643,0,1.248-0.162,1.781-0.443C229.873,279.801,229.525,276.176,231.238,274.115z"/>
					</g>
					<g>
						<path style="fill:#DADADA;" d="M237.223,288.174c0,2.105-1.705,3.811-3.809,3.811c-2.105,0-3.809-1.705-3.809-3.811
							c0-2.103,1.703-3.809,3.809-3.809C235.518,284.365,237.223,286.07,237.223,288.174z"/>
						<path style="fill:#DADADA;" d="M234.145,284.435c-0.236-0.045-0.48-0.07-0.73-0.07c-2.105,0-3.809,1.705-3.809,3.809
							c0,2.105,1.703,3.811,3.809,3.811c0.643,0,1.248-0.162,1.779-0.443C232.781,290.121,232.434,286.496,234.145,284.435z"/>
					</g>
					<g>
						<path style="fill:#DADADA;" d="M243.828,295.793c0,2.105-1.707,3.811-3.811,3.811s-3.809-1.705-3.809-3.811
							c0-2.104,1.705-3.809,3.809-3.809S243.828,293.689,243.828,295.793z"/>
						<path style="fill:#DADADA;" d="M240.75,292.057c-0.236-0.047-0.482-0.072-0.732-0.072c-2.104,0-3.809,1.705-3.809,3.809
							c0,2.105,1.705,3.811,3.809,3.811c0.643,0,1.25-0.16,1.781-0.443C239.387,297.74,239.037,294.117,240.75,292.057z"/>
					</g>
					<g>
						<path style="fill:#DADADA;" d="M254.662,300.953c0,2.104-1.705,3.811-3.809,3.811c-2.105,0-3.811-1.707-3.811-3.811
							c0-2.103,1.705-3.809,3.811-3.809C252.957,297.145,254.662,298.85,254.662,300.953z"/>
						<path style="fill:#DADADA;" d="M251.584,297.215c-0.236-0.045-0.48-0.07-0.73-0.07c-2.105,0-3.811,1.705-3.811,3.809
							c0,2.104,1.705,3.811,3.811,3.811c0.643,0,1.25-0.162,1.781-0.443C250.221,302.9,249.873,299.275,251.584,297.215z"/>
					</g>
					<g>
						<polygon style="fill:#B2B2B2;" points="264.225,291.984 271.018,308.656 280.125,300.32 						"/>
						<path style="fill:#B2B2B2;" d="M264.978,292.381l-0.754-0.396l6.793,16.672l6.365-5.826
							C271.877,301.719,266.215,297.623,264.978,292.381z"/>
					</g>
					<path style="fill:#4ABCC8;" d="M270.217,222.283c1.648,3.492-1.016,7.895-1.016,7.895h-10.254h-11.873H236.82
						c0,0-2.664-4.402-1.016-7.895H225.07c0,0-2.225,11.629,3.492,15.787h18.512h11.873h18.51
						c5.717-4.158,3.494-15.787,3.494-15.787H270.217z"/>
					<path style="fill:#C6C6C6;" d="M280.951,222.283h-4.813c0.264,2.959,0.262,9.926-3.105,12.375h-15.16h-9.725h-15.16
						c-3.367-2.449-3.369-9.416-3.105-12.375h-4.813c0,0-2.225,11.629,3.492,15.787h18.512h11.873h18.51
						C283.174,233.912,280.951,222.283,280.951,222.283z"/>
					<path style="fill:#FFFFFF;" d="M271.578,233.078c0,0.352-0.285,0.637-0.635,0.637h-35.865c-0.352,0-0.635-0.285-0.635-0.637
						l0,0c0-0.35,0.283-0.633,0.635-0.633h35.865C271.293,232.445,271.578,232.729,271.578,233.078L271.578,233.078z"/>
				</g>
			</g>
		</g>
	</g>
</g>
</svg>
