<?xml version="1.0" encoding="utf-8"?>
<!-- Generator: Adobe Illustrator 27.5.0, SVG Export Plug-In . SVG Version: 6.00 Build 0)  -->
<svg version="1.1" xmlns="http://www.w3.org/2000/svg" xmlns:xlink="http://www.w3.org/1999/xlink" x="0px" y="0px"
	 viewBox="0 0 500 500" style="enable-background:new 0 0 500 500;" xml:space="preserve">
<g id="BACKGROUND">
	<rect style="fill:#F8FFFE;" width="500" height="500"/>
</g>
<g id="DESIGNED_BY_FREEPIK">
	<g>
		<g id="XMLID_319_">
			<g id="XMLID_338_">
				<path id="XMLID_346_" style="fill:#A5B7C6;" d="M260.103,467.15c-0.432,0.443-0.803,0.932-1.107,1.453l-0.465-0.241
					c-0.068-0.297-0.35-0.502-0.66-0.466c-0.33,0.039-0.566,0.339-0.529,0.67c0.039,0.331,0.34,0.567,0.67,0.528
					c0.066-0.007,0.127-0.025,0.184-0.052l0.451,0.234c-0.25,0.554-0.432,1.139-0.539,1.743l0.748,0.132
					c0.229-1.306,0.85-2.507,1.791-3.473L260.103,467.15z"/>
				<path id="XMLID_345_" style="fill:#A5B7C6;" d="M265.592,464.849c-0.172,0-0.342,0.006-0.51,0.017l-0.074-0.626
					c0.188-0.149,0.297-0.389,0.266-0.645c-0.045-0.393-0.402-0.674-0.795-0.628c-0.393,0.046-0.674,0.402-0.627,0.796
					c0.029,0.254,0.189,0.461,0.404,0.564l0.072,0.624c-0.713,0.116-1.402,0.332-2.059,0.646l0.326,0.685
					c0.936-0.447,1.941-0.674,2.996-0.674c0.496,0,0.992,0.053,1.475,0.158l0.16-0.741
					C266.691,464.907,266.143,464.849,265.592,464.849z"/>
				<path id="XMLID_344_" style="fill:#A5B7C6;" d="M272.193,467.396c0.332-0.04,0.566-0.341,0.525-0.672
					c-0.039-0.331-0.34-0.566-0.672-0.525c-0.309,0.038-0.535,0.304-0.529,0.608l-0.416,0.363c-0.418-0.43-0.891-0.813-1.408-1.14
					l-0.404,0.642c1.135,0.715,2.021,1.727,2.564,2.925l0.69-0.313c-0.25-0.554-0.566-1.071-0.941-1.545l0.402-0.351
					C272.064,467.4,272.129,467.404,272.193,467.396z"/>
				<path id="XMLID_343_" style="fill:#A5B7C6;" d="M265.045,475.057c-0.387,0.023-0.775,0.035-1.158,0.035
					c-0.879,0-1.732-0.06-2.478-0.18c-0.391-0.062-0.846-0.154-1.27-0.292c1.047,1.861,3.068,3.125,5.389,3.125
					c2.855,0,5.262-1.916,5.949-4.503c-0.682,0.449-1.506,0.825-2.459,1.122C267.838,474.732,266.463,474.972,265.045,475.057z"/>
				<path id="XMLID_339_" style="fill:#A5B7C6;" d="M265.592,466.365c-3.352,0-6.08,2.666-6.08,5.943
					c0,0.425,0.047,0.849,0.137,1.261c0.674,0.483,2.707,0.891,5.348,0.732c2.881-0.174,5.297-0.958,6.672-2.159
					c-0.004-0.194-0.02-0.39-0.045-0.581C271.244,468.599,268.65,466.365,265.592,466.365z M263.432,472.88
					c-1.02,0-1.85-0.83-1.85-1.85c0-1.021,0.83-1.851,1.85-1.851c1.02,0,1.85,0.83,1.85,1.851
					C265.281,472.05,264.451,472.88,263.432,472.88z M268.17,471.972c-0.75,0-1.361-0.61-1.361-1.36s0.611-1.36,1.361-1.36
					s1.359,0.61,1.359,1.36S268.92,471.972,268.17,471.972z"/>
			</g>
			<path id="XMLID_336_" style="fill:#A5B7C6;" d="M281.596,468.232c-0.295-0.116-0.807-0.309-1.383-0.238
				c-0.551,0.069-0.844,0.341-0.844,1.007v0.866h2.229v1.717h-2.229v5.455h-1.932v-5.455h-1.34v-1.717h1.34v-0.889
				c0-1.68,0.895-2.782,2.568-2.782c0.643,0,1.156,0.121,1.59,0.308V468.232z"/>
			<path id="XMLID_334_" style="fill:#A5B7C6;" d="M286.297,471.564c-0.176-0.029-0.357-0.046-0.525-0.046
				c-0.894,0-1.51,0.548-1.51,1.613v3.908h-1.932v-7.172h1.873v0.784c0.451-0.673,1.139-0.977,2.02-0.977
				c0.414,0,0.848,0.128,1.096,0.337L286.297,471.564z"/>
			<path id="XMLID_331_" style="fill:#A5B7C6;" d="M293.965,473.442c0,0.222-0.016,0.488-0.037,0.651h-5.084
				c0.207,1.036,0.932,1.487,1.842,1.487c0.623,0,1.295-0.252,1.815-0.688l1.133,1.243c-0.814,0.748-1.852,1.089-3.057,1.089
				c-2.199,0-3.725-1.496-3.725-3.753c0-2.258,1.48-3.797,3.627-3.797C292.543,469.675,293.957,471.207,293.965,473.442z
				 M288.852,472.776h3.174c-0.178-0.918-0.732-1.437-1.561-1.437C289.555,471.34,289.021,471.888,288.852,472.776z"/>
			<path id="XMLID_328_" style="fill:#A5B7C6;" d="M301.619,473.442c0,0.222-0.016,0.488-0.037,0.651h-5.086
				c0.207,1.036,0.934,1.487,1.844,1.487c0.621,0,1.295-0.252,1.813-0.688l1.133,1.243c-0.814,0.748-1.85,1.089-3.057,1.089
				c-2.199,0-3.723-1.496-3.723-3.753c0-2.258,1.48-3.797,3.627-3.797C300.197,469.675,301.611,471.207,301.619,473.442z
				 M296.504,472.776h3.176c-0.178-0.918-0.734-1.437-1.563-1.437C297.207,471.34,296.674,471.888,296.504,472.776z"/>
			<path id="XMLID_325_" style="fill:#A5B7C6;" d="M309.965,473.449c0,2.154-1.496,3.775-3.473,3.775
				c-0.961,0-1.643-0.378-2.109-0.933V480h-1.924v-10.133h1.887v0.792c0.467-0.585,1.154-0.984,2.139-0.984
				C308.469,469.675,309.965,471.296,309.965,473.449z M304.287,473.449c0,1.133,0.748,1.977,1.844,1.977
				c1.139,0,1.85-0.881,1.85-1.977c0-1.095-0.711-1.976-1.85-1.976C305.035,471.474,304.287,472.317,304.287,473.449z"/>
			<path id="XMLID_322_" style="fill:#A5B7C6;" d="M313.068,467.521c0,0.696-0.541,1.229-1.236,1.229
				c-0.697,0-1.229-0.533-1.229-1.229c0-0.695,0.531-1.243,1.229-1.243C312.527,466.277,313.068,466.825,313.068,467.521z
				 M312.809,477.039h-1.932v-7.172h1.932V477.039z"/>
			<path id="XMLID_320_" style="fill:#A5B7C6;" d="M316.031,472.421l2.703-2.554h2.367l-3.479,3.375l3.502,3.797h-2.377
				l-2.717-2.901v2.901H314.1v-10.658h1.932V472.421z"/>
		</g>
		<g>
			<path style="fill:#A5B7C6;" d="M184.412,476.975v-1.055c-0.527,0.718-1.391,1.23-2.387,1.23c-1.846,0-3.15-1.406-3.15-3.706
				c0-2.256,1.289-3.721,3.15-3.721c0.951,0,1.816,0.469,2.387,1.245v-3.765h1.1v9.771H184.412z M184.412,475.056v-3.208
				c-0.395-0.615-1.244-1.143-2.123-1.143c-1.422,0-2.271,1.172-2.271,2.739c0,1.567,0.85,2.725,2.271,2.725
				C183.168,476.169,184.018,475.671,184.412,475.056z"/>
			<path style="fill:#A5B7C6;" d="M186.932,473.43c0-2.051,1.465-3.706,3.486-3.706c2.139,0,3.398,1.67,3.398,3.794v0.278h-5.727
				c0.088,1.333,1.025,2.446,2.549,2.446c0.805,0,1.625-0.322,2.182-0.894l0.527,0.718c-0.703,0.703-1.654,1.084-2.813,1.084
				C188.441,477.15,186.932,475.642,186.932,473.43z M190.404,470.632c-1.51,0-2.256,1.275-2.314,2.358h4.643
				C192.719,471.935,192.016,470.632,190.404,470.632z"/>
			<path style="fill:#A5B7C6;" d="M194.607,476.037l0.57-0.791c0.469,0.542,1.363,1.011,2.33,1.011c1.084,0,1.67-0.513,1.67-1.216
				c0-1.714-4.381-0.659-4.381-3.281c0-1.099,0.953-2.036,2.637-2.036c1.201,0,2.051,0.454,2.623,1.025l-0.514,0.762
				c-0.424-0.513-1.201-0.894-2.109-0.894c-0.967,0-1.566,0.483-1.566,1.113c0,1.553,4.379,0.527,4.379,3.281
				c0,1.187-0.951,2.139-2.783,2.139C196.307,477.15,195.324,476.799,194.607,476.037z"/>
			<path style="fill:#A5B7C6;" d="M201.477,468.156c0-0.41,0.338-0.747,0.732-0.747c0.41,0,0.748,0.337,0.748,0.747
				c0,0.41-0.338,0.732-0.748,0.732C201.814,468.889,201.477,468.566,201.477,468.156z M201.668,476.975v-7.075h1.098v7.075H201.668
				z"/>
			<path style="fill:#A5B7C6;" d="M204.582,478.791l0.557-0.82c0.586,0.703,1.289,0.967,2.299,0.967
				c1.172,0,2.271-0.571,2.271-2.124v-1.011c-0.514,0.718-1.377,1.26-2.373,1.26c-1.846,0-3.15-1.377-3.15-3.662
				c0-2.27,1.289-3.677,3.15-3.677c0.951,0,1.801,0.469,2.373,1.245v-1.069h1.098v6.87c0,2.344-1.641,3.076-3.369,3.076
				C206.236,479.846,205.416,479.61,204.582,478.791z M209.709,474.939v-3.091c-0.381-0.615-1.23-1.143-2.109-1.143
				c-1.422,0-2.27,1.128-2.27,2.695c0,1.553,0.848,2.695,2.27,2.695C208.479,476.096,209.328,475.554,209.709,474.939z"/>
			<path style="fill:#A5B7C6;" d="M217.414,476.975v-4.629c0-1.245-0.631-1.641-1.582-1.641c-0.865,0-1.686,0.527-2.096,1.099v5.171
				h-1.098v-7.075h1.098v1.025c0.498-0.586,1.465-1.201,2.52-1.201c1.48,0,2.256,0.747,2.256,2.285v4.966H217.414z"/>
			<path style="fill:#A5B7C6;" d="M219.932,473.43c0-2.051,1.465-3.706,3.486-3.706c2.139,0,3.398,1.67,3.398,3.794v0.278h-5.727
				c0.088,1.333,1.025,2.446,2.549,2.446c0.805,0,1.625-0.322,2.182-0.894l0.527,0.718c-0.703,0.703-1.654,1.084-2.813,1.084
				C221.441,477.15,219.932,475.642,219.932,473.43z M223.404,470.632c-1.51,0-2.256,1.275-2.314,2.358h4.643
				C225.719,471.935,225.016,470.632,223.404,470.632z"/>
			<path style="fill:#A5B7C6;" d="M233.35,476.975v-1.055c-0.527,0.718-1.391,1.23-2.387,1.23c-1.846,0-3.15-1.406-3.15-3.706
				c0-2.256,1.289-3.721,3.15-3.721c0.951,0,1.816,0.469,2.387,1.245v-3.765h1.1v9.771H233.35z M233.35,475.056v-3.208
				c-0.395-0.615-1.244-1.143-2.123-1.143c-1.422,0-2.271,1.172-2.271,2.739c0,1.567,0.85,2.725,2.271,2.725
				C232.105,476.169,232.955,475.671,233.35,475.056z"/>
			<path style="fill:#A5B7C6;" d="M239.691,476.975v-9.771h1.1v3.765c0.57-0.776,1.42-1.245,2.387-1.245
				c1.846,0,3.15,1.465,3.15,3.721c0,2.3-1.305,3.706-3.15,3.706c-0.996,0-1.859-0.513-2.387-1.23v1.055H239.691z M242.9,476.169
				c1.436,0,2.285-1.157,2.285-2.725c0-1.567-0.85-2.739-2.285-2.739c-0.865,0-1.729,0.527-2.109,1.143v3.208
				C241.172,475.671,242.035,476.169,242.9,476.169z"/>
			<path style="fill:#A5B7C6;" d="M247.529,478.747c0.16,0.073,0.424,0.117,0.6,0.117c0.484,0,0.807-0.161,1.055-0.747l0.469-1.069
				l-2.959-7.148h1.188l2.357,5.801l2.344-5.801h1.201l-3.545,8.511c-0.424,1.024-1.143,1.421-2.08,1.436
				c-0.234,0-0.6-0.044-0.805-0.104L247.529,478.747z"/>
		</g>
	</g>
</g>
<g id="OBJECTS">
	<ellipse style="fill:#E5F2FA;" cx="250" cy="370.878" rx="234.738" ry="17.999"/>
	<g>
		<polygon style="fill:#4FD3C6;" points="42.788,367.624 69.79,367.624 69.79,314.644 141.589,314.644 141.589,289.686 
			69.79,289.686 69.79,250.616 145.68,250.616 145.68,224.639 42.788,224.639 		"/>
		<path style="fill:#4FD3C6;" d="M213.793,224.434l-64.231,143.19h29.252l12.273-27.002h74.869l12.067,27.002h29.454l-64.228-143.19
			H213.793z M201.929,315.462l26.593-60.958l26.591,60.958H201.929z"/>
		<path style="fill:#4FD3C6;" d="M440.231,340.827c9.208-13.297,13.503-30.274,13.298-46.639
			c-0.612-36.821-23.115-73.232-73.436-73.232c-50.321,0-73.848,37.433-73.642,74.867c0.207,37.23,22.706,74.254,73.642,74.254
			c16.159,0,29.863-3.682,40.708-10.637l17.385,17.184l19.025-19.024L440.231,340.827z M380.094,345.122
			c-31.094,0-46.641-25.16-47.05-48.685c-0.408-24.138,13.297-51.14,47.05-51.14c33.753,0,45.819,24.957,46.843,48.071
			C427.959,317.916,412.416,345.122,380.094,345.122z"/>
	</g>
	<g>
		<g>
			<g>
				<path style="fill:#F8C7A2;" d="M367.616,356.978c0,0-1.724,1.125-3.073,1.323l-2.31,3.428c0,0,0.484,1.211,1.395,2.147
					C363.629,363.875,369.782,360.131,367.616,356.978z"/>
				<path style="fill:#231816;" d="M367.616,356.978c0,0,0.647,1.984-3.987,6.897c0,0,1.155,1.545,2.119,1.428
					c0.965-0.118,7.628-9.364,6.64-9.855C371.396,354.958,368.599,356.645,367.616,356.978z"/>
			</g>
			<path style="fill:#445897;" d="M307.337,351.785c0,0,25.83-12.25,29.955-11.592c4.123,0.658,28.012,17.719,28.012,17.719
				l-2.861,4.951c0,0-23.178-11.877-25.15-11.744c0,0-20.793,15.748-31.105,15.369L307.337,351.785z"/>
		</g>
		<g>
			<g>
				<path style="fill:#F8C7A2;" d="M350.012,363.571c0,0-1.896-0.8-2.814-1.809h-4.134c0,0-0.733,1.078-1,2.356
					C342.063,364.119,348.606,367.13,350.012,363.571z"/>
				<path style="fill:#231816;" d="M350.012,363.571c0,0-1.284,1.646-7.948,0.548c0,0-0.636,1.821,0,2.555
					c0.637,0.734,12.028,1.094,11.884,0C353.799,365.578,350.837,364.2,350.012,363.571z"/>
			</g>
			<path style="fill:#5874B7;" d="M305.783,366.058c0,0,13.725,3.492,17.717-4.492c3.992-7.986,5.24-16.721,5.24-16.721
				s1.746,4.506,6.738,10.986c4.99,6.482,5.96,7.08,5.96,7.08h8.773c0,0-15.731-31.791-21.721-32.539
				c-5.989-0.748-18.005,22.357-18.005,22.357L305.783,366.058z"/>
		</g>
		<g>
			<g>
				<g>
					<path style="fill:#FFC89F;" d="M302.014,319.613l1.77,7.403c0,0-4.313-0.694-6.114-2.449l0.328-5.377L302.014,319.613z"/>
					<path style="fill:#D23F3F;" d="M303.594,326.228l-5.882-2.362c0,0-2.449,2.364-3.791,6.601
						c-5.433,17.147,11.8,36.113,11.8,36.113s10.256-9.664,8.779-19.914C314.5,346.666,313.138,330.19,303.594,326.228z"/>
					<g>
						<path style="fill:#C55919;" d="M309.353,305.657c0,0,2.607,0.216,2.913-1.7c0,0-2.26-0.431-4.442-1.685
							c-1.826-1.049-8.81-3.37-10.802,0.844c0,0-2.555-0.537-3.192,5.592c-0.639,6.128-0.994,11.103,4.125,11.833
							C297.955,320.541,306.134,306.742,309.353,305.657z"/>
						<path style="fill:#F8C7A2;" d="M309.552,312.063c-0.345-2.336-0.198-6.405-0.198-6.405s-4.147-1.4-7.105-1.017
							c-2.96,0.384-3.853,5.996-3.853,5.996c-0.708-1.124-2.243,0.351-2.612,1.565c-0.363,1.214,1.447,1.889,1.447,1.889
							s-1.254,4.605,0.726,6.45c1.983,1.849,7.931,1.878,9.82,0.433c1.15-0.881,1.685-3.134,1.85-5.284
							c0.391,0.052,0.797,0.036,0.9-0.228c0.139-0.349-0.486-2.016-0.947-3.158C309.567,312.228,309.564,312.136,309.552,312.063z"
							/>
					</g>
				</g>
			</g>
		</g>
	</g>
	<g>
		<path style="fill:#C55919;" d="M389.417,172.791c0,0,3.133,9.999-1.454,16.916c0,0-2.337-7.041-4.629-9.041L389.417,172.791z"/>
		<g>
			<g>
				<g>
					<path style="fill:#FECE9A;" d="M366.938,191.256c-3.315,6.507-2.514,14.278,2.386,19.711c1.573,1.746,4.138-0.835,2.571-2.572
						c-3.753-4.162-4.358-10.313-1.815-15.302C371.142,191.007,368.004,189.165,366.938,191.256L366.938,191.256z"/>
				</g>
				<g>
					<path style="fill:#FECE9A;" d="M394.179,191.256c3.315,6.507,2.514,14.278-2.386,19.711c-1.573,1.746-4.139-0.835-2.571-2.572
						c3.753-4.162,4.358-10.313,1.815-15.302C389.975,191.007,393.113,189.165,394.179,191.256L394.179,191.256z"/>
				</g>
				<g>
					<g>
						<g>
							<path style="fill:#FECE9A;" d="M387.647,183.782c0,0-3.722-0.436-3.744-5.242c0,0-1.521,0.784-2.818,0.833
								c-1.297,0.05-2.793-1.03-2.793-1.03s-0.436,4.598-3.803,5.439c-0.222,1.836-1.486,11.232,6.936,11.232
								C389.757,195.015,387.821,185.581,387.647,183.782z"/>
						</g>
					</g>
				</g>
				<path style="fill:#ED56B9;" d="M392.801,185.41l-6.271-2.073c-0.913,4.033-4.566,4.162-5.334,4.145v-0.006
					c0,0-0.028,0.001-0.073,0.004c-0.045-0.003-0.071-0.004-0.071-0.004v0.006c-0.769,0.018-4.27-0.309-5.183-4.342l-6.425,2.271
					l1.553,6.704c0,0-0.933,4.64,1.387,8.026c2.319,3.385-1.86,14.426-1.86,14.426h21.2c0,0-4.18-11.041-1.859-14.426
					c2.317-3.387,1.386-8.026,1.386-8.026L392.801,185.41z"/>
				<path style="fill:#F97AD2;" d="M369.443,185.41c0,0-4.68,1.806-4.738,10.636l5.255,1.915c0,0,1.265-1.917,1.131-5.234
					L369.443,185.41z"/>
				<path style="fill:#F97AD2;" d="M392.653,185.41c0,0,3.976,2.034,4.035,10.864l-5.182,1.687c0,0-1.158-1.796-0.576-5.093
					L392.653,185.41z"/>
			</g>
			<path style="fill:#178496;" d="M391.803,213.034h-10.647h-10.648c0,0-1.313,6.939,2.883,6.939s7.765,0,7.765,0s3.569,0,7.765,0
				S391.803,213.034,391.803,213.034z"/>
			<g>
				<g>
					<path style="fill:#CECDCC;" d="M397.461,210.593c0,0.539-0.435,0.976-0.975,0.976h-30.914c-0.539,0-0.977-0.437-0.977-0.976
						l0,0c0-0.54,0.438-0.978,0.977-0.978h30.914C397.025,209.615,397.461,210.053,397.461,210.593L397.461,210.593z"/>
					<path style="fill:#E2E2E2;" d="M395.205,209.145c-0.083,1.334-1.245,2.424-2.58,2.424h-23.191c-1.337,0-2.498-1.09-2.581-2.424
						l-0.911-14.547c-0.084-1.334,0.941-2.423,2.276-2.423h25.621c1.335,0,2.36,1.089,2.277,2.423L395.205,209.145z"/>
				</g>
				<path style="fill:#CECDCC;" d="M384.2,201.725c0,1.752-1.421,3.172-3.171,3.172c-1.752,0-3.173-1.42-3.173-3.172
					c0-1.752,1.421-3.172,3.173-3.172C382.779,198.553,384.2,199.973,384.2,201.725z"/>
			</g>
			<g>
				<g>
					<g>
						<g>
							<g>
								<path style="fill:#FECE9A;" d="M400.945,220.857c1.646,0.472,2.6,2.189,2.128,3.836l0,0c-0.472,1.648-2.188,2.6-3.836,2.129
									l-29.999-8.588c-1.647-0.472-2.602-2.188-2.13-3.836l0,0c0.471-1.647,2.19-2.6,3.837-2.128L400.945,220.857z"/>
								<path style="fill:#4A2551;" d="M397.861,226.362c1.376,0.46,2.474,0.96,3.303-1.001c0.831-1.963,0.887-3.352-0.073-3.979
									c-0.601-0.393-4.755-1.893-6.363-2.305c0,0,1.68,0.05,2.782,0.264c1.103,0.213,2.648,0.769,4.89,1.116
									c1.992,0.31,3.104,0.775,3.54,2.833c0.297,1.4-0.187,3.039-1.564,4.288c-0.857,0.772-1.855,1.18-3.488,0.623
									c-1.63-0.561-4.629-1.641-5.535-1.909c-0.908-0.271-2.08-0.673-2.469-1.29C392.883,225.003,396.04,225.752,397.861,226.362z
									"/>
							</g>
							<path style="fill:#22A6BC;" d="M399.429,219.51l-29.357-8.404c-2.386-0.684-4.874,0.697-5.558,3.085
								c-0.684,2.387,0.697,4.875,3.083,5.558l29.358,8.404L399.429,219.51z"/>
						</g>
						<g>
							<g>
								<g>
									<path style="fill:#FECE9A;" d="M361.716,220.857c-1.646,0.472-2.6,2.189-2.128,3.836l0,0
										c0.472,1.648,2.189,2.6,3.836,2.129l29.998-8.588c1.648-0.472,2.603-2.188,2.131-3.836l0,0
										c-0.471-1.647-2.19-2.6-3.838-2.128L361.716,220.857z"/>
									<path style="fill:#4A2551;" d="M364.799,226.362c-1.375,0.46-2.474,0.96-3.303-1.001c-0.83-1.963-0.886-3.352,0.073-3.979
										c0.602-0.393,4.755-1.893,6.363-2.305c0,0-1.68,0.05-2.782,0.264c-1.103,0.213-2.647,0.769-4.89,1.116
										c-1.991,0.31-3.102,0.775-3.539,2.833c-0.297,1.4,0.187,3.039,1.564,4.288c0.857,0.772,1.855,1.18,3.487,0.623
										c1.631-0.561,4.629-1.641,5.535-1.909c0.909-0.271,2.08-0.673,2.469-1.29C369.777,225.003,366.62,225.752,364.799,226.362z
										"/>
								</g>
								<path style="fill:#30AAC6;" d="M363.232,219.51l29.357-8.404c2.387-0.684,4.875,0.697,5.559,3.085
									c0.684,2.387-0.698,4.875-3.084,5.558l-29.357,8.404L363.232,219.51z"/>
							</g>
						</g>
					</g>
				</g>
			</g>
		</g>
		<g>
			<path style="fill:#FECE9A;" d="M389.21,171.803c0,5.726-3.575,10.368-7.98,10.368s-7.982-4.643-7.982-10.368
				c0-5.729,3.576-10.371,7.982-10.371S389.21,166.074,389.21,171.803z"/>
			<path style="fill:#FECE9A;" d="M374.425,173.129c0,0.735-0.453,1.328-1.012,1.328c-0.56,0-1.013-0.593-1.013-1.328
				c0-0.733,0.453-1.326,1.013-1.326C373.972,171.803,374.425,172.395,374.425,173.129z"/>
			<path style="fill:#FECE9A;" d="M389.91,173.129c0,0.735-0.453,1.328-1.013,1.328c-0.559,0-1.012-0.593-1.012-1.328
				c0-0.733,0.453-1.326,1.012-1.326C389.457,171.803,389.91,172.395,389.91,173.129z"/>
		</g>
		<path style="fill:#C55919;" d="M373.849,171.936c0,0,5.611-0.604,6.902-5.688c0,0,4.583,5.001,7.708,5.688
			c0,0,0.555-0.362,1.215,0.35c0,0,1.324-12.204-8.445-11.704c-9.769,0.5-8.414,11.482-8.414,11.482
			S373.446,171.487,373.849,171.936z"/>
		<path style="fill:#C55919;" d="M372.487,173.664c0,0-1.902,11.876,3.514,16.043c0,0,0.211-5.5,1.855-8.916
			c0,0-2.781-1.751-4.443-6.334C373.413,174.457,372.808,174.454,372.487,173.664z"/>
	</g>
	<g>
		<g>
			<g>
				<defs>
					<path id="SVGID_1_" d="M316.938,328.938c0,0,3.502-5.839,3.822-7.157c0.323-1.342-0.118-2.599-0.696-2.495
						c-0.585,0.107-4.36,6.42-4.458,6.946C315.504,326.753,316.083,328.908,316.938,328.938z"/>
				</defs>
				<clipPath id="SVGID_00000056402546150581302360000003565597670298371751_">
					<use xlink:href="#SVGID_1_"  style="overflow:visible;"/>
				</clipPath>
			</g>
			<g>
				<defs>
					<path id="SVGID_00000157990203799887920200000001054335668579947407_" d="M316.487,328.534c0,0,2.887-2.893,4.188-6.416
						c0.33-0.92-0.034-2.937-0.612-2.833c-0.585,0.107-3.679,5.637-3.778,6.161C316.19,325.963,315.643,328.503,316.487,328.534z"/>
				</defs>
				<clipPath id="SVGID_00000096029613376851473970000016845912033343865237_">
					<use xlink:href="#SVGID_00000157990203799887920200000001054335668579947407_"  style="overflow:visible;"/>
				</clipPath>
			</g>
		</g>
		<g>
			<g>
				<defs>
					<path id="SVGID_00000117675723609809345320000007336373655857899196_" d="M316.938,328.938c0,0,3.502-5.839,3.822-7.157
						c0.323-1.342-0.118-2.599-0.696-2.495c-0.585,0.107-4.36,6.42-4.458,6.946C315.504,326.753,316.083,328.908,316.938,328.938z"
						/>
				</defs>
				<clipPath id="SVGID_00000075139973959346420120000017081145102360618125_">
					<use xlink:href="#SVGID_00000117675723609809345320000007336373655857899196_"  style="overflow:visible;"/>
				</clipPath>
			</g>
			<g>
				<path style="fill:#454375;" d="M320.87,319.278c0,0,0.202-0.057,0.608,0.209c0.542,0.362,0.858,1.895,0.633,2.511
					c-0.219,0.611-3.594,6.62-4.388,7.07c-0.797,0.437-1.196-0.306-1.196-0.306L320.87,319.278z"/>
				<g>
					<path style="fill:#A2EDE2;" d="M316.487,328.534c0,0,3.361-3.37,4.662-6.892c0.329-0.92,0.3-2.469-0.279-2.364
						c-0.585,0.108-4.485,5.644-4.585,6.168C316.19,325.963,315.643,328.503,316.487,328.534z"/>
					<g>
						<defs>
							<path id="SVGID_00000044871432285336144010000009144013895742338981_" d="M316.487,328.534c0,0,3.361-3.37,4.662-6.892
								c0.329-0.92,0.3-2.469-0.279-2.364c-0.585,0.108-4.485,5.644-4.585,6.168C316.19,325.963,315.643,328.503,316.487,328.534z"
								/>
						</defs>
						<clipPath id="SVGID_00000147193098522783955100000006694866881633790601_">
							<use xlink:href="#SVGID_00000044871432285336144010000009144013895742338981_"  style="overflow:visible;"/>
						</clipPath>
						<g style="opacity:0.4;clip-path:url(#SVGID_00000147193098522783955100000006694866881633790601_);">
							<path style="fill:#CCFFF6;" d="M316.523,321.559c0,0,6.573,0.013,7.033,0.375c0.458,0.359-0.891,0.952-0.891,0.952
								s-6.882-0.381-7.125-0.69C315.293,321.881,316.523,321.559,316.523,321.559z"/>
							<path style="fill:#CCFFF6;" d="M314.869,323.158c0,0,6.244,0.155,6.768,0.4c0.522,0.244-0.629,0.609-0.629,0.609
								s-6.622-0.417-6.926-0.626C313.779,323.329,314.869,323.158,314.869,323.158z"/>
							<path style="fill:#CCFFF6;" d="M312.788,325.451c0,0,6.342-0.066,6.764,0.299c0.424,0.365-0.957,1.013-0.957,1.013
								s-6.54-0.35-6.755-0.667C311.622,325.778,312.788,325.451,312.788,325.451z"/>
						</g>
					</g>
				</g>
			</g>
		</g>
		<g>
			<g>
				<defs>
					<path id="SVGID_00000077286744272818152220000017892065857970260121_" d="M316.938,328.938c0,0,3.502-5.839,3.822-7.157
						c0.323-1.342-0.118-2.599-0.696-2.495c-0.585,0.107-4.36,6.42-4.458,6.946C315.504,326.753,316.083,328.908,316.938,328.938z"
						/>
				</defs>
				<clipPath id="SVGID_00000049919953069166404690000007611047186702060937_">
					<use xlink:href="#SVGID_00000077286744272818152220000017892065857970260121_"  style="overflow:visible;"/>
				</clipPath>
			</g>
			<g>
				<defs>
					<path id="SVGID_00000087407350412008401280000002318413663804265643_" d="M316.487,328.534c0,0,2.887-2.893,4.188-6.416
						c0.33-0.92-0.034-2.937-0.612-2.833c-0.585,0.107-3.679,5.637-3.778,6.161C316.19,325.963,315.643,328.503,316.487,328.534z"/>
				</defs>
				<clipPath id="SVGID_00000052087619126825334700000017829698372467786631_">
					<use xlink:href="#SVGID_00000087407350412008401280000002318413663804265643_"  style="overflow:visible;"/>
				</clipPath>
			</g>
		</g>
	</g>
	<path style="fill:#F8C7A2;" d="M305.485,332.001c0,0,3.053,3.517,4.886,6.961c0,0,4.142-6.249,6.176-8.78
		c0,0-0.749-1.704-0.666-2.062c0.081-0.358,0.71-1.486,1.186-1.242c0.475,0.244-0.318,1.621-0.318,1.621s0.355,0.749,0.841-0.002
		c0.483-0.753,0.937-2.022,1.005-2.839c0,0,0.359-0.929,1.203,0.033c0.837,0.962,0.479,3.949-1.193,5.963
		c0,0-1.561,8.533-7.742,12.443c0,0-5.356-2.377-9.44-8.273L305.485,332.001z"/>
	<path style="fill:#EA5353;" d="M306.865,331.962c-0.74-1.032-1.47-1.952-2.021-2.438c-1.759-1.545-4.246-4.031-7.055-2.105
		c-2.475,1.698-0.044,6.948,2.913,10.587C302.756,336.634,305.355,334.543,306.865,331.962z"/>
	<g>
		<path style="fill:#391D0A;" d="M108.426,183.156c0,0-2.842,7.512-2.224,9.42c0.618,1.908,18.248,0.735,19.543,0
			c1.295-0.736-1.991-9.419-1.991-9.419L108.426,183.156z"/>
		<g>
			<g>
				<path style="fill:#269EB2;" d="M124.998,218.92h-9.09h-8.745c0,0-1.241,6.566,2.731,6.566c3.968,0,6.014,0,6.014,0
					s2.391,0,6.36,0C126.24,225.486,124.998,218.92,124.998,218.92z"/>
			</g>
			<g>
				<g>
					<path style="fill:#FECE9A;" d="M125.071,195.201c3.444,1.612,5.775,11.551,2.843,17.605c-1.063,2.191-5.353,0.854-4.016-1.17
						c1.953-2.964,1.732-6.465,0.468-9.666c-0.458-1.155-1.06-2.269-1.725-3.345c-0.21-0.34-0.438-0.675-0.669-1.005
						c-0.295-0.417,0.223,0.278-0.044-0.06C120.39,195.616,123.517,193.237,125.071,195.201L125.071,195.201z"/>
				</g>
				<g>
					<g>
						<g>
							<path style="fill:#FECE9A;" d="M121.563,193.115c0,0-3.128-0.366-3.148-4.407c0,0-1.28,0.659-2.37,0.7
								c-1.09,0.043-2.349-0.865-2.349-0.865s-0.366,3.865-3.197,4.572c-0.186,1.544-1.249,9.445,5.832,9.445
								C123.337,202.561,121.709,194.628,121.563,193.115z"/>
						</g>
					</g>
				</g>
				<g>
					<path style="fill:#FECE9A;" d="M106.666,195.201c-3.444,1.612-5.775,11.551-2.843,17.605c1.063,2.191,5.353,0.854,4.016-1.17
						c-1.953-2.964-1.732-6.465-0.468-9.666c0.458-1.155,1.06-2.269,1.725-3.345c0.21-0.34,0.438-0.675,0.669-1.005
						c0.295-0.417-0.223,0.278,0.044-0.06C111.348,195.616,108.221,193.237,106.666,195.201L106.666,195.201z"/>
				</g>
				<path style="fill:#FFA131;" d="M125.897,194.484l-5.274-1.743c-0.767,3.392-3.839,3.5-4.484,3.484v-0.004
					c0,0-0.023,0.001-0.063,0.003c-0.037-0.002-0.062-0.003-0.062-0.003v0.004c-0.646,0.016-3.588-0.259-4.356-3.649l-5.401,1.908
					l1.305,5.638c0,0-0.783,3.9,1.166,6.748c1.95,2.847-1.563,12.129-1.563,12.129h17.825c0,0-3.514-9.282-1.563-12.129
					c1.948-2.848,1.165-6.748,1.165-6.748L125.897,194.484z"/>
				<g>
					<path style="fill:#293147;" d="M118.327,207.91c0,0.642-0.451,1.166-0.999,1.166h-2.661c-0.551,0-0.999-0.524-0.999-1.166
						v-7.698c0-0.642,0.448-1.167,0.999-1.167h2.661c0.549,0,0.999,0.525,0.999,1.167V207.91z"/>
					<path style="fill:#505F7F;" d="M118.327,208.689c0,0.64-0.451,1.164-0.999,1.164h-2.661c-0.551,0-0.999-0.524-0.999-1.164v-7.7
						c0-0.641,0.448-1.165,0.999-1.165h2.661c0.549,0,0.999,0.525,0.999,1.165V208.689z"/>
				</g>
				<path style="fill:#FECE9A;" d="M115.815,205.109c-0.536-0.453-1.52,1.396-1.52,1.396s-0.646-1.046-0.89-1.197
					c-0.241-0.151,0.071,1.738,0.071,1.738s-2.066,1.746-5.328,1.916c-3.164,0.164-5.216,1.289-5.216,1.289
					c0.271,2.271,0.764,4.322,4.368,4.075c3.605-0.247,7.669-4.989,7.669-4.989s2.374-1.035,2.358-1.733
					C117.312,206.906,116.351,205.561,115.815,205.109z"/>
				<path style="fill:#F48914;" d="M106.257,194.484c0,0-3.934,1.518-3.983,8.942l4.418,1.61c0,0,1.063-1.612,0.95-4.4
					L106.257,194.484z"/>
				<path style="fill:#F48914;" d="M125.772,194.484c0,0,3.344,1.711,3.393,9.135l-4.356,1.418c0,0-0.973-1.51-0.484-4.281
					L125.772,194.484z"/>
				<g>
					<path style="fill:#FECE9A;" d="M123.481,181.924c0,5.319-3.322,9.633-7.415,9.633c-4.093,0-7.415-4.313-7.415-9.633
						c0-5.322,3.323-9.636,7.415-9.636C120.159,172.288,123.481,176.602,123.481,181.924z"/>
					<path style="fill:#FECE9A;" d="M109.744,183.156c0,0.683-0.421,1.234-0.94,1.234c-0.52,0-0.941-0.552-0.941-1.234
						c0-0.682,0.421-1.232,0.941-1.232C109.323,181.924,109.744,182.475,109.744,183.156z"/>
					<path style="fill:#FECE9A;" d="M124.131,183.156c0,0.683-0.421,1.234-0.941,1.234c-0.519,0-0.94-0.552-0.94-1.234
						c0-0.682,0.421-1.232,0.94-1.232C123.71,181.924,124.131,182.475,124.131,183.156z"/>
				</g>
				<path style="fill:#391D0A;" d="M109.208,182.049c0,0,5.213-0.561,6.413-5.285c0,0,4.258,4.646,7.162,5.285
					c0,0,0.515-0.338,1.128,0.324c0,0,1.23-11.339-7.847-10.874c-9.077,0.464-7.817,10.668-7.817,10.668
					S108.834,181.631,109.208,182.049z"/>
				<path style="fill:#FECE9A;" d="M115.923,205.109c0.536-0.453,1.52,1.396,1.52,1.396s0.646-1.046,0.89-1.197
					c0.241-0.151-0.071,1.738-0.071,1.738s2.066,1.746,5.328,1.916c3.164,0.164,5.216,1.289,5.216,1.289
					c-0.271,2.271-0.764,4.322-4.368,4.075c-3.605-0.247-7.669-4.989-7.669-4.989s-2.374-1.035-2.358-1.733
					C114.426,206.906,115.387,205.561,115.923,205.109z"/>
			</g>
		</g>
		<g>
			<g>
				<g>
					<path style="fill:#FECE9A;" d="M114.772,252.512c0,1.482-1.201,2.684-2.683,2.684l0,0c-1.483,0-2.686-1.201-2.686-2.684v-27
						c0-1.482,1.202-2.686,2.686-2.686l0,0c1.481,0,2.683,1.203,2.683,2.686V252.512z"/>
					<path style="fill:#4A2551;" d="M109.459,251.258c-0.056,1.254-0.209,2.286,1.619,2.51c1.831,0.222,2.999-0.061,3.292-1.009
						c0.185-0.593,0.441-4.406,0.401-5.843c0,0,0.358,1.41,0.444,2.377c0.085,0.969-0.009,2.387,0.235,4.334
						c0.217,1.73,0.094,2.766-1.514,3.619c-1.093,0.581-2.573,0.568-3.94-0.279c-0.848-0.531-1.423-1.264-1.349-2.754
						c0.077-1.49,0.263-4.242,0.269-5.06c0.01-0.82,0.066-1.89,0.485-2.361C109.404,246.792,109.534,249.598,109.459,251.258z"/>
				</g>
				<path style="fill:#30AAC6;" d="M114.772,245.815l0.762-21.308c0-2.147-1.742-3.889-3.889-3.889c-2.149,0-3.89,1.741-3.89,3.889
					l1.648,21.308H114.772z"/>
			</g>
			<g>
				<g>
					<path style="fill:#FECE9A;" d="M100.396,231.494c-1.358,0.594-2.94-0.026-3.533-1.387l0,0
						c-0.594-1.358,0.027-2.939,1.386-3.532l24.745-10.803c1.358-0.593,2.941,0.025,3.535,1.385l0,0
						c0.593,1.359-0.028,2.942-1.387,3.535L100.396,231.494z"/>
					<path style="fill:#4A2551;" d="M101.523,230.942c-1.127,0.552-2.01,1.107-2.948-0.481c-0.935-1.588-1.144-2.772-0.393-3.42
						c0.47-0.405,3.861-2.169,5.194-2.705c0,0-1.436,0.235-2.355,0.546c-0.922,0.308-2.185,0.961-4.066,1.518
						c-1.673,0.493-2.572,1.02-2.712,2.834c-0.095,1.235,0.508,2.584,1.832,3.498c0.827,0.566,1.729,0.799,3.064,0.135
						c1.335-0.667,3.784-1.936,4.529-2.272c0.748-0.335,1.707-0.814,1.971-1.388C105.639,229.206,103.016,230.21,101.523,230.942z"
						/>
				</g>
				<path style="fill:#3AC6DD;" d="M106.257,228.936l20.464-7.134c1.968-0.859,2.868-3.151,2.008-5.12
					c-0.86-1.969-3.152-2.867-5.12-2.008l-19.909,9.521L106.257,228.936z"/>
			</g>
		</g>
	</g>
	<g>
		<path style="fill:#FECE9A;" d="M90.375,280.906c0,0,1.875,12.404,1.938,14.572c0.063,2.168-2.625,12.895-2.813,13.228
			c-0.188,0.334-0.837,2.951-2.137,3.338l-0.198-4.171c0,0,0.96-9.672,1.71-12.674l-2.125-12.395L90.375,280.906z"/>
		<g>
			<path style="fill:#843D2C;" d="M68.026,365.498c0,0-0.304,1.776-1.293,2.382c-0.99,0.602-3.24,2.349-1.925,3.428
				c1.319,1.074,6.538-0.137,7.584-1.425c1.043-1.29,1.538-4.217,1.538-4.217L68.026,365.498z"/>
			<path style="fill:#843D2C;" d="M90.083,365.498c0,0,0.305,1.776,1.294,2.382c0.989,0.602,3.24,2.349,1.924,3.428
				c-1.322,1.074-6.541-0.137-7.581-1.425c-1.046-1.29-1.541-4.217-1.541-4.217L90.083,365.498z"/>
			<path style="fill:#5874B7;" d="M66.203,309.4l20.802-2.422c0,0,0.213,5.802,0.428,10.326l3.415,48.361h-6.952l-5.599-39.215
				c-0.45-1.872-0.679-6.472-0.634-7.427c0,0-2.72,42.662-3.345,46.642h-6.655C67.662,365.666,65.579,325.902,66.203,309.4z"/>
		</g>
		<path style="fill:#F8C7A2;" d="M74.282,267.454c0,0-0.494,3.542-3.129,5.104c0,0,4.366,3.374,8.481,0.495
			c0,0-0.989-3.212-1.154-5.6H74.282z"/>
		<path style="fill:#F8C7A2;" d="M84.592,258.796c0,5.97-3.728,10.811-8.322,10.811c-4.594,0-8.323-4.842-8.323-10.811
			c0-5.974,3.729-10.814,8.323-10.814C80.864,247.981,84.592,252.822,84.592,258.796z"/>
		<path style="fill:#64413B;" d="M72.725,271.139c0,0,2.387,3.458,6.582,0.24c0,0,6.928,1.136,8.605,2.533
			c0,0-0.399,31.772,0.02,35.271L65.468,310.3c0,0-0.878-33.866-1.018-35.547L72.725,271.139z"/>
		<path style="fill:#A3481A;" d="M68.945,250.729c0,0-2.517-0.706-0.998,9.685c0,0,1.629-5.403,2.882-6.387
			c0,0,7.854,1.291,12.061-0.566c0.65,1.401,1.588,4.225,1.611,6.953c0,0,0.545-4.056-0.064-7.949
			C84.786,252.125,78.691,242.537,68.945,250.729z"/>
		<path style="fill:#F8C7A2;" d="M69.174,260.178c0,0.768-0.472,1.386-1.056,1.386c-0.584,0-1.056-0.618-1.056-1.386
			c0-0.764,0.473-1.382,1.056-1.382C68.702,258.796,69.174,259.414,69.174,260.178z"/>
		<path style="fill:#F8C7A2;" d="M85.321,260.178c0,0.768-0.472,1.386-1.056,1.386c-0.583,0-1.056-0.618-1.056-1.386
			c0-0.764,0.473-1.382,1.056-1.382C84.849,258.796,85.321,259.414,85.321,260.178z"/>
		<path style="fill:#7A544F;" d="M87.912,273.912c0,0,3.101,4.139,2.851,8.202c0,0-0.463,1.163-2.952,1.065L87.912,273.912z"/>
		<g>
			<g>
				<path style="fill:#DBD6D5;" d="M78.185,280.77c0,0.842,0.657,1.322,1.458,1.069l3.54-1.118c0.802-0.253,1.459-1.148,1.459-1.989
					v-9.178c0-0.841-0.657-1.321-1.459-1.068l-3.54,1.117c-0.801,0.254-1.458,1.148-1.458,1.989V280.77z"/>
				<path style="fill:#F2ECEB;" d="M78.865,281.28c0,0.84,0.656,1.32,1.458,1.068l3.541-1.118c0.801-0.254,1.457-1.148,1.457-1.99
					v-9.177c0-0.841-0.657-1.322-1.457-1.069l-3.541,1.119c-0.802,0.252-1.458,1.147-1.458,1.989V281.28z"/>
			</g>
			<path style="fill:#FECE9A;" d="M66.318,276.394c0-0.003,0.007,0.015,0.021,0.057c0.004,0.013,0.01,0.022,0.012,0.033
				c0.002,0.009,0.003,0.013,0.005,0.019c0.005,0.018,0.011,0.034,0.018,0.057c0.13,0.405,0.268,0.808,0.42,1.201
				c0.482,1.241,1.378,2.253,2.061,3.371c0.834,1.367,2.042,2.572,3.354,3.528c0.478-0.278,1.01-0.556,1.597-0.812
				c3.151-1.383,4.538-3.874,4.538-3.874s-1.012-1.746-0.717-1.686c0.296,0.058,1.323,0.85,1.323,0.85s0.281-2.189,0.978-1.943
				c0.697,0.247,2.144,1.215,2.42,1.896c0.275,0.683-1.68,2.587-1.68,2.587s-2.957,5.778-6.419,7.364
				c-2.141,0.981-2.717,1.059-3.656,0.16c-4.513-3.14-8.817-8.763-8.222-11.57C61.715,275.109,65.582,273.992,66.318,276.394z"/>
			<path style="fill:#7A504B;" d="M64.255,284.092l-2.161-4.463c-0.897-1.853-0.123-4.081,1.73-4.979
				c1.852-0.896,4.081-0.122,4.978,1.73l2.161,4.462L64.255,284.092z"/>
		</g>
	</g>
	<g>
		<path style="fill:#A3481A;" d="M220.217,275.828c0,0-0.774,13.838,1.442,15.463s12.983,1.625,13.787-0.625
			c0.804-2.25,0-15.379,0-15.379L220.217,275.828z"/>
		<g>
			<g>
				<path style="fill:#269EB2;" d="M237.254,311.05h-9.09h-8.745c0,0-1.241,6.566,2.731,6.566c3.968,0,6.014,0,6.014,0
					s2.391,0,6.36,0C238.495,317.616,237.254,311.05,237.254,311.05z"/>
			</g>
			<g>
				<g>
					<path style="fill:#FECE9A;" d="M237.327,287.331c3.444,1.611,5.775,11.55,2.843,17.605c-1.063,2.191-5.352,0.854-4.016-1.17
						c1.953-2.964,1.732-6.466,0.468-9.666c-0.458-1.155-1.06-2.269-1.725-3.345c-0.21-0.341-0.438-0.675-0.669-1.005
						c-0.295-0.418,0.223,0.277-0.044-0.061C232.645,287.745,235.772,285.366,237.327,287.331L237.327,287.331z"/>
				</g>
				<g>
					<g>
						<g>
							<path style="fill:#FECE9A;" d="M233.818,285.245c0,0-3.128-0.367-3.147-4.408c0,0-1.28,0.659-2.37,0.701
								c-1.09,0.042-2.349-0.866-2.349-0.866s-0.366,3.866-3.197,4.573c-0.187,1.544-1.249,9.444,5.832,9.444
								C235.593,294.69,233.965,286.757,233.818,285.245z"/>
						</g>
					</g>
				</g>
				<g>
					<path style="fill:#FECE9A;" d="M218.922,287.331c-3.444,1.611-5.775,11.55-2.843,17.605c1.063,2.191,5.352,0.854,4.016-1.17
						c-1.953-2.964-1.732-6.466-0.468-9.666c0.458-1.155,1.059-2.269,1.725-3.345c0.21-0.341,0.438-0.675,0.669-1.005
						c0.295-0.418-0.223,0.277,0.044-0.061C223.604,287.745,220.477,285.366,218.922,287.331L218.922,287.331z"/>
				</g>
				<path style="fill:#6EB232;" d="M238.152,286.613l-5.273-1.742c-0.768,3.391-3.839,3.5-4.484,3.484v-0.005
					c0,0-0.023,0.001-0.063,0.003c-0.037-0.002-0.062-0.003-0.062-0.003v0.005c-0.645,0.016-3.588-0.26-4.356-3.65l-5.401,1.908
					l1.305,5.638c0,0-0.783,3.901,1.166,6.749c1.95,2.847-1.564,12.129-1.564,12.129h17.825c0,0-3.514-9.282-1.563-12.129
					c1.948-2.848,1.165-6.749,1.165-6.749L238.152,286.613z"/>
				<path style="fill:#8BD346;" d="M218.513,286.613c0,0-3.935,1.518-3.983,8.943l4.418,1.61c0,0,1.063-1.612,0.95-4.401
					L218.513,286.613z"/>
				<path style="fill:#8BD346;" d="M238.027,286.613c0,0,3.344,1.711,3.393,9.136l-4.356,1.418c0,0-0.973-1.51-0.484-4.282
					L238.027,286.613z"/>
				<g>
					<path style="fill:#FECE9A;" d="M235.736,274.054c0,5.319-3.322,9.633-7.415,9.633c-4.093,0-7.415-4.314-7.415-9.633
						c0-5.323,3.323-9.637,7.415-9.637C232.415,264.417,235.736,268.73,235.736,274.054z"/>
					<path style="fill:#FECE9A;" d="M221.999,275.285c0,0.684-0.421,1.234-0.94,1.234c-0.52,0-0.941-0.551-0.941-1.234
						c0-0.682,0.421-1.231,0.941-1.231C221.578,274.054,221.999,274.603,221.999,275.285z"/>
					<path style="fill:#FECE9A;" d="M236.387,275.285c0,0.684-0.421,1.234-0.941,1.234c-0.519,0-0.94-0.551-0.94-1.234
						c0-0.682,0.421-1.231,0.94-1.231C235.966,274.054,236.387,274.603,236.387,275.285z"/>
				</g>
				<g>
					<g>
						<path style="fill:#CECDCC;" d="M243.045,311.971c0,0.477-0.385,0.862-0.862,0.862h-27.328c-0.476,0-0.863-0.386-0.863-0.862
							l0,0c0-0.479,0.387-0.864,0.863-0.864h27.328C242.661,311.106,243.045,311.492,243.045,311.971L243.045,311.971z"/>
						<path style="fill:#E2E2E2;" d="M241.051,310.69c-0.073,1.18-1.101,2.143-2.28,2.143H218.27c-1.182,0-2.209-0.964-2.282-2.143
							l-2.805-9.859c-0.075-1.179,0.832-2.142,2.012-2.142h26.648c1.18,0,2.086,0.963,2.013,2.142L241.051,310.69z"/>
					</g>
					<path style="fill:#CECDCC;" d="M231.323,305.131c0,1.549-1.256,2.804-2.803,2.804c-1.549,0-2.805-1.255-2.805-2.804
						c0-1.549,1.256-2.804,2.805-2.804C230.067,302.327,231.323,303.582,231.323,305.131z"/>
				</g>
			</g>
		</g>
		<g>
			<g>
				<g>
					<path style="fill:#FECE9A;" d="M232.153,344.891c0.151,1.475,1.469,2.547,2.942,2.397l0,0c1.476-0.151,2.549-1.469,2.398-2.943
						l-2.753-26.859c-0.151-1.475-1.47-2.549-2.945-2.398l0,0c-1.474,0.151-2.546,1.471-2.395,2.945L232.153,344.891z"/>
					<path style="fill:#4A2551;" d="M237.31,343.102c0.183,1.242,0.441,2.253-1.355,2.662c-1.799,0.407-2.99,0.244-3.378-0.668
						c-0.244-0.57-0.889-4.338-0.995-5.772c0,0-0.213,1.44-0.2,2.41c0.014,0.973,0.252,2.373,0.208,4.335
						c-0.039,1.743,0.189,2.761,1.875,3.446c1.146,0.467,2.618,0.303,3.891-0.68c0.789-0.615,1.287-1.402,1.06-2.877
						c-0.228-1.475-0.694-4.193-0.783-5.006c-0.093-0.814-0.258-1.873-0.724-2.3C236.91,338.653,237.067,341.457,237.31,343.102z"/>
				</g>
				<path style="fill:#30AAC6;" d="M231.234,343.395l-2.694-26.284c-0.219-2.136,1.336-4.046,3.472-4.265
					c2.138-0.219,4.047,1.336,4.266,3.472l2.694,26.284L231.234,343.395z"/>
			</g>
		</g>
		<g>
			<g>
				<g>
					<path style="fill:#FECE9A;" d="M227.027,344.642c0,1.482-1.201,2.684-2.683,2.684l0,0c-1.483,0-2.686-1.201-2.686-2.684v-27
						c0-1.482,1.202-2.686,2.686-2.686l0,0c1.481,0,2.683,1.203,2.683,2.686V344.642z"/>
					<path style="fill:#4A2551;" d="M221.715,343.388c-0.056,1.254-0.209,2.286,1.619,2.51c1.831,0.222,2.999-0.062,3.292-1.009
						c0.184-0.593,0.441-4.406,0.401-5.843c0,0,0.358,1.41,0.444,2.377c0.085,0.969-0.009,2.387,0.235,4.334
						c0.217,1.73,0.094,2.766-1.514,3.619c-1.093,0.581-2.573,0.568-3.939-0.279c-0.848-0.531-1.423-1.264-1.349-2.754
						c0.077-1.49,0.263-4.242,0.269-5.06c0.01-0.82,0.066-1.89,0.485-2.361C221.659,338.922,221.789,341.728,221.715,343.388z"/>
				</g>
				<path style="fill:#30AAC6;" d="M227.789,343.06v-26.422c0-2.147-1.742-3.889-3.889-3.889c-2.149,0-3.89,1.741-3.89,3.889v26.422
					H227.789z"/>
			</g>
		</g>
		<path style="fill:#A3481A;" d="M220.409,274.397c0,0,3.675,0.081,4.175-0.346c0.5-0.428,1.084-2.428,1.084-2.428
			s-0.084,2.108,0.416,2.43c0.5,0.32,4.584,0.223,5.334,0.188c0.75-0.035,1.083-1.868,1.083-1.868s0.417,1.651,0.917,1.909
			c0.5,0.258,2.573,0,2.573,0s1.646-10.587-8.073-10.576C218.324,263.719,220.409,274.397,220.409,274.397z"/>
	</g>
	<path style="fill:#A6E8E0;" d="M288.064,158.731c-2.094,0-4.119,0.285-6.047,0.81c-4.51-11.368-15.598-19.41-28.57-19.41
		c-9.597,0-18.164,4.399-23.8,11.289c-3.114-1.24-6.509-1.93-10.066-1.93c-10.298,0-19.259,5.717-23.888,14.147
		c-0.871-0.128-1.755-0.216-2.661-0.216c-8.37,0-15.411,5.629-17.585,13.303h135.048
		C308.217,166.432,299.043,158.731,288.064,158.731z"/>
	<path style="fill:#A6E8E0;" d="M124.604,137.79c-0.63-6.559-6.154-11.69-12.879-11.69c-1.964,0-3.819,0.45-5.487,1.233
		c-2.634-9.352-11.221-16.21-21.415-16.21c-8.507,0-15.897,4.776-19.641,11.792c-1.227-0.289-2.499-0.458-3.813-0.458
		c-8.737,0-15.88,6.76-16.522,15.333H124.604z"/>
	<path style="fill:#A6E8E0;" d="M371.101,137.79c0.63-6.559,6.154-11.69,12.88-11.69c1.964,0,3.818,0.45,5.486,1.233
		c2.634-9.352,11.221-16.21,21.416-16.21c8.507,0,15.897,4.776,19.641,11.792c1.227-0.289,2.499-0.458,3.814-0.458
		c8.737,0,15.88,6.76,16.522,15.333H371.101z"/>
	<g>
		<path style="fill:#A6E8E0;" d="M364.432,284.896c0.062-9.042,7.698-13.074,16.313-13.074c8.616,0,16.559,3.727,16.374,12.892
			c0,8.858-8.126,9.775-11.669,12.157c-1.648,1.101-2.321,2.811-2.321,5.683v0.305h-8.063v-0.365
			c0.06-8.371,3.481-10.266,6.72-11.976c3.237-1.711,6.964-2.2,6.964-5.865c0-4.704-4.338-5.804-8.125-5.804
			c-3.912,0-7.943,2.199-8.004,6.048H364.432z M383.921,310.25c0,6.416-9.773,6.416-9.773,0
			C374.147,303.774,383.921,303.774,383.921,310.25z"/>
	</g>
	<g>
		<path style="fill:#F9D56E;" d="M358.057,165.311c2.215-3.292,3.509-7.255,3.509-11.52c0-11.414-9.253-20.667-20.666-20.667
			c-11.414,0-20.667,9.253-20.667,20.667c0,11.413,9.253,20.666,20.667,20.666c4.849,0,9.298-1.682,12.823-4.479l6.57,2.813
			L358.057,165.311z"/>
		<g>
			<path style="fill:#FFFFFF;" d="M332.177,154.426c0,1.105-0.896,2.002-2.001,2.002c-1.106,0-2.003-0.896-2.003-2.002
				s0.896-2.002,2.003-2.002C331.281,152.424,332.177,153.32,332.177,154.426z"/>
			<path style="fill:#FFFFFF;" d="M342.844,154.426c0,1.105-0.895,2.002-2.001,2.002c-1.105,0-2.002-0.896-2.002-2.002
				s0.897-2.002,2.002-2.002C341.949,152.424,342.844,153.32,342.844,154.426z"/>
			<path style="fill:#FFFFFF;" d="M353.512,154.426c0,1.105-0.896,2.002-2.001,2.002c-1.105,0-2.003-0.896-2.003-2.002
				s0.898-2.002,2.003-2.002C352.616,152.424,353.512,153.32,353.512,154.426z"/>
		</g>
	</g>
	<g>
		<path style="fill:#A6E8E0;" d="M89.759,186.69c0,5.824-8.875,5.824-8.875,0C80.884,180.81,89.759,180.81,89.759,186.69z
			 M88.925,151.911v25.621h-7.265v-25.621H88.925z"/>
	</g>
	<g>
		<path style="fill:#F9D56E;" d="M153.52,145.798h-17.681c-4.763,0-8.66,3.897-8.66,8.66v10.127c0,4.763,3.897,8.66,8.66,8.66H138
			v9.145l6.124-9.145h9.396c4.763,0,8.66-3.897,8.66-8.66v-10.127C162.18,149.695,158.283,145.798,153.52,145.798z"/>
		<g>
			<path style="fill:#FFFFFF;" d="M136.015,160.43c0,1.105-0.896,2.003-2.001,2.003c-1.107,0-2.003-0.897-2.003-2.003
				c0-1.105,0.896-2.002,2.003-2.002C135.119,158.428,136.015,159.325,136.015,160.43z"/>
			<path style="fill:#FFFFFF;" d="M146.682,160.43c0,1.105-0.895,2.003-2.001,2.003c-1.105,0-2.002-0.897-2.002-2.003
				c0-1.105,0.896-2.002,2.002-2.002C145.787,158.428,146.682,159.325,146.682,160.43z"/>
			<path style="fill:#FFFFFF;" d="M157.35,160.43c0,1.105-0.895,2.003-2.001,2.003c-1.105,0-2.003-0.897-2.003-2.003
				c0-1.105,0.897-2.002,2.003-2.002C156.454,158.428,157.35,159.325,157.35,160.43z"/>
		</g>
	</g>
	<g>
		<path style="fill:#F9D56E;" d="M434.844,175.148c-0.061,0-0.117,0.013-0.176,0.018c-0.251-1.315-0.765-2.538-1.491-3.606
			c0.045-0.037,0.093-0.068,0.135-0.11c0.718-0.718,0.719-1.881,0.001-2.6c-0.719-0.718-1.883-0.718-2.601,0
			c-0.042,0.042-0.073,0.09-0.109,0.135c-1.069-0.727-2.292-1.239-3.607-1.49c0.006-0.059,0.018-0.116,0.018-0.177
			c0-1.016-0.822-1.839-1.838-1.839c-1.016,0-1.839,0.823-1.839,1.839c0,0.061,0.012,0.118,0.018,0.177
			c-1.315,0.251-2.538,0.765-3.606,1.49c-0.037-0.045-0.068-0.093-0.11-0.135c-0.718-0.718-1.882-0.718-2.601,0
			c-0.718,0.719-0.717,1.882,0.001,2.6c0.042,0.042,0.09,0.073,0.135,0.11c-0.726,1.068-1.239,2.291-1.49,3.607
			c-0.059-0.006-0.116-0.019-0.177-0.019c-1.016,0-1.839,0.823-1.839,1.839c0,1.016,0.823,1.838,1.839,1.838
			c0.061,0,0.118-0.012,0.177-0.018c0.251,1.316,0.765,2.538,1.49,3.606c-0.045,0.037-0.093,0.068-0.135,0.11
			c-0.718,0.718-0.718,1.883,0,2.601s1.882,0.718,2.6,0c0.042-0.042,0.073-0.091,0.11-0.136c1.068,0.727,2.291,1.239,3.606,1.49
			c-0.006,0.06-0.018,0.117-0.018,0.178c0,1.015,0.823,1.838,1.839,1.838c1.016,0,1.838-0.823,1.838-1.838
			c0-0.061-0.012-0.118-0.018-0.178c1.315-0.251,2.538-0.764,3.607-1.49c0.037,0.045,0.068,0.093,0.11,0.135
			c0.718,0.719,1.882,0.719,2.6,0.001c0.718-0.718,0.718-1.883,0-2.601c-0.042-0.042-0.09-0.072-0.135-0.109
			c0.727-1.068,1.24-2.291,1.491-3.607c0.059,0.006,0.115,0.018,0.176,0.018c1.016,0,1.839-0.822,1.839-1.838
			C436.683,175.972,435.859,175.148,434.844,175.148z M425.175,183.77c-3.746,0-6.782-3.037-6.782-6.782
			c0-3.746,3.036-6.783,6.782-6.783c3.745,0,6.782,3.037,6.782,6.783C431.957,180.732,428.92,183.77,425.175,183.77z"/>
		<path style="fill:#F9D56E;" d="M455.477,201.605c-0.065-0.035-0.134-0.057-0.2-0.085c0.507-1.576,0.674-3.206,0.52-4.795
			c0.071-0.014,0.141-0.018,0.211-0.039c1.204-0.354,1.895-1.614,1.541-2.818c-0.354-1.205-1.616-1.895-2.819-1.541
			c-0.07,0.02-0.133,0.055-0.198,0.081c-0.728-1.421-1.751-2.701-3.029-3.753c0.042-0.061,0.088-0.115,0.124-0.182
			c0.602-1.101,0.197-2.48-0.904-3.082c-1.101-0.602-2.481-0.197-3.083,0.904c-0.036,0.065-0.057,0.135-0.085,0.202
			c-1.576-0.508-3.205-0.675-4.795-0.521c-0.014-0.071-0.018-0.142-0.038-0.211c-0.354-1.205-1.616-1.895-2.821-1.541
			c-1.203,0.354-1.892,1.615-1.538,2.819c0.021,0.07,0.053,0.133,0.081,0.199c-1.42,0.729-2.702,1.75-3.754,3.028
			c-0.06-0.041-0.116-0.089-0.181-0.124c-1.101-0.602-2.481-0.197-3.084,0.904c-0.601,1.102-0.195,2.48,0.906,3.082
			c0.064,0.036,0.135,0.057,0.201,0.086c-0.507,1.576-0.674,3.206-0.521,4.794c-0.071,0.014-0.141,0.02-0.21,0.04
			c-1.205,0.353-1.894,1.615-1.541,2.819c0.353,1.204,1.614,1.894,2.818,1.54c0.07-0.021,0.133-0.055,0.199-0.081
			c0.728,1.42,1.75,2.7,3.028,3.752c-0.042,0.061-0.089,0.116-0.125,0.182c-0.601,1.101-0.195,2.482,0.905,3.083
			c1.102,0.603,2.481,0.196,3.082-0.904c0.037-0.065,0.058-0.136,0.086-0.203c1.576,0.508,3.205,0.675,4.795,0.521
			c0.013,0.07,0.018,0.141,0.038,0.211c0.353,1.204,1.615,1.895,2.82,1.541c1.203-0.354,1.893-1.616,1.54-2.819
			c-0.022-0.071-0.055-0.133-0.082-0.199c1.421-0.729,2.702-1.75,3.755-3.027c0.061,0.04,0.114,0.087,0.18,0.123
			c1.102,0.602,2.481,0.197,3.083-0.904C456.983,203.587,456.578,202.206,455.477,201.605z M439.885,205.224
			c-4.062-2.219-5.555-7.31-3.335-11.372c2.219-4.062,7.31-5.556,11.372-3.337c4.061,2.219,5.556,7.311,3.336,11.373
			C449.039,205.949,443.947,207.442,439.885,205.224z"/>
	</g>
	<g>
		<g>
			<rect x="171.448" y="208.249" style="fill:#F9D56E;" width="8" height="53.006"/>
			<rect x="174.198" y="208.249" style="fill:#5874B7;" width="2.5" height="53.006"/>
			<polygon style="fill:#A6E8E0;" points="171.448,261.255 175.448,266.878 179.448,261.255 			"/>
			<polygon style="fill:#5874B7;" points="178.049,263.222 172.846,263.222 175.448,266.878 			"/>
		</g>
		<rect x="171.448" y="205.45" style="fill:#5874B7;" width="8" height="2.799"/>
	</g>
	<g>
		<rect x="263.664" y="196.934" style="fill:#F2ECEB;" width="44.434" height="56.315"/>
		<g>
			<g>
				<rect x="268.215" y="204.02" style="fill:#D8D0D0;" width="7.832" height="10.942"/>
				<g>
					<rect x="278.881" y="204.02" style="fill:#D8D0D0;" width="24.666" height="2"/>
					<rect x="278.881" y="209.02" style="fill:#D8D0D0;" width="24.666" height="2"/>
				</g>
				<g>
					<rect x="278.881" y="214.02" style="fill:#D8D0D0;" width="24.666" height="2"/>
					<rect x="268.215" y="219.02" style="fill:#D8D0D0;" width="35.332" height="2"/>
				</g>
			</g>
			<g>
				<rect x="295.713" y="224.164" style="fill:#D8D0D0;" width="7.834" height="10.942"/>
				<g>
					<rect x="268.213" y="224.164" style="fill:#D8D0D0;" width="24.668" height="2"/>
					<rect x="268.213" y="229.164" style="fill:#D8D0D0;" width="24.668" height="2"/>
				</g>
				<g>
					<rect x="268.213" y="234.164" style="fill:#D8D0D0;" width="24.668" height="2"/>
					<rect x="268.213" y="239.164" style="fill:#D8D0D0;" width="35.334" height="2"/>
					<rect x="268.213" y="244.164" style="fill:#D8D0D0;" width="35.334" height="2"/>
				</g>
			</g>
		</g>
	</g>
	<path style="fill:#F9D56E;" d="M65.633,193.926c-0.06,0-0.117,0.012-0.176,0.018c-0.251-1.316-0.765-2.539-1.491-3.607
		c0.045-0.037,0.093-0.067,0.135-0.109c0.718-0.718,0.719-1.882,0.001-2.6c-0.719-0.719-1.883-0.719-2.601,0
		c-0.042,0.042-0.073,0.09-0.109,0.134c-1.069-0.725-2.292-1.239-3.607-1.49c0.006-0.059,0.018-0.115,0.018-0.176
		c0-1.016-0.822-1.839-1.838-1.839c-1.016,0-1.839,0.823-1.839,1.839c0,0.061,0.012,0.117,0.018,0.176
		c-1.316,0.251-2.538,0.765-3.607,1.491c-0.037-0.045-0.068-0.093-0.11-0.135c-0.718-0.719-1.882-0.719-2.601,0
		c-0.718,0.718-0.717,1.882,0.001,2.6c0.042,0.042,0.09,0.073,0.135,0.109c-0.725,1.069-1.239,2.291-1.49,3.607
		c-0.059-0.006-0.116-0.018-0.177-0.018c-1.016,0-1.839,0.823-1.839,1.839c0,1.016,0.823,1.838,1.839,1.838
		c0.061,0,0.118-0.013,0.177-0.018c0.251,1.316,0.765,2.539,1.49,3.607c-0.045,0.037-0.093,0.068-0.135,0.11
		c-0.718,0.718-0.718,1.882,0,2.6c0.718,0.719,1.882,0.718,2.6,0c0.042-0.042,0.073-0.09,0.11-0.135
		c1.068,0.726,2.291,1.239,3.607,1.49c-0.006,0.059-0.018,0.116-0.018,0.177c0,1.016,0.823,1.839,1.839,1.839
		c1.016,0,1.838-0.823,1.838-1.839c0-0.061-0.012-0.118-0.018-0.177c1.315-0.251,2.538-0.765,3.606-1.49
		c0.037,0.045,0.068,0.093,0.11,0.135c0.718,0.718,1.882,0.719,2.6,0c0.718-0.718,0.718-1.882,0-2.6
		c-0.042-0.042-0.09-0.073-0.135-0.11c0.727-1.068,1.24-2.291,1.491-3.606c0.059,0.005,0.115,0.017,0.176,0.017
		c1.016,0,1.839-0.822,1.839-1.838C67.472,194.749,66.648,193.926,65.633,193.926z M55.964,202.546
		c-3.746,0-6.782-3.036-6.782-6.782c0-3.746,3.036-6.782,6.782-6.782c3.745,0,6.782,3.036,6.782,6.782
		C62.746,199.51,59.709,202.546,55.964,202.546z"/>
</g>
</svg>
