<svg version="1.2" xmlns="http://www.w3.org/2000/svg" viewBox="0 0 787 788" width="787" height="788">
	<title>378969120_18b271b2-b51e-4a9b-ab4c-227700c32055-ai</title>
	<style>
		.s0 { fill: #ad5eab } 
		.s1 { opacity: .2;fill: #231f20 } 
		.s2 { fill: #ffffff } 
	</style>
	<g id="_Artboards_">
	</g>
	<g id="Layer 1">
		<g id="&lt;Group&gt;">
			<g id="&lt;Group&gt;">
				<g id="&lt;Group&gt;">
					<path id="&lt;Path&gt;" class="s0" d="m732.7 411.9c0 181.9-147.4 329.3-329.3 329.3-181.9 0-329.3-147.4-329.3-329.3 0-181.9 147.4-329.3 329.3-329.3 181.9 0 329.3 147.4 329.3 329.3z"/>
					<path id="&lt;Path&gt;" class="s1" d="m307 575.7l51.2 162.4c0 0 302.8 44.1 371.3-280.4l-272.1-233.3z"/>
					<g id="&lt;Group&gt;">
						<path id="&lt;Path&gt;" class="s2" d="m347.6 364.6c2.4 7 8.4 12.1 15.8 13.2 2.6 0.4 5.2 0.6 7.5 0.6 8.1 0 14.3-2.3 18.6-7 4.7-5.2 6.2-12.6 4-19.4l-24.5-74.2c-3.3-10-12.6-16.8-23.1-16.8-4.1 0-8.1 1.1-11.7 3.1q-0.3 0.2-0.6 0.4c-9.7 5.8-14.1 17.8-10.4 28.6z"/>
						<path id="&lt;Path&gt;" class="s2" d="m398.1 348.1c2 6.1 6.8 11 12.8 13 4.7 1.7 9.1 2.5 12.9 2.5 7.7 0 13.4-3.3 16.9-9.7 3-5.3 3.3-11.7 1-17.5-10.8-26.7-14-52.2-14.9-68.8-0.3-7.1-3.3-13.5-8.5-18.1-4.9-4.5-11.2-7-17.8-7-5.1 0-10 1.5-14.3 4.4q-1 0.6-2 1.3c-9.2 6.8-12.9 18.6-9.4 29.4z"/>
						<path id="&lt;Path&gt;" class="s2" d="m447.6 338.8c3.2 4 7.3 6 12 6q0 0 0 0c9.5 0 19.1-7.9 22.8-11.2l0.2-0.2h-0.2c-7.9-1.7-15-4-21.2-7-8.6-4.1-15.6-9.4-21-15.7l-0.4-0.4 3.4 18.7c0.7 3.7 2.2 7.1 4.4 9.8z"/>
						<path id="&lt;Path&gt;" class="s2" d="m432.1 251.9c4.7-2.9 9.9-3.4 11.3-3.5 1.3-0.1 2.8-0.2 4.4-0.2 12.9 0 36 4.9 53.1 9q0.1 0 0.2 0c0.5 0 0.9-0.3 1-0.8v-0.1c-17.1-21.2-32.1-31.9-44.7-31.9-16.7 0-24.3 18.4-26.9 26.3-0.1 0.4 0 0.7 0.2 1 0.3 0.4 0.9 0.5 1.4 0.2z"/>
						<path id="&lt;Path&gt;" class="s2" d="m544 386.6c0.3-5.5 1.9-34.3-0.6-61.8-1.4-15.6-3.9-28.2-7.4-37.5-4.2-11.4-10-17.8-17.2-19.1 0 0-7.9-2.2-18.5-4.8-17.1-4.1-40-9-52.5-9q-2.2 0-3.9 0.2c-0.1 0-9.1 0.3-12.7 7.1-3.4 6.2-2.2 14.8 3.6 25.4 0.1 0.1 3.2 8.4 10.8 17.4 7.1 8.4 19.6 19.1 39.1 23 4.6 0.9 9.5 1.6 14.7 2.1-2.1 1.7-6.5 4.9-14 10.2-41.3 28.7-132.6 46.3-159.6 51q-1.1 0.2-2.2 0.2c-3.9 0-7.7-1.9-10.1-4.9q0.2 0 0.4 0.1 3 0.9 6.1 0.9c6.6 0 12.8-3.3 16.7-8.8 3.9-5.6 4.7-12.5 2.3-18.9l-21.4-57.7c-2.6-6.9-9.3-11.6-16.6-11.6q-1.1 0-2.1 0.1c-16.3 1.9-22.9 15.7-25.4 23.8-0.8 2.7-1.9 5.5-3.2 8.6-7.3 16.6-8.3 55.3-8.3 55.7 0.9 6.6 2.4 14.2 4.5 22.8 11.7 49.8 38.3 117.5 38.9 119l2.3 79.2v0.1h170.9l-7-58.4c-3.5-28.9 5.1-58.4 23.6-80.9l0.5-0.6c22.2-27.2 48.7-61.6 48.3-70.9q-0.1-1 0-2z"/>
					</g>
				</g>
			</g>
		</g>
	</g>
</svg>