<?xml version="1.0" encoding="utf-8"?>
<!-- Generator: Adobe Illustrator 27.5.0, SVG Export Plug-In . SVG Version: 6.00 Build 0)  -->
<svg version="1.1" xmlns="http://www.w3.org/2000/svg" xmlns:xlink="http://www.w3.org/1999/xlink" x="0px" y="0px"
	 viewBox="0 0 500 500" style="enable-background:new 0 0 500 500;" xml:space="preserve">
<g id="BACKGROUND">
	<rect x="-0.133" y="0.072" style="fill:#E2DEDC;" width="500" height="500"/>
</g>
<g id="OBJECTS">
	<g>
		<line style="fill:none;stroke:#FAFAFA;stroke-miterlimit:10;" x1="318.678" y1="500.072" x2="318.678" y2="0.072"/>
		<line style="fill:none;stroke:#FAFAFA;stroke-miterlimit:10;" x1="453.916" y1="0.072" x2="453.916" y2="500.072"/>
		<rect x="42.965" y="45.33" style="fill:#E5D4CC;" width="213.436" height="403.219"/>
		<rect x="256.401" y="45.33" style="fill:#E5D4CC;" width="200.369" height="9.997"/>
		<rect x="256.401" y="143.636" style="fill:#E5D4CC;" width="200.369" height="9.997"/>
		<rect x="256.401" y="241.941" style="fill:#E5D4CC;" width="200.369" height="9.997"/>
		<rect x="256.401" y="340.247" style="fill:#E5D4CC;" width="200.369" height="9.997"/>
		<rect x="256.401" y="438.552" style="fill:#E5D4CC;" width="200.369" height="9.997"/>
		<line style="fill:none;stroke:#FAFAFA;stroke-miterlimit:10;" x1="42.965" y1="500.072" x2="42.965" y2="0.072"/>
		<line style="fill:none;stroke:#FAFAFA;stroke-miterlimit:10;" x1="163.355" y1="500.072" x2="163.355" y2="0.072"/>
	</g>
	<path style="fill:none;stroke:#FAFAFA;stroke-miterlimit:10;" d="M164.821,0.985"/>
	<g>
		<rect x="238.967" y="313.241" style="fill:#242021;" width="31.4" height="17.998"/>
		<path style="fill:#FFFFFF;" d="M208.419,307.497v3.889c0,3.479,2.821,6.3,6.3,6.3h82.035c3.48,0,6.3-2.821,6.3-6.3v-3.889H208.419
			z"/>
		<g>
			<path style="fill:#242021;" d="M296.754,249.668h-82.035c-3.48,0-6.3,2.821-6.3,6.3v51.529h94.635v-51.529
				C303.054,252.488,300.234,249.668,296.754,249.668z"/>
		</g>
		<rect x="213.232" y="255.42" style="fill:#87AED3;" width="85.009" height="49.397"/>
		<rect x="238.967" y="329.025" style="fill:#CFCCDF;" width="31.4" height="2.214"/>
		<rect x="224.518" y="261.076" style="fill:#FAFAFA;" width="59.901" height="37.621"/>
		
			<ellipse transform="matrix(0.7071 -0.7071 0.7071 0.7071 -123.3233 262.5076)" style="fill:#87AED3;" cx="255.213" cy="280.118" rx="11.662" ry="11.662"/>
		<path style="fill:#1D8950;" d="M255.213,280.118l-5.343,10.365c-3.875-1.997-6.318-6.007-6.318-10.365
			c0-6.379,5.234-11.635,11.612-11.662L255.213,280.118z"/>
	</g>
	<g>
		<g>
			<path style="fill:#242021;" d="M377.69,458.052c0.02,0,0.039,0.006,0.06,0.006c0.952-4.395,4.862-7.705,9.54-7.715l10.166-0.022
				l-0.047-21.773l1.933-0.004l-0.101-46.696l1.279-0.003l-0.001-0.387l0.584-0.001l0.725-0.001l0.584-0.001l0.001,0.387
				l3.014-0.006l0.101,46.696l1.547-0.003l0.047,21.773l11.337-0.024c4.691-0.01,8.626,3.301,9.583,7.712
				c2.199,0.216,3.927,2.047,3.932,4.304c0.005,2.406-1.942,4.362-4.347,4.367c-2.406,0.005-4.361-1.941-4.366-4.348
				c-0.004-2.095,1.473-3.847,3.444-4.268c-0.911-3.708-4.259-6.465-8.242-6.457l-15.322,0.033l0.014,6.445
				c2.093,0.313,3.706,2.1,3.711,4.282c0.005,2.406-1.942,4.361-4.348,4.367c-2.406,0.005-4.36-1.942-4.366-4.348
				c-0.005-2.182,1.6-3.976,3.693-4.299l-0.014-6.444l-1.16,0.003l-13.378,0.029c-4.034,0.009-7.406,2.849-8.25,6.631
				c1.741,0.568,3.01,2.184,3.014,4.115c0.005,2.406-1.941,4.362-4.347,4.367c-2.406,0.005-4.361-1.942-4.366-4.348
				C373.338,460.012,375.284,458.057,377.69,458.052z"/>
		</g>
		<path style="fill:#B2826F;" d="M425.065,370.975l-34.123,0.082c-9.733,0.021-16.117-7.849-14.259-17.577l13.078-68.479
			c0.929-4.865,5.627-8.817,10.494-8.829l46.541-0.11c4.867-0.012,8.06,3.924,7.131,8.789l-14.071,73.68
			C438.546,365.388,431.925,370.959,425.065,370.975z"/>
		<g>
			<path style="fill:#B2826F;" d="M347.047,369.214c0.021,9.806,7.988,17.739,17.794,17.718l53.116-0.124
				c9.806-0.021,17.739-7.988,17.718-17.795L347.047,369.214z"/>
			<path style="fill:#242021;" d="M351.434,380.838c3.264,3.737,8.055,6.105,13.407,6.094l53.116-0.124
				c5.351-0.012,10.133-2.4,13.38-6.152L351.434,380.838z"/>
		</g>
		<path style="fill:#242021;" d="M397.444,444.705l0.012,5.616l-10.166,0.022c-4.678,0.01-8.588,3.32-9.54,7.715
			c-0.021,0-0.04-0.006-0.06-0.006c-2.406,0.005-4.353,1.961-4.348,4.366c0.005,2.406,1.96,4.353,4.366,4.348
			c2.406-0.005,4.352-1.961,4.347-4.367c-0.004-1.931-1.273-3.547-3.014-4.115c0.844-3.782,4.216-6.622,8.25-6.631l13.378-0.029
			l1.16-0.003l0.014,6.444c-2.092,0.323-3.697,2.117-3.693,4.299c0.005,2.406,1.96,4.353,4.366,4.348
			c2.406-0.005,4.353-1.96,4.348-4.367c-0.005-2.182-1.617-3.969-3.711-4.282l-0.014-6.445l15.322-0.033
			c3.983-0.009,7.331,2.749,8.242,6.457c-1.971,0.421-3.448,2.172-3.443,4.268c0.005,2.406,1.96,4.353,4.366,4.348
			c2.406-0.005,4.353-1.961,4.348-4.367c-0.005-2.257-1.733-4.088-3.932-4.304c-0.957-4.411-4.892-7.722-9.583-7.712l-11.337,0.024
			l-0.012-5.616L397.444,444.705z"/>
		<path style="fill:#242021;" d="M431.337,380.655c2.703-3.123,4.347-7.188,4.337-11.643l-46.459,0.201
			c0.01,4.455,1.671,8.513,4.388,11.624h0c0.001,0.001,0.002,0.002,0.003,0.003c0.396,0.453,0.815,0.884,1.254,1.295
			c0.035,0.033,0.072,0.065,0.108,0.098c0.404,0.372,0.824,0.724,1.261,1.058c0.072,0.055,0.146,0.109,0.219,0.163
			c0.405,0.299,0.822,0.58,1.252,0.845c0.109,0.067,0.219,0.134,0.329,0.199c0.402,0.236,0.815,0.453,1.237,0.657
			c0.143,0.069,0.284,0.14,0.43,0.206c0.4,0.18,0.81,0.341,1.226,0.492c0.172,0.063,0.342,0.13,0.516,0.188
			c0.403,0.132,0.816,0.242,1.231,0.345c0.192,0.048,0.381,0.105,0.576,0.147c0.43,0.092,0.87,0.157,1.311,0.217
			c0.184,0.025,0.363,0.063,0.549,0.083c0.626,0.065,1.262,0.103,1.906,0.101l10.947-0.125c0.644-0.001,1.279-0.041,1.905-0.109
			c0.186-0.02,0.365-0.059,0.549-0.085c0.441-0.062,0.88-0.128,1.31-0.222c0.195-0.043,0.383-0.1,0.575-0.149
			c0.414-0.105,0.826-0.216,1.228-0.35c0.176-0.059,0.347-0.128,0.521-0.192c0.413-0.152,0.82-0.314,1.218-0.495
			c0.146-0.066,0.288-0.138,0.431-0.209c0.421-0.206,0.833-0.425,1.234-0.663c0.11-0.065,0.218-0.132,0.326-0.199
			c0.429-0.266,0.845-0.55,1.249-0.851c0.073-0.055,0.146-0.108,0.218-0.164c0.436-0.336,0.855-0.69,1.258-1.064
			c0.035-0.032,0.071-0.064,0.105-0.096c0.439-0.413,0.856-0.847,1.251-1.302L431.337,380.655L431.337,380.655z"/>
		<path style="fill:#242021;" d="M454.037,282.658c-0.022-0.324-0.055-0.643-0.114-0.952c-0.045-0.228-0.104-0.449-0.169-0.666
			c-0.068-0.232-0.149-0.456-0.238-0.676c-0.102-0.247-0.208-0.493-0.337-0.724c-0.075-0.137-0.166-0.262-0.249-0.392
			c-0.874-1.337-2.19-2.346-3.836-2.829l0,0c-4.082,0.909-7.67,4.399-8.468,8.581l-16.419,85.976l0.891-0.002
			c6.848-0.034,13.451-5.596,14.759-12.442l14.071-73.68c0.107-0.56,0.146-1.104,0.147-1.635
			C454.075,283.025,454.05,282.843,454.037,282.658z"/>
	</g>
	<g>
		<path style="fill:#EDB091;" d="M315.42,284.135c-3.343-2.648-6.749-5.25-10.491-7.296c-3.742-2.046-7.856-3.529-12.113-3.786
			c-0.408-0.025-0.65,0.723-0.483,1.096c0.166,0.374,0.537,0.607,0.888,0.818c1.138,0.684,2.277,1.367,3.415,2.051
			c1.146,0.688,1.736,1.96,1.875,3.29c0.151,1.44-0.375,2.93,0.023,4.322c0.459,1.602,2.055,2.649,3.676,3.035
			c1.621,0.386,3.314,0.254,4.979,0.308c1.854,0.06,3.701,0.356,5.482,0.878c2.565,0.752,5.164,1.987,7.79,1.487
			c0.286-1.453-0.453-2.956-1.534-3.969C317.846,285.356,316.581,285.055,315.42,284.135z"/>
		<path style="fill:#3F3938;" d="M394.66,438.842l3.721,5.783c0,0-11.382,12.508-14.674,14.912
			c-3.293,2.404-4.529,1.002-4.198-2.999c0.332-4,8.566-14.063,8.566-14.063l3.136-2.335L394.66,438.842z"/>
		
			<rect x="383.226" y="425.273" transform="matrix(-0.8525 0.5227 -0.5227 -0.8525 943.1909 602.4221)" style="fill:#EDB091;" width="6.764" height="18"/>
		<g>
			<path style="fill:#7EA3C1;" d="M377.091,442.774l-6.644-8.879c-0.116-0.156-11.728-15.684-22.644-31.47
				c-6.497-9.398-11.512-17.094-14.907-22.878c-4.338-7.393-10.895-18.565-2.142-25.856c2.72-2.266,7.275-6.063,61.487-8.827
				l11.075-0.565l1.129,22.15l-11.075,0.565c-13.909,0.711-29.902,1.943-40.257,3.193c7.359,12.049,21.942,32.828,35.09,50.397
				l6.645,8.878L377.091,442.774z M342.973,371.962L342.973,371.962L342.973,371.962z"/>
		</g>
		<path style="fill:#3F3938;" d="M337.634,454.528l-0.586,6.852c0,0-16.652,2.953-20.727,2.845
			c-4.075-0.107-4.198-1.973-1.492-4.938c2.706-2.965,15.372-5.904,15.372-5.904l3.909,0.066L337.634,454.528z"/>
		<path style="fill:#A0616B;" d="M373.184,324.992c0,3.635,3.078,6.582,6.875,6.582c3.797,0,6.875-2.947,6.875-6.582
			c0-3.635-3.078-6.582-6.875-6.582C376.263,318.41,373.184,321.357,373.184,324.992z"/>
		<path style="fill:#3F3938;" d="M387.66,278.834c-4.638,0.574-29.657,11.066-34.096,10.662c-4.439-0.404-39.95-7.667-39.95-7.667
			l-0.807,7.667c0,0,26.634,14.527,37.529,15.738c10.896,1.211,35.915-2.421,35.915-2.421l14.124-14.931L387.66,278.834z"/>
		
			<rect x="330.667" y="436.993" transform="matrix(-0.9943 -0.1068 0.1068 -0.9943 618.5511 925.1147)" style="fill:#EDB091;" width="6.764" height="18"/>
		<path style="fill:#87AED3;" d="M371.896,368.804l22.288,0.781c9.471,0,17.15-7.678,17.15-17.15v-18.362l-39.438-0.781V368.804z"/>
		<g>
			<g>
				<path style="fill:#87AED3;" d="M350.908,449.586l-22.139-0.963v-11.295c4.034-65.858,11.643-73.465,14.144-75.967
					c8.801-8.801,32.865-13.055,42.804-14.475l0,0c6.061-0.866,11.677,3.345,12.544,9.406l1.323,10.584
					c0.037,0.293-0.17,0.56-0.462,0.599l-10.265,1.369c-12.08,1.735-25.461,5.279-29.589,7.753
					c-0.122,0.073-0.208,0.175-0.262,0.307c-3.05,7.465-6.59,37.194-8.098,61.781V449.586z M359.414,376.036"/>
			</g>
		</g>
		<path style="fill:#4D4543;" d="M376.964,295.235c3.39-6.101,0.799-13.227,10.696-16.401c1.238-0.397,6.47-1.92,6.47-1.92
			s5.283-4.309,8.765-4.817c2.403-0.351,6.026-1.219,6.026-1.219s1.044,3.31,2.014,3.759c1.119,0.518,5.207,1.39,6.154,2.122
			c4.998,3.867,6.171,8.805,6.722,13.756c0.906,8.147-9.629,52.934-9.629,52.934l-1.613,3.445l-45.077,0l-0.581-3.445
			C366.912,343.449,372.437,303.383,376.964,295.235z"/>
		<g>
			<path style="fill:#EDB091;" d="M397.586,281.133h8.457c1.537,0,2.783-1.246,2.783-2.783v-23.477h-14.023v23.477
				C394.803,279.887,396.049,281.133,397.586,281.133z"/>
			<path style="fill:#EDB091;" d="M408.826,260.225c-1.857,4.815-5.905,12.231-14.023,14.057v-19.409h12.675l1.348,0.592V260.225z"
				/>
		</g>
		<path style="fill:#EDB091;" d="M391.594,234.143h3.227c6.414,0,11.614,5.2,11.614,11.614v10.99
			c0,6.486-5.258,11.745-11.745,11.745h-5.725c-4.962,0-8.985-4.023-8.985-8.985v-13.749
			C379.98,239.343,385.18,234.143,391.594,234.143z"/>
		<path style="fill:#EDB091;" d="M401.633,254.202c0,3.451,2.797,6.248,6.248,6.248c3.451,0,6.248-2.797,6.248-6.248
			c0-3.451-2.797-6.248-6.248-6.248C404.43,247.954,401.633,250.751,401.633,254.202z"/>
		<path style="fill:none;" d="M406.286,248.726c-0.486,2.249-0.8,4.535-0.937,6.831c-0.259-0.243-0.741-0.355-1.073-0.226"/>
		<path style="fill:#D7914E;" d="M378.827,230.879c0.069,1.562,0.144,3.153,0.687,4.619c0.542,1.466,1.638,2.814,3.138,3.255
			c1.059,0.312,2.193,0.147,3.284-0.02c1.67-0.256,3.34-0.512,5.01-0.767c0.777-0.119,1.581-0.237,2.341-0.035
			c1.479,0.392,2.371,1.837,3.432,2.939c1.69,1.755,4.114,2.779,6.551,2.767c1.173,2.397,2.043,5.309,1.664,7.951h1.423
			c0.157-1.751,2.146-3.428,3.904-3.437c1.111-1.728,2.143-3.708,3.253-5.436c0.523-0.814,1.055-1.645,1.309-2.579
			c0.251-0.923,0.218-1.9,0.112-2.85c-0.254-2.28-0.939-4.553-2.287-6.41c-1.348-1.856-3.411-3.258-5.692-3.502
			c-1.834-0.196-2.511-2.213-4.095-3.157c-2.919-1.738-6.838-1.629-9.655,0.27c-0.942-0.777-2.015-1.462-3.105-2.011
			c-2.921-1.471-6.719-0.967-9.156,1.214c-0.39,0.349-0.748,0.737-1.03,1.177C378.952,226.363,378.748,229.102,378.827,230.879z"/>
		<path style="fill:#FFFFFF;" d="M387.705,258.867l6.764-1.72c0,0-1.079,3.676-3.239,4.05
			C389.07,261.57,387.705,258.867,387.705,258.867z"/>
		<path style="fill:#242021;" d="M389.804,248.931c0,0.696,0.564,1.26,1.26,1.26c0.696,0,1.26-0.564,1.26-1.26
			c0-0.695-0.564-1.26-1.26-1.26C390.368,247.672,389.804,248.236,389.804,248.931z"/>
		<path style="fill:#242021;" d="M380.986,248.931c0,0.696,0.564,1.26,1.26,1.26s1.26-0.564,1.26-1.26c0-0.695-0.564-1.26-1.26-1.26
			S380.986,248.236,380.986,248.931z"/>
		<polygon style="fill:#87AED3;" points="397.132,274.033 409.809,274.587 409.295,280.668 392.025,289.447 392.27,280.495 		"/>
		<g>
			<path style="fill:#242021;" d="M342.429,328.709h-46.911v-3.439h46.911c0.95,0,1.72,0.77,1.72,1.72l0,0
				C344.148,327.94,343.379,328.709,342.429,328.709z"/>
			<path style="fill:#242021;" d="M329.558,328.709l-9.455-35.624c-0.513-1.934-2.264-3.28-4.264-3.28h-6.794l0,0h-32.707
				c-2.172,0-3.903,1.544-4.319,3.497c-0.139,0.651-0.131,1.347,0.054,2.047l7.984,30.081c0.01,0.039,0.029,0.074,0.04,0.112
				c0.057,0.193,0.12,0.383,0.201,0.563c0.081,0.181,0.181,0.351,0.284,0.517c0.018,0.029,0.031,0.061,0.049,0.089
				c0.251,0.384,0.561,0.721,0.913,1.007c0,0,0.001,0.001,0.001,0.001l0,0c0.767,0.622,1.734,0.992,2.775,0.992H329.558z"/>
			<path style="fill:#FFFFFF;" d="M302.918,311.921c0.496,1.962-0.739,3.553-2.758,3.553c-2.019,0-4.056-1.591-4.552-3.553
				c-0.495-1.962,0.74-3.553,2.758-3.553C300.385,308.368,302.423,309.959,302.918,311.921z"/>
		</g>
		<path style="fill:#FFFFFF;" d="M408.948,270.718c0,0-6.926,4.561-14.107,2.072l-0.355,3.555l-2.27,4.332l4.546-5.754l3.263,6.802
			l10.508-7.357L408.948,270.718z"/>
		<path style="fill:#EDB091;" d="M351.014,324.848c2.279,0.457,4.783,0.622,6.797-0.537c2.015-1.159-0.221-4.498-1.646-6.334
			c-2.814,0.424-5.296-1.683-7.93-2.761c-1.597-0.654-3.32-0.937-5.034-1.141c-2.198-0.261-4.439-0.397-6.612,0.024
			c-2.173,0.422-4.29,1.451-5.67,3.182c-0.323,0.405-0.195,0.918,0.301,1.068c0.496,0.15,1.017-0.08,1.497-0.277
			c1.503-0.618,3.123-0.948,4.748-0.969c0.294-0.004,0.372,0.507,0.082,0.555c-4.251,0.707-5.815,2.828-5.809,3.06
			c0.006,0.253,0.268,0.421,0.513,0.485c0.441,0.117,1.352-0.337,1.787-0.475c1.844-0.585,3.296-0.376,3.296-0.376
			s1.567,0.546-2.9,1.404c-0.549,0.105-1.142,0.291-1.448,0.759c-0.054,0.082-0.097,0.174-0.106,0.272
			c-0.01,0.118,0.031,0.234,0.091,0.336c0.183,0.311,0.531,0.496,0.885,0.565c0.354,0.069,0.719,0.037,1.078,0.004
			c1.763-0.159,3.527-0.318,5.29-0.477c-0.496,0.146-3.785,0.764-4.206,1.065c-0.164,0.117-0.334,0.269-0.347,0.47
			c-0.019,0.297,0.298,0.491,0.575,0.6c1.859,0.735,6.702,0.398,8.691,0.212C346.927,325.378,349.055,324.454,351.014,324.848z"/>
		<path style="fill:#242021;" d="M394.934,281.086c0,0-1.901,4.503-2.909,8.361l3.647-1.854l0.187-5.953l4.066-3.142l-1.718-4.418
			l-1.075-0.047c-0.061,0.554-3.508,4.738-3.508,4.738L394.934,281.086z"/>
		<path style="fill:#3F3938;" d="M414.253,275.728c-3.087,6.061-5.112,12.439-5.974,19.186c-0.668,5.224-0.495,12.813-3.016,17.54
			c-1.515,2.84-8.778,1.53-11.977,1.891c-12.252,1.384-23.742,0.182-36.066,0.568c-1.257,0.039-2.679,0.15-3.476,1.124
			c-0.42,0.514-0.585,1.185-0.712,1.836c-0.498,2.574-0.567,5.231-0.201,7.827c2.2,1.353,5.102,0.889,7.67,1.16
			c15.766,1.667,29.718,3.794,44.327,3.209c4.776-0.191,9.896-0.502,13.672-3.433c4.058-3.15,5.056-13.525,5.764-18.613
			c0.585-4.203,0.801-8.458,0.645-12.698c-0.149-4.047-0.656-8.153-2.302-11.854C420.961,279.772,418.765,276.566,414.253,275.728z"
			/>
	</g>
	<g>
		<g>
			<g>
				<g>
					
						<ellipse transform="matrix(0.9965 -0.0831 0.0831 0.9965 -12.4115 9.1289)" style="fill:#242021;" cx="103.437" cy="153.633" rx="27.319" ry="27.319"/>
				</g>
			</g>
		</g>
		<g>
			<g>
				<g>
					<circle style="fill:#FAFAFA;" cx="103.437" cy="153.633" r="23.365"/>
				</g>
			</g>
		</g>
		<g>
			<g>
				<g>
					<g>
						<path style="fill:#242021;" d="M104.783,133.447v-3.138c-0.446-0.025-0.894-0.041-1.346-0.041c-0.452,0-0.9,0.016-1.346,0.041
							v3.138H104.783z"/>
					</g>
				</g>
			</g>
			<g>
				<g>
					<g>
						<path style="fill:#242021;" d="M102.091,173.818v3.138c0.446,0.025,0.894,0.041,1.346,0.041c0.452,0,0.9-0.016,1.346-0.041
							v-3.138H102.091z"/>
					</g>
				</g>
			</g>
			<g>
				<g>
					<g>
						<path style="fill:#242021;" d="M86.65,142.417l-2.672-1.717c-0.133,0.2-0.263,0.404-0.39,0.608l2.671,1.716L86.65,142.417z"/>
					</g>
				</g>
			</g>
			<g>
				<g>
					<g>
						<path style="fill:#242021;" d="M120.223,164.849l2.672,1.717c0.133-0.2,0.263-0.404,0.39-0.608l-2.671-1.716L120.223,164.849z
							"/>
					</g>
				</g>
			</g>
			<g>
				<g>
					<g>
						<path style="fill:#242021;" d="M92.221,170.419l-1.717,2.672c0.2,0.133,0.404,0.263,0.608,0.39l1.716-2.671L92.221,170.419z"
							/>
					</g>
				</g>
			</g>
			<g>
				<g>
					<g>
						<path style="fill:#242021;" d="M114.653,136.846l1.717-2.671c-0.2-0.133-0.404-0.263-0.608-0.39l-1.716,2.671L114.653,136.846
							z"/>
					</g>
				</g>
			</g>
			<g>
				<g>
					<g>
						<path style="fill:#242021;" d="M94.138,135.713l-1.513-2.792c-0.214,0.112-0.425,0.226-0.635,0.345l1.512,2.791
							L94.138,135.713z"/>
					</g>
				</g>
			</g>
			<g>
				<g>
					<g>
						<path style="fill:#242021;" d="M112.736,171.552l1.513,2.792c0.214-0.112,0.425-0.227,0.635-0.345l-1.512-2.791
							L112.736,171.552z"/>
					</g>
				</g>
			</g>
			<g>
				<g>
					<g>
						<path style="fill:#242021;" d="M85.518,162.932l-2.792,1.513c0.112,0.214,0.227,0.425,0.345,0.635l2.791-1.512L85.518,162.932
							z"/>
					</g>
				</g>
			</g>
			<g>
				<g>
					<g>
						<path style="fill:#242021;" d="M121.356,144.334l2.792-1.513c-0.112-0.214-0.227-0.425-0.345-0.635l-2.791,1.512
							L121.356,144.334z"/>
					</g>
				</g>
			</g>
			<g>
				<g>
					<g>
						<path style="fill:#242021;" d="M83.252,152.287h-3.138c-0.025,0.446-0.041,0.894-0.041,1.346c0,0.452,0.016,0.9,0.041,1.346
							h3.138V152.287z"/>
					</g>
				</g>
			</g>
			<g>
				<g>
					<g>
						<path style="fill:#242021;" d="M123.622,154.979h3.138c0.025-0.446,0.041-0.894,0.041-1.346c0-0.452-0.016-0.9-0.041-1.346
							h-3.138V154.979z"/>
					</g>
				</g>
			</g>
		</g>
		<g>
			<g>
				<g>
					<g>
						<g>
							<polygon style="fill:#242021;" points="103.446,154.199 102.551,153.305 115.207,141.288 115.207,141.288 							"/>
						</g>
					</g>
				</g>
				<g>
					<g>
						<g>
							<polygon style="fill:#242021;" points="102.356,154.004 95.84,146.69 95.84,146.69 103.251,153.11 							"/>
						</g>
					</g>
				</g>
			</g>
			<g>
				<g>
					<g>
						<g>
							<path style="fill:#242021;" d="M101.753,151.886c-1.328,0.905-1.328,2.826,0,3.731c0.738,0.503,1.752,0.503,2.49,0
								c1.328-0.905,1.328-2.826,0-3.731C103.506,151.384,102.491,151.384,101.753,151.886z"/>
						</g>
					</g>
				</g>
				<g>
					<g>
						<g>
							<path style="fill:#FAFAFA;" d="M102.438,153.191c-0.309,0.309-0.309,0.811,0,1.12c0.309,0.309,0.811,0.309,1.12,0
								c0.309-0.309,0.309-0.811,0-1.12C103.249,152.882,102.748,152.882,102.438,153.191z"/>
						</g>
					</g>
				</g>
			</g>
		</g>
	</g>
	<g>
		<g>
			<path style="fill:#242021;" d="M120.798,458.052c-0.02,0-0.039,0.006-0.06,0.006c-0.952-4.395-4.862-7.705-9.54-7.715
				l-10.166-0.022l0.047-21.773l-1.933-0.004l0.101-46.696l-1.278-0.003l0.001-0.387l-0.584-0.001l-0.725-0.001l-0.585-0.001
				l-0.001,0.387l-3.015-0.006L92.96,428.53l-1.547-0.003L91.366,450.3l-11.337-0.024c-4.691-0.01-8.626,3.301-9.583,7.712
				c-2.199,0.216-3.927,2.047-3.932,4.304c-0.005,2.406,1.942,4.362,4.347,4.367c2.406,0.005,4.361-1.941,4.366-4.348
				c0.004-2.095-1.473-3.847-3.444-4.268c0.911-3.708,4.259-6.465,8.242-6.457l15.322,0.033l-0.014,6.445
				c-2.094,0.313-3.706,2.1-3.711,4.282c-0.005,2.406,1.942,4.361,4.348,4.367c2.406,0.005,4.36-1.942,4.366-4.348
				c0.005-2.182-1.6-3.976-3.693-4.299l0.014-6.444l1.16,0.003l13.378,0.029c4.034,0.009,7.406,2.849,8.25,6.631
				c-1.741,0.568-3.01,2.184-3.014,4.115c-0.005,2.406,1.941,4.362,4.347,4.367c2.406,0.005,4.361-1.942,4.366-4.348
				C125.151,460.012,123.204,458.057,120.798,458.052z"/>
		</g>
		<path style="fill:#B2826F;" d="M73.424,370.975l34.123,0.082c9.733,0.021,16.117-7.849,14.259-17.577l-13.078-68.479
			c-0.929-4.865-5.627-8.817-10.494-8.829l-46.541-0.11c-4.867-0.012-8.06,3.924-7.131,8.789l14.071,73.68
			C59.942,365.388,66.564,370.959,73.424,370.975z"/>
		<g>
			<path style="fill:#B2826F;" d="M151.442,369.214c-0.021,9.806-7.988,17.739-17.794,17.718l-53.116-0.124
				c-9.807-0.021-17.739-7.988-17.718-17.795L151.442,369.214z"/>
			<path style="fill:#242021;" d="M147.054,380.838c-3.264,3.737-8.055,6.105-13.407,6.094l-53.116-0.124
				c-5.352-0.012-10.133-2.4-13.38-6.152L147.054,380.838z"/>
		</g>
		<path style="fill:#242021;" d="M101.045,444.705l-0.012,5.616l10.166,0.022c4.678,0.01,8.588,3.32,9.54,7.715
			c0.021,0,0.04-0.006,0.06-0.006c2.406,0.005,4.353,1.961,4.348,4.366c-0.005,2.406-1.96,4.353-4.366,4.348
			c-2.407-0.005-4.353-1.961-4.347-4.367c0.004-1.931,1.273-3.547,3.014-4.115c-0.844-3.782-4.216-6.622-8.25-6.631l-13.378-0.029
			l-1.16-0.003l-0.014,6.444c2.092,0.323,3.697,2.117,3.693,4.299c-0.005,2.406-1.96,4.353-4.366,4.348
			c-2.406-0.005-4.353-1.96-4.348-4.367c0.005-2.182,1.617-3.969,3.711-4.282l0.014-6.445l-15.322-0.033
			c-3.983-0.009-7.331,2.749-8.242,6.457c1.971,0.421,3.448,2.172,3.443,4.268c-0.005,2.406-1.96,4.353-4.366,4.348
			c-2.406-0.005-4.353-1.961-4.348-4.367c0.005-2.257,1.733-4.088,3.932-4.304c0.957-4.411,4.892-7.722,9.583-7.712l11.337,0.024
			l0.012-5.616L101.045,444.705z"/>
		<path style="fill:#242021;" d="M67.152,380.655c-2.703-3.123-4.347-7.188-4.337-11.643l46.459,0.201
			c-0.01,4.455-1.671,8.513-4.388,11.624h0c-0.001,0.001-0.002,0.002-0.003,0.003c-0.396,0.453-0.815,0.884-1.254,1.295
			c-0.035,0.033-0.072,0.065-0.108,0.098c-0.404,0.372-0.824,0.724-1.261,1.058c-0.072,0.055-0.146,0.109-0.219,0.163
			c-0.405,0.299-0.822,0.58-1.252,0.845c-0.109,0.067-0.219,0.134-0.329,0.199c-0.402,0.236-0.815,0.453-1.237,0.657
			c-0.143,0.069-0.284,0.14-0.429,0.206c-0.401,0.18-0.81,0.341-1.226,0.492c-0.172,0.063-0.342,0.13-0.516,0.188
			c-0.403,0.132-0.815,0.242-1.231,0.345c-0.192,0.048-0.381,0.105-0.576,0.147c-0.43,0.092-0.87,0.157-1.311,0.217
			c-0.184,0.025-0.363,0.063-0.549,0.083c-0.627,0.065-1.262,0.103-1.906,0.101l-10.947-0.125c-0.644-0.001-1.279-0.041-1.905-0.109
			c-0.186-0.02-0.365-0.059-0.549-0.085c-0.441-0.062-0.88-0.128-1.31-0.222c-0.195-0.043-0.383-0.1-0.575-0.149
			c-0.414-0.105-0.826-0.216-1.228-0.35c-0.176-0.059-0.347-0.128-0.521-0.192c-0.413-0.152-0.82-0.314-1.218-0.495
			c-0.146-0.066-0.287-0.138-0.431-0.209c-0.421-0.206-0.833-0.425-1.234-0.663c-0.11-0.065-0.218-0.132-0.326-0.199
			c-0.429-0.266-0.845-0.55-1.249-0.851c-0.073-0.055-0.146-0.108-0.218-0.164c-0.437-0.336-0.855-0.69-1.258-1.064
			c-0.035-0.032-0.071-0.064-0.105-0.096c-0.438-0.413-0.856-0.847-1.251-1.302C67.152,380.657,67.152,380.656,67.152,380.655
			L67.152,380.655z"/>
		<path style="fill:#242021;" d="M44.451,282.658c0.022-0.324,0.055-0.643,0.114-0.952c0.045-0.228,0.104-0.449,0.169-0.666
			c0.068-0.232,0.149-0.456,0.238-0.676c0.102-0.247,0.208-0.493,0.337-0.724c0.075-0.137,0.166-0.262,0.249-0.392
			c0.874-1.337,2.19-2.346,3.836-2.829l0,0c4.082,0.909,7.67,4.399,8.468,8.581l16.42,85.976l-0.891-0.002
			c-6.848-0.034-13.452-5.596-14.759-12.442l-14.071-73.68c-0.107-0.56-0.146-1.104-0.147-1.635
			C44.414,283.025,44.439,282.843,44.451,282.658z"/>
	</g>
	<g>
		<path style="fill:#FFFFFF;" d="M165.401,456.258l0.585,6.852c0,0,16.652,2.953,20.727,2.845c4.075-0.107,4.198-1.973,1.493-4.938
			c-2.706-2.965-15.372-5.904-15.372-5.904l-3.909,0.067L165.401,456.258z"/>
		<path style="fill:#9B5E49;" d="M216.362,283.148c3.343-2.648,6.749-5.25,10.491-7.295c3.742-2.046,7.856-3.529,12.113-3.786
			c0.408-0.025,0.65,0.722,0.484,1.097c-0.166,0.374-0.537,0.607-0.888,0.818c-1.138,0.684-2.277,1.367-3.415,2.051
			c-1.146,0.688-1.736,1.96-1.875,3.289c-0.151,1.44,0.375,2.93-0.023,4.322c-0.459,1.602-2.055,2.649-3.676,3.035
			c-1.621,0.386-3.313,0.254-4.979,0.307c-1.854,0.06-3.701,0.356-5.482,0.878c-2.565,0.752-5.163,1.987-7.79,1.487
			c-0.287-1.453,0.453-2.956,1.534-3.969C213.936,284.369,215.201,284.068,216.362,283.148z"/>
		<polygon style="fill:#9B5E49;" points="173.309,456.31 166.584,457.032 163.003,433.361 169.729,432.638 		"/>
		<path style="fill:#242021;" d="M140.96,249.147c0,6.982-5.66,12.642-12.643,12.642c-6.982,0-12.642-5.66-12.642-12.642
			c0-6.982,5.66-12.643,12.642-12.643C135.3,236.504,140.96,242.164,140.96,249.147z"/>
		<path style="fill:#FFFFFF;" d="M206.877,452.52l3.335,6.014c0,0,16.404-4.112,20.079-5.876c3.675-1.764,3.025-3.517-0.657-5.117
			c-3.682-1.6-16.442,0.895-16.442,0.895l-3.54,1.659L206.877,452.52z"/>
		<polygon style="fill:#9B5E49;" points="214.116,449.334 208.274,452.743 196.033,431.209 201.876,427.8 		"/>
		<path style="fill:#1C7745;" d="M145.349,283.664c0,0,16.005,13.095,29.091,10.008c9.787-2.309,5.036-0.455,44.965-14.474
			l4.619,9.567l-43.7,23.721c0,0-34.563-4.451-35.525-6.106c-0.962-1.655-4.81-14.831-4.81-14.831L145.349,283.664z"/>
		<g>
			<path style="fill:#3F3938;" d="M196.667,442.793l-5.168-9.812c-12.97-24.626-28.056-52.102-33.127-59.75
				c-7.39-1.623-29.945-3.531-48.707-4.488l-11.075-0.565l1.13-22.15l11.075,0.565c54.212,2.764,58.768,6.561,61.489,8.829
				c1.832,1.527,6.124,5.105,38.84,67.223l5.168,9.812L196.667,442.793z M160.062,373.69L160.062,373.69L160.062,373.69z"/>
		</g>
		<g>
			<path style="fill:#4D4543;" d="M153.001,438.615l-0.861-11.056c-1.498-19.241-4.98-42.818-7.931-48.844
				c-4.841-2.74-23.458-7.052-41.146-9.47l-10.986-1.501l3-21.975l10.986,1.499c20.2,2.755,45.977,7.739,54.06,15.823
				c6.659,6.66,11.413,27.771,14.13,62.748l0.859,11.058L153.001,438.615z"/>
		</g>
		<circle style="fill:#1D8950;" cx="141.413" cy="253.416" r="9.338"/>
		<path style="fill:#1D8950;" d="M141.262,370.09c-1.751-8.866-12.213-23.284-8.604-29.938c5.497-10.132,19.962-9.611,22.18-26.986
			c0.676-5.297-0.71-9.223-0.769-14.652c-0.031-2.819-3.378-9.893-4.774-12.343c-8.374-14.692-21.465-11.952-28.095-3.697
			c-5.547,6.907-8.206,30.509-13.822,37.36c-3.702,4.515-4.662,4.816-8.86,8.873c-6.688,6.464-10.23,19.346-11.797,30.913
			c-0.75,5.538,3.541,10.468,9.13,10.468H141.262z"/>
		<g>
			<path style="fill:#9B5E49;" d="M140.749,289.552l-7.671-3.56c-1.394-0.647-2-2.302-1.353-3.696l9.883-21.295l12.72,5.903
				l-9.883,21.295C143.798,289.593,142.143,290.199,140.749,289.552z"/>
			<path style="opacity:0.5;fill:#9B5E49;" d="M139.355,265.855c-0.342,5.149,0.208,13.58,6.802,18.654l8.171-17.605l-11.497-5.336
				l-1.472-0.03L139.355,265.855z"/>
		</g>
		<path style="fill:#9B5E49;" d="M154.555,244.24h-3.227c-6.415,0-11.614,5.2-11.614,11.614v10.99
			c0,6.486,5.258,11.745,11.745,11.745h5.726c4.962,0,8.985-4.023,8.985-8.985v-13.749
			C166.169,249.44,160.969,244.24,154.555,244.24z"/>
		<path style="fill:#9B5E49;" d="M144.515,264.299c0,3.45-2.797,6.247-6.248,6.247c-3.45,0-6.247-2.797-6.247-6.247
			c0-3.451,2.797-6.248,6.247-6.248C141.718,258.052,144.515,260.849,144.515,264.299z"/>
		<path style="fill:#9B5E49;" d="M193.668,303.086c-1.611,1.367-3.53,2.6-5.643,2.565c-2.113-0.035-1.804-3.675-1.478-5.763
			c2.425-0.902,3.472-3.67,5.092-5.687c0.983-1.223,2.229-2.207,3.502-3.123c1.633-1.175,3.356-2.27,5.27-2.891
			c1.913-0.621,4.051-0.734,5.91,0.035c0.436,0.18,0.559,0.644,0.231,0.982c-0.329,0.338-0.845,0.384-1.313,0.439
			c-1.467,0.17-2.901,0.62-4.203,1.319c-0.236,0.126-0.072,0.567,0.179,0.478c3.693-1.309,5.87-0.311,5.967-0.123
			c0.106,0.204-0.028,0.453-0.194,0.612c-0.299,0.287-1.224,0.327-1.631,0.409c-1.724,0.346-2.787,1.152-2.787,1.152
			s-1.006,1.124,2.925-0.16c0.483-0.158,1.036-0.271,1.486-0.034c0.079,0.042,0.154,0.096,0.204,0.17
			c0.06,0.089,0.078,0.2,0.075,0.307c-0.009,0.328-0.204,0.628-0.455,0.839s-0.556,0.346-0.856,0.478
			c-1.473,0.65-2.945,1.299-4.417,1.949c0.459-0.102,3.347-1.058,3.814-1.004c0.182,0.021,0.384,0.067,0.483,0.222
			c0.146,0.228-0.021,0.522-0.193,0.731c-1.155,1.403-5.155,3.267-6.82,3.994C197.152,301.708,195.053,301.91,193.668,303.086z"/>
		<path style="fill:#1C7745;" d="M139.606,333.038c-4.433-2.042-7.702-6.117-9.635-10.605c-1.958-4.545-2.691-9.514-3.204-14.437
			c-0.692-6.639-1.032-13.325-0.968-20c0.065-6.823,3.585-8.152,10.036-5.507c4.304,1.765,3.885,5.353,7.933,7.644
			c1.043,0.59-0.215,5.034,0.766,5.744c1.309,2.896,2.278,2.087,2.298,3.829c0.049,4.574,2.007,7.329,1.915,11.488
			c-0.498,2.942,5.176,5.436,4.452,8.33C150.288,326.643,144.579,329.562,139.606,333.038z"/>
		<path style="fill:#9B5E49;" d="M139.863,258.823c0.486,2.249,0.799,4.535,0.937,6.831c0.259-0.243,0.741-0.355,1.073-0.226"/>
		<path style="fill:#FFFFFF;" d="M161.532,269.337l-8.224-2.092c0,0,1.312,4.47,3.938,4.924
			C159.872,272.623,161.532,269.337,161.532,269.337z"/>
		<path style="fill:#242021;" d="M162.81,259.128c0,0.695-0.564,1.26-1.26,1.26c-0.696,0-1.26-0.564-1.26-1.26
			c0-0.696,0.564-1.26,1.26-1.26C162.246,257.868,162.81,258.432,162.81,259.128z"/>
		<path style="fill:#1D8950;" d="M136.988,274.887c-3.745-0.657-6.473,0.546-8.19,3.705c-1.717,3.159-1.986,6.83-1.767,10.362
			c0.889,14.366,9.113,27.33,17.114,39.655c1.454,2.24,4.658,2.515,7.461,2.248c2.803-0.266,5.446-1.318,7.967-2.486
			c12.333-5.712,22.736-14.385,32.974-22.951c-0.982-1.76-2.012-3.76-2.993-5.52c-0.625-1.12-1.877-2.437-3.055-1.808
			c-6.777,3.615-13.952,6.672-20.825,10.127c-2.984,1.501-5.986,3.008-9.199,4.025C151.529,299.902,144.644,276.23,136.988,274.887z
			"/>
		<path style="fill:#4D4543;" d="M86.72,359.622c-0.75,5.538,3.541,10.468,9.13,10.468l46.98,0.885
			c-1.246-6.309-8.451-16.304-10.309-23.437H89.093C88.039,351.513,87.259,355.644,86.72,359.622z"/>
		<path style="fill:#242021;" d="M140.378,241.635c-9.87,6.025-7.349,14.644-5.801,17.681c0.764-0.823,1.844-1.059,2.99-1.039
			c1.145,0.019,2.257,0.353,3.35,0.683c1.937,0.585,4.51-0.081,6.48-0.552c3.858-0.923,7.675-2.271,10.851-4.575
			c1.449-1.052,5.144-5.737,5.144-5.737s-2.523-3.735-4.138-4.744C155.611,241.074,148.15,236.891,140.378,241.635z"/>
		<path style="fill:#242021;" d="M154.555,244.24h-3.227c-6.414,0-11.614,5.2-11.614,11.614v2.772
			c0.403,0.106,0.806,0.213,1.203,0.333c1.937,0.585,4.51-0.081,6.479-0.552c3.858-0.923,7.675-2.271,10.851-4.575
			c1.902-1.38,4.134-2.896,5.749-4.7C161.891,246.18,158.457,244.24,154.555,244.24z"/>
	</g>
	<g>
		<g>
			<rect x="174.023" y="335.189" style="fill:#242021;" width="7.394" height="131.577"/>
			<rect x="312.52" y="335.189" style="fill:#242021;" width="7.394" height="131.577"/>
		</g>
		<rect x="136.619" y="328.899" style="fill:#B2826F;" width="220.593" height="11.831"/>
	</g>
	<g>
		<g>
			<path style="fill:#242021;" d="M376.94,84.142c-3.465-8.398-11.725-14.313-21.375-14.313H144.169
				c-9.649,0-17.91,5.915-21.374,14.313H376.94z"/>
			<path style="fill:#FFFFFF;" d="M122.795,84.142H376.94c-0.485-1.176-1.073-2.297-1.737-3.366H124.532
				C123.868,81.845,123.28,82.966,122.795,84.142z"/>
		</g>
		<g>
			<rect x="172.457" style="fill:#242021;" width="1.346" height="74.718"/>
			<rect x="325.932" style="fill:#242021;" width="1.346" height="74.718"/>
		</g>
	</g>
</g>
</svg>
