<?xml version="1.0" encoding="utf-8"?>
<!-- Generator: Adobe Illustrator 27.5.0, SVG Export Plug-In . SVG Version: 6.00 Build 0)  -->
<svg version="1.1" id="Layer_1" xmlns="http://www.w3.org/2000/svg" xmlns:xlink="http://www.w3.org/1999/xlink" x="0px" y="0px"
	 viewBox="0 0 1364 960" style="enable-background:new 0 0 1364 960;" xml:space="preserve">
<g>
	<g>
		<g>
			<path style="fill:#C2E5FF;" d="M1054.582,294.138l-18.735-7.115c0-0.001-0.001-0.002-0.001-0.003
				c-1.22-5.252-3.028-10.316-5.335-15.08l10.014-17.495c1.695-2.962,1.299-6.676-0.981-9.214l-8.73-9.714
				c-2.299-2.557-5.987-3.336-9.123-1.926l-18.299,8.225l-0.013-0.001c-4.493-2.803-9.31-5.123-14.405-6.896c0,0,0,0,0,0
				l-5.29-19.457c-0.896-3.292-3.802-5.64-7.21-5.821l-13.041-0.695c-3.434-0.183-6.592,1.875-7.813,5.089l-7.123,18.757
				c-0.002,0-0.004,0.001-0.006,0.001c-5.254,1.205-10.29,3-15.055,5.31c-0.004,0.002-0.007,0.004-0.01,0.005l-17.499-10.017
				c-2.962-1.695-6.676-1.299-9.214,0.982l-9.713,8.73c-2.558,2.298-3.336,5.986-1.927,9.122l8.215,18.276
				c-2.802,4.506-5.122,9.335-6.895,14.443l-19.449,5.288c-3.292,0.896-5.639,3.802-5.821,7.21l-0.695,13.041
				c-0.183,3.434,1.874,6.593,5.089,7.813l18.732,7.114c0,0.002,0.001,0.004,0.001,0.005c1.22,5.253,3.028,10.318,5.336,15.082
				l-10.013,17.491c-1.695,2.962-1.299,6.676,0.982,9.215l8.73,9.713c2.299,2.557,5.986,3.336,9.123,1.926l18.294-8.223
				c4.493,2.802,9.309,5.122,14.405,6.879l0.014,0.001l5.294,19.471c0.895,3.293,3.802,5.64,7.209,5.821l13.042,0.695
				c3.433,0.183,6.592-1.874,7.813-5.089l7.117-18.739c0.003-0.001,0.006-0.001,0.009-0.002c5.255-1.22,10.306-3.015,15.057-5.325
				c0.004-0.003,0.008-0.005,0.013-0.007l17.499,10.017c2.961,1.695,6.676,1.299,9.214-0.982l9.713-8.73
				c2.558-2.298,3.336-5.986,1.926-9.122l-8.215-18.277c2.801-4.506,5.12-9.335,6.893-14.442l19.451-5.289
				c3.293-0.895,5.64-3.802,5.821-7.21l0.695-13.041C1059.854,298.517,1057.796,295.359,1054.582,294.138z M962.289,355.477
				c-28.667-1.528-50.67-26.009-49.142-54.675c1.528-28.666,26.009-50.67,54.676-49.142c28.667,1.528,50.654,26.008,49.126,54.674
				C1015.421,335.001,990.956,357.005,962.289,355.477z"/>
		</g>
		<g>
			<path style="fill:#C2E5FF;" d="M966.556,275.293c-15.615-0.832-28.949,11.152-29.781,26.768
				c-0.832,15.616,11.152,28.949,26.767,29.782c15.616,0.832,28.95-11.152,29.782-26.768
				C994.156,289.458,982.171,276.125,966.556,275.293z"/>
		</g>
	</g>
	<g>
		<g>
			<path style="fill:#C2E5FF;" d="M1101.751,137.99l-10.281-3.904c0-0.001,0-0.001,0-0.002c-0.67-2.882-1.662-5.661-2.928-8.275
				l5.495-9.6c0.93-1.625,0.713-3.663-0.538-5.056l-4.791-5.33c-1.261-1.403-3.285-1.831-5.006-1.057l-10.041,4.514l-0.007,0
				c-2.466-1.538-5.109-2.811-7.905-3.784c0,0,0,0,0,0l-2.903-10.677c-0.492-1.807-2.087-3.095-3.956-3.194l-7.156-0.382
				c-1.884-0.1-3.617,1.029-4.287,2.793l-3.909,10.293c-0.001,0-0.002,0.001-0.003,0.001c-2.883,0.661-5.646,1.646-8.262,2.914
				c-0.002,0.001-0.004,0.002-0.006,0.003l-9.602-5.497c-1.625-0.93-3.664-0.713-5.056,0.539l-5.33,4.791
				c-1.404,1.261-1.831,3.285-1.057,5.006l4.508,10.029c-1.538,2.473-2.811,5.123-3.784,7.926l-10.673,2.902
				c-1.807,0.491-3.095,2.086-3.194,3.956l-0.382,7.157c-0.1,1.884,1.029,3.618,2.793,4.287l10.279,3.904
				c0,0.001,0,0.002,0.001,0.003c0.669,2.882,1.662,5.662,2.928,8.276l-5.495,9.598c-0.93,1.625-0.713,3.664,0.539,5.057l4.791,5.33
				c1.261,1.403,3.285,1.83,5.006,1.057l10.039-4.513c2.466,1.538,5.108,2.811,7.905,3.775l0.008,0l2.905,10.685
				c0.491,1.807,2.086,3.095,3.956,3.194l7.157,0.382c1.884,0.1,3.617-1.028,4.287-2.793l3.905-10.283
				c0.002,0,0.004-0.001,0.005-0.001c2.884-0.67,5.656-1.654,8.262-2.922c0.002-0.001,0.004-0.003,0.007-0.004l9.602,5.497
				c1.625,0.93,3.663,0.713,5.056-0.539l5.33-4.791c1.404-1.261,1.831-3.285,1.057-5.006l-4.508-10.029
				c1.537-2.473,2.81-5.122,3.782-7.925l10.674-2.902c1.807-0.491,3.095-2.086,3.194-3.956l0.381-7.157
				C1104.644,140.393,1103.515,138.66,1101.751,137.99z M1051.105,171.65c-15.731-0.839-27.805-14.272-26.967-30.003
				c0.839-15.731,14.272-27.805,30.003-26.967c15.731,0.838,27.797,14.272,26.958,30.003
				C1080.261,160.414,1066.836,172.489,1051.105,171.65z"/>
		</g>
		<g>
			<path style="fill:#C2E5FF;" d="M1053.446,127.649c-8.569-0.457-15.886,6.119-16.343,14.689
				c-0.457,8.569,6.12,15.886,14.689,16.343c8.569,0.457,15.886-6.119,16.343-14.689
				C1068.592,135.423,1062.016,128.106,1053.446,127.649z"/>
		</g>
	</g>
	<g>
		<g>
			<path style="fill:#C2E5FF;" d="M391.979,704.865l-13.02-6.381c0-0.001,0-0.001,0-0.002c-0.527-3.865-1.491-7.635-2.834-11.221
				l8.386-11.933c1.42-2.02,1.383-4.722-0.09-6.703l-5.639-7.583c-1.484-1.996-4.089-2.805-6.443-1.999l-13.733,4.7l-0.009-0.001
				c-3.049-2.32-6.363-4.314-9.915-5.932c0,0,0,0,0,0l-2.508-14.371c-0.425-2.432-2.362-4.318-4.804-4.677l-9.348-1.374
				c-2.462-0.362-4.875,0.909-5.97,3.143l-6.388,13.036c-0.001,0-0.003,0-0.004,0.001c-3.866,0.516-7.614,1.472-11.202,2.817
				c-0.003,0.001-0.005,0.002-0.008,0.003l-11.935-8.388c-2.02-1.42-4.723-1.383-6.704,0.09l-7.582,5.639
				c-1.997,1.484-2.804,4.089-1.999,6.443l4.694,13.716c-2.321,3.059-4.315,6.382-5.934,9.943l-14.365,2.507
				c-2.432,0.425-4.317,2.361-4.676,4.804l-1.374,9.349c-0.362,2.461,0.909,4.875,3.143,5.97l13.018,6.38
				c0,0.001,0,0.003,0.001,0.004c0.527,3.866,1.49,7.636,2.834,11.223l-8.385,11.93c-1.42,2.02-1.383,4.723,0.09,6.704l5.639,7.582
				c1.484,1.996,4.089,2.804,6.443,1.999l13.73-4.699c3.049,2.32,6.363,4.314,9.917,5.92l0.01,0.002l2.51,14.382
				c0.424,2.432,2.361,4.318,4.803,4.676l9.349,1.374c2.461,0.362,4.875-0.909,5.969-3.143l6.382-13.023
				c0.002,0,0.005-0.001,0.007-0.001c3.867-0.527,7.627-1.482,11.204-2.828c0.003-0.002,0.006-0.003,0.01-0.004l11.935,8.388
				c2.02,1.42,4.722,1.383,6.703-0.09l7.582-5.639c1.997-1.484,2.804-4.089,1.999-6.443l-4.694-13.717
				c2.32-3.058,4.314-6.382,5.933-9.942l14.367-2.507c2.432-0.425,4.318-2.361,4.677-4.804l1.374-9.348
				C395.484,708.373,394.214,705.96,391.979,704.865z M321.383,742.872c-20.549-3.021-34.761-22.131-31.74-42.68
				c3.021-20.549,22.131-34.761,42.68-31.74c20.549,3.021,34.75,22.129,31.729,42.678
				C361.031,731.68,341.932,745.893,321.383,742.872z"/>
		</g>
		<g>
			<path style="fill:#C2E5FF;" d="M329.827,685.393c-11.194-1.645-21.602,6.095-23.247,17.289
				c-1.646,11.194,6.095,21.602,17.288,23.248c11.194,1.645,21.602-6.095,23.248-17.289
				C348.762,697.447,341.021,687.039,329.827,685.393z"/>
		</g>
	</g>
	<g>
		<path style="fill:#83A044;" d="M1000.148,710.958c1.802-2.759,1.551-6.553-0.159-9.365c-1.71-2.812-4.676-4.701-7.828-5.648
			c-3.153-0.947-6.5-1.035-9.79-0.883c-5.444,0.252-11.024,1.22-15.785,3.779c2.453-7.612,5.497-15.037,9.094-22.193
			c0.327-0.651,0.666-1.296,1.001-1.942c4.906,2.915,9.811,5.83,14.716,8.744c3.273,1.945,6.649,3.928,10.413,4.511
			c3.764,0.583,8.056-0.563,10.141-3.755c1.802-2.759,1.551-6.553-0.159-9.365c-1.71-2.812-4.675-4.7-7.827-5.648
			c-3.152-0.948-6.501-1.035-9.79-0.883c-5.615,0.26-11.377,1.281-16.233,4.024c4.233-7.817,9.118-15.278,14.595-22.278
			c5.083,2.763,10.167,5.525,15.25,8.287c3.345,1.818,6.795,3.669,10.579,4.107c3.784,0.438,8.029-0.871,9.99-4.141
			c1.695-2.826,1.299-6.607-0.518-9.351c-1.817-2.744-4.852-4.517-8.039-5.343c-3.186-0.826-6.535-0.785-9.817-0.507
			c-5.254,0.446-10.613,1.563-15.176,4.116c4.077-4.972,8.452-9.701,13.111-14.136c1.38-1.313,2.791-2.59,4.218-3.849
			c5.322,2.669,10.643,5.338,15.965,8.006c3.403,1.707,6.913,3.445,10.709,3.757c3.796,0.313,7.996-1.134,9.849-4.466
			c1.601-2.88,1.08-6.646-0.825-9.328c-1.906-2.683-4.999-4.356-8.21-5.076c-3.212-0.721-6.558-0.57-9.829-0.184
			c-4.674,0.551-9.41,1.644-13.557,3.792c4.992-4.096,10.244-7.87,15.726-11.292c5.801-0.182,11.603-0.366,17.405-0.548
			c3.807-0.12,7.724-0.263,11.214-1.795c3.49-1.532,6.499-4.803,6.544-8.612c0.039-3.293-2.211-6.355-5.166-7.805
			c-2.953-1.451-6.472-1.448-9.642-0.553c-3.171,0.896-6.044,2.62-8.74,4.516c-4.968,3.493-9.604,7.825-12.138,13.306
			c-0.019,0.01-0.037,0.016-0.055,0.028c-5.841,3.631-11.423,7.664-16.712,12.051c2.482-4.222,3.791-9.164,4.505-14.051
			c0.476-3.259,0.72-6.601,0.089-9.832c-0.631-3.232-2.216-6.37-4.845-8.35c-2.629-1.98-6.377-2.605-9.301-1.084
			c-3.382,1.759-4.945,5.919-4.738,9.723c0.207,3.804,1.847,7.361,3.458,10.81c2.453,5.254,4.908,10.507,7.361,15.761
			c-6.312,5.559-12.17,11.633-17.509,18.137c1.58-4.908,1.659-10.301,1.11-15.473c-0.347-3.275-0.94-6.57-2.354-9.543
			c-1.413-2.972-3.729-5.618-6.768-6.882c-3.038-1.265-6.827-0.94-9.282,1.259c-2.84,2.543-3.323,6.959-2.178,10.59
			c1.145,3.632,3.616,6.669,6.034,9.61c3.68,4.476,7.36,8.952,11.041,13.428c-0.163,0.209-0.33,0.414-0.493,0.623
			c-5.31,6.869-10.055,14.168-14.19,21.796c1.055-5.68-0.007-11.65-1.779-17.19c-1.003-3.135-2.251-6.242-4.237-8.865
			c-1.987-2.624-4.791-4.745-8.023-5.368c-3.233-0.623-6.878,0.463-8.838,3.113c-2.267,3.064-1.846,7.485,0.01,10.809
			c1.857,3.323,4.893,5.797,7.857,8.185c4.657,3.754,9.313,7.508,13.97,11.262c-0.056,0.107-0.111,0.215-0.167,0.323l-0.169,0.017
			c0.041,0.024,0.081,0.048,0.122,0.073c-3.899,7.489-7.207,15.282-9.867,23.301c-1.135-5.064-3.794-9.796-6.883-14.024
			c-1.979-2.708-4.185-5.31-6.949-7.209c-2.765-1.899-6.158-3.05-9.484-2.617s-6.501,2.65-7.544,5.838
			c-1.206,3.688,0.622,7.825,3.487,10.441c2.865,2.617,6.596,4.034,10.23,5.394c5.161,1.931,10.323,3.861,15.484,5.792
			c0.144,0.086,0.287,0.171,0.431,0.256c-2.695,8.907-4.58,18.049-5.593,27.3c-0.107,0.977,1.398,1.331,1.507,0.341
			c0.997-9.095,2.837-18.076,5.457-26.827c4.654,2.765,9.307,5.531,13.961,8.296c3.273,1.944,6.649,3.928,10.413,4.511
			C993.772,715.295,998.064,714.15,1000.148,710.958z"/>
	</g>
	<g>
		<g>
			<path style="fill:#687F29;" d="M1026.238,838.919c-4.25,5.195-16.29,1.388-21.365-0.231c-5.754-1.845-14.291-5.562-25.722-16.134
				c-5.887-5.452-13.739-12.713-20.365-23.886c-0.279-0.492-0.574-0.974-0.847-1.488c-0.936-1.634-1.83-3.333-2.688-5.136
				c-2.424-5.097-17.955-37.661-3.125-61.707c0.703-1.15,9.562-15.226,18.152-13.725c10.679,1.871,13.445,26.54,18.421,25.893
				c2.47-0.322,2.454-6.466,4.951-13.618c5.58-16.006,22.255-32.879,37.067-30.541c7.006,1.103,13.791,6.549,16.408,13.872
				c4.208,11.807-9.24,25.13-7.986,26.069c1.785,1.318,19.473-30.702,40.172-29.786c7.294,0.327,15.583,4.755,17.153,10.753
				c2.329,8.822-10.766,17.362-8.393,21.026c2.512,3.861,16.667-6.227,35.315-2.957c4.778,0.836,15.863,2.78,20.257,11.506
				c3.829,7.567,1.753,17.711-4.104,23.724c-5.425,5.57-12.732,6.174-14.704,6.293c-12.944,0.892-17.31-8.772-37.749-14.097
				c-7.146-1.859-15.31-2.957-16.325-0.675c-0.769,1.731,3.234,3.761,5.895,9.675c0.057,0.125,0.14,0.295,0.239,0.556
				c0.79,1.823,3.573,8.364,1.021,14.57c-0.107,0.286-2.976,7.024-8.477,7.83c-2.839,0.407-5.17-0.919-6.233-1.514
				c-10.332-5.709-24.994-9.642-26.06-7.971c-1.223,1.908,15.496,10.961,13.702,18.147c-1.489,5.977-14.932,7.334-16.64,7.492
				c-14.458,1.334-26.38-5.832-26.813-4.866c-0.403,0.886,10.468,4.123,16.384,13.866
				C1026.549,826.404,1029.673,834.722,1026.238,838.919z"/>
		</g>
		<g>
			<path style="fill:#FFFFFF;" d="M1042.252,780.863c-0.48,0.133-0.867-0.173-1.055-0.58c-1.437-3.313-4.097-6-7.316-7.568
				c-0.07-0.017-0.106-0.075-0.147-0.11c-0.239-0.095-0.477-0.191-0.715-0.286c-4.842-2.06-9.893-4.395-15.291-3.65
				c-0.029,0.018-0.061-0.003-0.085-0.009c-0.035,0.042-0.07,0.083-0.1,0.101c-0.731,0.445-1.609,0.68-2.461,0.698
				c-4.271,2.201-8.478,4.504-12.683,6.846c2.787,1.088,5.874,1.451,8.827,0.935c0.454-0.076,0.908,0.108,1.055,0.58
				c0.111,0.414-0.135,0.963-0.589,1.04c-3.656,0.644-7.396,0.196-10.778-1.31c-0.136-0.057-0.227-0.142-0.298-0.259
				c-4.828,2.702-9.638,5.431-14.477,8.08c-4.89,2.698-9.847,5.318-14.873,7.759c3.296,2.581,6.585,5.347,10.215,7.424
				c3.542,2.031,8.07,3.18,11.81,0.962c0.944-0.555,1.825,0.892,0.89,1.462c-2.877,1.692-6.199,1.733-9.299,0.855
				c1.322,2.762,2.161,5.718,2.402,8.778c0.084,1.091-1.628,1.112-1.702,0.035c-0.263-3.327-1.248-6.555-2.911-9.449
				c-0.036-0.059-0.033-0.12-0.054-0.187c-0.35-0.148-0.677-0.29-1.007-0.469c-2.127-1.089-4.059-2.517-5.961-3.963
				c-2.034-1.527-4.069-3.093-6.096-4.643c-3.537,1.694-7.122,3.276-10.764,4.734c-0.279-0.492-0.574-0.974-0.847-1.488
				c1.473-0.576,2.942-1.192,4.403-1.82c-0.713-1.992,0.106-4.134,1.141-5.825c1.059-1.748,2.57-3.511,2.444-5.658
				c-0.046-1.095,1.642-1.121,1.702-0.035c0.115,2.195-1.082,4.047-2.233,5.809c-0.944,1.477-1.956,3.237-1.477,5.009
				c1.771-0.778,3.538-1.595,5.296-2.425l0.015-0.009c6.196-2.954,12.254-6.203,18.257-9.54c-0.012-0.053-0.024-0.106-0.021-0.167
				c0.703-6.181,4.381-11.428,8.409-15.967c0.518-0.597,1.07-1.172,1.597-1.755c-0.047-0.111-0.095-0.222-0.096-0.322
				c-4.118-4.686-7.181-10.174-8.971-16.138c-0.318-1.049,1.302-1.515,1.619-0.467c1.742,5.753,4.699,11.067,8.686,15.572
				c0,0,0,0,0.009,0.015c1.466-1.574,2.932-3.148,4.306-4.808c1.962-2.338,3.739-4.883,4.131-7.988
				c0.125-1.078,1.78-0.664,1.646,0.4c-0.367,2.949-1.944,5.493-3.743,7.771c-2.139,2.706-4.553,5.159-6.875,7.696
				c-3.968,4.341-7.745,9.228-8.841,15.126c1.167-0.65,2.319-1.292,3.471-1.934c13.182-7.41,26.374-14.967,40.481-20.497
				c0.334-0.143,0.686-0.257,1.028-0.385c0.956-1.524,1.902-3.062,2.843-4.578c0.595-0.963,1.491-2.19,1.16-3.391
				c-0.266-1.062,1.364-1.512,1.644-0.46c0.398,1.542-0.288,2.981-1.077,4.284c-0.656,1.061-1.328,2.131-1.983,3.192
				c6.017-2.163,12.19-3.939,18.466-5.118c-0.003-0.038-0.012-0.052-0.015-0.09c0.2-2.567,1.57-4.724,3.296-6.598
				c1.879-2.047,4.186-3.753,5.643-6.164c0.566-0.946,2.063-0.134,1.497,0.812c-1.381,2.305-3.437,3.998-5.314,5.883
				c-1.572,1.598-3.123,3.526-3.398,5.837c5.536-0.946,11.133-1.431,16.757-1.311c1.101,0.031,1.136,1.733,0.035,1.703
				c-1.747-0.038-3.49-0.038-5.228,0.038c-14.261,0.573-28.128,4.852-41.121,10.564c-2.443,1.089-4.889,2.239-7.294,3.423
				c4.177,0.08,8.203,1.655,12.027,3.293c4.731,2.008,9.839,4.307,15.113,3.358c1.068-0.19,1.542,1.445,0.46,1.644
				c-2.914,0.513-5.755,0.159-8.528-0.576c1.478,1.505,2.679,3.278,3.526,5.228C1043.014,780.238,1042.641,780.745,1042.252,780.863
				z"/>
		</g>
	</g>
	<g>
		<path style="fill:#83A044;" d="M379.75,232.379c-1.802-2.759-1.551-6.553,0.159-9.365c1.71-2.812,4.676-4.701,7.828-5.648
			c3.153-0.947,6.5-1.035,9.79-0.883c5.444,0.252,11.024,1.221,15.785,3.779c-2.453-7.612-5.497-15.037-9.094-22.193
			c-0.327-0.651-0.666-1.296-1.001-1.942c-4.906,2.915-9.811,5.83-14.716,8.745c-3.273,1.945-6.649,3.928-10.413,4.511
			c-3.764,0.582-8.056-0.563-10.141-3.755c-1.802-2.759-1.551-6.553,0.159-9.365c1.71-2.812,4.675-4.7,7.827-5.648
			c3.152-0.947,6.5-1.035,9.79-0.883c5.615,0.26,11.377,1.281,16.234,4.024c-4.233-7.817-9.118-15.278-14.595-22.278
			c-5.083,2.763-10.167,5.525-15.25,8.288c-3.345,1.818-6.796,3.67-10.579,4.107c-3.784,0.437-8.029-0.871-9.99-4.141
			c-1.695-2.826-1.298-6.607,0.518-9.351c1.816-2.744,4.852-4.517,8.039-5.343c3.186-0.826,6.535-0.785,9.817-0.507
			c5.254,0.446,10.612,1.563,15.175,4.116c-4.077-4.972-8.452-9.7-13.111-14.136c-1.38-1.313-2.791-2.59-4.218-3.849
			c-5.322,2.669-10.643,5.338-15.965,8.006c-3.403,1.707-6.913,3.445-10.709,3.757c-3.796,0.313-7.996-1.134-9.849-4.466
			c-1.601-2.88-1.08-6.646,0.825-9.328c1.906-2.683,4.999-4.356,8.21-5.076c3.212-0.721,6.558-0.57,9.829-0.184
			c4.674,0.551,9.41,1.644,13.557,3.791c-4.992-4.096-10.244-7.87-15.726-11.292c-5.801-0.182-11.603-0.366-17.404-0.548
			c-3.807-0.12-7.724-0.263-11.214-1.795c-3.491-1.532-6.499-4.803-6.544-8.612c-0.039-3.293,2.211-6.355,5.165-7.805
			c2.954-1.451,6.472-1.448,9.642-0.553c3.171,0.896,6.044,2.62,8.74,4.516c4.967,3.493,9.604,7.825,12.138,13.306
			c0.019,0.01,0.037,0.016,0.055,0.027c5.841,3.631,11.423,7.664,16.712,12.051c-2.482-4.222-3.791-9.164-4.505-14.051
			c-0.476-3.259-0.72-6.601-0.089-9.832c0.631-3.231,2.216-6.37,4.845-8.35c2.629-1.98,6.377-2.605,9.301-1.084
			c3.382,1.759,4.945,5.919,4.738,9.723c-0.207,3.804-1.847,7.361-3.458,10.81c-2.454,5.254-4.908,10.507-7.361,15.761
			c6.312,5.559,12.17,11.633,17.509,18.137c-1.58-4.908-1.658-10.301-1.11-15.473c0.347-3.275,0.94-6.57,2.354-9.543
			c1.413-2.972,3.729-5.618,6.767-6.882c3.039-1.265,6.827-0.939,9.282,1.259c2.84,2.543,3.323,6.959,2.178,10.59
			c-1.145,3.632-3.616,6.669-6.034,9.61c-3.681,4.476-7.36,8.952-11.041,13.428c0.163,0.209,0.33,0.414,0.493,0.623
			c5.31,6.869,10.055,14.168,14.189,21.796c-1.055-5.68,0.007-11.65,1.779-17.19c1.003-3.135,2.251-6.242,4.237-8.865
			c1.987-2.624,4.79-4.745,8.023-5.368c3.233-0.623,6.878,0.463,8.838,3.113c2.267,3.064,1.846,7.485-0.011,10.809
			c-1.857,3.323-4.893,5.797-7.857,8.186c-4.657,3.754-9.313,7.508-13.97,11.262c0.056,0.107,0.111,0.215,0.167,0.323l0.169,0.017
			c-0.041,0.024-0.081,0.048-0.122,0.073c3.899,7.489,7.207,15.282,9.867,23.301c1.136-5.064,3.794-9.796,6.883-14.025
			c1.979-2.708,4.185-5.31,6.949-7.209c2.765-1.899,6.158-3.05,9.484-2.617c3.326,0.433,6.501,2.65,7.544,5.838
			c1.207,3.688-0.622,7.825-3.487,10.441c-2.865,2.617-6.596,4.034-10.23,5.393c-5.161,1.931-10.323,3.861-15.484,5.792
			c-0.144,0.086-0.288,0.171-0.432,0.256c2.695,8.907,4.58,18.049,5.593,27.3c0.107,0.977-1.398,1.331-1.507,0.341
			c-0.996-9.094-2.837-18.076-5.457-26.827c-4.654,2.765-9.307,5.531-13.961,8.296c-3.272,1.944-6.649,3.928-10.413,4.511
			C386.127,236.716,381.834,235.571,379.75,232.379z"/>
	</g>
	<g>
		<g>
			<path style="fill:#687F29;" d="M353.661,360.34c4.251,5.195,16.29,1.388,21.365-0.231c5.754-1.845,14.292-5.562,25.722-16.134
				c5.887-5.452,13.739-12.713,20.365-23.886c0.279-0.492,0.574-0.974,0.847-1.488c0.936-1.634,1.83-3.333,2.688-5.136
				c2.424-5.097,17.955-37.661,3.125-61.707c-0.703-1.15-9.562-15.226-18.152-13.725c-10.679,1.871-13.445,26.54-18.421,25.893
				c-2.47-0.322-2.454-6.466-4.951-13.618c-5.579-16.006-22.255-32.879-37.067-30.541c-7.006,1.103-13.79,6.549-16.408,13.872
				c-4.207,11.807,9.24,25.13,7.986,26.069c-1.785,1.318-19.473-30.702-40.172-29.786c-7.294,0.327-15.583,4.755-17.153,10.753
				c-2.329,8.822,10.766,17.362,8.393,21.026c-2.512,3.861-16.667-6.227-35.314-2.957c-4.778,0.836-15.863,2.78-20.258,11.506
				c-3.829,7.567-1.753,17.711,4.104,23.724c5.425,5.57,12.732,6.174,14.704,6.293c12.944,0.892,17.31-8.772,37.749-14.097
				c7.146-1.859,15.31-2.957,16.325-0.675c0.769,1.731-3.234,3.761-5.895,9.675c-0.057,0.125-0.14,0.295-0.239,0.556
				c-0.79,1.823-3.573,8.364-1.021,14.57c0.107,0.286,2.976,7.024,8.477,7.83c2.839,0.407,5.169-0.919,6.233-1.514
				c10.332-5.709,24.994-9.643,26.06-7.971c1.223,1.908-15.496,10.961-13.702,18.147c1.489,5.977,14.932,7.334,16.639,7.492
				c14.458,1.335,26.38-5.832,26.814-4.866c0.402,0.886-10.468,4.123-16.385,13.866C353.349,347.825,350.226,356.143,353.661,360.34
				z"/>
		</g>
		<g>
			<path style="fill:#FFFFFF;" d="M337.646,302.284c0.48,0.132,0.867-0.173,1.055-0.58c1.437-3.313,4.097-6,7.316-7.568
				c0.07-0.017,0.106-0.075,0.147-0.11c0.239-0.095,0.477-0.191,0.716-0.286c4.842-2.06,9.893-4.395,15.291-3.65
				c0.029,0.018,0.061-0.003,0.085-0.009c0.035,0.042,0.07,0.083,0.1,0.101c0.731,0.445,1.609,0.681,2.461,0.698
				c4.271,2.201,8.478,4.504,12.683,6.846c-2.787,1.088-5.874,1.451-8.827,0.935c-0.454-0.077-0.908,0.108-1.055,0.58
				c-0.111,0.413,0.135,0.963,0.589,1.04c3.656,0.644,7.396,0.196,10.778-1.31c0.136-0.057,0.227-0.142,0.298-0.259
				c4.828,2.702,9.638,5.431,14.477,8.08c4.89,2.698,9.847,5.318,14.874,7.759c-3.296,2.581-6.585,5.347-10.215,7.424
				c-3.542,2.031-8.07,3.18-11.81,0.962c-0.944-0.555-1.825,0.892-0.89,1.462c2.877,1.692,6.199,1.733,9.299,0.855
				c-1.322,2.762-2.161,5.718-2.402,8.778c-0.084,1.091,1.628,1.112,1.702,0.035c0.263-3.327,1.248-6.555,2.911-9.449
				c0.036-0.059,0.033-0.12,0.054-0.187c0.35-0.148,0.677-0.29,1.007-0.469c2.127-1.089,4.059-2.517,5.961-3.963
				c2.034-1.527,4.069-3.093,6.096-4.643c3.537,1.694,7.122,3.276,10.764,4.734c0.279-0.492,0.574-0.974,0.847-1.488
				c-1.473-0.576-2.942-1.192-4.403-1.82c0.713-1.992-0.107-4.134-1.141-5.825c-1.059-1.748-2.57-3.511-2.444-5.658
				c0.046-1.095-1.642-1.121-1.702-0.035c-0.115,2.195,1.082,4.047,2.233,5.809c0.944,1.477,1.956,3.237,1.477,5.009
				c-1.77-0.778-3.538-1.595-5.296-2.425l-0.015-0.009c-6.196-2.954-12.254-6.203-18.257-9.54c0.012-0.053,0.024-0.105,0.021-0.167
				c-0.703-6.181-4.381-11.428-8.409-15.967c-0.519-0.597-1.07-1.172-1.597-1.755c0.048-0.111,0.095-0.222,0.096-0.322
				c4.118-4.686,7.181-10.174,8.971-16.138c0.319-1.049-1.302-1.515-1.619-0.467c-1.742,5.753-4.699,11.067-8.686,15.572
				c0,0,0,0-0.009,0.015c-1.466-1.574-2.932-3.148-4.306-4.808c-1.962-2.338-3.739-4.883-4.131-7.988
				c-0.125-1.078-1.78-0.664-1.646,0.4c0.367,2.949,1.944,5.493,3.743,7.771c2.139,2.706,4.553,5.159,6.875,7.696
				c3.968,4.341,7.745,9.228,8.841,15.126c-1.167-0.65-2.319-1.292-3.471-1.934c-13.182-7.41-26.374-14.967-40.482-20.497
				c-0.334-0.143-0.685-0.257-1.028-0.385c-0.956-1.524-1.902-3.062-2.843-4.578c-0.595-0.963-1.491-2.19-1.16-3.392
				c0.266-1.061-1.364-1.512-1.644-0.46c-0.398,1.542,0.288,2.981,1.077,4.284c0.656,1.061,1.328,2.131,1.983,3.192
				c-6.017-2.163-12.19-3.939-18.466-5.118c0.003-0.038,0.012-0.052,0.015-0.09c-0.199-2.567-1.57-4.724-3.296-6.598
				c-1.879-2.047-4.186-3.753-5.643-6.164c-0.566-0.946-2.063-0.134-1.496,0.812c1.381,2.305,3.437,3.997,5.314,5.883
				c1.572,1.598,3.122,3.525,3.397,5.837c-5.536-0.947-11.133-1.431-16.757-1.311c-1.101,0.031-1.136,1.733-0.035,1.702
				c1.747-0.038,3.49-0.038,5.228,0.038c14.261,0.572,28.128,4.852,41.121,10.564c2.444,1.089,4.89,2.239,7.294,3.423
				c-4.177,0.08-8.203,1.655-12.027,3.293c-4.731,2.008-9.839,4.307-15.113,3.358c-1.068-0.19-1.542,1.445-0.46,1.644
				c2.914,0.513,5.755,0.159,8.528-0.576c-1.478,1.505-2.679,3.278-3.526,5.227C336.885,301.659,337.257,302.167,337.646,302.284z"
				/>
		</g>
	</g>
	<g>
		<g>
			<g>
				<path style="fill:#85C3E8;" d="M955.377,94.109H430.903c-8.793,0-15.921,7.071-15.921,15.793v757.125
					c0,8.722,7.128,15.793,15.921,15.793h524.473c8.793,0,15.921-7.071,15.921-15.793V109.902
					C971.297,101.18,964.169,94.109,955.377,94.109z"/>
			</g>
			<g>
				<polygon style="fill:#E6E6E6;" points="943.723,453.332 957.227,150.28 943.723,149.678 943.723,141.247 754.504,141.247 
					479.41,128.988 478.864,141.247 465.431,141.247 465.431,157.112 456.237,157.156 458.356,601.446 447.427,846.711 
					459.529,847.25 459.664,875.583 937.95,873.302 937.885,859.682 943.723,859.682 				"/>
			</g>
			<g>
				
					<rect x="446.511" y="144.012" transform="matrix(1 -0.0048 0.0048 1 -2.3924 3.2761)" style="fill:#D0D8DD;" width="478.291" height="718.435"/>
			</g>
			<g>
				
					<rect x="331.673" y="247.351" transform="matrix(0.0445 -0.999 0.999 0.0445 174.1195 1155.0439)" style="fill:#E6EBEF;" width="718.435" height="478.291"/>
			</g>
			<g>
				<rect x="453.994" y="129.247" style="fill:#FFFFFF;" width="478.291" height="718.435"/>
			</g>
			<g>
				<g>
					<path style="fill:#276491;" d="M812.998,92.858v40.933c0,7.633-6.187,13.82-13.82,13.82H587.101
						c-7.632,0-13.819-6.187-13.819-13.819V92.858h-7.088v42.245c0,10.822,8.773,19.594,19.595,19.594h214.702
						c10.821,0,19.594-8.772,19.594-19.594V92.858H812.998z"/>
				</g>
				<g>
					<path style="fill:#276491;" d="M693.14,51.168L693.14,51.168c-10.706,0-19.386,8.68-19.386,19.386v33.978h38.771V70.554
						C712.526,59.848,703.847,51.168,693.14,51.168z M693.14,77.849c-4.49,0-8.129-3.64-8.129-8.129c0-4.49,3.64-8.13,8.129-8.13
						c4.49,0,8.13,3.64,8.13,8.13C701.27,74.21,697.63,77.849,693.14,77.849z"/>
				</g>
				<g>
					<path style="fill:#276491;" d="M819.6,104.532H566.681c-5.373,0-9.728-4.355-9.728-9.728l0,0c0-5.373,4.356-9.727,9.728-9.727
						H819.6c5.373,0,9.727,4.355,9.727,9.727l0,0C829.327,100.176,824.972,104.532,819.6,104.532z"/>
				</g>
				<g>
					<path style="fill:#276491;" d="M729.552,158.703h-67.821c-0.382,0-0.692-0.31-0.692-0.692v-14.155
						c0-0.382,0.31-0.692,0.692-0.692h67.821c0.382,0,0.692,0.31,0.692,0.692v14.155
						C730.245,158.393,729.935,158.703,729.552,158.703z"/>
				</g>
			</g>
		</g>
		<g>
			<path style="fill:#D1D7DB;" d="M899.731,306.836H486.549V175.093h413.183V306.836z M488.549,304.836h409.183V177.093H488.549
				V304.836z"/>
		</g>
		<g>
			<g>
				<path style="fill:#DD4747;" d="M575.103,266.929h-31.597l-6.007,18.021h-19.162l32.558-87.463h16.699l32.738,87.463H581.17
					L575.103,266.929z M548.372,252.332h21.865l-10.993-32.738L548.372,252.332z"/>
			</g>
			<g>
				<path style="fill:#DD4747;" d="M673.678,197.487v57.608c0,9.572-2.994,17.141-8.98,22.706
					c-5.987,5.567-14.167,8.349-24.539,8.349c-10.212,0-18.322-2.703-24.329-8.109c-6.007-5.406-9.07-12.835-9.19-22.286v-58.268
					h18.021v57.728c0,5.727,1.372,9.902,4.115,12.525c2.742,2.623,6.537,3.935,11.383,3.935c10.131,0,15.277-5.326,15.438-15.979
					v-58.208H673.678z"/>
			</g>
			<g>
				<path style="fill:#DD4747;" d="M688.455,284.95v-87.463h26.912c7.688,0,14.567,1.733,20.634,5.196
					c6.067,3.465,10.802,8.39,14.206,14.778c3.403,6.388,5.106,13.646,5.106,21.775v4.025c0,8.13-1.673,15.358-5.016,21.685
					c-3.344,6.328-8.06,11.233-14.147,14.717c-6.088,3.484-12.955,5.247-20.604,5.286H688.455z M706.476,212.085v58.388h8.71
					c7.048,0,12.435-2.302,16.159-6.908c3.724-4.605,5.626-11.193,5.707-19.763v-4.625c0-8.89-1.843-15.628-5.527-20.214
					c-3.685-4.585-9.071-6.878-16.159-6.878H706.476z"/>
			</g>
			<g>
				<path style="fill:#DD4747;" d="M787.571,284.95H769.55v-87.463h18.021V284.95z"/>
			</g>
			<g>
				<path style="fill:#DD4747;" d="M868.366,212.085h-26.791v72.865h-18.021v-72.865h-26.431v-14.597h71.243V212.085z"/>
			</g>
		</g>
		<g>
			<rect x="486.979" y="764.999" style="fill:#D0E0EF;" width="412.322" height="2.626"/>
		</g>
		<g>
			<rect x="486.979" y="780.842" style="fill:#D0E0EF;" width="412.322" height="2.626"/>
		</g>
		<g>
			<rect x="486.979" y="796.686" style="fill:#D0E0EF;" width="314.452" height="2.626"/>
		</g>
		<g>
			<rect x="486.979" y="450.394" style="fill:#D0E0EF;" width="412.322" height="2.626"/>
		</g>
		<g>
			<rect x="486.979" y="466.238" style="fill:#D0E0EF;" width="412.322" height="2.626"/>
		</g>
		<g>
			<rect x="486.979" y="482.082" style="fill:#D0E0EF;" width="314.452" height="2.626"/>
		</g>
		<g>
			<rect x="486.979" y="812.53" style="fill:#D0E0EF;" width="192.958" height="2.626"/>
		</g>
		<g>
			<g>
				<rect x="731.851" y="721.286" style="fill:#D0E0EF;" width="167.45" height="2.279"/>
			</g>
			<g>
				
					<rect x="807.372" y="631.636" transform="matrix(-1.836970e-16 1 -1 -1.836970e-16 1530.9365 -265.3868)" style="fill:#D0E0EF;" width="181.579" height="2.279"/>
			</g>
			<g>
				<g>
					<rect x="749.466" y="655.728" style="fill:#FFBF61;" width="10.063" height="54.381"/>
				</g>
				<g>
					<rect x="769.825" y="620.66" style="fill:#83A044;" width="10.062" height="89.45"/>
				</g>
				<g>
					<rect x="790.185" y="667.926" style="fill:#DD4747;" width="10.062" height="42.184"/>
				</g>
				<g>
					<rect x="810.544" y="593.724" style="fill:#FFBF61;" width="10.063" height="116.386"/>
				</g>
				<g>
					<rect x="830.904" y="625.742" style="fill:#83A044;" width="10.063" height="84.367"/>
				</g>
				<g>
					<rect x="851.264" y="597.789" style="fill:#DD4747;" width="10.063" height="112.32"/>
				</g>
				<g>
					<rect x="871.623" y="556.114" style="fill:#FFBF61;" width="10.063" height="153.996"/>
				</g>
			</g>
		</g>
		<g>
			<g>
				<rect x="486.979" y="721.286" style="fill:#D0E0EF;" width="167.45" height="2.279"/>
			</g>
			<g>
				
					<rect x="562.501" y="631.636" transform="matrix(-1.836970e-16 1 -1 -1.836970e-16 1286.0651 -20.5153)" style="fill:#D0E0EF;" width="181.579" height="2.279"/>
			</g>
			<g>
				<g>
					<rect x="504.594" y="633.112" style="fill:#DD4747;" width="10.063" height="76.998"/>
				</g>
				<g>
					<rect x="524.954" y="665.385" style="fill:#83A044;" width="10.062" height="44.725"/>
				</g>
				<g>
					<rect x="545.313" y="591.178" style="fill:#FFBF61;" width="10.062" height="118.931"/>
				</g>
				<g>
					<rect x="565.673" y="549.109" style="fill:#83A044;" width="10.063" height="161"/>
				</g>
				<g>
					<rect x="586.033" y="618.195" style="fill:#DD4747;" width="10.063" height="91.915"/>
				</g>
				<g>
					<rect x="606.392" y="567.947" style="fill:#83A044;" width="10.063" height="142.162"/>
				</g>
				<g>
					<rect x="626.752" y="599.119" style="fill:#FFBF61;" width="10.063" height="110.991"/>
				</g>
			</g>
		</g>
		<g>
			<g>
				<g>
					<path style="fill:#FFBF61;" d="M542.582,426.623c-11.261,0-22.001-3.904-30.55-11.051l31.051-32.652l38.762,23.084
						c-4.012,5.828-9.311,10.729-15.462,14.275C559.184,424.429,550.954,426.623,542.582,426.623z"/>
				</g>
			</g>
			<g>
				<g>
					<path style="fill:#FFBF61;" d="M544.886,377.138v-44.387c23.94,1.425,43.165,20.559,44.604,44.387H544.886z"/>
				</g>
			</g>
			<g>
				<g>
					<path style="fill:#DD4747;" d="M547.417,380.707h42.073c-0.456,7.522-2.489,14.853-5.961,21.505L547.417,380.707z"/>
				</g>
			</g>
			<g>
				<g>
					<path style="fill:#83A044;" d="M509.339,412.363c-8.299-8.795-12.837-20.178-12.837-32.355
						c0-25.146,19.799-45.775,44.695-47.257v46.11L509.339,412.363z"/>
				</g>
			</g>
		</g>
		<g>
			<path style="fill:#FFBF61;" d="M745.519,380.274c0,26.234-21.276,47.511-47.524,47.511c-26.248,0-47.524-21.276-47.524-47.511
				h47.524l-26.439-39.501c7.56-5.067,16.645-8.023,26.439-8.023C724.243,332.75,745.519,354.026,745.519,380.274z"/>
		</g>
		<g>
			<path style="fill:#DD4747;" d="M889.567,380.274c0,26.234-21.276,47.511-47.524,47.511c-13.281,0-25.295-5.448-33.917-14.234
				l36.437-32.8v-0.014l12.64-45.522C876.014,341.549,889.567,359.324,889.567,380.274z"/>
		</g>
		<g>
			<path style="fill:#FFBF61;" d="M853.28,334.084l-11.442,41.218l-19.274-38.398c5.939-2.67,12.531-4.154,19.478-4.154
				C845.911,332.75,849.684,333.213,853.28,334.084z"/>
		</g>
		<g>
			<path style="fill:#83A044;" d="M839.509,379.797l-34.121,30.716c-6.783-8.214-10.87-18.743-10.87-30.239
				c0-17.857,9.848-33.413,24.409-41.531L839.509,379.797z"/>
		</g>
		<g>
			<path style="fill:#DD4747;" d="M688.285,375.666h-47.524c0-16.468,8.377-30.974,21.086-39.501L688.285,375.666z"/>
		</g>
	</g>
	<g>
		<g>
			
				<ellipse transform="matrix(0.7071 -0.7071 0.7071 0.7071 -165.5956 456.6023)" style="fill:#D3E4F2;" cx="468.37" cy="428.193" rx="107.166" ry="107.166"/>
		</g>
		<g>
			<path style="fill:#276491;" d="M507.8,313.631c-63.44-21.351-132.345,12.664-153.602,75.824
				c-21.256,63.16,13.062,131.915,76.503,153.265c63.441,21.351,132.345-12.665,153.602-75.825
				C605.559,403.735,571.241,334.982,507.8,313.631z M436.632,525.098c-53.766-18.095-82.748-76.157-64.733-129.686
				c18.015-53.528,76.205-82.254,129.971-64.159c53.766,18.095,82.748,76.158,64.733,129.686
				C548.588,514.468,490.398,543.193,436.632,525.098z"/>
		</g>
		<g>
			
				<rect x="412.701" y="529.51" transform="matrix(0.9478 0.319 -0.319 0.9478 196.669 -108.4673)" style="fill:#276491;" width="33.626" height="33.478"/>
		</g>
		<g>
			<path style="fill:#276491;" d="M359.185,859.311c-5.404,17.888-24.573,27.74-42.352,21.757
				c-17.779-5.984-27.108-25.427-20.581-42.936l88.403-237.265l4.916-13.218l3.707-9.907l4.916-13.219l6.156-16.519l44.147,14.858
				l-5.083,16.88l-4.077,13.501l-3.036,10.133l-4.077,13.5L359.185,859.311z"/>
		</g>
		<g>
			<polygon style="fill:#FFBF61;" points="439.336,593.243 393.277,577.742 398.193,564.523 443.413,579.742 			"/>
		</g>
		<g>
			<polygon style="fill:#FFBF61;" points="432.223,616.875 384.654,600.866 389.57,587.648 436.3,603.375 			"/>
		</g>
		<g>
			<path style="fill:#FFFFFF;" d="M448.605,357.652c-30.567,9.725-48.183,35.244-52.198,31.803
				c-4.23-3.625,10.628-33.548,48.235-43.973c33.399-9.258,67.401,0.815,64.745,6.923
				C507.567,356.594,478.309,348.202,448.605,357.652z"/>
		</g>
		<g>
			<path style="fill:#FFFFFF;" d="M395.441,398.477c1.541,3.089,0.282,6.83-2.813,8.357c-3.095,1.529-6.854,0.263-8.394-2.825
				c-1.542-3.088-0.283-6.829,2.813-8.357C390.141,394.124,393.9,395.389,395.441,398.477z"/>
		</g>
	</g>
	<g>
		<path style="fill:#FFBF61;" d="M1024.865,476.122l-1.946-9.942c-0.032-0.163-0.158-0.292-0.32-0.327l-9.899-2.151
			c-0.442-0.096-0.435-0.728,0.008-0.815l9.942-1.946c0.163-0.032,0.292-0.158,0.327-0.32l2.15-9.9
			c0.096-0.442,0.729-0.435,0.815,0.008l1.946,9.942c0.032,0.163,0.158,0.292,0.32,0.327l9.9,2.15
			c0.442,0.096,0.435,0.728-0.008,0.815l-9.942,1.946c-0.163,0.032-0.292,0.158-0.327,0.32l-2.15,9.9
			C1025.584,476.573,1024.952,476.566,1024.865,476.122z"/>
	</g>
	<g>
		<path style="fill:#FFBF61;" d="M312.235,600.344l-1.946-9.942c-0.032-0.163-0.158-0.292-0.32-0.327l-9.9-2.15
			c-0.442-0.096-0.435-0.729,0.008-0.815l9.942-1.946c0.163-0.032,0.292-0.158,0.327-0.32l2.151-9.9
			c0.096-0.442,0.728-0.435,0.815,0.008l1.946,9.942c0.032,0.163,0.158,0.292,0.32,0.327l9.9,2.15
			c0.442,0.096,0.435,0.728-0.008,0.815l-9.942,1.946c-0.163,0.032-0.292,0.158-0.327,0.32l-2.15,9.899
			C312.955,600.794,312.322,600.788,312.235,600.344z"/>
	</g>
	<g>
		<path style="fill:#FFBF61;" d="M1119.159,645.532l-0.997-5.093c-0.016-0.083-0.081-0.149-0.164-0.167l-5.071-1.102
			c-0.226-0.049-0.223-0.373,0.004-0.418l5.093-0.997c0.084-0.016,0.149-0.081,0.167-0.164l1.102-5.071
			c0.049-0.226,0.373-0.223,0.418,0.004l0.997,5.093c0.016,0.083,0.081,0.149,0.164,0.167l5.071,1.102
			c0.226,0.049,0.223,0.373-0.004,0.418l-5.093,0.997c-0.083,0.016-0.149,0.081-0.167,0.164l-1.101,5.071
			C1119.527,645.762,1119.203,645.759,1119.159,645.532z"/>
	</g>
	<g>
		<path style="fill:#FFBF61;" d="M1094.739,280.767l-0.997-5.093c-0.016-0.083-0.081-0.149-0.164-0.167l-5.071-1.102
			c-0.226-0.049-0.223-0.373,0.004-0.418l5.093-0.997c0.083-0.016,0.149-0.081,0.167-0.164l1.101-5.071
			c0.049-0.226,0.373-0.223,0.418,0.004l0.997,5.093c0.016,0.083,0.081,0.149,0.164,0.167l5.071,1.102
			c0.226,0.049,0.223,0.373-0.004,0.418l-5.093,0.997c-0.083,0.016-0.149,0.081-0.167,0.164l-1.102,5.071
			C1095.107,280.998,1094.783,280.995,1094.739,280.767z"/>
	</g>
	<g>
		<path style="fill:#FFBF61;" d="M234.037,441.82l-0.997-5.092c-0.016-0.084-0.081-0.149-0.164-0.167l-5.071-1.102
			c-0.226-0.049-0.223-0.373,0.004-0.418l5.093-0.997c0.084-0.016,0.149-0.081,0.167-0.164l1.102-5.071
			c0.049-0.226,0.373-0.223,0.418,0.004l0.997,5.093c0.016,0.083,0.081,0.149,0.164,0.167l5.071,1.102
			c0.226,0.049,0.223,0.373-0.004,0.418l-5.093,0.997c-0.084,0.016-0.149,0.081-0.167,0.164l-1.102,5.071
			C234.406,442.051,234.082,442.048,234.037,441.82z"/>
	</g>
	<g>
		<rect x="187.515" y="882.82" style="fill:#D0E0EF;" width="988.97" height="2.277"/>
	</g>
	<g>
		<rect x="695.177" y="906.555" style="fill:#D0E0EF;" width="197.708" height="2.277"/>
	</g>
	<g>
		<rect x="919.454" y="906.555" style="fill:#D0E0EF;" width="57.239" height="2.277"/>
	</g>
</g>
</svg>
