<?xml version="1.0" encoding="utf-8"?>
<!-- Generator: Adobe Illustrator 27.5.0, SVG Export Plug-In . SVG Version: 6.00 Build 0)  -->
<svg version="1.1" xmlns="http://www.w3.org/2000/svg" xmlns:xlink="http://www.w3.org/1999/xlink" x="0px" y="0px"
	 viewBox="0 0 750 500" style="enable-background:new 0 0 750 500;" xml:space="preserve">
<g id="Background_Simple">
	<g>
		<path style="fill:#92E3A9;" d="M705.677,173.06C649.483,61.576,473.403-1.768,370.401,115.98
			c-4.052,4.632-7.883,9.479-11.482,14.501c-26.265,36.642-65.692,100.082-113.816,84.568
			c-32.946-10.621-55.544-39.922-88.128-51.322c-42.955-15.028-83.783,15.736-110.078,55.048
			c-30.567,45.699-45.187,99.329-27.795,148.91c32.394,92.35,158.507,113.135,244.812,104.666
			c63.209-6.202,124.218-39.792,187.53-41.914c45.55-1.527,89.119,10.838,130.168,26.214c19.02,7.124,38.022,14.974,58.602,16.938
			c73.623,7.026,87.679-65.203,89.437-125.959C731.397,287.283,731.896,225.077,705.677,173.06z"/>
		<path style="opacity:0.7;fill:#FFFFFF;" d="M705.677,173.06C649.483,61.576,473.403-1.768,370.401,115.98
			c-4.052,4.632-7.883,9.479-11.482,14.501c-26.265,36.642-65.692,100.082-113.816,84.568
			c-32.946-10.621-55.544-39.922-88.128-51.322c-42.955-15.028-83.783,15.736-110.078,55.048
			c-30.567,45.699-45.187,99.329-27.795,148.91c32.394,92.35,158.507,113.135,244.812,104.666
			c63.209-6.202,124.218-39.792,187.53-41.914c45.55-1.527,89.119,10.838,130.168,26.214c19.02,7.124,38.022,14.974,58.602,16.938
			c73.623,7.026,87.679-65.203,89.437-125.959C731.397,287.283,731.896,225.077,705.677,173.06z"/>
	</g>
</g>
<g id="Floor">
	
		<line style="fill:none;stroke:#263238;stroke-linecap:round;stroke-linejoin:round;stroke-miterlimit:10;" x1="36.718" y1="436.89" x2="731.998" y2="436.89"/>
</g>
<g id="Gears">
	<path style="fill:none;stroke:#263238;stroke-linecap:round;stroke-linejoin:round;stroke-miterlimit:10;" d="M112.314,316.784
		v-11.213l-11.389-1.257c-0.635-2.438-1.604-4.74-2.849-6.861l7.17-8.948l-7.929-7.929l-8.948,7.17
		c-2.121-1.245-4.423-2.214-6.861-2.849l-1.257-11.389H69.037l-1.257,11.389c-2.438,0.635-4.74,1.604-6.861,2.849l-8.948-7.17
		l-7.929,7.929l7.17,8.948c-1.245,2.121-2.214,4.423-2.849,6.861l-11.389,1.257v11.213l11.389,1.257
		c0.635,2.438,1.604,4.74,2.849,6.861l-7.17,8.948l7.929,7.929l8.948-7.17c2.121,1.245,4.423,2.214,6.861,2.849l1.257,11.389h11.214
		l1.257-11.389c2.438-0.635,4.74-1.604,6.861-2.849l8.948,7.17l7.929-7.929l-7.17-8.948c1.245-2.121,2.214-4.423,2.849-6.861
		L112.314,316.784z M74.644,327.924c-9.249,0-16.746-7.498-16.746-16.746s7.498-16.746,16.746-16.746
		c9.249,0,16.746,7.497,16.746,16.746S83.893,327.924,74.644,327.924z"/>
	<path style="fill:none;stroke:#263238;stroke-linecap:round;stroke-linejoin:round;stroke-miterlimit:10;" d="M625.955,317.47
		v-7.654l7.774-0.858c0.433-1.664,1.095-3.235,1.945-4.683l-4.894-6.108l5.412-5.412l6.108,4.894
		c1.448-0.85,3.019-1.511,4.683-1.945l0.858-7.774h7.654l0.858,7.774c1.664,0.434,3.235,1.095,4.683,1.945l6.108-4.894l5.412,5.412
		l-4.894,6.108c0.85,1.448,1.511,3.019,1.945,4.683l7.774,0.858v7.654l-7.774,0.858c-0.433,1.664-1.095,3.235-1.945,4.683
		l4.894,6.108l-5.412,5.412l-6.108-4.894c-1.448,0.85-3.019,1.511-4.683,1.945l-0.858,7.774h-7.654l-0.858-7.774
		c-1.664-0.433-3.235-1.095-4.683-1.945l-6.108,4.894l-5.412-5.412l4.894-6.108c-0.85-1.448-1.511-3.019-1.945-4.683L625.955,317.47
		z M651.668,325.073c6.313,0,11.431-5.118,11.431-11.431c0-6.313-5.118-11.43-11.431-11.43s-11.43,5.118-11.43,11.43
		C640.237,319.955,645.355,325.073,651.668,325.073z"/>
	<path style="fill:none;stroke:#263238;stroke-linecap:round;stroke-linejoin:round;stroke-miterlimit:10;" d="M601.14,71.863
		v-7.654l7.774-0.858c0.433-1.664,1.095-3.235,1.945-4.683l-4.894-6.108l5.412-5.412l6.108,4.894
		c1.448-0.85,3.019-1.511,4.683-1.945l0.858-7.774h7.654l0.858,7.774c1.664,0.433,3.235,1.095,4.683,1.945l6.108-4.894l5.412,5.412
		l-4.894,6.108c0.85,1.448,1.511,3.019,1.945,4.683l7.774,0.858v7.654l-7.774,0.858c-0.434,1.664-1.095,3.235-1.945,4.683
		l4.894,6.108l-5.412,5.412l-6.108-4.894c-1.448,0.85-3.019,1.511-4.683,1.945l-0.858,7.774h-7.654l-0.858-7.774
		c-1.664-0.433-3.235-1.095-4.683-1.945l-6.108,4.894l-5.412-5.412l4.894-6.108c-0.85-1.448-1.511-3.019-1.945-4.683L601.14,71.863z
		 M626.852,79.466c6.313,0,11.431-5.118,11.431-11.431c0-6.313-5.118-11.43-11.431-11.43c-6.313,0-11.431,5.118-11.431,11.43
		C615.422,74.349,620.539,79.466,626.852,79.466z"/>
	<path style="fill:none;stroke:#263238;stroke-linecap:round;stroke-linejoin:round;stroke-miterlimit:10;" d="M78.396,97.523
		v-4.952l5.029-0.555c0.28-1.077,0.709-2.093,1.258-3.03l-3.166-3.951l3.501-3.501L88.97,84.7c0.937-0.55,1.953-0.978,3.03-1.258
		l0.555-5.029h4.952l0.555,5.029c1.077,0.28,2.093,0.708,3.03,1.258l3.951-3.166l3.501,3.501l-3.166,3.951
		c0.55,0.937,0.978,1.953,1.258,3.03l5.029,0.555v4.952l-5.029,0.555c-0.28,1.077-0.708,2.093-1.258,3.03l3.166,3.951l-3.501,3.501
		l-3.951-3.166c-0.937,0.55-1.953,0.978-3.03,1.258l-0.555,5.029h-4.952L92,106.653c-1.077-0.28-2.093-0.708-3.03-1.258
		l-3.951,3.166l-3.501-3.501l3.166-3.951c-0.55-0.937-0.978-1.953-1.258-3.03L78.396,97.523z M95.031,102.442
		c4.084,0,7.395-3.311,7.395-7.395c0-4.084-3.311-7.395-7.395-7.395c-4.084,0-7.395,3.311-7.395,7.395
		C87.636,99.131,90.947,102.442,95.031,102.442z"/>
	<path style="fill:none;stroke:#263238;stroke-linecap:round;stroke-linejoin:round;stroke-miterlimit:10;" d="M524.146,232.575
		c1.816-9.508,2.767-19.334,2.767-29.366c0-10.033-0.951-19.858-2.767-29.366l-28.281-3.121
		c-2.999-11.544-7.582-22.43-13.482-32.475l17.798-22.21c-11.081-16.335-25.197-30.451-41.532-41.532l-22.21,17.798
		c-10.045-5.9-20.943-10.484-32.475-13.494l-3.121-28.269c-9.508-1.816-19.334-2.767-29.366-2.767s-19.858,0.951-29.366,2.767
		l-3.121,28.269c-11.544,3.011-22.442,7.594-32.474,13.494l-22.21-17.798c-16.347,11.081-30.463,25.197-41.544,41.544l17.797,22.198
		c-5.888,10.045-10.483,20.931-13.482,32.475l-28.269,3.121c-1.816,9.508-2.767,19.333-2.767,29.366
		c0,10.032,0.951,19.858,2.767,29.366l28.269,3.121c2.999,11.544,7.595,22.442,13.482,32.475l-17.785,22.21
		c11.081,16.335,25.197,30.451,41.532,41.532l22.21-17.785c10.033,5.888,20.93,10.471,32.474,13.482l3.121,28.269
		c9.508,1.816,19.333,2.767,29.366,2.767s19.858-0.951,29.366-2.767l3.121-28.269c11.532-3.011,22.43-7.594,32.475-13.482
		l22.198,17.798c16.347-11.081,30.463-25.197,41.544-41.544l-17.798-22.21c5.9-10.032,10.483-20.93,13.482-32.475L524.146,232.575z
		 M371.477,309.723c-58.826,0-106.514-47.688-106.514-106.514c0-58.826,47.688-106.514,106.514-106.514
		s106.514,47.688,106.514,106.514C477.991,262.035,430.303,309.723,371.477,309.723z"/>
	<path style="fill:none;stroke:#263238;stroke-linecap:round;stroke-linejoin:round;stroke-miterlimit:10;" d="M673.419,345.817
		v-6.825l6.932-0.765c0.387-1.484,0.976-2.885,1.734-4.176l-4.364-5.446l4.826-4.826l5.446,4.364
		c1.291-0.758,2.692-1.348,4.176-1.734l0.765-6.932h6.825l0.765,6.932c1.484,0.386,2.885,0.976,4.176,1.734l5.446-4.364l4.826,4.826
		l-4.364,5.446c0.758,1.291,1.348,2.692,1.734,4.176l6.932,0.765v6.825l-6.932,0.765c-0.386,1.484-0.977,2.885-1.734,4.176
		l4.364,5.446l-4.826,4.826l-5.446-4.364c-1.291,0.758-2.692,1.348-4.176,1.734l-0.765,6.932h-6.825l-0.765-6.932
		c-1.484-0.387-2.885-0.976-4.176-1.734l-5.446,4.364l-4.826-4.826l4.364-5.446c-0.758-1.291-1.348-2.692-1.734-4.176
		L673.419,345.817z M696.347,352.598c5.629,0,10.193-4.564,10.193-10.193s-4.564-10.193-10.193-10.193
		c-5.629,0-10.193,4.563-10.193,10.193S690.718,352.598,696.347,352.598z"/>
</g>
<g id="Plants_2">
	<g style="opacity:0.15;">
		<path d="M248.47,330.276c-3.01,2.025-11.042,3.305-11.048,3.306c-0.083,0.013,0.764-5.55,0.858-5.895
			c1.085-3.992,5.529-11.067,10.156-11.281c3.333-0.154,5.737,2.772,5.562,5.969C253.818,325.641,251.033,328.55,248.47,330.276z"/>
		<path d="M253.567,340.563c-4.52-1.015-10.674,4.635-12.775,8.198c-0.149,0.253-1.697,3.72-2.208,4.978
			c0.005-0.05,0.016-0.102,0.02-0.152c0.377-4.415,0.191-8.677-0.18-12.709c-0.365-4.024-1.052-7.783-1.773-11.223
			c-0.712-3.445-1.576-6.552-2.363-9.295c-0.438-1.482-0.865-2.831-1.278-4.083c0.017,0.008,0.089,0.04,0.089,0.04
			c0.078,0.033,0.636-5.567,0.631-5.924c-0.064-4.136-2.616-12.092-7.046-13.446c-3.191-0.975-6.245,1.264-6.867,4.406
			c-0.635,3.208,1.342,6.717,3.398,9.023c2.106,2.363,8.056,5.122,9.54,5.789c0.403,1.309,0.818,2.714,1.244,4.277
			c0.725,2.753,1.519,5.87,2.154,9.314c0.172,0.917,0.318,1.911,0.478,2.872c-0.605-1.563-1.467-3.696-1.574-3.895
			c-1.961-3.642-7.893-9.526-12.449-8.686c-3.282,0.605-4.96,3.999-4.064,7.074c0.914,3.139,4.286,5.342,7.175,6.443
			c3.012,1.147,9.724,0.824,11.191,0.737c0.321,2.133,0.603,4.331,0.761,6.641c0.281,3.974,0.373,8.224-0.092,12.551
			c-0.026,0.24-0.082,0.486-0.111,0.727c-0.165-0.823-1.399-5.28-1.521-5.581c-1.549-3.835-6.798-10.336-11.419-10.001
			c-3.329,0.241-5.37,3.43-4.817,6.584c0.564,3.221,3.674,5.782,6.423,7.192c3.168,1.625,11.013,1.962,11.309,1.975
			c-0.488,4.046-1.296,8.162-2.352,12.299c-0.762,2.999-1.656,6.005-2.582,9.012c-0.241-1.067-1.389-5.209-1.506-5.498
			c-1.55-3.836-6.799-10.335-11.42-10c-3.329,0.24-5.369,3.43-4.817,6.584c0.564,3.221,3.674,5.782,6.423,7.192
			c3.093,1.587,10.608,1.944,11.242,1.972c-0.421,1.366-0.836,2.731-1.269,4.096c-1.412,4.458-2.847,8.92-4.127,13.368
			c-0.444,1.541-0.824,3.076-1.213,4.611c-0.411-1.589-1.213-4.466-1.31-4.705c-1.55-3.836-6.799-10.336-11.42-10.001
			c-3.329,0.241-5.369,3.43-4.817,6.585c0.564,3.22,3.674,5.782,6.424,7.192c2.762,1.417,9.074,1.854,10.854,1.951
			c-0.627,2.559-1.193,5.113-1.629,7.653c-0.165,1.099-0.404,2.211-0.502,3.274c-0.122,1.071-0.243,2.131-0.362,3.18
			c-0.169,2.18-0.336,4.204-0.442,6.236c-0.061,1.027-0.094,1.997-0.142,2.995c-0.175-1.672-0.495-4.317-0.551-4.554
			c-0.95-4.025-5.153-11.246-9.771-11.615c-3.327-0.266-5.828,2.577-5.76,5.779c0.009,0.407,0.058,0.809,0.143,1.206
			c-1.347,3.438-1.505,8.008-0.949,10.7c0.053,0.259,1.032,3.253,1.563,4.771c-0.708-1.121-1.415-2.232-2.133-3.412
			c-1.046-1.688-2.095-3.508-3.124-5.264c-0.499-0.93-1.004-1.871-1.513-2.819c-0.535-0.948-0.928-1.915-1.406-2.885
			c-0.668-1.436-1.286-2.95-1.905-4.46c1.784-0.961,6.97-3.873,8.807-6.234c1.897-2.438,3.637-6.073,2.789-9.23
			c-0.83-3.093-4.026-5.123-7.147-3.938c-4.33,1.646-6.345,9.754-6.132,13.886c0.007,0.134,0.142,1.002,0.314,2.03
			c-0.56-1.491-1.125-2.98-1.641-4.511c-1.468-4.344-2.826-8.814-4.207-13.288c-0.287-0.932-0.589-1.86-0.88-2.791
			c1.505-0.801,7.151-3.906,9.076-6.38c1.897-2.439,3.636-6.072,2.788-9.23c-0.83-3.092-4.025-5.123-7.145-3.937
			c-4.331,1.647-6.346,9.753-6.133,13.885c0.007,0.147,0.172,1.184,0.366,2.342c-0.785-2.42-1.598-4.823-2.478-7.182
			c-1.535-4.126-3.27-8.109-5.257-11.833c0.533-0.278,7.226-3.784,9.366-6.534c1.898-2.439,3.636-6.072,2.789-9.231
			c-0.831-3.093-4.026-5.123-7.146-3.938c-4.331,1.647-6.346,9.755-6.133,13.886c0.015,0.292,0.637,4.038,0.905,5.369
			c-0.024-0.044-0.043-0.093-0.067-0.137c-2.122-3.891-4.627-7.343-7.162-10.501c-2.525-3.154-5.171-5.91-7.671-8.382
			c-2.494-2.48-4.928-4.595-7.099-6.448c-1.183-0.995-2.283-1.883-3.319-2.7c0.019-0.003,0.097-0.017,0.097-0.017
			c0.084-0.014-2.541-4.993-2.742-5.289c-2.334-3.416-8.852-8.643-13.294-7.327c-3.2,0.947-4.512,4.499-3.298,7.462
			c1.24,3.026,4.827,4.862,7.813,5.652c3.061,0.809,9.545-0.172,11.15-0.436c1.059,0.871,2.18,1.813,3.396,2.882
			c2.124,1.897,4.505,4.057,6.936,6.581c0.649,0.67,1.32,1.418,1.983,2.131c-1.367-0.969-3.262-2.274-3.46-2.38
			c-3.645-1.956-11.838-3.592-15.175-0.378c-2.403,2.315-1.931,6.072,0.512,8.142c2.494,2.115,6.523,2.092,9.538,1.416
			c3.146-0.705,8.565-4.677,9.741-5.56c1.444,1.602,2.892,3.281,4.299,5.12c2.427,3.16,4.848,6.653,6.846,10.518
			c0.112,0.215,0.201,0.451,0.31,0.667c-0.593-0.596-4.081-3.632-4.348-3.816c-3.409-2.344-11.372-4.87-15.042-2.042
			c-2.644,2.038-2.586,5.824-0.385,8.149c2.247,2.376,6.254,2.795,9.325,2.455c3.539-0.393,10.268-4.439,10.521-4.591
			c1.825,3.644,3.423,7.523,4.823,11.556c1.02,2.921,1.931,5.921,2.819,8.941c-0.79-0.758-4.033-3.579-4.289-3.755
			c-3.408-2.344-11.372-4.87-15.041-2.042c-2.644,2.037-2.586,5.823-0.385,8.149c2.247,2.376,6.254,2.796,9.325,2.455
			c3.456-0.383,9.92-4.231,10.464-4.557c0.402,1.371,0.81,2.739,1.201,4.117c1.282,4.497,2.547,9.01,3.932,13.426
			c0.48,1.53,1.009,3.02,1.531,4.515c-1.218-1.099-3.475-3.056-3.687-3.202c-3.408-2.344-11.372-4.87-15.042-2.043
			c-2.643,2.038-2.586,5.824-0.385,8.15c2.248,2.376,6.254,2.795,9.325,2.455c3.085-0.342,8.591-3.46,10.129-4.36
			c0.889,2.48,1.825,4.921,2.863,7.282c0.469,1.007,0.883,2.066,1.388,3.008c0.49,0.96,0.974,1.911,1.453,2.852
			c1.06,1.911,2.038,3.692,3.071,5.445c0.516,0.89,1.022,1.718,1.534,2.577c-1.068-1.298-2.794-3.327-2.972-3.494
			c-3.013-2.834-10.503-6.537-14.557-4.297c-2.922,1.614-3.44,5.365-1.617,7.997c1.863,2.689,5.76,3.711,8.846,3.84
			c3.404,0.141,10.158-2.563,10.982-2.899c1.263,2.094,2.514,4.123,3.718,5.998c0.137,0.215,0.272,0.422,0.408,0.633h3.338
			c-0.476-0.695-0.957-1.402-1.45-2.137c-1.126-1.671-2.29-3.461-3.468-5.313c0.705-0.517,6.143-4.564,8.014-7.516
			c2.951,1.008,6.196,1.679,6.767,1.793c-0.092,2.208,0.541,10.038,0.642,13.173h2.727c-0.153-2.987-0.828-10.485-0.794-12.452
			c0.906-0.044,8.154-0.443,11.176-2.005c2.744-1.419,5.846-3.99,6.398-7.213c0.543-3.156-1.509-6.338-4.838-6.569
			c-4.622-0.319-9.85,6.198-11.386,10.038c-0.099,0.246-0.934,3.283-1.328,4.843c0.028-1.326,0.051-2.643,0.103-4.024
			c0.059-1.985,0.187-4.082,0.299-6.114c0.097-1.052,0.194-2.114,0.293-3.187c0.076-1.085,0.282-2.108,0.418-3.181
			c0.235-1.566,0.555-3.169,0.872-4.771c2.018,0.183,7.949,0.615,10.785-0.342c2.928-0.987,6.383-3.058,7.419-6.161
			c1.014-3.037-0.532-6.494-3.788-7.225c-4.52-1.016-10.674,4.635-12.775,8.198c-0.068,0.117-0.434,0.915-0.859,1.867
			c0.357-1.553,0.706-3.107,1.121-4.668c1.173-4.433,2.505-8.911,3.821-13.405c0.275-0.936,0.535-1.875,0.805-2.813
			c1.698,0.162,8.119,0.688,11.09-0.314c2.927-0.987,6.384-3.059,7.418-6.161c1.013-3.038-0.531-6.494-3.788-7.225
			c-4.519-1.017-10.673,4.633-12.775,8.197c-0.075,0.127-0.509,1.083-0.986,2.156c0.68-2.451,1.328-4.904,1.894-7.356
			c0.997-4.289,1.746-8.569,2.144-12.77c0.598,0.064,8.114,0.831,11.417-0.283c2.927-0.987,6.382-3.058,7.418-6.16
			C258.369,344.752,256.823,341.296,253.567,340.563z"/>
		<path d="M167.881,346.801c-0.062,0.057-2.425-5.051-2.537-5.39c-1.296-3.928-1.493-12.281,2.249-15.013
			c2.695-1.968,6.314-0.853,7.931,1.912c1.652,2.821,0.934,6.786-0.252,9.639C173.879,341.298,167.885,346.796,167.881,346.801z"/>
	</g>
	<g style="opacity:0.15;">
		<path d="M484.676,334.645c2.887,1.942,10.589,3.169,10.595,3.17c0.08,0.013-0.733-5.323-0.822-5.654
			c-1.04-3.828-5.302-10.614-9.74-10.819c-3.197-0.148-5.502,2.658-5.334,5.724C479.547,330.2,482.218,332.99,484.676,334.645z"/>
		<path d="M479.788,344.511c4.335-0.974,10.237,4.445,12.251,7.862c0.143,0.243,1.627,3.568,2.118,4.774
			c-0.004-0.048-0.015-0.097-0.019-0.145c-0.362-4.234-0.184-8.321,0.173-12.189c0.35-3.859,1.009-7.464,1.7-10.763
			c0.683-3.304,1.511-6.283,2.266-8.914c0.42-1.421,0.83-2.715,1.226-3.915c-0.016,0.008-0.086,0.039-0.086,0.039
			c-0.074,0.032-0.61-5.339-0.605-5.681c0.061-3.967,2.508-11.596,6.758-12.895c3.06-0.935,5.989,1.212,6.585,4.225
			c0.609,3.076-1.287,6.442-3.259,8.654c-2.02,2.266-7.726,4.912-9.149,5.551c-0.386,1.256-0.785,2.602-1.193,4.101
			c-0.696,2.641-1.457,5.629-2.066,8.933c-0.165,0.879-0.305,1.833-0.458,2.754c0.58-1.499,1.406-3.545,1.509-3.735
			c1.881-3.492,7.569-9.136,11.938-8.33c3.147,0.58,4.756,3.835,3.898,6.784c-0.877,3.01-4.111,5.124-6.881,6.179
			c-2.889,1.1-9.325,0.79-10.732,0.707c-0.308,2.046-0.578,4.154-0.73,6.368c-0.27,3.812-0.358,7.887,0.088,12.036
			c0.025,0.23,0.079,0.466,0.107,0.697c0.159-0.789,1.341-5.063,1.458-5.352c1.486-3.678,6.52-9.912,10.951-9.591
			c3.193,0.231,5.15,3.289,4.62,6.314c-0.541,3.09-3.523,5.545-6.16,6.898c-3.039,1.558-10.561,1.882-10.845,1.894
			c0.468,3.88,1.243,7.828,2.256,11.795c0.731,2.876,1.589,5.759,2.476,8.642c0.231-1.024,1.332-4.995,1.444-5.272
			c1.486-3.678,6.52-9.912,10.951-9.59c3.193,0.231,5.149,3.29,4.62,6.314c-0.541,3.089-3.524,5.545-6.16,6.897
			c-2.966,1.521-10.173,1.864-10.781,1.891c0.404,1.31,0.802,2.619,1.217,3.928c1.354,4.275,2.73,8.554,3.958,12.82
			c0.426,1.478,0.791,2.95,1.164,4.422c0.394-1.524,1.163-4.283,1.256-4.512c1.486-3.678,6.521-9.912,10.952-9.591
			c3.193,0.231,5.149,3.29,4.62,6.315c-0.541,3.089-3.524,5.545-6.16,6.897c-2.648,1.359-8.702,1.778-10.409,1.871
			c0.601,2.454,1.144,4.904,1.563,7.34c0.158,1.054,0.387,2.12,0.481,3.14c0.117,1.027,0.233,2.043,0.347,3.049
			c0.162,2.09,0.322,4.032,0.424,5.981c0.058,0.985,0.09,1.915,0.136,2.873c0.168-1.604,0.475-4.14,0.529-4.368
			c0.911-3.861,4.942-10.785,9.371-11.139c3.191-0.255,5.589,2.472,5.524,5.542c-0.008,0.39-0.056,0.776-0.137,1.157
			c1.292,3.297,1.443,7.68,0.91,10.261c-0.051,0.249-0.99,3.12-1.499,4.575c0.679-1.075,1.357-2.141,2.046-3.272
			c1.003-1.619,2.009-3.364,2.996-5.049c0.479-0.892,0.963-1.794,1.451-2.704c0.513-0.909,0.89-1.836,1.349-2.766
			c0.641-1.377,1.233-2.829,1.827-4.277c-1.711-0.921-6.685-3.714-8.446-5.979c-1.82-2.338-3.488-5.824-2.675-8.852
			c0.796-2.967,3.861-4.913,6.854-3.776c4.152,1.579,6.085,9.354,5.88,13.317c-0.007,0.128-0.137,0.961-0.301,1.947
			c0.537-1.43,1.079-2.858,1.573-4.326c1.408-4.166,2.71-8.453,4.035-12.743c0.276-0.894,0.565-1.784,0.844-2.677
			c-1.443-0.768-6.857-3.746-8.704-6.119c-1.819-2.339-3.487-5.823-2.674-8.852c0.796-2.966,3.86-4.913,6.852-3.776
			c4.153,1.579,6.086,9.354,5.881,13.316c-0.007,0.141-0.165,1.136-0.351,2.246c0.753-2.321,1.532-4.625,2.376-6.888
			c1.472-3.957,3.136-7.777,5.042-11.348c-0.511-0.267-6.93-3.629-8.982-6.266c-1.82-2.339-3.487-5.823-2.675-8.852
			c0.797-2.966,3.861-4.913,6.853-3.776c4.154,1.579,6.086,9.355,5.881,13.317c-0.014,0.281-0.611,3.873-0.868,5.149
			c0.023-0.042,0.042-0.09,0.065-0.131c2.035-3.731,4.437-7.042,6.868-10.071c2.422-3.025,4.959-5.668,7.357-8.039
			c2.392-2.379,4.726-4.406,6.808-6.184c1.135-0.954,2.189-1.806,3.183-2.589c-0.018-0.003-0.093-0.016-0.093-0.016
			c-0.08-0.014,2.437-4.788,2.63-5.072c2.238-3.276,8.489-8.288,12.749-7.027c3.069,0.908,4.327,4.314,3.163,7.157
			c-1.189,2.902-4.629,4.662-7.493,5.421c-2.935,0.776-9.154-0.165-10.693-0.418c-1.016,0.835-2.091,1.739-3.257,2.764
			c-2.037,1.819-4.321,3.891-6.651,6.311c-0.622,0.642-1.266,1.36-1.901,2.044c1.311-0.93,3.128-2.181,3.318-2.283
			c3.496-1.876,11.353-3.444,14.553-0.362c2.305,2.221,1.852,5.823-0.492,7.808c-2.392,2.028-6.256,2.006-9.147,1.358
			c-3.017-0.676-8.214-4.486-9.342-5.332c-1.385,1.536-2.773,3.147-4.122,4.91c-2.328,3.03-4.649,6.38-6.565,10.088
			c-0.107,0.206-0.192,0.432-0.297,0.64c0.569-0.571,3.914-3.483,4.17-3.66c3.269-2.248,10.906-4.67,14.425-1.958
			c2.535,1.954,2.48,5.585,0.37,7.816c-2.155,2.278-5.998,2.681-8.943,2.355c-3.394-0.376-9.847-4.257-10.09-4.403
			c-1.75,3.495-3.283,7.215-4.625,11.082c-0.978,2.802-1.852,5.679-2.703,8.574c0.757-0.727,3.868-3.432,4.114-3.601
			c3.268-2.248,10.906-4.67,14.424-1.958c2.535,1.953,2.48,5.585,0.37,7.815c-2.155,2.279-5.998,2.682-8.943,2.355
			c-3.314-0.367-9.513-4.057-10.035-4.37c-0.386,1.315-0.776,2.627-1.152,3.948c-1.23,4.313-2.442,8.641-3.771,12.876
			c-0.46,1.467-0.967,2.896-1.469,4.33c1.169-1.054,3.332-2.931,3.536-3.07c3.269-2.248,10.906-4.671,14.425-1.959
			c2.535,1.954,2.48,5.585,0.37,7.816c-2.156,2.279-5.997,2.681-8.943,2.354c-2.959-0.327-8.239-3.318-9.714-4.181
			c-0.853,2.378-1.75,4.72-2.746,6.983c-0.449,0.966-0.847,1.982-1.331,2.885c-0.469,0.921-0.934,1.832-1.394,2.735
			c-1.016,1.833-1.954,3.541-2.945,5.222c-0.495,0.854-0.98,1.648-1.471,2.471c1.024-1.245,2.679-3.191,2.851-3.351
			c2.89-2.718,10.072-6.269,13.961-4.121c2.803,1.548,3.299,5.145,1.55,7.669c-1.786,2.579-5.524,3.559-8.484,3.683
			c-3.264,0.135-9.741-2.458-10.532-2.78c-1.211,2.008-2.41,3.953-3.566,5.752c-0.132,0.206-0.261,0.405-0.391,0.607h-3.202
			c0.456-0.666,0.918-1.344,1.39-2.05c1.08-1.603,2.196-3.319,3.326-5.095c-0.676-0.496-5.891-4.377-7.686-7.208
			c-2.83,0.966-5.942,1.61-6.49,1.72c0.088,2.118-0.519,9.627-0.616,12.633h-2.615c0.147-2.865,0.794-10.056,0.761-11.942
			c-0.869-0.042-7.82-0.425-10.718-1.923c-2.632-1.361-5.606-3.827-6.136-6.917c-0.52-3.027,1.447-6.078,4.64-6.299
			c4.432-0.306,9.446,5.944,10.919,9.627c0.095,0.236,0.896,3.149,1.274,4.644c-0.027-1.272-0.049-2.535-0.099-3.859
			c-0.056-1.904-0.179-3.915-0.287-5.863c-0.093-1.009-0.186-2.027-0.281-3.057c-0.072-1.04-0.27-2.022-0.401-3.051
			c-0.225-1.502-0.532-3.039-0.836-4.575c-1.935,0.175-7.624,0.59-10.343-0.328c-2.808-0.947-6.121-2.933-7.114-5.908
			c-0.972-2.913,0.51-6.228,3.633-6.929c4.335-0.974,10.236,4.445,12.251,7.862c0.066,0.112,0.417,0.877,0.824,1.791
			c-0.342-1.49-0.677-2.979-1.075-4.477c-1.125-4.251-2.403-8.546-3.665-12.855c-0.264-0.898-0.513-1.798-0.772-2.698
			c-1.628,0.155-7.786,0.66-10.636-0.302c-2.807-0.946-6.122-2.933-7.114-5.908c-0.972-2.913,0.51-6.228,3.633-6.929
			c4.334-0.975,10.236,4.444,12.251,7.862c0.072,0.122,0.488,1.039,0.946,2.067c-0.652-2.351-1.274-4.703-1.817-7.055
			c-0.956-4.113-1.674-8.217-2.056-12.247c-0.574,0.061-7.782,0.797-10.949-0.271c-2.807-0.947-6.12-2.933-7.114-5.908
			C475.182,348.528,476.665,345.214,479.788,344.511z"/>
		<path d="M561.962,350.493c0.06,0.055,2.326-4.844,2.434-5.169c1.243-3.767,1.431-11.777-2.157-14.397
			c-2.585-1.887-6.055-0.818-7.606,1.833c-1.584,2.706-0.896,6.508,0.242,9.244C556.21,345.216,561.958,350.488,561.962,350.493z"/>
	</g>
	<g style="opacity:0.15;">
		<path d="M602.203,368.182c1.94,1.305,7.116,2.13,7.12,2.13c0.054,0.008-0.492-3.577-0.553-3.799
			c-0.699-2.573-3.563-7.132-6.545-7.27c-2.148-0.099-3.697,1.786-3.584,3.847C598.756,365.195,600.552,367.07,602.203,368.182z"/>
		<path d="M598.919,374.812c2.913-0.654,6.879,2.987,8.233,5.283c0.096,0.163,1.094,2.397,1.423,3.208
			c-0.003-0.032-0.01-0.065-0.013-0.098c-0.243-2.845-0.123-5.592,0.116-8.191c0.236-2.593,0.678-5.015,1.143-7.233
			c0.459-2.22,1.016-4.222,1.523-5.99c0.282-0.955,0.557-1.824,0.824-2.631c-0.011,0.005-0.057,0.026-0.057,0.026
			c-0.05,0.021-0.41-3.588-0.407-3.818c0.041-2.666,1.686-7.793,4.541-8.665c2.056-0.628,4.024,0.815,4.425,2.839
			c0.409,2.067-0.865,4.329-2.19,5.815c-1.357,1.523-5.192,3.301-6.148,3.73c-0.26,0.844-0.528,1.749-0.802,2.756
			c-0.467,1.774-0.979,3.783-1.388,6.003c-0.111,0.591-0.205,1.232-0.308,1.851c0.39-1.007,0.945-2.382,1.014-2.51
			c1.264-2.347,5.086-6.139,8.022-5.598c2.115,0.39,3.196,2.577,2.619,4.559c-0.589,2.023-2.762,3.443-4.624,4.152
			c-1.941,0.739-6.267,0.531-7.212,0.475c-0.207,1.375-0.389,2.791-0.491,4.28c-0.181,2.561-0.24,5.3,0.059,8.089
			c0.017,0.155,0.053,0.313,0.072,0.468c0.107-0.53,0.901-3.402,0.98-3.597c0.999-2.472,4.381-6.661,7.359-6.445
			c2.146,0.155,3.461,2.211,3.104,4.243c-0.363,2.076-2.368,3.726-4.139,4.635c-2.042,1.047-7.097,1.264-7.288,1.273
			c0.314,2.607,0.835,5.26,1.516,7.926c0.491,1.933,1.068,3.87,1.664,5.808c0.155-0.688,0.895-3.357,0.97-3.543
			c0.999-2.472,4.382-6.66,7.359-6.445c2.145,0.155,3.46,2.211,3.104,4.243c-0.364,2.076-2.368,3.726-4.139,4.635
			c-1.993,1.022-6.836,1.253-7.245,1.271c0.271,0.88,0.539,1.76,0.818,2.64c0.91,2.873,1.835,5.748,2.66,8.615
			c0.286,0.993,0.531,1.982,0.782,2.971c0.265-1.024,0.782-2.878,0.844-3.032c0.999-2.472,4.382-6.661,7.359-6.445
			c2.145,0.155,3.46,2.211,3.104,4.244c-0.364,2.076-2.368,3.726-4.14,4.635c-1.78,0.913-5.848,1.195-6.995,1.258
			c0.404,1.649,0.769,3.295,1.05,4.932c0.106,0.708,0.26,1.425,0.323,2.11c0.078,0.69,0.157,1.373,0.234,2.049
			c0.109,1.405,0.216,2.71,0.285,4.019c0.039,0.662,0.061,1.287,0.091,1.93c0.113-1.078,0.319-2.782,0.355-2.935
			c0.612-2.594,3.321-7.247,6.297-7.485c2.144-0.171,3.756,1.661,3.712,3.724c-0.006,0.262-0.038,0.521-0.092,0.777
			c0.868,2.216,0.97,5.161,0.612,6.896c-0.034,0.167-0.665,2.096-1.008,3.075c0.456-0.722,0.912-1.438,1.375-2.199
			c0.674-1.088,1.35-2.261,2.013-3.393c0.322-0.6,0.647-1.206,0.975-1.817c0.344-0.611,0.598-1.234,0.906-1.859
			c0.431-0.925,0.829-1.901,1.228-2.874c-1.15-0.619-4.492-2.496-5.676-4.018c-1.223-1.571-2.344-3.914-1.798-5.948
			c0.535-1.994,2.595-3.302,4.606-2.538c2.79,1.061,4.089,6.286,3.952,8.949c-0.005,0.086-0.092,0.646-0.202,1.308
			c0.361-0.961,0.725-1.92,1.057-2.907c0.946-2.8,1.821-5.68,2.711-8.564c0.185-0.601,0.38-1.198,0.567-1.799
			c-0.97-0.516-4.608-2.517-5.849-4.112c-1.223-1.572-2.344-3.913-1.797-5.948c0.535-1.993,2.594-3.302,4.605-2.537
			c2.791,1.061,4.09,6.286,3.952,8.948c-0.004,0.095-0.111,0.763-0.236,1.51c0.506-1.559,1.029-3.108,1.597-4.628
			c0.989-2.659,2.108-5.226,3.388-7.625c-0.344-0.179-4.657-2.439-6.036-4.211c-1.223-1.572-2.343-3.913-1.798-5.949
			c0.535-1.993,2.595-3.301,4.605-2.538c2.791,1.061,4.09,6.287,3.952,8.949c-0.009,0.188-0.411,2.602-0.583,3.46
			c0.016-0.028,0.028-0.06,0.044-0.088c1.367-2.507,2.982-4.732,4.615-6.767c1.628-2.033,3.333-3.809,4.943-5.402
			c1.607-1.599,3.176-2.961,4.575-4.156c0.763-0.641,1.471-1.214,2.139-1.74c-0.012-0.002-0.063-0.011-0.063-0.011
			c-0.054-0.009,1.637-3.218,1.767-3.408c1.504-2.201,5.705-5.57,8.567-4.722c2.062,0.61,2.908,2.899,2.125,4.809
			c-0.799,1.95-3.111,3.133-5.035,3.642c-1.972,0.521-6.151-0.111-7.186-0.281c-0.683,0.561-1.405,1.168-2.189,1.857
			c-1.369,1.222-2.903,2.615-4.47,4.241c-0.418,0.432-0.851,0.914-1.278,1.374c0.881-0.625,2.102-1.465,2.23-1.534
			c2.349-1.26,7.629-2.315,9.779-0.243c1.549,1.492,1.244,3.913-0.33,5.247c-1.607,1.363-4.204,1.348-6.147,0.913
			c-2.027-0.454-5.519-3.014-6.278-3.583c-0.931,1.032-1.864,2.114-2.77,3.299c-1.564,2.036-3.124,4.288-4.412,6.779
			c-0.072,0.138-0.129,0.291-0.2,0.43c0.382-0.384,2.63-2.341,2.802-2.46c2.197-1.511,7.329-3.138,9.694-1.316
			c1.704,1.313,1.667,3.753,0.248,5.252c-1.448,1.531-4.031,1.802-6.01,1.582c-2.281-0.253-6.617-2.861-6.78-2.959
			c-1.176,2.348-2.206,4.848-3.108,7.447c-0.657,1.883-1.245,3.816-1.816,5.762c0.509-0.488,2.599-2.306,2.764-2.42
			c2.196-1.511,7.329-3.138,9.693-1.316c1.704,1.313,1.667,3.753,0.248,5.251c-1.448,1.531-4.031,1.802-6.009,1.582
			c-2.227-0.247-6.393-2.726-6.743-2.937c-0.259,0.884-0.522,1.765-0.774,2.653c-0.826,2.898-1.641,5.807-2.534,8.653
			c-0.309,0.986-0.65,1.946-0.987,2.909c0.785-0.708,2.239-1.97,2.376-2.063c2.197-1.511,7.329-3.139,9.694-1.316
			c1.703,1.313,1.667,3.753,0.248,5.252c-1.449,1.531-4.03,1.801-6.009,1.582c-1.988-0.22-5.537-2.23-6.528-2.81
			c-0.573,1.598-1.176,3.172-1.845,4.693c-0.302,0.649-0.569,1.332-0.894,1.939c-0.315,0.618-0.627,1.231-0.936,1.838
			c-0.683,1.232-1.313,2.379-1.979,3.509c-0.333,0.574-0.659,1.107-0.989,1.661c0.688-0.836,1.801-2.144,1.916-2.252
			c1.942-1.826,6.769-4.213,9.382-2.769c1.883,1.04,2.217,3.458,1.042,5.154c-1.2,1.733-3.712,2.391-5.701,2.475
			c-2.193,0.091-6.546-1.652-7.077-1.868c-0.814,1.349-1.62,2.657-2.396,3.865c-0.089,0.139-0.175,0.272-0.263,0.408h-2.151
			c0.307-0.448,0.617-0.903,0.934-1.378c0.726-1.077,1.476-2.23,2.235-3.424c-0.455-0.333-3.958-2.941-5.165-4.844
			c-1.902,0.649-3.993,1.082-4.361,1.155c0.059,1.423-0.348,6.469-0.414,8.489h-1.757c0.098-1.925,0.534-6.757,0.512-8.025
			c-0.584-0.028-5.255-0.286-7.203-1.292c-1.768-0.914-3.767-2.572-4.123-4.648c-0.35-2.034,0.972-4.085,3.118-4.233
			c2.979-0.206,6.348,3.994,7.337,6.469c0.064,0.159,0.602,2.116,0.856,3.121c-0.018-0.855-0.033-1.703-0.067-2.593
			c-0.038-1.279-0.12-2.631-0.193-3.94c-0.062-0.678-0.125-1.363-0.189-2.054c-0.049-0.699-0.182-1.359-0.269-2.05
			c-0.151-1.009-0.358-2.042-0.562-3.074c-1.3,0.118-5.123,0.396-6.95-0.22c-1.887-0.636-4.113-1.971-4.781-3.97
			c-0.653-1.957,0.343-4.185,2.441-4.656c2.913-0.655,6.879,2.987,8.233,5.283c0.044,0.075,0.28,0.59,0.554,1.204
			c-0.23-1.001-0.455-2.002-0.722-3.009c-0.756-2.857-1.614-5.742-2.463-8.639c-0.177-0.603-0.345-1.208-0.519-1.813
			c-1.094,0.104-5.233,0.443-7.147-0.203c-1.886-0.636-4.114-1.971-4.781-3.97c-0.653-1.958,0.342-4.185,2.441-4.656
			c2.912-0.655,6.878,2.986,8.233,5.283c0.048,0.082,0.328,0.698,0.636,1.389c-0.438-1.58-0.856-3.16-1.221-4.741
			c-0.642-2.764-1.125-5.522-1.381-8.23c-0.385,0.041-5.229,0.536-7.358-0.182c-1.886-0.636-4.113-1.971-4.78-3.97
			C595.824,377.512,596.82,375.284,598.919,374.812z"/>
		<path d="M654.139,378.832c0.04,0.037,1.563-3.255,1.635-3.474c0.836-2.531,0.962-7.914-1.449-9.675
			c-1.737-1.268-4.069-0.55-5.111,1.232c-1.065,1.818-0.602,4.373,0.162,6.212C650.273,375.286,654.136,378.829,654.139,378.832z"/>
	</g>
	<g style="opacity:0.15;">
		<path d="M431.902,385.913c1.439,0.968,5.28,1.58,5.283,1.581c0.04,0.006-0.365-2.654-0.41-2.819
			c-0.518-1.909-2.644-5.292-4.856-5.394c-1.594-0.074-2.743,1.325-2.659,2.854C429.345,383.697,430.677,385.088,431.902,385.913z"
			/>
		<path d="M429.465,390.832c2.161-0.485,5.104,2.216,6.108,3.92c0.071,0.121,0.811,1.779,1.056,2.38
			c-0.002-0.024-0.007-0.048-0.01-0.072c-0.18-2.111-0.091-4.149,0.086-6.077c0.175-1.924,0.503-3.721,0.848-5.366
			c0.34-1.647,0.753-3.133,1.13-4.444c0.209-0.709,0.414-1.353,0.611-1.952c-0.008,0.004-0.043,0.019-0.043,0.019
			c-0.037,0.016-0.304-2.662-0.302-2.833c0.03-1.978,1.251-5.782,3.369-6.429c1.526-0.466,2.986,0.604,3.283,2.107
			c0.304,1.534-0.642,3.212-1.625,4.315c-1.007,1.13-3.852,2.449-4.562,2.768c-0.193,0.626-0.391,1.298-0.595,2.045
			c-0.347,1.316-0.726,2.806-1.03,4.453c-0.082,0.439-0.152,0.914-0.228,1.373c0.289-0.747,0.701-1.767,0.752-1.862
			c0.938-1.741,3.774-4.555,5.952-4.153c1.569,0.289,2.372,1.912,1.943,3.382c-0.437,1.501-2.049,2.554-3.431,3.081
			c-1.44,0.549-4.649,0.394-5.351,0.353c-0.154,1.02-0.288,2.071-0.364,3.175c-0.135,1.9-0.178,3.932,0.044,6.001
			c0.012,0.115,0.039,0.232,0.053,0.347c0.079-0.393,0.669-2.524,0.727-2.668c0.741-1.834,3.251-4.942,5.46-4.782
			c1.592,0.115,2.568,1.64,2.303,3.148c-0.27,1.54-1.757,2.765-3.071,3.439c-1.515,0.777-5.266,0.938-5.407,0.944
			c0.233,1.935,0.62,3.903,1.125,5.881c0.364,1.434,0.792,2.871,1.235,4.309c0.115-0.51,0.664-2.49,0.72-2.629
			c0.741-1.834,3.251-4.942,5.46-4.782c1.592,0.115,2.567,1.64,2.303,3.148c-0.27,1.54-1.757,2.765-3.071,3.439
			c-1.479,0.759-5.072,0.929-5.375,0.943c0.201,0.653,0.4,1.306,0.607,1.958c0.675,2.132,1.361,4.265,1.973,6.392
			c0.212,0.737,0.394,1.471,0.58,2.205c0.196-0.76,0.58-2.135,0.626-2.25c0.741-1.834,3.251-4.942,5.46-4.782
			c1.592,0.115,2.567,1.64,2.303,3.148c-0.27,1.54-1.757,2.765-3.071,3.439c-1.32,0.678-4.339,0.887-5.19,0.933
			c0.3,1.224,0.57,2.445,0.779,3.659c0.079,0.526,0.193,1.057,0.24,1.566c0.058,0.512,0.116,1.019,0.173,1.52
			c0.081,1.042,0.16,2.01,0.212,2.982c0.029,0.491,0.045,0.955,0.068,1.432c0.084-0.799,0.237-2.064,0.264-2.178
			c0.454-1.925,2.464-5.377,4.672-5.554c1.591-0.127,2.787,1.232,2.754,2.763c-0.004,0.195-0.028,0.387-0.068,0.577
			c0.644,1.644,0.72,3.829,0.454,5.116c-0.026,0.124-0.493,1.555-0.747,2.281c0.338-0.536,0.676-1.067,1.02-1.632
			c0.5-0.807,1.002-1.677,1.493-2.517c0.239-0.445,0.48-0.895,0.724-1.348c0.256-0.453,0.444-0.915,0.672-1.379
			c0.32-0.687,0.615-1.41,0.911-2.133c-0.853-0.459-3.333-1.852-4.211-2.981c-0.907-1.166-1.739-2.904-1.334-4.413
			c0.397-1.479,1.925-2.45,3.417-1.883c2.07,0.787,3.034,4.664,2.932,6.639c-0.004,0.064-0.068,0.479-0.15,0.971
			c0.268-0.713,0.538-1.425,0.784-2.157c0.702-2.077,1.351-4.215,2.012-6.354c0.138-0.446,0.282-0.889,0.421-1.335
			c-0.719-0.383-3.419-1.868-4.34-3.051c-0.907-1.166-1.739-2.903-1.333-4.413c0.397-1.479,1.925-2.45,3.417-1.883
			c2.071,0.787,3.034,4.664,2.932,6.639c-0.003,0.07-0.082,0.566-0.175,1.12c0.375-1.157,0.764-2.306,1.185-3.434
			c0.734-1.973,1.564-3.877,2.514-5.658c-0.255-0.133-3.455-1.809-4.478-3.124c-0.907-1.166-1.739-2.903-1.334-4.414
			c0.397-1.479,1.925-2.449,3.417-1.883c2.071,0.787,3.034,4.664,2.932,6.639c-0.007,0.14-0.305,1.931-0.433,2.567
			c0.012-0.021,0.021-0.045,0.032-0.065c1.014-1.86,2.212-3.511,3.424-5.021c1.208-1.508,2.473-2.826,3.668-4.008
			c1.193-1.186,2.356-2.197,3.394-3.083c0.566-0.476,1.091-0.9,1.587-1.291c-0.009-0.002-0.046-0.008-0.046-0.008
			c-0.04-0.007,1.215-2.387,1.311-2.529c1.116-1.633,4.232-4.132,6.356-3.503c1.53,0.452,2.157,2.151,1.577,3.568
			c-0.593,1.447-2.308,2.324-3.736,2.703c-1.464,0.387-4.564-0.082-5.331-0.209c-0.507,0.416-1.042,0.867-1.624,1.378
			c-1.016,0.907-2.154,1.94-3.316,3.146c-0.31,0.32-0.631,0.678-0.948,1.019c0.654-0.464,1.56-1.087,1.654-1.138
			c1.743-0.935,5.66-1.717,7.256-0.181c1.149,1.107,0.923,2.903-0.245,3.893c-1.193,1.011-3.119,1-4.561,0.677
			c-1.504-0.337-4.095-2.236-4.658-2.658c-0.691,0.766-1.383,1.569-2.055,2.448c-1.161,1.511-2.318,3.181-3.273,5.029
			c-0.053,0.103-0.096,0.216-0.148,0.319c0.284-0.285,1.951-1.737,2.079-1.825c1.63-1.121,5.438-2.329,7.192-0.976
			c1.264,0.974,1.237,2.785,0.184,3.897c-1.074,1.136-2.99,1.337-4.459,1.174c-1.692-0.188-4.91-2.122-5.03-2.195
			c-0.873,1.742-1.637,3.597-2.306,5.525c-0.488,1.397-0.923,2.831-1.348,4.275c0.378-0.362,1.928-1.711,2.051-1.796
			c1.629-1.121,5.437-2.328,7.192-0.976c1.264,0.974,1.237,2.784,0.184,3.896c-1.074,1.136-2.99,1.337-4.459,1.174
			c-1.652-0.183-4.743-2.023-5.003-2.179c-0.192,0.655-0.387,1.31-0.574,1.968c-0.613,2.15-1.218,4.308-1.88,6.42
			c-0.229,0.732-0.482,1.444-0.732,2.159c0.582-0.525,1.661-1.461,1.763-1.531c1.63-1.121,5.438-2.329,7.192-0.977
			c1.264,0.974,1.237,2.785,0.184,3.897c-1.075,1.136-2.99,1.337-4.459,1.174c-1.475-0.163-4.108-1.654-4.843-2.085
			c-0.425,1.186-0.873,2.353-1.369,3.482c-0.224,0.482-0.422,0.988-0.663,1.438c-0.234,0.459-0.466,0.914-0.695,1.363
			c-0.507,0.914-0.974,1.765-1.468,2.604c-0.247,0.426-0.489,0.822-0.733,1.232c0.51-0.621,1.336-1.591,1.421-1.671
			c1.441-1.355,5.022-3.125,6.961-2.055c1.397,0.772,1.645,2.565,0.773,3.824c-0.89,1.286-2.754,1.774-4.23,1.836
			c-1.627,0.068-4.857-1.226-5.251-1.386c-0.604,1.001-1.202,1.971-1.778,2.868c-0.066,0.103-0.13,0.202-0.195,0.303h-1.596
			c0.228-0.332,0.458-0.67,0.693-1.022c0.538-0.799,1.095-1.655,1.658-2.54c-0.337-0.247-2.937-2.182-3.832-3.594
			c-1.411,0.482-2.962,0.803-3.236,0.857c0.044,1.056-0.258,4.8-0.307,6.298h-1.304c0.073-1.428,0.396-5.013,0.38-5.954
			c-0.433-0.021-3.899-0.212-5.344-0.959c-1.312-0.678-2.795-1.908-3.059-3.449c-0.259-1.509,0.721-3.031,2.313-3.141
			c2.21-0.152,4.71,2.964,5.444,4.8c0.047,0.118,0.447,1.57,0.635,2.315c-0.013-0.634-0.025-1.264-0.049-1.924
			c-0.028-0.949-0.089-1.952-0.143-2.923c-0.046-0.503-0.093-1.011-0.14-1.524c-0.036-0.519-0.135-1.008-0.2-1.521
			c-0.112-0.749-0.265-1.515-0.417-2.281c-0.965,0.087-3.801,0.294-5.157-0.163c-1.4-0.472-3.052-1.462-3.547-2.946
			c-0.485-1.452,0.254-3.105,1.811-3.455c2.161-0.486,5.104,2.216,6.108,3.92c0.033,0.056,0.208,0.437,0.411,0.893
			c-0.171-0.743-0.338-1.486-0.536-2.232c-0.561-2.12-1.198-4.261-1.827-6.409c-0.131-0.448-0.256-0.897-0.385-1.345
			c-0.812,0.077-3.882,0.329-5.303-0.15c-1.4-0.472-3.052-1.463-3.547-2.946c-0.484-1.452,0.254-3.105,1.811-3.455
			c2.161-0.486,5.103,2.215,6.108,3.92c0.036,0.061,0.244,0.518,0.472,1.031c-0.325-1.172-0.635-2.345-0.906-3.517
			c-0.477-2.051-0.835-4.097-1.025-6.106c-0.286,0.031-3.88,0.397-5.459-0.135c-1.4-0.472-3.051-1.462-3.547-2.945
			C427.169,392.835,427.909,391.182,429.465,390.832z"/>
		<path d="M470.436,393.814c0.03,0.027,1.16-2.415,1.213-2.577c0.62-1.878,0.714-5.872-1.075-7.178
			c-1.289-0.941-3.019-0.408-3.792,0.914c-0.79,1.349-0.447,3.245,0.121,4.609C467.568,391.183,470.434,393.812,470.436,393.814z"/>
	</g>
	<g style="opacity:0.15;">
		<path d="M137.719,368.182c-1.94,1.305-7.116,2.13-7.12,2.13c-0.054,0.008,0.492-3.577,0.553-3.799
			c0.699-2.573,3.563-7.132,6.545-7.27c2.148-0.099,3.697,1.786,3.584,3.847C141.165,365.195,139.37,367.07,137.719,368.182z"/>
		<path d="M141.003,374.812c-2.913-0.654-6.879,2.987-8.233,5.283c-0.096,0.163-1.094,2.397-1.423,3.208
			c0.003-0.032,0.01-0.065,0.013-0.098c0.243-2.845,0.123-5.592-0.116-8.191c-0.236-2.593-0.678-5.015-1.143-7.233
			c-0.459-2.22-1.015-4.222-1.523-5.99c-0.282-0.955-0.557-1.824-0.824-2.631c0.011,0.005,0.058,0.026,0.058,0.026
			c0.05,0.021,0.41-3.588,0.407-3.818c-0.041-2.666-1.686-7.793-4.541-8.665c-2.056-0.628-4.024,0.815-4.425,2.839
			c-0.409,2.067,0.865,4.329,2.19,5.815c1.358,1.523,5.192,3.301,6.148,3.73c0.26,0.844,0.528,1.749,0.802,2.756
			c0.467,1.774,0.979,3.783,1.388,6.003c0.111,0.591,0.205,1.232,0.308,1.851c-0.39-1.007-0.945-2.382-1.014-2.51
			c-1.264-2.347-5.086-6.139-8.022-5.598c-2.115,0.39-3.196,2.577-2.619,4.559c0.589,2.023,2.762,3.443,4.624,4.152
			c1.941,0.739,6.266,0.531,7.212,0.475c0.207,1.375,0.388,2.791,0.491,4.28c0.181,2.561,0.24,5.3-0.059,8.089
			c-0.017,0.155-0.053,0.313-0.072,0.468c-0.107-0.53-0.901-3.402-0.98-3.597c-0.999-2.472-4.381-6.661-7.359-6.445
			c-2.146,0.155-3.461,2.211-3.105,4.243c0.363,2.076,2.368,3.726,4.139,4.635c2.042,1.047,7.097,1.264,7.288,1.273
			c-0.314,2.607-0.835,5.26-1.516,7.926c-0.491,1.933-1.068,3.87-1.664,5.808c-0.155-0.688-0.895-3.357-0.97-3.543
			c-0.999-2.472-4.382-6.66-7.359-6.445c-2.145,0.155-3.46,2.211-3.104,4.243c0.364,2.076,2.368,3.726,4.139,4.635
			c1.993,1.022,6.836,1.253,7.245,1.271c-0.271,0.88-0.539,1.76-0.818,2.64c-0.91,2.873-1.835,5.748-2.66,8.615
			c-0.286,0.993-0.531,1.982-0.782,2.971c-0.265-1.024-0.782-2.878-0.844-3.032c-0.999-2.472-4.382-6.661-7.359-6.445
			c-2.145,0.155-3.46,2.211-3.104,4.244c0.364,2.076,2.368,3.726,4.14,4.635c1.78,0.913,5.848,1.195,6.995,1.258
			c-0.404,1.649-0.769,3.295-1.05,4.932c-0.106,0.708-0.26,1.425-0.323,2.11c-0.079,0.69-0.157,1.373-0.233,2.049
			c-0.109,1.405-0.216,2.71-0.285,4.019c-0.039,0.662-0.061,1.287-0.091,1.93c-0.113-1.078-0.319-2.782-0.355-2.935
			c-0.612-2.594-3.321-7.247-6.297-7.485c-2.144-0.171-3.756,1.661-3.712,3.724c0.006,0.262,0.038,0.521,0.092,0.777
			c-0.868,2.216-0.97,5.161-0.612,6.896c0.035,0.167,0.665,2.096,1.008,3.075c-0.456-0.722-0.912-1.438-1.375-2.199
			c-0.674-1.088-1.35-2.261-2.013-3.393c-0.322-0.6-0.647-1.206-0.975-1.817c-0.344-0.611-0.598-1.234-0.906-1.859
			c-0.431-0.925-0.829-1.901-1.228-2.874c1.15-0.619,4.492-2.496,5.675-4.018c1.223-1.571,2.344-3.914,1.798-5.948
			c-0.535-1.994-2.595-3.302-4.606-2.538c-2.79,1.061-4.089,6.286-3.952,8.949c0.005,0.086,0.092,0.646,0.202,1.308
			c-0.361-0.961-0.725-1.92-1.057-2.907c-0.946-2.8-1.821-5.68-2.712-8.564c-0.185-0.601-0.379-1.198-0.567-1.799
			c0.97-0.516,4.608-2.517,5.849-4.112c1.222-1.572,2.343-3.913,1.797-5.948c-0.535-1.993-2.594-3.302-4.605-2.537
			c-2.791,1.061-4.09,6.286-3.952,8.948c0.005,0.095,0.111,0.763,0.236,1.51c-0.506-1.559-1.03-3.108-1.597-4.628
			c-0.989-2.659-2.108-5.226-3.388-7.625c0.344-0.179,4.657-2.439,6.036-4.211c1.223-1.572,2.343-3.913,1.798-5.949
			c-0.535-1.993-2.595-3.301-4.605-2.538c-2.791,1.061-4.09,6.287-3.952,8.949c0.009,0.188,0.411,2.602,0.583,3.46
			c-0.016-0.028-0.028-0.06-0.043-0.088c-1.367-2.507-2.982-4.732-4.615-6.767c-1.627-2.033-3.332-3.809-4.943-5.402
			c-1.607-1.599-3.176-2.961-4.575-4.156c-0.762-0.641-1.471-1.214-2.139-1.74c0.012-0.002,0.063-0.011,0.063-0.011
			c0.054-0.009-1.637-3.218-1.767-3.408c-1.504-2.201-5.705-5.57-8.567-4.722c-2.062,0.61-2.908,2.899-2.125,4.809
			c0.799,1.95,3.111,3.133,5.035,3.642c1.973,0.521,6.152-0.111,7.186-0.281c0.683,0.561,1.405,1.168,2.189,1.857
			c1.369,1.222,2.903,2.615,4.47,4.241c0.418,0.432,0.851,0.914,1.278,1.374c-0.881-0.625-2.102-1.465-2.23-1.534
			c-2.349-1.26-7.629-2.315-9.779-0.243c-1.549,1.492-1.244,3.913,0.33,5.247c1.607,1.363,4.204,1.348,6.147,0.913
			c2.027-0.454,5.52-3.014,6.278-3.583c0.931,1.032,1.864,2.114,2.77,3.299c1.564,2.036,3.124,4.288,4.412,6.779
			c0.072,0.138,0.129,0.291,0.2,0.43c-0.382-0.384-2.63-2.341-2.802-2.46c-2.197-1.511-7.329-3.138-9.694-1.316
			c-1.704,1.313-1.667,3.753-0.248,5.252c1.448,1.531,4.031,1.802,6.01,1.582c2.28-0.253,6.617-2.861,6.78-2.959
			c1.176,2.348,2.206,4.848,3.108,7.447c0.657,1.883,1.245,3.816,1.816,5.762c-0.509-0.488-2.599-2.306-2.764-2.42
			c-2.196-1.511-7.329-3.138-9.693-1.316c-1.704,1.313-1.667,3.753-0.249,5.251c1.448,1.531,4.031,1.802,6.009,1.582
			c2.227-0.247,6.393-2.726,6.743-2.937c0.259,0.884,0.522,1.765,0.774,2.653c0.826,2.898,1.641,5.807,2.534,8.653
			c0.309,0.986,0.65,1.946,0.987,2.909c-0.785-0.708-2.239-1.97-2.376-2.063c-2.196-1.511-7.329-3.139-9.694-1.316
			c-1.703,1.313-1.667,3.753-0.248,5.252c1.449,1.531,4.03,1.801,6.009,1.582c1.988-0.22,5.537-2.23,6.528-2.81
			c0.573,1.598,1.176,3.172,1.845,4.693c0.302,0.649,0.569,1.332,0.894,1.939c0.315,0.618,0.628,1.231,0.937,1.838
			c0.683,1.232,1.313,2.379,1.979,3.509c0.333,0.574,0.659,1.107,0.989,1.661c-0.688-0.836-1.8-2.144-1.915-2.252
			c-1.942-1.826-6.769-4.213-9.382-2.769c-1.883,1.04-2.217,3.458-1.042,5.154c1.2,1.733,3.712,2.391,5.701,2.475
			c2.193,0.091,6.546-1.652,7.077-1.868c0.814,1.349,1.62,2.657,2.396,3.865c0.089,0.139,0.175,0.272,0.263,0.408h2.151
			c-0.307-0.448-0.617-0.903-0.934-1.378c-0.726-1.077-1.476-2.23-2.235-3.424c0.454-0.333,3.958-2.941,5.165-4.844
			c1.901,0.649,3.993,1.082,4.361,1.155c-0.059,1.423,0.348,6.469,0.414,8.489h1.757c-0.099-1.925-0.534-6.757-0.512-8.025
			c0.584-0.028,5.255-0.286,7.203-1.292c1.769-0.914,3.767-2.572,4.123-4.648c0.35-2.034-0.972-4.085-3.118-4.233
			c-2.979-0.206-6.348,3.994-7.338,6.469c-0.064,0.159-0.602,2.116-0.856,3.121c0.018-0.855,0.033-1.703,0.066-2.593
			c0.038-1.279,0.12-2.631,0.193-3.94c0.062-0.678,0.125-1.363,0.189-2.054c0.049-0.699,0.182-1.359,0.269-2.05
			c0.151-1.009,0.358-2.042,0.562-3.074c1.3,0.118,5.123,0.396,6.95-0.22c1.887-0.636,4.113-1.971,4.781-3.97
			c0.653-1.957-0.343-4.185-2.441-4.656c-2.913-0.655-6.879,2.987-8.233,5.283c-0.044,0.075-0.28,0.59-0.554,1.204
			c0.23-1.001,0.455-2.002,0.722-3.009c0.756-2.857,1.614-5.742,2.463-8.639c0.177-0.603,0.345-1.208,0.519-1.813
			c1.094,0.104,5.232,0.443,7.147-0.203c1.886-0.636,4.114-1.971,4.781-3.97c0.653-1.958-0.342-4.185-2.441-4.656
			c-2.912-0.655-6.879,2.986-8.233,5.283c-0.048,0.082-0.328,0.698-0.636,1.389c0.438-1.58,0.856-3.16,1.221-4.741
			c0.643-2.764,1.125-5.522,1.382-8.23c0.385,0.041,5.229,0.536,7.358-0.182c1.886-0.636,4.113-1.971,4.78-3.97
			C144.098,377.512,143.102,375.284,141.003,374.812z"/>
		<path d="M85.783,378.832c-0.04,0.037-1.563-3.255-1.635-3.474c-0.835-2.531-0.962-7.914,1.45-9.675
			c1.737-1.268,4.069-0.55,5.111,1.232c1.065,1.818,0.602,4.373-0.162,6.212C89.648,375.286,85.786,378.829,85.783,378.832z"/>
	</g>
	<g style="opacity:0.15;">
		<path d="M306.905,387.079c-1.406,0.946-5.159,1.544-5.162,1.544c-0.039,0.006,0.357-2.593,0.401-2.754
			c0.507-1.865,2.583-5.171,4.745-5.271c1.558-0.072,2.681,1.295,2.599,2.789C309.404,384.914,308.103,386.273,306.905,387.079z"/>
		<path d="M309.287,391.886c-2.112-0.474-4.987,2.165-5.968,3.83c-0.07,0.118-0.793,1.738-1.032,2.326
			c0.002-0.023,0.007-0.047,0.009-0.071c0.176-2.063,0.089-4.054-0.084-5.938c-0.171-1.88-0.492-3.636-0.828-5.243
			c-0.333-1.61-0.736-3.061-1.104-4.343c-0.204-0.692-0.404-1.322-0.597-1.908c0.008,0.004,0.042,0.019,0.042,0.019
			c0.036,0.016,0.297-2.601,0.295-2.768c-0.03-1.932-1.222-5.649-3.292-6.282c-1.491-0.455-2.918,0.591-3.208,2.058
			c-0.297,1.499,0.627,3.138,1.588,4.216c0.984,1.104,3.764,2.393,4.457,2.704c0.188,0.612,0.382,1.268,0.581,1.998
			c0.339,1.286,0.71,2.742,1.006,4.352c0.08,0.428,0.149,0.893,0.223,1.342c-0.283-0.73-0.685-1.727-0.735-1.82
			c-0.916-1.701-3.687-4.451-5.816-4.058c-1.533,0.283-2.317,1.868-1.899,3.305c0.427,1.467,2.003,2.496,3.352,3.01
			c1.407,0.536,4.543,0.385,5.229,0.344c0.15,0.996,0.282,2.024,0.356,3.103c0.131,1.857,0.174,3.842-0.043,5.864
			c-0.012,0.112-0.038,0.227-0.052,0.339c-0.077-0.384-0.654-2.467-0.71-2.607c-0.724-1.792-3.176-4.829-5.335-4.672
			c-1.555,0.113-2.509,1.603-2.251,3.076c0.263,1.505,1.716,2.701,3.001,3.36c1.48,0.759,5.145,0.917,5.283,0.923
			c-0.228,1.89-0.605,3.814-1.099,5.746c-0.356,1.401-0.774,2.806-1.206,4.21c-0.112-0.499-0.649-2.433-0.703-2.569
			c-0.724-1.792-3.176-4.829-5.335-4.672c-1.555,0.112-2.509,1.603-2.251,3.076c0.263,1.505,1.717,2.701,3.001,3.36
			c1.445,0.741,4.956,0.908,5.252,0.921c-0.197,0.638-0.391,1.276-0.593,1.914c-0.66,2.083-1.33,4.167-1.928,6.246
			c-0.208,0.72-0.385,1.437-0.567,2.154c-0.192-0.742-0.567-2.086-0.612-2.198c-0.724-1.792-3.177-4.829-5.335-4.672
			c-1.555,0.113-2.508,1.603-2.251,3.076c0.264,1.505,1.717,2.701,3.001,3.36c1.29,0.662,4.239,0.866,5.071,0.912
			c-0.293,1.196-0.557,2.389-0.761,3.576c-0.077,0.513-0.189,1.033-0.234,1.53c-0.057,0.5-0.114,0.995-0.169,1.486
			c-0.079,1.018-0.157,1.964-0.207,2.914c-0.028,0.48-0.044,0.933-0.066,1.399c-0.082-0.781-0.231-2.017-0.258-2.128
			c-0.444-1.881-2.408-5.254-4.565-5.427c-1.554-0.124-2.723,1.204-2.691,2.7c0.004,0.19,0.027,0.378,0.067,0.564
			c-0.629,1.606-0.703,3.741-0.444,4.999c0.025,0.121,0.482,1.52,0.73,2.229c-0.331-0.524-0.661-1.043-0.997-1.594
			c-0.489-0.789-0.979-1.639-1.459-2.459c-0.233-0.435-0.469-0.874-0.707-1.317c-0.25-0.443-0.433-0.895-0.657-1.348
			c-0.312-0.671-0.601-1.378-0.89-2.084c0.833-0.449,3.257-1.81,4.115-2.913c0.886-1.139,1.699-2.837,1.303-4.312
			c-0.388-1.445-1.881-2.393-3.339-1.84c-2.023,0.769-2.964,4.557-2.865,6.487c0.003,0.063,0.066,0.468,0.146,0.948
			c-0.262-0.697-0.525-1.392-0.766-2.108c-0.686-2.03-1.32-4.118-1.966-6.208c-0.134-0.436-0.275-0.869-0.411-1.304
			c0.703-0.374,3.341-1.825,4.24-2.981c0.886-1.139,1.699-2.837,1.303-4.312c-0.388-1.445-1.881-2.394-3.338-1.839
			c-2.023,0.769-2.965,4.557-2.865,6.487c0.003,0.069,0.08,0.553,0.171,1.094c-0.367-1.131-0.746-2.253-1.158-3.355
			c-0.717-1.928-1.528-3.789-2.456-5.528c0.249-0.13,3.376-1.768,4.376-3.053c0.887-1.14,1.699-2.837,1.303-4.313
			c-0.388-1.445-1.881-2.393-3.339-1.84c-2.023,0.769-2.965,4.557-2.865,6.488c0.007,0.137,0.298,1.887,0.423,2.508
			c-0.011-0.021-0.02-0.044-0.031-0.064c-0.991-1.818-2.161-3.431-3.346-4.906c-1.18-1.474-2.416-2.761-3.584-3.916
			c-1.165-1.159-2.302-2.147-3.316-3.013c-0.553-0.465-1.066-0.88-1.551-1.261c0.009-0.001,0.045-0.008,0.045-0.008
			c0.039-0.007-1.187-2.333-1.281-2.471c-1.09-1.596-4.136-4.038-6.211-3.423c-1.495,0.442-2.108,2.102-1.541,3.486
			c0.579,1.414,2.255,2.271,3.65,2.641c1.43,0.378,4.46-0.08,5.209-0.204c0.495,0.407,1.018,0.847,1.587,1.346
			c0.992,0.886,2.105,1.896,3.24,3.074c0.303,0.313,0.617,0.662,0.926,0.996c-0.639-0.453-1.524-1.063-1.616-1.112
			c-1.703-0.914-5.531-1.678-7.09-0.176c-1.123,1.082-0.902,2.837,0.24,3.804c1.165,0.988,3.048,0.977,4.456,0.662
			c1.47-0.33,4.001-2.185,4.551-2.598c0.675,0.749,1.351,1.533,2.008,2.392c1.134,1.476,2.265,3.108,3.198,4.914
			c0.052,0.1,0.094,0.211,0.145,0.312c-0.277-0.278-1.907-1.697-2.031-1.783c-1.593-1.095-5.313-2.275-7.027-0.954
			c-1.235,0.952-1.208,2.721-0.18,3.807c1.05,1.11,2.922,1.306,4.357,1.147c1.653-0.183,4.797-2.074,4.915-2.145
			c0.853,1.703,1.599,3.515,2.253,5.399c0.476,1.365,0.902,2.766,1.317,4.177c-0.369-0.354-1.884-1.672-2.004-1.754
			c-1.592-1.095-5.313-2.275-7.027-0.954c-1.235,0.952-1.208,2.721-0.18,3.807c1.05,1.11,2.922,1.306,4.357,1.147
			c1.615-0.179,4.635-1.977,4.889-2.129c0.188,0.641,0.378,1.28,0.561,1.923c0.599,2.101,1.19,4.21,1.837,6.273
			c0.224,0.715,0.471,1.411,0.715,2.109c-0.569-0.513-1.623-1.428-1.723-1.496c-1.592-1.095-5.313-2.275-7.028-0.954
			c-1.235,0.952-1.208,2.721-0.18,3.808c1.05,1.11,2.922,1.306,4.357,1.147c1.441-0.16,4.014-1.616,4.732-2.037
			c0.415,1.159,0.853,2.299,1.338,3.402c0.219,0.471,0.412,0.965,0.648,1.405c0.229,0.448,0.455,0.893,0.679,1.332
			c0.495,0.893,0.952,1.725,1.435,2.544c0.241,0.416,0.478,0.803,0.717,1.204c-0.499-0.606-1.305-1.554-1.389-1.632
			c-1.408-1.324-4.907-3.054-6.801-2.008c-1.365,0.754-1.607,2.507-0.755,3.736c0.87,1.256,2.691,1.734,4.133,1.794
			c1.59,0.066,4.746-1.198,5.131-1.354c0.59,0.978,1.174,1.926,1.737,2.802c0.064,0.1,0.127,0.197,0.19,0.296h1.56
			c-0.222-0.325-0.447-0.655-0.677-0.999c-0.526-0.781-1.07-1.617-1.62-2.482c0.329-0.242,2.87-2.132,3.744-3.511
			c1.379,0.471,2.895,0.784,3.162,0.838c-0.043,1.032,0.253,4.69,0.3,6.154h1.274c-0.071-1.395-0.387-4.899-0.371-5.817
			c0.423-0.02,3.81-0.207,5.222-0.937c1.282-0.663,2.731-1.864,2.989-3.37c0.253-1.475-0.705-2.961-2.26-3.069
			c-2.159-0.149-4.602,2.896-5.319,4.69c-0.046,0.115-0.437,1.534-0.621,2.262c0.013-0.62,0.024-1.235,0.048-1.88
			c0.027-0.927,0.087-1.907,0.14-2.856c0.045-0.492,0.09-0.988,0.137-1.489c0.035-0.507,0.132-0.985,0.195-1.486
			c0.11-0.732,0.259-1.481,0.407-2.229c0.943,0.085,3.714,0.287,5.039-0.16c1.368-0.461,2.982-1.429,3.466-2.878
			c0.474-1.419-0.248-3.034-1.77-3.376c-2.112-0.475-4.987,2.165-5.968,3.83c-0.032,0.054-0.203,0.427-0.401,0.872
			c0.167-0.726,0.33-1.452,0.524-2.181c0.548-2.071,1.171-4.163,1.785-6.263c0.128-0.437,0.25-0.876,0.376-1.314
			c0.793,0.076,3.793,0.321,5.181-0.147c1.368-0.461,2.983-1.429,3.466-2.878c0.473-1.419-0.248-3.034-1.77-3.376
			c-2.111-0.475-4.987,2.165-5.968,3.83c-0.035,0.06-0.238,0.506-0.461,1.007c0.318-1.145,0.62-2.291,0.885-3.437
			c0.466-2.004,0.816-4.003,1.001-5.966c0.279,0.03,3.791,0.388,5.334-0.132c1.367-0.461,2.982-1.429,3.466-2.878
			C311.53,393.843,310.808,392.228,309.287,391.886z"/>
		<path d="M269.254,394.8c-0.029,0.027-1.133-2.36-1.186-2.518c-0.606-1.835-0.697-5.738,1.051-7.014
			c1.259-0.919,2.95-0.398,3.705,0.893c0.772,1.318,0.437,3.17-0.118,4.503C272.056,392.229,269.256,394.798,269.254,394.8z"/>
	</g>
</g>
<g id="Plants_1">
	<g>
		<path style="fill:#92E3A9;stroke:#263238;stroke-miterlimit:10;" d="M195.434,353.947c0,16.005-4.946,28.979-11.048,28.979
			c-6.102,0-11.048-12.974-11.048-28.979c0-16.005,4.946-28.979,11.048-28.979C190.488,324.968,195.434,337.942,195.434,353.947z"/>
		<path style="fill:#92E3A9;stroke:#263238;stroke-miterlimit:10;" d="M218.713,336.076c-3.454,10.87-10.089,18.464-14.82,16.961
			c-4.731-1.503-5.766-11.534-2.313-22.404c3.454-10.87,10.089-18.464,14.82-16.961
			C221.131,315.175,222.167,325.205,218.713,336.076z"/>
		<path style="fill:#92E3A9;stroke:#263238;stroke-miterlimit:10;" d="M137.647,401.622c-11.245-1.905-19.69-7.417-18.86-12.311
			c0.829-4.894,10.617-7.318,21.863-5.412c11.246,1.905,19.69,7.417,18.86,12.311C158.681,401.104,148.893,403.527,137.647,401.622z
			"/>
		<path style="fill:#92E3A9;stroke:#263238;stroke-miterlimit:10;" d="M229.114,374.832c-9.393,9.315-20.49,13.355-24.787,9.022
			c-4.297-4.333-0.165-15.396,9.227-24.711c9.393-9.316,20.49-13.355,24.787-9.022C242.638,354.453,238.507,365.517,229.114,374.832
			z"/>
		<path style="fill:#92E3A9;stroke:#263238;stroke-miterlimit:10;" d="M164.393,349.281c9.082,13.178,11.789,27.07,6.045,31.029
			c-5.744,3.96-17.763-3.514-26.846-16.692c-9.082-13.178-11.789-27.07-6.045-31.029C143.29,328.63,155.31,336.103,164.393,349.281z
			"/>
		
			<line style="fill:none;stroke:#263238;stroke-linecap:round;stroke-miterlimit:10;" x1="185.161" y1="381.479" x2="186.016" y2="436.573"/>
		
			<line style="fill:none;stroke:#263238;stroke-linecap:round;stroke-miterlimit:10;" x1="184.131" y1="343.172" x2="185.161" y2="381.479"/>
		
			<line style="fill:none;stroke:#263238;stroke-linecap:round;stroke-miterlimit:10;" x1="184.205" y1="336.922" x2="184.131" y2="339.857"/>
		<path style="fill:none;stroke:#263238;stroke-linecap:round;stroke-miterlimit:10;" d="M170.396,378.428
			c5.538,11.631,10.041,25.758,10.912,41.808v16.337"/>
		<path style="fill:none;stroke:#263238;stroke-linecap:round;stroke-miterlimit:10;" d="M151.418,349.393
			c5.15,5.946,12.724,15.899,18.978,29.035"/>
		<path style="fill:none;stroke:#263238;stroke-linecap:round;stroke-miterlimit:10;" d="M145.446,343.08
			c0,0,1.146,1.046,3.028,3.048"/>
		<path style="fill:none;stroke:#263238;stroke-linecap:round;stroke-miterlimit:10;" d="M205.014,382.518
			c-6.446,8.909-12.919,20.569-17.911,35.544"/>
		<path style="fill:none;stroke:#263238;stroke-linecap:round;stroke-miterlimit:10;" d="M217.724,367.913
			c-3.901,3.7-8.299,8.508-12.71,14.605"/>
		<path style="fill:none;stroke:#263238;stroke-linecap:round;stroke-miterlimit:10;" d="M231.296,357.569
			c0,0-3.941,2.02-9.678,6.858"/>
		<path style="fill:none;stroke:#263238;stroke-linecap:round;stroke-miterlimit:10;" d="M204.549,350.343
			c-6.12,19.261-14.336,47.723-18.17,72.429"/>
		<path style="fill:none;stroke:#263238;stroke-linecap:round;stroke-miterlimit:10;" d="M208.278,338.918
			c-1.089,3.248-2.356,7.105-3.729,11.425"/>
		<path style="fill:none;stroke:#263238;stroke-linecap:round;stroke-miterlimit:10;" d="M212.097,327.866
			c0,0-1.07,2.948-2.791,8.006"/>
		<path style="fill:none;stroke:#263238;stroke-linecap:round;stroke-miterlimit:10;" d="M158.944,393.541
			c7.646,2.899,18.104,10.988,21.732,21.583"/>
		<path style="fill:none;stroke:#263238;stroke-linecap:round;stroke-miterlimit:10;" d="M144.819,390.669
			c4.116,0.242,9.159,0.989,14.126,2.872"/>
		<path style="fill:none;stroke:#263238;stroke-linecap:round;stroke-miterlimit:10;" d="M135.666,390.895
			c0,0,1.361-0.194,3.607-0.282"/>
		<path style="fill:#92E3A9;stroke:#263238;stroke-miterlimit:10;" d="M159.706,443.996c-10.335,4.826-20.415,5.091-22.515,0.593
			c-2.1-4.498,4.575-12.056,14.91-16.882s20.415-5.091,22.515-0.593C176.717,431.612,170.041,439.17,159.706,443.996z"/>
		<path style="fill:none;stroke:#263238;stroke-linecap:round;stroke-miterlimit:10;" d="M159.379,430.907
			c3.524-2.141,8.097-4.393,13.254-5.667c0,0,3.454-2.305,7.111,0.133c1.398,0.932,0.932,7.92,0.932,7.92v3.279"/>
		<path style="fill:none;stroke:#263238;stroke-linecap:round;stroke-miterlimit:10;" d="M151.978,436.297
			c0,0,1.009-0.934,2.806-2.282"/>
		<path style="fill:#92E3A9;stroke:#263238;stroke-miterlimit:10;" d="M233.884,401.622c11.245-1.905,19.69-7.417,18.861-12.311
			c-0.829-4.894-10.618-7.318-21.863-5.412c-11.246,1.905-19.69,7.417-18.86,12.311C212.85,401.104,222.638,403.527,233.884,401.622
			z"/>
		<path style="fill:none;stroke:#263238;stroke-linecap:round;stroke-miterlimit:10;" d="M212.829,393.45
			c-1.347,0.501-2.689,1.084-4.008,1.763c-9.293,4.785-14.975,14.534-14.975,24.986v16.216"/>
		<path style="fill:none;stroke:#263238;stroke-linecap:round;stroke-miterlimit:10;" d="M227.896,390.611
			c-4.246,0.161-9.691,0.841-15.067,2.838"/>
		<path style="fill:none;stroke:#263238;stroke-linecap:round;stroke-miterlimit:10;" d="M235.865,390.895
			c0,0-0.897-0.128-2.435-0.223"/>
		<path style="fill:#92E3A9;stroke:#263238;stroke-miterlimit:10;" d="M222.594,434.529c9.882,5.696,19.902,6.826,22.381,2.526
			c2.479-4.301-3.522-12.405-13.404-18.1c-9.882-5.696-19.902-6.826-22.381-2.525C206.711,420.729,212.712,428.833,222.594,434.529z
			"/>
		<path style="fill:none;stroke:#263238;stroke-linecap:round;stroke-miterlimit:10;" d="M224.993,422.227
			c-3.376-2.581-8.006-5.526-13.422-7.411c0,0-12.258-2.022-15.054,5.898"/>
		<path style="fill:none;stroke:#263238;stroke-linecap:round;stroke-miterlimit:10;" d="M230.956,427.522
			c0,0-0.61-0.67-1.735-1.723"/>
		<path style="fill:#92E3A9;stroke:#263238;stroke-miterlimit:10;" d="M198.381,421.18c0,0-14.443-2.796-14.443,6.989
			c0,9.784,10.25,17.705,14.443,28.887c4.193,11.182,12.114,11.648,16.307,0.466C218.881,446.34,212.824,425.839,198.381,421.18z"/>
		<path style="fill:none;stroke:#263238;stroke-miterlimit:10;" d="M188.597,421.646c0,0,12.58,5.125,16.307,21.432"/>
	</g>
	<g>
		<path style="fill:#92E3A9;stroke:#263238;stroke-miterlimit:10;" d="M554.12,364.667c0,14.469,4.472,26.198,9.988,26.198
			c5.516,0,9.988-11.729,9.988-26.198c0-14.469-4.472-26.199-9.988-26.199C558.592,338.468,554.12,350.197,554.12,364.667z"/>
		<path style="fill:#92E3A9;stroke:#263238;stroke-miterlimit:10;" d="M533.075,348.51c3.122,9.827,9.121,16.692,13.398,15.334
			c4.277-1.359,5.213-10.427,2.091-20.254c-3.122-9.827-9.121-16.692-13.398-15.333C530.889,329.614,529.953,338.683,533.075,348.51
			z"/>
		<path style="fill:#92E3A9;stroke:#263238;stroke-miterlimit:10;" d="M606.363,407.768c10.167-1.722,17.801-6.706,17.051-11.13
			c-0.749-4.425-9.599-6.616-19.765-4.893c-10.167,1.722-17.801,6.705-17.051,11.13C587.347,407.3,596.197,409.49,606.363,407.768z"
			/>
		<path style="fill:#92E3A9;stroke:#263238;stroke-miterlimit:10;" d="M523.672,383.548c8.492,8.421,18.524,12.073,22.409,8.156
			c3.884-3.917,0.15-13.919-8.342-22.34c-8.492-8.422-18.524-12.073-22.409-8.157C511.446,365.124,515.181,375.126,523.672,383.548z
			"/>
		<path style="fill:#92E3A9;stroke:#263238;stroke-miterlimit:10;" d="M582.184,360.448c-8.211,11.914-10.658,24.473-5.465,28.052
			c5.193,3.58,16.059-3.177,24.271-15.09c8.211-11.914,10.658-24.473,5.465-28.052C601.262,341.779,590.395,348.535,582.184,360.448
			z"/>
		
			<line style="fill:none;stroke:#263238;stroke-linecap:round;stroke-miterlimit:10;" x1="563.408" y1="389.558" x2="562.635" y2="439.365"/>
		
			<line style="fill:none;stroke:#263238;stroke-linecap:round;stroke-miterlimit:10;" x1="564.339" y1="354.925" x2="563.408" y2="389.558"/>
		
			<line style="fill:none;stroke:#263238;stroke-linecap:round;stroke-miterlimit:10;" x1="564.272" y1="349.275" x2="564.339" y2="351.928"/>
		<path style="fill:none;stroke:#263238;stroke-linecap:round;stroke-miterlimit:10;" d="M576.757,386.799
			c-5.006,10.515-9.078,23.287-9.865,37.797v14.77"/>
		<path style="fill:none;stroke:#263238;stroke-linecap:round;stroke-miterlimit:10;" d="M593.914,360.55
			c-4.656,5.375-11.503,14.373-17.157,26.249"/>
		<path style="fill:none;stroke:#263238;stroke-linecap:round;stroke-miterlimit:10;" d="M599.313,354.842
			c0,0-1.036,0.946-2.738,2.756"/>
		<path style="fill:none;stroke:#263238;stroke-linecap:round;stroke-miterlimit:10;" d="M545.46,390.497
			c5.827,8.054,11.68,18.596,16.192,32.134"/>
		<path style="fill:none;stroke:#263238;stroke-linecap:round;stroke-miterlimit:10;" d="M533.969,377.293
			c3.527,3.345,7.503,7.692,11.491,13.204"/>
		<path style="fill:none;stroke:#263238;stroke-linecap:round;stroke-miterlimit:10;" d="M521.7,367.941c0,0,3.562,1.826,8.75,6.2"
			/>
		<path style="fill:none;stroke:#263238;stroke-linecap:round;stroke-miterlimit:10;" d="M545.881,361.408
			c5.533,17.413,12.961,43.145,16.427,65.48"/>
		<path style="fill:none;stroke:#263238;stroke-linecap:round;stroke-miterlimit:10;" d="M542.509,351.079
			c0.984,2.936,2.13,6.424,3.371,10.329"/>
		<path style="fill:none;stroke:#263238;stroke-linecap:round;stroke-miterlimit:10;" d="M539.056,341.088
			c0,0,0.968,2.665,2.524,7.238"/>
		<path style="fill:none;stroke:#263238;stroke-linecap:round;stroke-miterlimit:10;" d="M587.11,400.462
			c-6.913,2.621-16.367,9.934-19.647,19.512"/>
		<path style="fill:none;stroke:#263238;stroke-linecap:round;stroke-miterlimit:10;" d="M599.88,397.865
			c-3.721,0.219-8.28,0.894-12.77,2.596"/>
		<path style="fill:none;stroke:#263238;stroke-linecap:round;stroke-miterlimit:10;" d="M608.155,398.07
			c0,0-1.231-0.176-3.26-0.255"/>
		<path style="fill:#92E3A9;stroke:#263238;stroke-miterlimit:10;" d="M586.421,446.076c9.343,4.363,18.456,4.603,20.355,0.536
			c1.899-4.066-4.136-10.899-13.479-15.262c-9.343-4.362-18.456-4.602-20.355-0.536
			C571.043,434.881,577.077,441.714,586.421,446.076z"/>
		<path style="fill:none;stroke:#263238;stroke-linecap:round;stroke-miterlimit:10;" d="M586.716,434.243
			c-3.186-1.935-7.32-3.972-11.982-5.124c0,0-3.123-2.084-6.429,0.121c-1.264,0.842-0.842,7.161-0.842,7.161v2.964"/>
		<path style="fill:none;stroke:#263238;stroke-linecap:round;stroke-miterlimit:10;" d="M593.408,439.116
			c0,0-0.913-0.844-2.537-2.063"/>
		<path style="fill:#92E3A9;stroke:#263238;stroke-miterlimit:10;" d="M519.36,407.768c-10.167-1.722-17.801-6.706-17.051-11.13
			c0.75-4.425,9.599-6.616,19.765-4.893c10.167,1.722,17.801,6.705,17.051,11.13C538.376,407.3,529.527,409.49,519.36,407.768z"/>
		<path style="fill:none;stroke:#263238;stroke-linecap:round;stroke-miterlimit:10;" d="M538.395,400.379
			c1.218,0.453,2.431,0.98,3.623,1.594c8.402,4.326,13.539,13.139,13.539,22.589v14.66"/>
		<path style="fill:none;stroke:#263238;stroke-linecap:round;stroke-miterlimit:10;" d="M524.773,397.814
			c3.839,0.146,8.762,0.76,13.621,2.566"/>
		<path style="fill:none;stroke:#263238;stroke-linecap:round;stroke-miterlimit:10;" d="M517.568,398.07
			c0,0,0.811-0.116,2.202-0.202"/>
		<path style="fill:#92E3A9;stroke:#263238;stroke-miterlimit:10;" d="M529.567,437.517c-8.934,5.149-17.993,6.171-20.234,2.283
			c-2.241-3.888,3.184-11.214,12.118-16.364c8.934-5.149,17.993-6.171,20.234-2.283
			C543.926,425.042,538.501,432.368,529.567,437.517z"/>
		<path style="fill:none;stroke:#263238;stroke-linecap:round;stroke-miterlimit:10;" d="M527.398,426.396
			c3.052-2.333,7.238-4.996,12.134-6.7c0,0,11.082-1.828,13.609,5.333"/>
		<path style="fill:none;stroke:#263238;stroke-linecap:round;stroke-miterlimit:10;" d="M522.007,431.183
			c0,0,0.551-0.606,1.568-1.558"/>
		<path style="fill:#92E3A9;stroke:#263238;stroke-miterlimit:10;" d="M551.456,425.449c0,0,13.058-2.527,13.058,6.318
			c0,8.846-9.267,16.006-13.058,26.115c-3.791,10.109-10.951,10.53-14.742,0.421C532.923,448.195,538.399,429.662,551.456,425.449z"
			/>
		<path style="fill:none;stroke:#263238;stroke-miterlimit:10;" d="M560.302,425.871c0,0-11.373,4.633-14.742,19.376"/>
	</g>
</g>
<g id="Characters">
	<g>
		<g>
			<path style="fill:#92E3A9;stroke:#263238;stroke-miterlimit:10;" d="M403.821,430.052l-4.822,6.375c0,0-7.16,6.068-8.859,6.796
				c-1.699,0.728-6.432,1.699-5.947,4.854c0.486,3.155,4.005,6.917,11.529,6.796c7.524-0.121,16.019-4.369,16.383-4.49
				c0.364-0.121,8.616-0.849,9.587-3.641c0.971-2.791,0.113-7.546,0.113-7.546S410.221,429.987,403.821,430.052z"/>
			<path style="fill:#FFFFFF;stroke:#263238;stroke-linecap:round;stroke-linejoin:round;stroke-miterlimit:10;" d="
				M421.693,446.742c0.272-0.782,0.398-1.719,0.441-2.662c-2.34,0.855-6.194,2.219-8.451,2.783
				c-3.398,0.849-8.131,5.34-17.354,5.582c-5.935,0.156-9.698-1.544-11.635-2.778c1.263,2.7,4.745,5.306,11.028,5.205
				c7.524-0.121,16.019-4.369,16.383-4.49C412.47,450.261,420.722,449.533,421.693,446.742z"/>
		</g>
		<path style="fill:#263238;stroke:#263238;stroke-linecap:round;stroke-linejoin:round;stroke-miterlimit:10;" d="M443.754,259.042
			c0,0,3.353,23.167,3.048,35.665c-0.305,12.498-1.829,65.234-1.829,65.234s6.097,19.814,7.926,38.714
			c1.829,18.9,1.829,34.141,1.829,34.141s1.219,1.829,0.914,3.963c-0.305,2.134-1.219,7.926-1.219,7.926l-18.899-3.353
			c0,0,0-4.268,0-5.792c0-1.524,0.914-6.097,0.914-6.097s-5.792-7.011-5.792-10.364s-8.535-52.126-8.535-52.126l-5.182-18.29
			c0,0,7.316,60.052,7.621,64.929c0.305,4.877-1.829,17.375-1.829,17.375l-0.914,8.23c0,0-6.097-4.572-9.145-5.792
			c-3.048-1.219-8.84-3.353-8.84-3.353l-2.134-27.74l-10.364-65.234l-6.706-47.858l-4.778-23.972L443.754,259.042z"/>
		<g>
			<path style="fill:#92E3A9;stroke:#263238;stroke-miterlimit:10;" d="M454.423,444.684c0,0-7.609-3.888-11.614-4.616
				c-4.005-0.728-7.285,1.263-7.285,1.263l-4.365,12.086c0,0-4.612,6.796-3.277,9.466c1.335,2.67,15.048,3.641,18.325,3.641
				c3.277,0,6.917-2.184,7.646-4.126c0.728-1.942,0.728-6.553,0.728-6.553L454.423,444.684z"/>
			<path style="fill:#FFFFFF;stroke:#263238;stroke-miterlimit:10;" d="M453.852,462.397c0.136-0.363,0.247-0.82,0.337-1.323
				c-1.797,0.976-4.88,2.095-8.225,2.294c-7.667,0.456-15.056-1.489-18.25-2.482c-0.121,0.77-0.097,1.466,0.168,1.997
				c1.335,2.67,15.048,3.641,18.325,3.641C449.483,466.523,453.124,464.339,453.852,462.397z"/>
		</g>
		<path style="fill:#92E3A9;stroke:#263238;stroke-miterlimit:10;" d="M395.107,162.007c0,0-8.543,1.272-12.36,3.454
			c-3.817,2.181-4.362,5.453-4.362,5.453l1.454,94.335h63.253c0,0,3.09-0.182,3.635-2.908c0.545-2.726,0-9.27,0-9.815
			s0.545-23.811,0.545-23.811s2.181-60.709-1.272-64.526c-3.453-3.817-23.266-7.452-23.266-7.452L395.107,162.007z"/>
		
			<line style="fill:none;stroke:#263238;stroke-linecap:round;stroke-linejoin:round;stroke-miterlimit:10;" x1="396.141" y1="185.87" x2="396.502" y2="209.725"/>
		<path style="fill:none;stroke:#263238;stroke-linecap:round;stroke-linejoin:round;stroke-miterlimit:10;" d="M426.824,207.28
			c2.931,1.813,5.732,3.259,7.991,3.891"/>
		<path style="fill:none;stroke:#263238;stroke-linecap:round;stroke-linejoin:round;stroke-miterlimit:10;" d="M408.068,193.099
			c0,0,8.281,7.267,16.407,12.671"/>
		<path style="fill:none;stroke:#263238;stroke-linecap:round;stroke-linejoin:round;stroke-miterlimit:10;" d="M420.719,210.087
			c0,0,13.373,8.313,16.626,9.398"/>
		<path style="fill:#92E3A9;stroke:#263238;stroke-miterlimit:10;" d="M394.925,158.917c0,0-3.09,1.636-4.362,4.181
			c-1.272,2.545-5.063,13.451-3.427,13.814c1.636,0.364,5.842-3.286,5.842-3.286l4.017,5.842c0,0,1.999,1.272,3.453,0
			c1.454-1.272,6.291-9.1,7.018-9.827c0.727-0.727,3.09,0.182,3.09,0.182s1.054,6.537,3.235,5.629
			c2.181-0.909,11.851-17.08,9.852-19.988s-4.544-3.999-6.18-4.18C415.828,151.101,394.925,158.917,394.925,158.917z"/>
		<path style="fill:#FFFFFF;stroke:#263238;stroke-linecap:round;stroke-linejoin:round;stroke-miterlimit:10;" d="M392.926,155.463
			c0,0,1.272,2.727,1.272,4.908c0,2.181,1.343,16.007,2.797,19.097c1.454,3.09,6.655-10.554,12.471-15.644
			c5.816-5.089,6.907-9.633,6.907-9.633s-4.362-3.272-5.453-6.907c-1.091-3.635-2.545-6.543-2.545-6.543L392.926,155.463z"/>
		<polygon style="fill:#263238;stroke:#263238;stroke-linecap:round;stroke-linejoin:round;stroke-miterlimit:10;" points="
			403.681,154.179 395.166,166.606 392.926,155.463 		"/>
		<g>
			<path style="fill:#FFFFFF;stroke:#263238;stroke-linecap:round;stroke-linejoin:round;stroke-miterlimit:10;" d="
				M379.665,110.994c-1.982,2.023-2.934,4.835-2.59,7.646c0.129,1.054,0.219,2.353,0.219,3.924c0,5.453,2.363,19.812,5.271,25.447
				c2.908,5.635,8.361,10.542,12.36,10.906c3.999,0.363,8.906-3.09,11.451-5.271c2.545-2.181,4.362-7.089,4.544-9.452
				c0.182-2.363,0.545-6.18,0.545-6.18s2.545-5.453,1.454-9.088c-1.091-3.635-2.908-2.363-2.908-2.363s0.363-9.088-3.635-15.268
				c-3.999-6.18-14.359-7.089-19.267-5.635C384.597,106.405,381.798,108.817,379.665,110.994z"/>
			<path style="fill:#263238;" d="M386.809,135.154c0.319,1.005,0.034,1.991-0.635,2.204c-0.67,0.213-1.471-0.43-1.79-1.434
				c-0.319-1.005-0.034-1.991,0.635-2.204C385.688,133.507,386.49,134.149,386.809,135.154z"/>
			<path style="fill:#263238;" d="M398.623,133.791c0.319,1.005,0.034,1.991-0.635,2.204c-0.67,0.213-1.471-0.43-1.79-1.434
				c-0.319-1.005-0.034-1.991,0.635-2.204C397.503,132.144,398.304,132.786,398.623,133.791z"/>
			<path style="fill:none;stroke:#263238;stroke-linecap:round;stroke-linejoin:round;stroke-miterlimit:10;" d="M379.294,133.47
				c0,0,3.453-2.908,6.362-1.454"/>
			<path style="fill:none;stroke:#263238;stroke-linecap:round;stroke-linejoin:round;stroke-miterlimit:10;" d="M392.926,130.38
				c0,0,3.999-2.545,6.907,0.545"/>
			<path style="fill:none;stroke:#263238;stroke-linecap:round;stroke-linejoin:round;stroke-miterlimit:10;" d="M388.927,142.921
				c0,0,0,2.363,2.545,2.363c2.545,0,3.817-1.999,3.817-1.999"/>
			<path style="fill:none;stroke:#263238;stroke-linecap:round;stroke-linejoin:round;stroke-miterlimit:10;" d="M388.2,148.193
				c0,0,5.816,2.363,11.087-1.999"/>
		</g>
		<path style="fill:#263238;stroke:#263238;stroke-miterlimit:10;" d="M344.77,106.755c0,0-6.887-3.443-10.174-1.878
			c-3.287,1.565-10.8,11.113-12.209,17.531c-1.409,6.418,4.226,12.365,4.226,12.365s-10.957,2.191-10.487,8.609
			c0.47,6.417,5.322,8.922,5.165,9.391c-0.156,0.47-5.635,0.783-7.2,5.165c-1.565,4.383,1.722,8.765,4.696,10.487
			c2.974,1.722,46.801,4.226,51.027,2.974c4.226-1.252,9.934-1.618,8.994-5.687c-0.939-4.07-5.009-8.296-5.165-9.078
			c-0.157-0.783,3.757-2.035,2.348-8.609c-1.409-6.574-8.773-10.372-9.556-14.129c-0.783-3.757-3.352-8.358-3.978-10.393
			C362.457,123.503,348.996,108.164,344.77,106.755z"/>
		<path style="fill:#FFFFFF;stroke:#263238;stroke-linecap:round;stroke-linejoin:round;stroke-miterlimit:10;" d="M360.109,128.512
			c0,0,2.974-4.07,3.757-2.504c0.783,1.565,1.252,6.261,0.626,8.609c-0.626,2.348-2.504,3.757-2.504,3.757L360.109,128.512z"/>
		<path style="fill:#FFFFFF;stroke:#263238;stroke-miterlimit:10;" d="M343.548,436.192c0,0-0.597,7.958-1.194,10.146
			c-0.597,2.188-5.968,16.91-2.785,18.502c3.183,1.592,10.942,1.791,13.926-0.995c2.984-2.785-0.995-18.303-0.995-18.303
			l2.785-8.754L343.548,436.192z"/>
		<g>
			<path style="fill:#FFFFFF;stroke:#263238;stroke-miterlimit:10;" d="M325.842,431.417l-3.183,7.361
				c0,0-8.157,16.712-6.565,21.685c1.592,4.974,9.947,2.188,11.937,0.398c1.99-1.791,3.979-8.356,5.173-13.727
				c1.194-5.372,1.194-14.125,1.194-14.125L325.842,431.417z"/>
			<path style="fill:#263238;stroke:#263238;stroke-linecap:round;stroke-linejoin:round;stroke-miterlimit:10;" d="
				M332.125,451.456c-1.971,1.689-4.741,3.529-7.875,4.034c-4.224,0.681-6.02-2.276-6.734-4.208
				c-1.226,3.714-2.027,7.293-1.423,9.181c1.592,4.974,9.947,2.188,11.937,0.398C329.503,459.536,330.975,455.593,332.125,451.456z"
				/>
		</g>
		<path style="fill:#263238;stroke:#263238;stroke-linecap:round;stroke-linejoin:round;stroke-miterlimit:10;" d="M348.124,458.076
			c-4.377,0.398-7.958-3.979-7.958-3.979l-0.19,0.052c-1.266,4.667-2.211,9.789-0.406,10.691c3.183,1.592,10.942,1.791,13.926-0.995
			c1.402-1.309,1.267-5.43,0.729-9.432C352.883,455.933,350.717,457.84,348.124,458.076z"/>
		<path style="fill:#263238;stroke:#263238;stroke-linecap:round;stroke-linejoin:round;stroke-miterlimit:10;" d="M312.631,258.692
			c0,0-4.589,19.215-0.86,39.003c3.728,19.788,17.207,57.358,17.207,57.358l-7.743,80.681l14.626,1.434l8.604-34.221l-2.294,35.849
			l14.913,1.434c0,0,10.611-70.263,11.758-82.308c1.147-12.045,10.324-28.966,11.185-55.35c0.86-26.385-0.187-37.324-0.187-37.324
			L312.631,258.692z"/>
		<g>
			<path style="fill:#92E3A9;stroke:#263238;stroke-miterlimit:10;" d="M335.848,160.286c0,0-10.644-0.783-14.4,0.783
				c-3.757,1.565-2.504,21.913-2.504,21.913l1.409,40.853l-13.461,38.818c0,0,10.957,5.322,25.513,10.957
				c14.557,5.635,35.844,3.13,38.035,2.035c2.191-1.096,10.331-7.043,10.331-7.043l-0.939-62.766c0,0,8.296-25.513,6.418-30.835
				c-1.878-5.322-9.704-6.574-12.209-7.67c-2.504-1.096-7.2-2.191-7.2-2.191L335.848,160.286z"/>
			
				<line style="fill:none;stroke:#263238;stroke-linecap:round;stroke-linejoin:round;stroke-miterlimit:10;" x1="342.222" y1="227.303" x2="358.384" y2="215.081"/>
			
				<line style="fill:none;stroke:#263238;stroke-linecap:round;stroke-linejoin:round;stroke-miterlimit:10;" x1="340.031" y1="224.747" x2="351.351" y2="216.713"/>
		</g>
		<path style="fill:#FFFFFF;stroke:#263238;stroke-miterlimit:10;" d="M346.022,159.034c0,0-4.696-1.878-5.322-1.722
			c-0.626,0.157-6.574,2.035-7.044,2.817c-0.47,0.783,0.313,10.018,0.626,12.365c0.313,2.348-0.157,4.226,1.565,4.226
			s12.991-2.817,12.991-2.817h16.279c0,0,5.322,6.104,6.73,5.322c1.409-0.783-0.47-11.583-4.539-16.435
			c-4.07-4.852-8.922-6.417-8.922-6.417L346.022,159.034z"/>
		<path style="fill:#FFFFFF;stroke:#263238;stroke-miterlimit:10;" d="M343.361,151.208c0,0,1.252,6.104,0.939,7.513
			c-0.313,1.409-1.371,4.531-1.058,5.94c0.313,1.409,11.545,23.643,13.579,24.582c2.035,0.939,7.2-14.557,7.67-21.287
			s-3.287-9.391-3.287-9.391l-1.878-12.052L343.361,151.208z"/>
		<g>
			<path style="fill:#FFFFFF;stroke:#263238;stroke-linecap:round;stroke-linejoin:round;stroke-miterlimit:10;" d="
				M343.361,114.268c0,0-9.861,2.661-11.583,7.983c-1.722,5.322,0.157,17.687,4.852,24.105c4.696,6.417,11.896,8.922,15.339,7.826
				c3.444-1.096,8.452-5.791,9.235-9.704c0.783-3.913,3.13-11.426-1.878-20.035C354.318,115.833,343.361,114.268,343.361,114.268z"
				/>
			<path style="fill:none;stroke:#263238;stroke-linecap:round;stroke-linejoin:round;stroke-miterlimit:10;" d="M344.457,136.964
				c0,0,0,2.348,0.783,2.661c0.783,0.313,2.974,0.47,3.444-1.252"/>
			<path style="fill:none;stroke:#263238;stroke-linecap:round;stroke-linejoin:round;stroke-miterlimit:10;" d="M344.301,143.851
				c0,0,5.635,0,8.765-3.287"/>
			<path style="fill:#263238;" d="M340.606,132.382c0.21,0.927-0.098,1.788-0.688,1.921c-0.59,0.134-1.239-0.51-1.449-1.437
				c-0.21-0.927,0.098-1.787,0.688-1.921C339.747,130.811,340.396,131.454,340.606,132.382z"/>
			<path style="fill:#263238;" d="M352.189,129.095c0.21,0.927-0.098,1.788-0.688,1.921c-0.59,0.134-1.239-0.51-1.449-1.437
				c-0.21-0.928,0.098-1.788,0.688-1.921S351.979,128.167,352.189,129.095z"/>
			<path style="fill:none;stroke:#263238;stroke-linecap:round;stroke-linejoin:round;stroke-miterlimit:10;" d="M346.335,126.321
				c0,0,3.757-3.6,7.2-2.348"/>
			<path style="fill:#FFFFFF;stroke:#263238;stroke-linecap:round;stroke-linejoin:round;stroke-miterlimit:10;" d="
				M340.231,128.825c0,0-4.226-2.191-6.574,2.974"/>
		</g>
		<path style="fill:#263238;stroke:#263238;stroke-miterlimit:10;" d="M342.109,114.112c0,0,0.442,0.475,1.156,1.191
			c1.495,1.499,4.183,4.057,6.513,5.539c3.444,2.191,7.983,3.6,7.983,3.6l3.6,4.383c0,0,3.757-3.6,0.47-10.644
			c-3.287-7.044-12.678-13.931-15.809-12.209C342.892,107.694,340.231,109.573,342.109,114.112z"/>
		<path style="fill:#92E3A9;stroke:#263238;stroke-miterlimit:10;" d="M431.46,184.182l8.995,34.076l28.336-6.725
			c0,0-14.611-39.166-16.792-42.074c-2.181-2.908-6.725-6.362-10.724-6.725"/>
		<g>
			<path style="fill:#9E9E9E;stroke:#263238;stroke-miterlimit:10;" d="M358.243,257.62c0,0-8.21,4.315-8.95,9.121
				c-0.74,4.806-3.327,31.795-3.327,31.795s-2.588,8.873-2.773,17.007c-0.185,8.134,0.924,20.704,0.924,20.704l8.503,0.185
				l5.176-29.577l1.664-47.323L358.243,257.62z"/>
			<path style="fill:#9E9E9E;stroke:#263238;stroke-miterlimit:10;" d="M406.783,254.91c0,0,5.546,0.739,7.394,10.352
				c1.849,9.612,2.773,30.316,4.621,43.072c1.849,12.755,0.37,30.316,0.37,30.316l-7.209-0.37c0,0-6.285-30.316-6.655-33.459
				c-0.37-3.143-0.924-6.655-0.924-6.655L406.783,254.91z"/>
			<path style="fill:#9E9E9E;stroke:#263238;stroke-miterlimit:10;" d="M374.723,251.704c0,0-12.818,4.367-16.481,5.916
				c-3.662,1.549-0.141,50.992-0.141,50.992s-2.395,10.142-1.972,11.269c0.423,1.127,46.625,3.803,47.752,2.395
				s1.549-26.623,1.549-26.623s3.099-37.187,2.817-39.864c-0.282-2.676-16.621-3.803-20.002-4.367S374.723,251.704,374.723,251.704z
				"/>
			<g>
				<g>
					<path style="fill:#FFFFFF;stroke:#263238;stroke-miterlimit:10;" d="M386.481,369.488l8.437,42.184
						c0,0,0.662,27.792,0.992,29.777c0.331,1.985-3.639,12.242-5.294,15.385c-1.654,3.143-3.805,10.091-0.992,11.911
						c2.812,1.82,4.466,3.309,9.264,0.993c4.797-2.316,5.459-14.723,5.294-22.498s4.797-21.836,6.121-29.942
						c1.323-8.106-1.985-19.686-1.985-19.686l-0.496-29.446L386.481,369.488z"/>
					<g>
						<path style="fill:#263238;stroke:#263238;stroke-linecap:round;stroke-linejoin:round;stroke-miterlimit:10;" d="
							M404.182,447.238c-0.044-2.055,0.276-4.555,0.787-7.261c-4.221,1.138-7.497-1.087-9.307-2.836
							c0.092,2.267,0.178,3.882,0.248,4.307c0.331,1.985-3.639,12.241-5.294,15.385s-3.805,10.091-0.993,11.911
							c2.812,1.82,4.467,3.309,9.264,0.993C403.685,467.42,404.347,455.013,404.182,447.238z"/>
					</g>
				</g>
				<path style="fill:#FFFFFF;stroke:#263238;stroke-miterlimit:10;" d="M402.553,464.168c-1.627,2.325-3.047,2.987-5.11,3.632
					c-3.797,1.186-7.613-0.266-9.168-1.999c0.075,1.301,0.469,2.373,1.349,2.943c2.812,1.82,4.467,3.309,9.264,0.993
					C400.577,468.921,401.745,466.841,402.553,464.168z"/>
			</g>
			<g>
				<path style="fill:#FFFFFF;stroke:#263238;stroke-miterlimit:10;" d="M359.517,366.014l2.316,26.634
					c0,0-1.323,14.061,0.827,23.325c2.151,9.264,7.94,31.762,7.94,31.762s0.331,8.271,0.496,11.745c0.165,3.474,0,6.617,0.165,9.098
					c0.165,2.481,1.985,3.143,6.783,3.805c4.797,0.662,10.091,2.481,12.572,1.158c2.481-1.323,6.286-0.827,4.466-6.121
					c-1.82-5.294-13.73-7.113-16.377-24.318c-0.538-3.495,0.331-47.312,0.331-51.943c0-4.632-0.165-23.325-0.165-23.325
					L359.517,366.014z"/>
				<path style="fill:#263238;stroke:#263238;stroke-linecap:round;stroke-linejoin:round;stroke-miterlimit:10;" d="
					M379.297,446.109l-8.695,1.656c0.013,0.332,0.333,8.313,0.495,11.714c0.165,3.474,0,6.617,0.165,9.098
					c0.165,2.481,1.985,3.143,6.782,3.805c4.797,0.662,10.091,2.481,12.572,1.158c2.481-1.323,6.286-0.827,4.466-6.121
					C393.376,462.452,382.783,460.543,379.297,446.109z"/>
				<path style="fill:#FFFFFF;stroke:#263238;stroke-linecap:round;stroke-linejoin:round;stroke-miterlimit:10;" d="
					M395.414,468.624c-2.503,1.125-8.142,3.419-13.399,2.104c-5.955-1.489-10.753-2.151-10.753-2.151
					c0.165,2.481,1.985,3.143,6.782,3.805c4.797,0.662,10.091,2.481,12.572,1.158C392.889,472.328,396.259,472.629,395.414,468.624z
					"/>
			</g>
			<g>
				<path style="fill:#92E3A9;stroke:#263238;stroke-miterlimit:10;" d="M366.815,254.296l2.162,17.968
					c0,0-2.692,28.94-5.048,34.661c-2.356,5.721-11.778,15.48-11.778,15.48l0.168,47.28l28.772,1.683l0.337-3.029l2.019,3.533
					l27.258-2.356l-4.879-37.185l-0.673-11.946c0,0-1.346-19.181-2.019-23.556c-0.673-4.375-3.197-22.715-3.029-23.724
					c0.168-1.01,0.673-19.854,0.673-19.854l-4.711-0.673l-1.851,20.359l-20.022-1.178l-2.99-19.016L366.815,254.296z"/>
				<polyline style="fill:none;stroke:#263238;stroke-miterlimit:10;" points="395.73,284.379 373.689,283.537 374.53,298.344 
					385.13,309.281 396.235,299.185 396.235,286.398 				"/>
				<line style="fill:#FFFFFF;stroke:#263238;stroke-miterlimit:10;" x1="381.428" y1="368.339" x2="383.018" y2="349.564"/>
				<path style="fill:none;stroke:#263238;stroke-miterlimit:10;" d="M363.252,322.268c0,0,0.941,15.06-9.413,19.578"/>
				<path style="fill:none;stroke:#263238;stroke-miterlimit:10;" d="M400.714,324.715c0,0,0.188,9.413,4.706,15.06"/>
			</g>
			<path style="fill:#FFFFFF;stroke:#263238;stroke-miterlimit:10;" d="M372.892,246.492l0.282,8.592c0,0,5.916,7.184,9.86,4.93
				c3.944-2.254,6.48-7.466,6.48-7.466l-0.282-10.846L372.892,246.492z"/>
			<path style="fill:#263238;stroke:#263238;stroke-linecap:round;stroke-linejoin:round;stroke-miterlimit:10;" d="
				M371.202,207.756c0,0-8.733,0-12.818,7.325c-4.085,7.325-9.438,30.848-8.592,34.933c0.845,4.085,6.057,6.339,6.057,6.339
				s-5.353,5.212-3.803,8.592c1.549,3.381,9.015,8.733,9.015,8.733s-1.831,2.676-1.409,3.944c0.423,1.268,4.789,4.789,7.747,4.789
				c2.958,0,2.676-20.284,2.676-20.284s2.958-2.535,3.522-5.634c0.563-3.099-0.141-10.987-0.141-10.987l3.381-25.918
				c0,0,11.551,14.086,11.551,17.748c0,3.662,0.141,4.648,0.563,8.874c0.423,4.226-2.817,8.17-1.972,12.396
				c0.845,4.226,6.057,9.015,7.325,7.606c1.268-1.409,0.704-18.875,1.409-22.397c0.704-3.521,5.634-12.114,2.958-19.298
				c-2.676-7.184-7.466-14.368-14.931-17.044C376.273,204.798,372.751,204.657,371.202,207.756z"/>
			<path style="fill:#FFFFFF;stroke:#263238;stroke-miterlimit:10;" d="M375.85,216.912c0,0-7.606,3.381-9.156,7.747
				c-1.549,4.367-1.268,15.495,2.535,20.143c3.803,4.648,9.719,7.043,14.086,4.508c4.367-2.536,7.747-8.592,7.888-11.973
				c0.141-3.381-3.944-5.634-7.747-10.564C379.654,221.842,375.85,216.912,375.85,216.912z"/>
			<path style="fill:none;stroke:#263238;stroke-miterlimit:10;" d="M376.414,239.872c0,0,3.381,0.845,4.93-0.986"/>
			<path style="fill:none;stroke:#263238;stroke-miterlimit:10;" d="M375.709,242.548c0,0,4.93,2.395,8.452-2.254"/>
			<path style="fill:#263238;" d="M372.714,233.519c0.25,0.98-0.067,1.907-0.708,2.07c-0.641,0.163-1.363-0.498-1.613-1.478
				c-0.25-0.98,0.067-1.907,0.708-2.07C371.742,231.877,372.464,232.539,372.714,233.519z"/>
			<path style="fill:#263238;" d="M383.349,231.829c0.25,0.98-0.067,1.907-0.708,2.07c-0.641,0.163-1.363-0.499-1.613-1.479
				c-0.25-0.98,0.067-1.907,0.708-2.07C382.377,230.187,383.099,230.849,383.349,231.829z"/>
			<path style="fill:none;stroke:#263238;stroke-miterlimit:10;" d="M378.527,228.603c0,0,2.254-2.676,4.93-1.831"/>
			<path style="fill:none;stroke:#263238;stroke-miterlimit:10;" d="M373.315,230.153c0,0-2.395-1.831-5.775,0.986"/>
			<path style="fill:#FFFFFF;stroke:#263238;stroke-miterlimit:10;" d="M352.62,336.432l-0.09,8.67c0,0,1.691,12.965,1.832,13.388
				c0.141,0.423-1.409,1.127-2.114,0.705c-0.705-0.423-3.664-6.482-3.805-7.187c-0.141-0.705,0.282,5.919,0.564,6.764
				c0.282,0.846,3.664,3.241,3.664,3.241s1.691,1.691,0.845,2.255c-0.845,0.564-6.201-2.114-7.187-2.819
				c-0.987-0.705-4.65-9.865-4.369-10.992c0.282-1.127,2.537-9.301,2.537-9.301l-0.381-4.909L352.62,336.432z"/>
			<path style="fill:#FFFFFF;stroke:#263238;stroke-miterlimit:10;" d="M411.959,338.28c0,0-2.214,5.271-2.214,5.835
				s-0.987,8.455-0.987,8.455s-0.845,2.819,0.282,2.819c1.127,0,2.255-0.705,2.537-1.973s1.691-4.369,1.832-4.932
				c0.141-0.564,0.141,5.778,0.141,6.201c0,0.423-4.087,3.382-4.509,4.087c-0.423,0.705,0.846,2.114,2.114,1.268
				c1.268-0.845,4.51-1.55,5.214-2.537c0.705-0.986,3.664-5.073,3.664-7.187c0-2.114-1.973-11.697-1.973-11.697L411.959,338.28z"/>
		</g>
		<g>
			<path style="fill:#FFFFFF;stroke:#263238;stroke-linecap:round;stroke-linejoin:round;stroke-miterlimit:10;" d="M443.49,217.677
				l0.512,5.402c0,0-24.356,21.63-27.628,23.447s-6.18,2.545-6.18,2.545s-6.543-3.272-7.452-3.272c-0.909,0-5.816,1.272-9.27,2.726
				c-3.453,1.454-3.453,2.726-2.363,3.635c1.091,0.909,8.179-1.272,8.179-1.272l-0.909,2.181c0,0-7.452,4.726-9.27,6.18
				c-1.818,1.454-5.816,5.089-4.18,6.543c1.636,1.454,5.998-3.09,5.998-3.09l5.816-2.363c0,0-6.543,6.18-7.998,7.089
				c-1.454,0.909-4.181,2.363-2.908,3.635c1.272,1.272,3.453,0.182,3.453,0.182l6.725-3.635c0,0-4.908,4.726-4.726,5.453
				c0.182,0.727,1.091,1.091,2.363,0.727c1.272-0.363,3.09-1.636,3.09-1.636s-0.364,2.363,1.272,1.818
				c1.636-0.545,8.361-4.908,10.542-5.998c2.181-1.091,8.543-7.998,8.543-7.998s23.774-9.938,29.627-13.632
				c9.316-5.879,13.269-10.724,14.359-11.451c1.091-0.727,4.544-3.999,4.726-7.634c0.182-3.635-3.031-14.397-3.031-14.397
				L443.49,217.677z"/>
			
				<line style="fill:none;stroke:#263238;stroke-linecap:round;stroke-linejoin:round;stroke-miterlimit:10;" x1="396.016" y1="267.611" x2="402.014" y2="263.793"/>
			<polyline style="fill:none;stroke:#263238;stroke-linecap:round;stroke-linejoin:round;stroke-miterlimit:10;" points="
				396.743,272.155 402.014,269.065 404.559,267.065 			"/>
		</g>
		<g>
			<g>
				<path style="fill:#FFFFFF;stroke:#263238;stroke-miterlimit:10;" d="M350.249,268.444l7.043,8.922l3.913,9.704
					c0,0,3.13,4.383,2.817,5.322c-0.313,0.939-2.504,0.783-2.504,0.783l1.565,6.104c0,0,1.096,2.817,0.626,4.226
					s-1.878,0.783-1.878,0.783l-1.565-0.939c0,0-6.417-0.939-7.044-1.565c-0.626-0.626,0.939,1.565,0.47,2.348
					c-0.47,0.783-1.252,0-2.191-0.939c-0.939-0.939-3.444-3.757-4.226-5.635c-0.783-1.878-4.226-18.157-4.226-18.626
					c0-0.47-0.626-3.6-0.626-3.6L350.249,268.444z"/>
				<line style="fill:#FFFFFF;stroke:#263238;stroke-miterlimit:10;" x1="361.518" y1="293.175" x2="358.544" y2="286.444"/>
				<line style="fill:#FFFFFF;stroke:#263238;stroke-miterlimit:10;" x1="356.822" y1="294.114" x2="360.266" y2="303.349"/>
				<path style="fill:#FFFFFF;stroke:#263238;stroke-miterlimit:10;" d="M353.222,295.522c0,0,0.783,3.6,1.878,5.009
					c1.096,1.409,2.661,2.348,2.661,2.348"/>
				<path style="fill:#FFFFFF;stroke:#263238;stroke-miterlimit:10;" d="M349.779,295.992c0,0,0.156,3.287,3.444,5.791"/>
			</g>
			<path style="fill:#92E3A9;stroke:#263238;stroke-miterlimit:10;" d="M324.266,160.443c0,0-10.957,1.252-12.365,11.739
				c-1.409,10.487-1.878,41.322,0.783,48.679s23.635,48.522,23.635,48.522l12.209-5.322l-17.061-46.644l0.626-35.061"/>
			<path style="fill:#FFFFFF;stroke:#263238;stroke-miterlimit:10;" d="M348.996,258.896c0,0-7.826,2.661-10.8,4.539
				c-2.974,1.878-4.696,5.165-4.696,5.165l5.635,9.078l13.618-7.513L348.996,258.896z"/>
		</g>
		<path style="fill:#263238;stroke:#263238;stroke-linecap:round;stroke-linejoin:round;stroke-miterlimit:10;" d="M404.141,108.382
			c-0.122,0.049-0.22,0.122-0.322,0.19c-0.031-0.024-0.06-0.049-0.092-0.073L404.141,108.382c0,0,0.69-2.071-6.214-4.833
			c-6.904-2.762-17.03-1.841-16.57,0c0.322,1.289,3.009,1.807,4.593,2.002c-0.355,0.091-0.713,0.196-1.073,0.315
			c-2.873,0.347-7.83,1.24-10.654,3.437c-3.475,2.703-3.858,7.332-0.635,7.535c-0.949,3.492,1.159,5.708,4.057,3.549
			c1.242-0.925,2.283-1.647,3.135-2.212c0.074,1.07,0.267,2.026,0.875,2.026c1.454,0,8.361-5.089,8.906-5.453
			c0.545-0.364-1.272,3.999,1.454,3.272c2.726-0.727,8.361-5.998,8.361-5.998s-1.818,6.725,0.545,8.725
			c2.363,1.999,4.726,4.362,4.726,4.362l1.636,3.817c0,0,0.364,4.544,1.091,4.544c0.727,0,1.454-1.272,1.454-2.181s0-2.908,0-2.908
			l0.182-1.818c0,0,1.926-4.63,2.415-8.055C413.318,112.266,408.046,106.803,404.141,108.382z"/>
	</g>
</g>
<g id="Hands">
	<g>
		<path style="fill:#C7C7C7;stroke:#263238;stroke-linecap:round;stroke-linejoin:round;stroke-miterlimit:10;" d="M333.38,59.35
			c0,0,2.771,5.543-4.619,10.162c-7.391,4.619-24.482,6.467-24.482,6.467l9.238-19.401L333.38,59.35z"/>
		<path style="fill:#FFFFFF;stroke:#263238;stroke-linecap:round;stroke-linejoin:round;stroke-miterlimit:10;" d="M11.73,305.002
			c15.876-1.361,86.989-29.915,86.989-29.915s4.536,0,20.412-1.361c15.876-1.361,36.742-13.608,36.742-13.608
			s29.031-10.433,33.567-15.423c4.536-4.99,39.917-42.185,39.917-42.185s20.412-18.144,32.66-23.134
			c12.247-4.99,37.649-18.598,43.093-27.67c5.443-9.072-1.361-16.783-17.691-15.876c-16.33,0.907-33.567,7.258-42.639,14.515
			c-9.072,7.258-21.773,13.608-26.763,11.794c-4.99-1.814-3.629-20.412-3.629-20.412l23.587-25.402c0,0,21.773-8.618,35.381-15.876
			c13.608-7.258,8.165-15.876,8.165-15.876s27.216-3.175,31.752-6.35c4.536-3.175,4.99-13.155,4.99-13.155s0,0,4.536,0
			c4.536,0,10.887-1.361,15.876-7.258c4.99-5.897,1.814-12.701-7.711-13.608s-29.484-3.175-37.649-3.175
			c-8.165,0-45.814,4.99-54.433,8.618c-8.619,3.629-56.701,43.093-69.402,52.618c-12.701,9.526-13.155,16.33-19.959,28.577
			c-6.804,12.247-47.629,64.866-47.629,64.866s-41.721,16.237-68.484,19.866"/>
		<path style="opacity:0.2;" d="M237.976,116.325c0,0,21.773-8.618,35.381-15.876c7.251-3.867,9.092-8.12,9.23-11.251l-0.512,0.096
			c0,0-10.708,7.71-23.129,12.421c-12.421,4.712-18.846,5.997-27.412,8.995s-20.131,7.71-22.272,14.991
			s-31.267,56.538-33.409,70.244c-2.142,13.706-14.134,42.403-27.412,51.826c-13.278,9.423-47.115,10.708-47.115,10.708
			L34.393,298.98c26.629-8.757,64.326-23.893,64.326-23.893s4.536,0,20.412-1.361c15.876-1.361,36.742-13.608,36.742-13.608
			s29.031-10.433,33.567-15.423c4.536-4.99,39.917-42.185,39.917-42.185s20.412-18.144,32.66-23.134
			c12.247-4.99,37.649-18.598,43.093-27.67c5.443-9.072-1.361-16.783-17.691-15.876c-16.33,0.907-33.567,7.258-42.639,14.515
			c-9.072,7.258-21.773,13.608-26.763,11.794c-4.99-1.814-3.629-20.412-3.629-20.412L237.976,116.325z"/>
		<path style="fill:none;stroke:#263238;stroke-linecap:round;stroke-linejoin:round;stroke-miterlimit:10;" d="M11.73,305.002
			c15.876-1.361,86.989-29.915,86.989-29.915s4.536,0,20.412-1.361c15.876-1.361,36.742-13.608,36.742-13.608
			s29.031-10.433,33.567-15.423c4.536-4.99,39.917-42.185,39.917-42.185s20.412-18.144,32.66-23.134
			c12.247-4.99,37.649-18.598,43.093-27.67c5.443-9.072-1.361-16.783-17.691-15.876c-16.33,0.907-33.567,7.258-42.639,14.515
			c-9.072,7.258-21.773,13.608-26.763,11.794c-4.99-1.814-3.629-20.412-3.629-20.412l23.587-25.402c0,0,21.773-8.618,35.381-15.876
			c13.608-7.258,8.165-15.876,8.165-15.876s27.216-3.175,31.752-6.35c4.536-3.175,4.99-13.155,4.99-13.155s0,0,4.536,0
			c4.536,0,10.887-1.361,15.876-7.258c4.99-5.897,1.814-12.701-7.711-13.608s-29.484-3.175-37.649-3.175
			c-8.165,0-45.814,4.99-54.433,8.618c-8.619,3.629-56.701,43.093-69.402,52.618c-12.701,9.526-13.155,16.33-19.959,28.577
			c-6.804,12.247-47.629,64.866-47.629,64.866s-41.721,16.237-68.484,19.866"/>
		<path style="fill:none;stroke:#263238;stroke-linecap:round;stroke-linejoin:round;stroke-miterlimit:10;" d="M177.55,124.876
			c8.622-5.662,22.439-15.159,26.406-20.346c5.897-7.711,15.876-9.072,19.505-10.433c3.629-1.361,14.062-4.536,20.866-7.258
			c6.804-2.722,17.691-3.175,17.691-3.175l11.794-1.814c0,0,6.35-1.361,7.711,2.722"/>
		<path style="fill:none;stroke:#263238;stroke-linecap:round;stroke-linejoin:round;stroke-miterlimit:10;" d="M170.389,129.479
			c0,0,1.002-0.624,2.665-1.688"/>
		<path style="fill:none;stroke:#263238;stroke-linecap:round;stroke-linejoin:round;stroke-miterlimit:10;" d="M168.396,235.811
			c-2.462,4.537-5.006,8.446-7.533,11.152"/>
		<path style="fill:none;stroke:#263238;stroke-linecap:round;stroke-linejoin:round;stroke-miterlimit:10;" d="M237.976,116.325
			l-15.876,6.804l-15.423,26.309c0,0-4.082,13.608-8.618,20.866c-4.536,7.258-9.526,16.33-10.433,17.691
			c-0.64,0.959-7.366,23.109-15.729,40.863"/>
		<path style="fill:none;stroke:#263238;stroke-linecap:round;stroke-linejoin:round;stroke-miterlimit:10;" d="M202.81,79.473
			c-3.561,2.482-6.804,4.766-9.288,6.46"/>
		<path style="fill:none;stroke:#263238;stroke-linecap:round;stroke-linejoin:round;stroke-miterlimit:10;" d="M318.265,65.067
			c0,0-1.814-4.536-5.897-4.536c-4.082,0-18.598-0.907-24.495-1.361c-5.897-0.454-17.691,0-19.959,0
			c-2.268,0-30.392,2.722-36.289,3.175c-3.378,0.26-12.114,5.729-20.837,11.633"/>
		<path style="fill:none;stroke:#263238;stroke-linecap:round;stroke-linejoin:round;stroke-miterlimit:10;" d="M92.368,244.695
			c0,0,4.99,16.33,21.773,20.412"/>
		<path style="fill:none;stroke:#263238;stroke-linecap:round;stroke-linejoin:round;stroke-miterlimit:10;" d="M187.172,94.551
			l-10.433,11.34c0,0-9.979,6.351-17.237,15.423"/>
		<path style="fill:none;stroke:#263238;stroke-linecap:round;stroke-linejoin:round;stroke-miterlimit:10;" d="M279.106,83.965
			c0,0,0,2.134-3.467,4.534c-3.467,2.4-13.069,2.667-14.402,1.067c-1.334-1.6-1.334-1.6-1.334-1.6l1.6-1.867"/>
		<path style="fill:none;stroke:#263238;stroke-linecap:round;stroke-linejoin:round;stroke-miterlimit:10;" d="M314.312,62.628
			c0,0-2.134,5.068-4.534,5.334c-2.4,0.267-15.469-1.067-15.736-3.201c-0.267-2.134,1.333-2.134,1.333-2.134"/>
		<path style="fill:none;stroke:#263238;stroke-linecap:round;stroke-linejoin:round;stroke-miterlimit:10;" d="M335.382,46.626
			c0,0-4.534,3.467-7.201,4.267c-2.667,0.8-10.935,0.533-13.069-1.334c-2.134-1.867-0.267-5.067-0.267-5.067"/>
		<path style="fill:none;stroke:#263238;stroke-linecap:round;stroke-linejoin:round;stroke-miterlimit:10;" d="M218.83,165.312
			c0,0,11.735,16.803,10.135,24.537"/>
	</g>
	<g>
		<path style="fill:#C7C7C7;stroke:#263238;stroke-linecap:round;stroke-linejoin:round;stroke-miterlimit:10;" d="M423.757,59.35
			c0,0-2.772,5.543,4.619,10.162c7.391,4.619,24.482,6.467,24.482,6.467l-9.239-19.401L423.757,59.35z"/>
		<path style="fill:#FFFFFF;stroke:#263238;stroke-linecap:round;stroke-linejoin:round;stroke-miterlimit:10;" d="M745.406,305.002
			c-15.876-1.361-86.989-29.915-86.989-29.915s-4.536,0-20.412-1.361c-15.876-1.361-36.742-13.608-36.742-13.608
			s-29.031-10.433-33.567-15.423c-4.536-4.99-39.917-42.185-39.917-42.185s-20.412-18.144-32.66-23.134
			c-12.247-4.99-37.649-18.598-43.093-27.67c-5.443-9.072,1.361-16.783,17.691-15.876c16.33,0.907,33.567,7.258,42.639,14.515
			c9.072,7.258,21.773,13.608,26.763,11.794c4.99-1.814,3.629-20.412,3.629-20.412l-23.588-25.402c0,0-21.773-8.618-35.381-15.876
			c-13.608-7.258-8.165-15.876-8.165-15.876s-27.216-3.175-31.753-6.35c-4.536-3.175-4.99-13.155-4.99-13.155s0,0-4.536,0
			c-4.536,0-10.887-1.361-15.876-7.258c-4.99-5.897-1.814-12.701,7.711-13.608c9.526-0.907,29.484-3.175,37.649-3.175
			c8.165,0,45.814,4.99,54.433,8.618c8.619,3.629,56.701,43.093,69.402,52.618c12.701,9.526,13.155,16.33,19.959,28.577
			c6.804,12.247,47.629,64.866,47.629,64.866s41.721,16.237,68.484,19.866"/>
		<path style="opacity:0.2;" d="M519.16,116.325c0,0-21.773-8.618-35.381-15.876c-7.251-3.867-9.092-8.12-9.231-11.251l0.512,0.096
			c0,0,10.708,7.71,23.129,12.421c12.421,4.712,18.846,5.997,27.412,8.995c8.566,2.998,20.131,7.71,22.272,14.991
			c2.142,7.281,31.267,56.538,33.409,70.244c2.142,13.706,14.134,42.403,27.412,51.826c13.278,9.423,47.115,10.708,47.115,10.708
			l66.935,40.502c-26.629-8.757-64.326-23.893-64.326-23.893s-4.536,0-20.412-1.361c-15.876-1.361-36.742-13.608-36.742-13.608
			s-29.031-10.433-33.567-15.423c-4.536-4.99-39.918-42.185-39.918-42.185s-20.412-18.144-32.66-23.134
			c-12.247-4.99-37.649-18.598-43.093-27.67c-5.443-9.072,1.361-16.783,17.691-15.876c16.33,0.907,33.567,7.258,42.639,14.515
			c9.072,7.258,21.773,13.608,26.763,11.794c4.99-1.814,3.629-20.412,3.629-20.412L519.16,116.325z"/>
		<path style="fill:none;stroke:#263238;stroke-linecap:round;stroke-linejoin:round;stroke-miterlimit:10;" d="M745.406,305.002
			c-15.876-1.361-86.989-29.915-86.989-29.915s-4.536,0-20.412-1.361c-15.876-1.361-36.742-13.608-36.742-13.608
			s-29.031-10.433-33.567-15.423c-4.536-4.99-39.917-42.185-39.917-42.185s-20.412-18.144-32.66-23.134
			c-12.247-4.99-37.649-18.598-43.093-27.67c-5.443-9.072,1.361-16.783,17.691-15.876c16.33,0.907,33.567,7.258,42.639,14.515
			c9.072,7.258,21.773,13.608,26.763,11.794c4.99-1.814,3.629-20.412,3.629-20.412l-23.588-25.402c0,0-21.773-8.618-35.381-15.876
			c-13.608-7.258-8.165-15.876-8.165-15.876s-27.216-3.175-31.753-6.35c-4.536-3.175-4.99-13.155-4.99-13.155s0,0-4.536,0
			c-4.536,0-10.887-1.361-15.876-7.258c-4.99-5.897-1.814-12.701,7.711-13.608c9.526-0.907,29.484-3.175,37.649-3.175
			c8.165,0,45.814,4.99,54.433,8.618c8.619,3.629,56.701,43.093,69.402,52.618c12.701,9.526,13.155,16.33,19.959,28.577
			c6.804,12.247,47.629,64.866,47.629,64.866s41.721,16.237,68.484,19.866"/>
		<path style="fill:none;stroke:#263238;stroke-linecap:round;stroke-linejoin:round;stroke-miterlimit:10;" d="M579.586,124.876
			c-8.622-5.662-22.439-15.159-26.406-20.346c-5.897-7.711-15.876-9.072-19.505-10.433c-3.629-1.361-14.062-4.536-20.866-7.258
			c-6.804-2.722-17.691-3.175-17.691-3.175l-11.794-1.814c0,0-6.35-1.361-7.711,2.722"/>
		<path style="fill:none;stroke:#263238;stroke-linecap:round;stroke-linejoin:round;stroke-miterlimit:10;" d="M586.748,129.479
			c0,0-1.002-0.624-2.665-1.688"/>
		<path style="fill:none;stroke:#263238;stroke-linecap:round;stroke-linejoin:round;stroke-miterlimit:10;" d="M588.741,235.811
			c2.462,4.537,5.006,8.446,7.533,11.152"/>
		<path style="fill:none;stroke:#263238;stroke-linecap:round;stroke-linejoin:round;stroke-miterlimit:10;" d="M519.16,116.325
			l15.876,6.804l15.423,26.309c0,0,4.082,13.608,8.619,20.866c4.536,7.258,9.526,16.33,10.433,17.691
			c0.639,0.959,7.366,23.109,15.729,40.863"/>
		<path style="fill:none;stroke:#263238;stroke-linecap:round;stroke-linejoin:round;stroke-miterlimit:10;" d="M554.326,79.473
			c3.561,2.482,6.804,4.766,9.288,6.46"/>
		<path style="fill:none;stroke:#263238;stroke-linecap:round;stroke-linejoin:round;stroke-miterlimit:10;" d="M438.872,65.067
			c0,0,1.814-4.536,5.897-4.536c4.083,0,18.598-0.907,24.495-1.361c5.897-0.454,17.691,0,19.959,0
			c2.268,0,30.392,2.722,36.288,3.175c3.378,0.26,12.114,5.729,20.837,11.633"/>
		<path style="fill:none;stroke:#263238;stroke-linecap:round;stroke-linejoin:round;stroke-miterlimit:10;" d="M664.768,244.695
			c0,0-4.99,16.33-21.773,20.412"/>
		<path style="fill:none;stroke:#263238;stroke-linecap:round;stroke-linejoin:round;stroke-miterlimit:10;" d="M569.964,94.551
			l10.433,11.34c0,0,9.979,6.351,17.237,15.423"/>
		<path style="fill:none;stroke:#263238;stroke-linecap:round;stroke-linejoin:round;stroke-miterlimit:10;" d="M478.03,83.965
			c0,0,0,2.134,3.467,4.534c3.467,2.4,13.069,2.667,14.402,1.067c1.333-1.6,1.333-1.6,1.333-1.6l-1.6-1.867"/>
		<path style="fill:none;stroke:#263238;stroke-linecap:round;stroke-linejoin:round;stroke-miterlimit:10;" d="M442.824,62.628
			c0,0,2.134,5.068,4.534,5.334s15.469-1.067,15.736-3.201c0.267-2.134-1.334-2.134-1.334-2.134"/>
		<path style="fill:none;stroke:#263238;stroke-linecap:round;stroke-linejoin:round;stroke-miterlimit:10;" d="M421.754,46.626
			c0,0,4.534,3.467,7.201,4.267c2.667,0.8,10.935,0.533,13.069-1.334c2.134-1.867,0.267-5.067,0.267-5.067"/>
		<path style="fill:none;stroke:#263238;stroke-linecap:round;stroke-linejoin:round;stroke-miterlimit:10;" d="M538.307,165.312
			c0,0-11.735,16.803-10.135,24.537"/>
	</g>
</g>
</svg>
