<?xml version="1.0" encoding="utf-8"?>
<!-- Generator: Adobe Illustrator 27.5.0, SVG Export Plug-In . SVG Version: 6.00 Build 0)  -->
<svg version="1.1" xmlns="http://www.w3.org/2000/svg" xmlns:xlink="http://www.w3.org/1999/xlink" x="0px" y="0px"
	 viewBox="0 0 500 500" style="enable-background:new 0 0 500 500;" xml:space="preserve">
<g id="Background_Simple">
	<g>
		<path style="fill:#92E3A9;" d="M367.239,440.601c0,0,94.241-70.204,116.461-179.733
			c22.219-109.529-69.132-131.624-122.716-168.751c-53.584-37.126-73.31-78.898-150.945-81.471
			C132.402,8.074,92.245,36.279,64.222,90.937c-28.023,54.658-42.986,110.786-51.789,165.566
			c-8.803,54.779-4.467,98.536,45.37,120.368c49.836,21.833,72.962,12.261,96.637,37.398
			C178.114,439.406,286.16,496.312,367.239,440.601z"/>
		<path style="opacity:0.7;fill:#FFFFFF;" d="M367.239,440.601c0,0,94.241-70.204,116.461-179.733
			c22.219-109.529-69.132-131.624-122.716-168.751c-53.584-37.126-73.31-78.898-150.945-81.471
			C132.402,8.074,92.245,36.279,64.222,90.937c-28.023,54.658-42.986,110.786-51.789,165.566
			c-8.803,54.779-4.467,98.536,45.37,120.368c49.836,21.833,72.962,12.261,96.637,37.398
			C178.114,439.406,286.16,496.312,367.239,440.601z"/>
	</g>
</g>
<g id="City">
	<g style="opacity:0.31;">
		<g>
			<polyline style="fill:none;stroke:#000000;stroke-miterlimit:10;" points="18.41,72.822 18.41,10.308 61.123,10.308 
				61.123,138.499 77.259,138.499 77.259,87.503 113.328,87.503 113.328,98.732 144.177,98.732 144.177,250.315 156.516,250.315 
				156.516,222.712 190.212,222.712 190.212,249.847 206.348,249.847 206.348,56.203 260.926,56.203 260.926,241.426 
				276.588,241.426 			"/>
			<rect x="18.284" y="10.308" style="fill:none;stroke:#000000;stroke-miterlimit:10;" width="42.84" height="2.995"/>
			<rect x="80.658" y="81.145" style="fill:none;stroke:#000000;stroke-miterlimit:10;" width="6.237" height="6.354"/>
			<rect x="99.993" y="83.809" style="fill:none;stroke:#000000;stroke-miterlimit:10;" width="3.119" height="3.689"/>
			<rect x="113.328" y="98.732" style="fill:none;stroke:#000000;stroke-miterlimit:10;" width="30.951" height="3.729"/>
			<rect x="206.348" y="53.422" style="fill:none;stroke:#000000;stroke-miterlimit:10;" width="54.569" height="2.781"/>
			<rect x="220.375" y="47.888" style="fill:none;stroke:#000000;stroke-miterlimit:10;" width="21.623" height="5.534"/>
			<polyline style="fill:none;stroke:#000000;stroke-miterlimit:10;" points="237.424,48.093 237.424,42.969 253.225,42.969 
				253.225,53.217 			"/>
			<polyline style="fill:none;stroke:#000000;stroke-miterlimit:10;" points="133.277,97.201 133.277,55.784 183.292,55.784 
				183.292,90.101 200.497,90.101 200.497,31.723 264.682,31.723 264.682,102.328 268.781,102.328 			"/>
			<polyline style="fill:none;stroke:#000000;stroke-miterlimit:10;" points="97.265,76.69 97.265,30.934 63.254,30.934 			"/>
			<g>
				<rect x="21.642" y="19.101" style="fill:none;stroke:#000000;stroke-miterlimit:10;" width="4.294" height="8.283"/>
				<rect x="29.371" y="19.101" style="fill:none;stroke:#000000;stroke-miterlimit:10;" width="4.294" height="8.283"/>
				<rect x="37.1" y="19.101" style="fill:none;stroke:#000000;stroke-miterlimit:10;" width="4.294" height="8.283"/>
				<rect x="44.829" y="19.101" style="fill:none;stroke:#000000;stroke-miterlimit:10;" width="4.294" height="8.283"/>
				<rect x="52.559" y="19.101" style="fill:none;stroke:#000000;stroke-miterlimit:10;" width="4.294" height="8.283"/>
			</g>
			<g>
				<rect x="21.642" y="33.104" style="fill:none;stroke:#000000;stroke-miterlimit:10;" width="4.294" height="8.283"/>
				<rect x="29.371" y="33.104" style="fill:none;stroke:#000000;stroke-miterlimit:10;" width="4.294" height="8.283"/>
				<rect x="37.1" y="33.104" style="fill:none;stroke:#000000;stroke-miterlimit:10;" width="4.294" height="8.283"/>
				<rect x="44.829" y="33.104" style="fill:none;stroke:#000000;stroke-miterlimit:10;" width="4.294" height="8.283"/>
				<rect x="52.559" y="33.104" style="fill:none;stroke:#000000;stroke-miterlimit:10;" width="4.294" height="8.283"/>
			</g>
			<g>
				<rect x="21.642" y="47.106" style="fill:none;stroke:#000000;stroke-miterlimit:10;" width="4.294" height="8.283"/>
				<rect x="29.371" y="47.106" style="fill:none;stroke:#000000;stroke-miterlimit:10;" width="4.294" height="8.283"/>
				<rect x="37.1" y="47.106" style="fill:none;stroke:#000000;stroke-miterlimit:10;" width="4.294" height="8.283"/>
				<rect x="44.829" y="47.106" style="fill:none;stroke:#000000;stroke-miterlimit:10;" width="4.294" height="8.283"/>
				<rect x="52.559" y="47.106" style="fill:none;stroke:#000000;stroke-miterlimit:10;" width="4.294" height="8.283"/>
			</g>
			<g>
				<rect x="21.642" y="61.109" style="fill:none;stroke:#000000;stroke-miterlimit:10;" width="4.294" height="8.283"/>
				<rect x="29.371" y="61.109" style="fill:none;stroke:#000000;stroke-miterlimit:10;" width="4.294" height="8.283"/>
				<rect x="37.1" y="61.109" style="fill:none;stroke:#000000;stroke-miterlimit:10;" width="4.294" height="8.283"/>
				<rect x="44.829" y="61.109" style="fill:none;stroke:#000000;stroke-miterlimit:10;" width="4.294" height="8.283"/>
				<rect x="52.559" y="61.109" style="fill:none;stroke:#000000;stroke-miterlimit:10;" width="4.294" height="8.283"/>
			</g>
			<g>
				<rect x="21.642" y="75.112" style="fill:none;stroke:#000000;stroke-miterlimit:10;" width="4.294" height="8.283"/>
				<rect x="29.371" y="75.112" style="fill:none;stroke:#000000;stroke-miterlimit:10;" width="4.294" height="8.283"/>
				<rect x="37.1" y="75.112" style="fill:none;stroke:#000000;stroke-miterlimit:10;" width="4.294" height="8.283"/>
				<rect x="44.829" y="75.112" style="fill:none;stroke:#000000;stroke-miterlimit:10;" width="4.294" height="8.283"/>
				<rect x="52.559" y="75.112" style="fill:none;stroke:#000000;stroke-miterlimit:10;" width="4.294" height="8.283"/>
			</g>
			<g>
				<rect x="21.642" y="89.114" style="fill:none;stroke:#000000;stroke-miterlimit:10;" width="4.294" height="8.283"/>
				<rect x="29.371" y="89.114" style="fill:none;stroke:#000000;stroke-miterlimit:10;" width="4.294" height="8.283"/>
				<rect x="37.1" y="89.114" style="fill:none;stroke:#000000;stroke-miterlimit:10;" width="4.294" height="8.283"/>
				<rect x="44.829" y="89.114" style="fill:none;stroke:#000000;stroke-miterlimit:10;" width="4.294" height="8.283"/>
				<rect x="52.559" y="89.114" style="fill:none;stroke:#000000;stroke-miterlimit:10;" width="4.294" height="8.283"/>
			</g>
			<g>
				<g>
					<rect x="64.206" y="145.125" style="fill:none;stroke:#000000;stroke-miterlimit:10;" width="4.294" height="8.283"/>
					<rect x="71.936" y="145.125" style="fill:none;stroke:#000000;stroke-miterlimit:10;" width="4.294" height="8.283"/>
				</g>
				<g>
					<rect x="64.206" y="158.733" style="fill:none;stroke:#000000;stroke-miterlimit:10;" width="4.294" height="8.283"/>
					<rect x="71.936" y="158.733" style="fill:none;stroke:#000000;stroke-miterlimit:10;" width="4.294" height="8.283"/>
				</g>
				<g>
					<rect x="64.206" y="172.342" style="fill:none;stroke:#000000;stroke-miterlimit:10;" width="4.294" height="8.283"/>
					<rect x="71.936" y="172.342" style="fill:none;stroke:#000000;stroke-miterlimit:10;" width="4.294" height="8.283"/>
				</g>
				<g>
					<rect x="64.206" y="185.95" style="fill:none;stroke:#000000;stroke-miterlimit:10;" width="4.294" height="8.283"/>
					<rect x="71.936" y="185.95" style="fill:none;stroke:#000000;stroke-miterlimit:10;" width="4.294" height="8.283"/>
				</g>
				<g>
					<rect x="64.206" y="199.558" style="fill:none;stroke:#000000;stroke-miterlimit:10;" width="4.294" height="8.283"/>
					<rect x="71.936" y="199.558" style="fill:none;stroke:#000000;stroke-miterlimit:10;" width="4.294" height="8.283"/>
				</g>
				<g>
					<rect x="64.206" y="213.166" style="fill:none;stroke:#000000;stroke-miterlimit:10;" width="4.294" height="8.283"/>
					<rect x="71.936" y="213.166" style="fill:none;stroke:#000000;stroke-miterlimit:10;" width="4.294" height="8.283"/>
				</g>
				<g>
					<rect x="64.206" y="226.775" style="fill:none;stroke:#000000;stroke-miterlimit:10;" width="4.294" height="8.283"/>
					<rect x="71.936" y="226.775" style="fill:none;stroke:#000000;stroke-miterlimit:10;" width="4.294" height="8.283"/>
				</g>
			</g>
			<g>
				<rect x="21.642" y="103.117" style="fill:none;stroke:#000000;stroke-miterlimit:10;" width="4.294" height="8.283"/>
				<rect x="29.371" y="103.117" style="fill:none;stroke:#000000;stroke-miterlimit:10;" width="4.294" height="8.283"/>
				<rect x="37.1" y="103.117" style="fill:none;stroke:#000000;stroke-miterlimit:10;" width="4.294" height="8.283"/>
				<rect x="44.829" y="103.117" style="fill:none;stroke:#000000;stroke-miterlimit:10;" width="4.294" height="8.283"/>
				<rect x="52.559" y="103.117" style="fill:none;stroke:#000000;stroke-miterlimit:10;" width="4.294" height="8.283"/>
			</g>
			<g>
				<rect x="21.642" y="117.12" style="fill:none;stroke:#000000;stroke-miterlimit:10;" width="4.294" height="8.283"/>
				<rect x="29.371" y="117.12" style="fill:none;stroke:#000000;stroke-miterlimit:10;" width="4.294" height="8.283"/>
				<rect x="37.1" y="117.12" style="fill:none;stroke:#000000;stroke-miterlimit:10;" width="4.294" height="8.283"/>
				<rect x="44.829" y="117.12" style="fill:none;stroke:#000000;stroke-miterlimit:10;" width="4.294" height="8.283"/>
				<rect x="52.559" y="117.12" style="fill:none;stroke:#000000;stroke-miterlimit:10;" width="4.294" height="8.283"/>
			</g>
			<g>
				<rect x="21.642" y="131.122" style="fill:none;stroke:#000000;stroke-miterlimit:10;" width="4.294" height="8.283"/>
				<rect x="29.371" y="131.122" style="fill:none;stroke:#000000;stroke-miterlimit:10;" width="4.294" height="8.283"/>
				<rect x="37.1" y="131.122" style="fill:none;stroke:#000000;stroke-miterlimit:10;" width="4.294" height="8.283"/>
				<rect x="44.829" y="131.122" style="fill:none;stroke:#000000;stroke-miterlimit:10;" width="4.294" height="8.283"/>
				<rect x="52.559" y="131.122" style="fill:none;stroke:#000000;stroke-miterlimit:10;" width="4.294" height="8.283"/>
			</g>
			<g>
				<rect x="21.642" y="145.125" style="fill:none;stroke:#000000;stroke-miterlimit:10;" width="4.294" height="8.283"/>
				<rect x="29.371" y="145.125" style="fill:none;stroke:#000000;stroke-miterlimit:10;" width="4.294" height="8.283"/>
				<rect x="37.1" y="145.125" style="fill:none;stroke:#000000;stroke-miterlimit:10;" width="4.294" height="8.283"/>
				<rect x="44.829" y="145.125" style="fill:none;stroke:#000000;stroke-miterlimit:10;" width="4.294" height="8.283"/>
				<rect x="52.559" y="145.125" style="fill:none;stroke:#000000;stroke-miterlimit:10;" width="4.294" height="8.283"/>
			</g>
			<g>
				<rect x="21.642" y="159.128" style="fill:none;stroke:#000000;stroke-miterlimit:10;" width="4.294" height="8.283"/>
				<rect x="29.371" y="159.128" style="fill:none;stroke:#000000;stroke-miterlimit:10;" width="4.294" height="8.283"/>
				<rect x="37.1" y="159.128" style="fill:none;stroke:#000000;stroke-miterlimit:10;" width="4.294" height="8.283"/>
				<rect x="44.829" y="159.128" style="fill:none;stroke:#000000;stroke-miterlimit:10;" width="4.294" height="8.283"/>
				<rect x="52.559" y="159.128" style="fill:none;stroke:#000000;stroke-miterlimit:10;" width="4.294" height="8.283"/>
			</g>
			<g>
				<rect x="21.642" y="173.13" style="fill:none;stroke:#000000;stroke-miterlimit:10;" width="4.294" height="8.283"/>
				<rect x="29.371" y="173.13" style="fill:none;stroke:#000000;stroke-miterlimit:10;" width="4.294" height="8.283"/>
				<rect x="37.1" y="173.13" style="fill:none;stroke:#000000;stroke-miterlimit:10;" width="4.294" height="8.283"/>
				<rect x="44.829" y="173.13" style="fill:none;stroke:#000000;stroke-miterlimit:10;" width="4.294" height="8.283"/>
				<rect x="52.559" y="173.13" style="fill:none;stroke:#000000;stroke-miterlimit:10;" width="4.294" height="8.283"/>
			</g>
			<g>
				<rect x="21.642" y="187.133" style="fill:none;stroke:#000000;stroke-miterlimit:10;" width="4.294" height="8.283"/>
				<rect x="29.371" y="187.133" style="fill:none;stroke:#000000;stroke-miterlimit:10;" width="4.294" height="8.283"/>
				<rect x="37.1" y="187.133" style="fill:none;stroke:#000000;stroke-miterlimit:10;" width="4.294" height="8.283"/>
				<rect x="44.829" y="187.133" style="fill:none;stroke:#000000;stroke-miterlimit:10;" width="4.294" height="8.283"/>
				<rect x="52.559" y="187.133" style="fill:none;stroke:#000000;stroke-miterlimit:10;" width="4.294" height="8.283"/>
			</g>
			<g>
				<rect x="21.642" y="201.136" style="fill:none;stroke:#000000;stroke-miterlimit:10;" width="4.294" height="8.283"/>
				<rect x="29.371" y="201.136" style="fill:none;stroke:#000000;stroke-miterlimit:10;" width="4.294" height="8.283"/>
				<rect x="37.1" y="201.136" style="fill:none;stroke:#000000;stroke-miterlimit:10;" width="4.294" height="8.283"/>
				<rect x="44.829" y="201.136" style="fill:none;stroke:#000000;stroke-miterlimit:10;" width="4.294" height="8.283"/>
				<rect x="52.559" y="201.136" style="fill:none;stroke:#000000;stroke-miterlimit:10;" width="4.294" height="8.283"/>
			</g>
			<g>
				<rect x="21.642" y="215.139" style="fill:none;stroke:#000000;stroke-miterlimit:10;" width="4.294" height="8.283"/>
				<rect x="29.371" y="215.139" style="fill:none;stroke:#000000;stroke-miterlimit:10;" width="4.294" height="8.283"/>
				<rect x="37.1" y="215.139" style="fill:none;stroke:#000000;stroke-miterlimit:10;" width="4.294" height="8.283"/>
				<rect x="44.829" y="215.139" style="fill:none;stroke:#000000;stroke-miterlimit:10;" width="4.294" height="8.283"/>
				<rect x="52.559" y="215.139" style="fill:none;stroke:#000000;stroke-miterlimit:10;" width="4.294" height="8.283"/>
			</g>
			<g>
				<rect x="21.642" y="229.536" style="fill:none;stroke:#000000;stroke-miterlimit:10;" width="4.294" height="8.283"/>
				<rect x="29.371" y="229.536" style="fill:none;stroke:#000000;stroke-miterlimit:10;" width="4.294" height="8.283"/>
				<rect x="37.1" y="229.536" style="fill:none;stroke:#000000;stroke-miterlimit:10;" width="4.294" height="8.283"/>
				<rect x="44.829" y="229.536" style="fill:none;stroke:#000000;stroke-miterlimit:10;" width="4.294" height="8.283"/>
				<rect x="52.559" y="229.536" style="fill:none;stroke:#000000;stroke-miterlimit:10;" width="4.294" height="8.283"/>
			</g>
			<line style="fill:none;stroke:#000000;stroke-miterlimit:10;" x1="18.41" y1="83.001" x2="18.41" y2="251.822"/>
			<line style="fill:none;stroke:#000000;stroke-miterlimit:10;" x1="84.061" y1="90.889" x2="84.061" y2="249.455"/>
			<line style="fill:none;stroke:#000000;stroke-miterlimit:10;" x1="92.464" y1="90.889" x2="92.464" y2="249.455"/>
			<line style="fill:none;stroke:#000000;stroke-miterlimit:10;" x1="100.866" y1="90.889" x2="100.866" y2="249.455"/>
			<line style="fill:none;stroke:#000000;stroke-miterlimit:10;" x1="109.269" y1="90.889" x2="109.269" y2="249.455"/>
			<line style="fill:none;stroke:#000000;stroke-miterlimit:10;" x1="117.672" y1="106.667" x2="117.672" y2="249.455"/>
			<line style="fill:none;stroke:#000000;stroke-miterlimit:10;" x1="126.074" y1="106.667" x2="126.074" y2="249.455"/>
			<line style="fill:none;stroke:#000000;stroke-miterlimit:10;" x1="134.477" y1="106.667" x2="134.477" y2="249.455"/>
			<line style="fill:none;stroke:#000000;stroke-miterlimit:10;" x1="-49.161" y1="258.133" x2="-37.577" y2="258.133"/>
			<rect x="208.1" y="117.317" style="fill:none;stroke:#000000;stroke-miterlimit:10;" width="50.416" height="4.733"/>
			<rect x="208.1" y="109.047" style="fill:none;stroke:#000000;stroke-miterlimit:10;" width="50.416" height="4.733"/>
			<rect x="208.1" y="100.778" style="fill:none;stroke:#000000;stroke-miterlimit:10;" width="50.416" height="4.733"/>
			<rect x="208.1" y="92.508" style="fill:none;stroke:#000000;stroke-miterlimit:10;" width="50.416" height="4.733"/>
			<rect x="208.1" y="84.238" style="fill:none;stroke:#000000;stroke-miterlimit:10;" width="50.416" height="4.733"/>
			<rect x="208.1" y="75.968" style="fill:none;stroke:#000000;stroke-miterlimit:10;" width="50.416" height="4.733"/>
			<rect x="208.1" y="67.699" style="fill:none;stroke:#000000;stroke-miterlimit:10;" width="50.416" height="4.733"/>
			<rect x="208.1" y="59.429" style="fill:none;stroke:#000000;stroke-miterlimit:10;" width="50.416" height="4.733"/>
			<rect x="208.1" y="125.6" style="fill:none;stroke:#000000;stroke-miterlimit:10;" width="50.416" height="4.733"/>
			<rect x="208.1" y="133.883" style="fill:none;stroke:#000000;stroke-miterlimit:10;" width="50.416" height="4.733"/>
			<rect x="208.1" y="142.167" style="fill:none;stroke:#000000;stroke-miterlimit:10;" width="50.416" height="4.733"/>
			<rect x="208.1" y="150.45" style="fill:none;stroke:#000000;stroke-miterlimit:10;" width="50.416" height="4.733"/>
			<rect x="208.1" y="158.733" style="fill:none;stroke:#000000;stroke-miterlimit:10;" width="50.416" height="4.733"/>
			<rect x="208.1" y="167.017" style="fill:none;stroke:#000000;stroke-miterlimit:10;" width="50.416" height="4.733"/>
			<rect x="208.1" y="175.3" style="fill:none;stroke:#000000;stroke-miterlimit:10;" width="50.416" height="4.733"/>
			<rect x="208.1" y="183.583" style="fill:none;stroke:#000000;stroke-miterlimit:10;" width="50.416" height="4.733"/>
			<rect x="208.1" y="191.867" style="fill:none;stroke:#000000;stroke-miterlimit:10;" width="50.416" height="4.733"/>
			<rect x="208.1" y="200.15" style="fill:none;stroke:#000000;stroke-miterlimit:10;" width="50.416" height="4.733"/>
			<rect x="208.1" y="208.433" style="fill:none;stroke:#000000;stroke-miterlimit:10;" width="50.416" height="4.733"/>
			<rect x="208.1" y="216.716" style="fill:none;stroke:#000000;stroke-miterlimit:10;" width="50.416" height="4.733"/>
			<rect x="208.1" y="225" style="fill:none;stroke:#000000;stroke-miterlimit:10;" width="50.416" height="4.733"/>
			<rect x="208.1" y="233.283" style="fill:none;stroke:#000000;stroke-miterlimit:10;" width="50.416" height="4.733"/>
			<rect x="208.1" y="241.566" style="fill:none;stroke:#000000;stroke-miterlimit:10;" width="50.416" height="4.733"/>
			<rect x="208.1" y="249.849" style="fill:none;stroke:#000000;stroke-miterlimit:10;" width="50.416" height="4.733"/>
			<rect x="161.285" y="209.616" style="fill:none;stroke:#000000;stroke-miterlimit:10;" width="25.208" height="13.017"/>
			<rect x="167.287" y="186.739" style="fill:none;stroke:#000000;stroke-miterlimit:10;" width="13.204" height="22.878"/>
			<line style="fill:none;stroke:#000000;stroke-miterlimit:10;" x1="61.123" y1="138.499" x2="61.123" y2="251.508"/>
			<line style="fill:none;stroke:#000000;stroke-miterlimit:10;" x1="205.91" y1="126.112" x2="144.7" y2="126.112"/>
			<line style="fill:none;stroke:#000000;stroke-miterlimit:10;" x1="205.91" y1="132.854" x2="144.7" y2="132.854"/>
			<g>
				<rect x="147.436" y="137.911" style="fill:none;stroke:#000000;stroke-miterlimit:10;" width="9.337" height="6.742"/>
				<rect x="158.951" y="137.911" style="fill:none;stroke:#000000;stroke-miterlimit:10;" width="9.337" height="6.742"/>
				<rect x="170.466" y="137.911" style="fill:none;stroke:#000000;stroke-miterlimit:10;" width="9.337" height="6.742"/>
				<rect x="181.981" y="137.911" style="fill:none;stroke:#000000;stroke-miterlimit:10;" width="9.337" height="6.742"/>
				<rect x="193.496" y="137.911" style="fill:none;stroke:#000000;stroke-miterlimit:10;" width="9.337" height="6.742"/>
			</g>
			<g>
				<rect x="147.436" y="148.361" style="fill:none;stroke:#000000;stroke-miterlimit:10;" width="9.337" height="6.742"/>
				<rect x="158.951" y="148.361" style="fill:none;stroke:#000000;stroke-miterlimit:10;" width="9.337" height="6.742"/>
				<rect x="170.466" y="148.361" style="fill:none;stroke:#000000;stroke-miterlimit:10;" width="9.337" height="6.742"/>
				<rect x="181.981" y="148.361" style="fill:none;stroke:#000000;stroke-miterlimit:10;" width="9.337" height="6.742"/>
				<rect x="193.496" y="148.361" style="fill:none;stroke:#000000;stroke-miterlimit:10;" width="9.337" height="6.742"/>
			</g>
			<g>
				<rect x="147.436" y="158.811" style="fill:none;stroke:#000000;stroke-miterlimit:10;" width="9.337" height="6.742"/>
				<rect x="158.951" y="158.811" style="fill:none;stroke:#000000;stroke-miterlimit:10;" width="9.337" height="6.742"/>
				<rect x="170.466" y="158.811" style="fill:none;stroke:#000000;stroke-miterlimit:10;" width="9.337" height="6.742"/>
				<rect x="181.981" y="158.811" style="fill:none;stroke:#000000;stroke-miterlimit:10;" width="9.337" height="6.742"/>
				<rect x="193.496" y="158.811" style="fill:none;stroke:#000000;stroke-miterlimit:10;" width="9.337" height="6.742"/>
			</g>
			<g>
				<rect x="147.436" y="177.689" style="fill:none;stroke:#000000;stroke-miterlimit:10;" width="9.337" height="6.742"/>
				<rect x="158.951" y="177.689" style="fill:none;stroke:#000000;stroke-miterlimit:10;" width="9.337" height="6.742"/>
				<rect x="170.466" y="177.689" style="fill:none;stroke:#000000;stroke-miterlimit:10;" width="9.337" height="6.742"/>
				<rect x="181.981" y="177.689" style="fill:none;stroke:#000000;stroke-miterlimit:10;" width="9.337" height="6.742"/>
				<rect x="193.496" y="177.689" style="fill:none;stroke:#000000;stroke-miterlimit:10;" width="9.337" height="6.742"/>
			</g>
		</g>
		<g>
			<polyline style="fill:none;stroke:#000000;stroke-miterlimit:10;" points="496.063,138.499 487.274,138.499 487.274,87.503 
				451.205,87.503 451.205,98.732 420.356,98.732 420.356,250.315 408.017,250.315 408.017,222.712 374.321,222.712 
				374.321,249.847 358.185,249.847 358.185,113.235 303.607,113.235 303.607,241.426 287.945,241.426 			"/>
			
				<rect x="477.638" y="81.145" transform="matrix(-1 -1.224647e-16 1.224647e-16 -1 961.5135 168.6433)" style="fill:none;stroke:#000000;stroke-miterlimit:10;" width="6.237" height="6.354"/>
			
				<rect x="461.421" y="83.809" transform="matrix(-1 -1.224647e-16 1.224647e-16 -1 925.9604 171.3079)" style="fill:none;stroke:#000000;stroke-miterlimit:10;" width="3.119" height="3.689"/>
			
				<rect x="420.254" y="98.732" transform="matrix(-1 -1.224647e-16 1.224647e-16 -1 871.4587 201.1922)" style="fill:none;stroke:#000000;stroke-miterlimit:10;" width="30.95" height="3.729"/>
			
				<rect x="303.615" y="110.454" transform="matrix(-1 -1.224647e-16 1.224647e-16 -1 661.7999 223.6889)" style="fill:none;stroke:#000000;stroke-miterlimit:10;" width="54.57" height="2.781"/>
			
				<rect x="322.535" y="104.92" transform="matrix(-1 -1.224647e-16 1.224647e-16 -1 666.6933 215.3741)" style="fill:none;stroke:#000000;stroke-miterlimit:10;" width="21.623" height="5.534"/>
			<polyline style="fill:none;stroke:#000000;stroke-miterlimit:10;" points="327.109,105.125 327.109,100.001 311.308,100.001 
				311.308,110.249 			"/>
			<polyline style="fill:none;stroke:#000000;stroke-miterlimit:10;" points="431.257,97.201 431.257,55.784 381.241,55.784 
				381.241,90.101 364.035,90.101 364.035,31.723 308.818,31.723 308.818,102.328 293.989,102.328 			"/>
			<polyline style="fill:none;stroke:#000000;stroke-miterlimit:10;" points="268.431,175.531 268.431,81.997 293.989,81.997 
				293.989,171.389 300.291,171.389 			"/>
			<polyline style="fill:none;stroke:#000000;stroke-miterlimit:10;" points="467.268,76.69 467.268,30.934 492.803,30.934 			"/>
			<line style="fill:none;stroke:#000000;stroke-miterlimit:10;" x1="480.472" y1="90.889" x2="480.472" y2="249.455"/>
			<line style="fill:none;stroke:#000000;stroke-miterlimit:10;" x1="472.069" y1="90.889" x2="472.069" y2="249.455"/>
			<line style="fill:none;stroke:#000000;stroke-miterlimit:10;" x1="463.667" y1="90.889" x2="463.667" y2="249.455"/>
			<line style="fill:none;stroke:#000000;stroke-miterlimit:10;" x1="455.264" y1="90.889" x2="455.264" y2="249.455"/>
			<line style="fill:none;stroke:#000000;stroke-miterlimit:10;" x1="446.861" y1="106.667" x2="446.861" y2="249.455"/>
			<line style="fill:none;stroke:#000000;stroke-miterlimit:10;" x1="438.459" y1="106.667" x2="438.459" y2="249.455"/>
			<line style="fill:none;stroke:#000000;stroke-miterlimit:10;" x1="430.056" y1="106.667" x2="430.056" y2="249.455"/>
			
				<rect x="306.017" y="117.317" transform="matrix(-1 -1.224647e-16 1.224647e-16 -1 625.7912 239.3673)" style="fill:none;stroke:#000000;stroke-miterlimit:10;" width="13.756" height="4.733"/>
			
				<rect x="306.017" y="125.6" transform="matrix(-1 -1.224647e-16 1.224647e-16 -1 625.7912 255.9338)" style="fill:none;stroke:#000000;stroke-miterlimit:10;" width="13.756" height="4.733"/>
			
				<rect x="306.017" y="133.884" transform="matrix(-1 -1.224647e-16 1.224647e-16 -1 625.7912 272.5004)" style="fill:none;stroke:#000000;stroke-miterlimit:10;" width="13.756" height="4.733"/>
			
				<rect x="306.017" y="142.167" transform="matrix(-1 -1.224647e-16 1.224647e-16 -1 625.7912 289.0669)" style="fill:none;stroke:#000000;stroke-miterlimit:10;" width="13.756" height="4.733"/>
			
				<rect x="306.017" y="150.45" transform="matrix(-1 -1.224647e-16 1.224647e-16 -1 625.7912 305.6334)" style="fill:none;stroke:#000000;stroke-miterlimit:10;" width="13.756" height="4.733"/>
			
				<rect x="306.017" y="158.734" transform="matrix(-1 -1.224647e-16 1.224647e-16 -1 625.7912 322.2001)" style="fill:none;stroke:#000000;stroke-miterlimit:10;" width="13.756" height="4.733"/>
			
				<rect x="306.017" y="167.017" transform="matrix(-1 -1.224647e-16 1.224647e-16 -1 625.7912 338.7667)" style="fill:none;stroke:#000000;stroke-miterlimit:10;" width="13.756" height="4.733"/>
			
				<rect x="306.017" y="175.3" transform="matrix(-1 -1.224647e-16 1.224647e-16 -1 625.7912 355.3331)" style="fill:none;stroke:#000000;stroke-miterlimit:10;" width="13.756" height="4.733"/>
			
				<rect x="306.017" y="183.583" transform="matrix(-1 -1.224647e-16 1.224647e-16 -1 625.7912 371.8997)" style="fill:none;stroke:#000000;stroke-miterlimit:10;" width="13.756" height="4.733"/>
			
				<rect x="306.017" y="191.867" transform="matrix(-1 -1.224647e-16 1.224647e-16 -1 625.7912 388.4663)" style="fill:none;stroke:#000000;stroke-miterlimit:10;" width="13.756" height="4.733"/>
			
				<rect x="306.017" y="200.15" transform="matrix(-1 -1.224647e-16 1.224647e-16 -1 625.7912 405.0328)" style="fill:none;stroke:#000000;stroke-miterlimit:10;" width="13.756" height="4.733"/>
			
				<rect x="306.017" y="208.433" transform="matrix(-1 -1.224647e-16 1.224647e-16 -1 625.7912 421.5993)" style="fill:none;stroke:#000000;stroke-miterlimit:10;" width="13.756" height="4.733"/>
			
				<rect x="306.017" y="216.716" transform="matrix(-1 -1.224647e-16 1.224647e-16 -1 625.7912 438.1658)" style="fill:none;stroke:#000000;stroke-miterlimit:10;" width="13.756" height="4.733"/>
			
				<rect x="306.017" y="225" transform="matrix(-1 -1.224647e-16 1.224647e-16 -1 625.7912 454.7324)" style="fill:none;stroke:#000000;stroke-miterlimit:10;" width="13.756" height="4.733"/>
			
				<rect x="306.017" y="233.283" transform="matrix(-1 -1.224647e-16 1.224647e-16 -1 625.7912 471.299)" style="fill:none;stroke:#000000;stroke-miterlimit:10;" width="13.756" height="4.733"/>
			
				<rect x="306.017" y="241.566" transform="matrix(-1 -1.224647e-16 1.224647e-16 -1 625.7912 487.8655)" style="fill:none;stroke:#000000;stroke-miterlimit:10;" width="13.756" height="4.733"/>
			
				<rect x="306.017" y="249.85" transform="matrix(-1 -1.224647e-16 1.224647e-16 -1 625.7912 504.4322)" style="fill:none;stroke:#000000;stroke-miterlimit:10;" width="13.756" height="4.733"/>
			
				<rect x="324.318" y="117.317" transform="matrix(-1 -1.224647e-16 1.224647e-16 -1 662.3913 239.3673)" style="fill:none;stroke:#000000;stroke-miterlimit:10;" width="13.756" height="4.733"/>
			
				<rect x="324.318" y="125.6" transform="matrix(-1 -1.224647e-16 1.224647e-16 -1 662.3913 255.9338)" style="fill:none;stroke:#000000;stroke-miterlimit:10;" width="13.756" height="4.733"/>
			
				<rect x="324.318" y="133.884" transform="matrix(-1 -1.224647e-16 1.224647e-16 -1 662.3913 272.5004)" style="fill:none;stroke:#000000;stroke-miterlimit:10;" width="13.756" height="4.733"/>
			
				<rect x="324.318" y="142.167" transform="matrix(-1 -1.224647e-16 1.224647e-16 -1 662.3913 289.0669)" style="fill:none;stroke:#000000;stroke-miterlimit:10;" width="13.756" height="4.733"/>
			
				<rect x="324.318" y="150.45" transform="matrix(-1 -1.224647e-16 1.224647e-16 -1 662.3913 305.6334)" style="fill:none;stroke:#000000;stroke-miterlimit:10;" width="13.756" height="4.733"/>
			
				<rect x="324.318" y="158.734" transform="matrix(-1 -1.224647e-16 1.224647e-16 -1 662.3913 322.2001)" style="fill:none;stroke:#000000;stroke-miterlimit:10;" width="13.756" height="4.733"/>
			
				<rect x="324.318" y="167.017" transform="matrix(-1 -1.224647e-16 1.224647e-16 -1 662.3913 338.7667)" style="fill:none;stroke:#000000;stroke-miterlimit:10;" width="13.756" height="4.733"/>
			
				<rect x="324.318" y="175.3" transform="matrix(-1 -1.224647e-16 1.224647e-16 -1 662.3913 355.3331)" style="fill:none;stroke:#000000;stroke-miterlimit:10;" width="13.756" height="4.733"/>
			
				<rect x="324.318" y="183.583" transform="matrix(-1 -1.224647e-16 1.224647e-16 -1 662.3913 371.8997)" style="fill:none;stroke:#000000;stroke-miterlimit:10;" width="13.756" height="4.733"/>
			
				<rect x="324.318" y="191.867" transform="matrix(-1 -1.224647e-16 1.224647e-16 -1 662.3913 388.4663)" style="fill:none;stroke:#000000;stroke-miterlimit:10;" width="13.756" height="4.733"/>
			
				<rect x="324.318" y="200.15" transform="matrix(-1 -1.224647e-16 1.224647e-16 -1 662.3913 405.0328)" style="fill:none;stroke:#000000;stroke-miterlimit:10;" width="13.756" height="4.733"/>
			
				<rect x="324.318" y="208.433" transform="matrix(-1 -1.224647e-16 1.224647e-16 -1 662.3913 421.5993)" style="fill:none;stroke:#000000;stroke-miterlimit:10;" width="13.756" height="4.733"/>
			
				<rect x="324.318" y="216.716" transform="matrix(-1 -1.224647e-16 1.224647e-16 -1 662.3913 438.1658)" style="fill:none;stroke:#000000;stroke-miterlimit:10;" width="13.756" height="4.733"/>
			
				<rect x="324.318" y="225" transform="matrix(-1 -1.224647e-16 1.224647e-16 -1 662.3913 454.7324)" style="fill:none;stroke:#000000;stroke-miterlimit:10;" width="13.756" height="4.733"/>
			
				<rect x="324.318" y="233.283" transform="matrix(-1 -1.224647e-16 1.224647e-16 -1 662.3913 471.299)" style="fill:none;stroke:#000000;stroke-miterlimit:10;" width="13.756" height="4.733"/>
			
				<rect x="324.318" y="241.566" transform="matrix(-1 -1.224647e-16 1.224647e-16 -1 662.3913 487.8655)" style="fill:none;stroke:#000000;stroke-miterlimit:10;" width="13.756" height="4.733"/>
			
				<rect x="324.318" y="249.85" transform="matrix(-1 -1.224647e-16 1.224647e-16 -1 662.3913 504.4322)" style="fill:none;stroke:#000000;stroke-miterlimit:10;" width="13.756" height="4.733"/>
			
				<rect x="342.618" y="117.317" transform="matrix(-1 -1.224647e-16 1.224647e-16 -1 698.9917 239.3673)" style="fill:none;stroke:#000000;stroke-miterlimit:10;" width="13.756" height="4.733"/>
			
				<rect x="342.618" y="125.6" transform="matrix(-1 -1.224647e-16 1.224647e-16 -1 698.9917 255.9338)" style="fill:none;stroke:#000000;stroke-miterlimit:10;" width="13.756" height="4.733"/>
			
				<rect x="342.618" y="133.884" transform="matrix(-1 -1.224647e-16 1.224647e-16 -1 698.9917 272.5004)" style="fill:none;stroke:#000000;stroke-miterlimit:10;" width="13.756" height="4.733"/>
			
				<rect x="342.618" y="142.167" transform="matrix(-1 -1.224647e-16 1.224647e-16 -1 698.9917 289.0669)" style="fill:none;stroke:#000000;stroke-miterlimit:10;" width="13.756" height="4.733"/>
			
				<rect x="342.618" y="150.45" transform="matrix(-1 -1.224647e-16 1.224647e-16 -1 698.9917 305.6334)" style="fill:none;stroke:#000000;stroke-miterlimit:10;" width="13.756" height="4.733"/>
			
				<rect x="342.618" y="158.734" transform="matrix(-1 -1.224647e-16 1.224647e-16 -1 698.9917 322.2001)" style="fill:none;stroke:#000000;stroke-miterlimit:10;" width="13.756" height="4.733"/>
			
				<rect x="342.618" y="167.017" transform="matrix(-1 -1.224647e-16 1.224647e-16 -1 698.9917 338.7667)" style="fill:none;stroke:#000000;stroke-miterlimit:10;" width="13.756" height="4.733"/>
			
				<rect x="342.618" y="175.3" transform="matrix(-1 -1.224647e-16 1.224647e-16 -1 698.9917 355.3331)" style="fill:none;stroke:#000000;stroke-miterlimit:10;" width="13.756" height="4.733"/>
			
				<rect x="342.618" y="183.583" transform="matrix(-1 -1.224647e-16 1.224647e-16 -1 698.9917 371.8997)" style="fill:none;stroke:#000000;stroke-miterlimit:10;" width="13.756" height="4.733"/>
			
				<rect x="342.618" y="191.867" transform="matrix(-1 -1.224647e-16 1.224647e-16 -1 698.9917 388.4663)" style="fill:none;stroke:#000000;stroke-miterlimit:10;" width="13.756" height="4.733"/>
			
				<rect x="342.618" y="200.15" transform="matrix(-1 -1.224647e-16 1.224647e-16 -1 698.9917 405.0328)" style="fill:none;stroke:#000000;stroke-miterlimit:10;" width="13.756" height="4.733"/>
			
				<rect x="342.618" y="208.433" transform="matrix(-1 -1.224647e-16 1.224647e-16 -1 698.9917 421.5993)" style="fill:none;stroke:#000000;stroke-miterlimit:10;" width="13.756" height="4.733"/>
			
				<rect x="342.618" y="216.716" transform="matrix(-1 -1.224647e-16 1.224647e-16 -1 698.9917 438.1658)" style="fill:none;stroke:#000000;stroke-miterlimit:10;" width="13.756" height="4.733"/>
			
				<rect x="342.618" y="225" transform="matrix(-1 -1.224647e-16 1.224647e-16 -1 698.9917 454.7324)" style="fill:none;stroke:#000000;stroke-miterlimit:10;" width="13.756" height="4.733"/>
			
				<rect x="342.618" y="233.283" transform="matrix(-1 -1.224647e-16 1.224647e-16 -1 698.9917 471.299)" style="fill:none;stroke:#000000;stroke-miterlimit:10;" width="13.756" height="4.733"/>
			
				<rect x="342.618" y="241.566" transform="matrix(-1 -1.224647e-16 1.224647e-16 -1 698.9917 487.8655)" style="fill:none;stroke:#000000;stroke-miterlimit:10;" width="13.756" height="4.733"/>
			
				<rect x="342.618" y="249.85" transform="matrix(-1 -1.224647e-16 1.224647e-16 -1 698.9917 504.4322)" style="fill:none;stroke:#000000;stroke-miterlimit:10;" width="13.756" height="4.733"/>
			
				<rect x="378.04" y="209.616" transform="matrix(-1 -1.224647e-16 1.224647e-16 -1 781.2875 432.2492)" style="fill:none;stroke:#000000;stroke-miterlimit:10;" width="25.208" height="13.017"/>
			
				<rect x="384.042" y="186.739" transform="matrix(-1 -1.224647e-16 1.224647e-16 -1 781.2877 396.3549)" style="fill:none;stroke:#000000;stroke-miterlimit:10;" width="13.204" height="22.878"/>
			<line style="fill:none;stroke:#000000;stroke-miterlimit:10;" x1="503.41" y1="138.499" x2="503.41" y2="251.508"/>
			<line style="fill:none;stroke:#000000;stroke-miterlimit:10;" x1="358.623" y1="126.112" x2="419.833" y2="126.112"/>
			<line style="fill:none;stroke:#000000;stroke-miterlimit:10;" x1="358.623" y1="132.854" x2="419.833" y2="132.854"/>
			<g>
				
					<rect x="407.761" y="137.911" transform="matrix(-1 -1.224647e-16 1.224647e-16 -1 824.8585 282.5637)" style="fill:none;stroke:#000000;stroke-miterlimit:10;" width="9.337" height="6.742"/>
				
					<rect x="396.246" y="137.911" transform="matrix(-1 -1.224647e-16 1.224647e-16 -1 801.828 282.5637)" style="fill:none;stroke:#000000;stroke-miterlimit:10;" width="9.337" height="6.742"/>
				
					<rect x="384.731" y="137.911" transform="matrix(-1 -1.224647e-16 1.224647e-16 -1 778.7979 282.5637)" style="fill:none;stroke:#000000;stroke-miterlimit:10;" width="9.337" height="6.742"/>
				
					<rect x="373.215" y="137.911" transform="matrix(-1 -1.224647e-16 1.224647e-16 -1 755.7678 282.5637)" style="fill:none;stroke:#000000;stroke-miterlimit:10;" width="9.337" height="6.742"/>
				
					<rect x="361.7" y="137.911" transform="matrix(-1 -1.224647e-16 1.224647e-16 -1 732.7374 282.5637)" style="fill:none;stroke:#000000;stroke-miterlimit:10;" width="9.337" height="6.742"/>
			</g>
			<g>
				
					<rect x="407.761" y="148.361" transform="matrix(-1 -1.224647e-16 1.224647e-16 -1 824.8585 303.4638)" style="fill:none;stroke:#000000;stroke-miterlimit:10;" width="9.337" height="6.742"/>
				
					<rect x="396.246" y="148.361" transform="matrix(-1 -1.224647e-16 1.224647e-16 -1 801.828 303.4638)" style="fill:none;stroke:#000000;stroke-miterlimit:10;" width="9.337" height="6.742"/>
				
					<rect x="384.731" y="148.361" transform="matrix(-1 -1.224647e-16 1.224647e-16 -1 778.7979 303.4638)" style="fill:none;stroke:#000000;stroke-miterlimit:10;" width="9.337" height="6.742"/>
				
					<rect x="373.215" y="148.361" transform="matrix(-1 -1.224647e-16 1.224647e-16 -1 755.7678 303.4638)" style="fill:none;stroke:#000000;stroke-miterlimit:10;" width="9.337" height="6.742"/>
				
					<rect x="361.7" y="148.361" transform="matrix(-1 -1.224647e-16 1.224647e-16 -1 732.7374 303.4638)" style="fill:none;stroke:#000000;stroke-miterlimit:10;" width="9.337" height="6.742"/>
			</g>
			<g>
				
					<rect x="407.761" y="158.811" transform="matrix(-1 -1.224647e-16 1.224647e-16 -1 824.8585 324.3639)" style="fill:none;stroke:#000000;stroke-miterlimit:10;" width="9.337" height="6.742"/>
				
					<rect x="396.246" y="158.811" transform="matrix(-1 -1.224647e-16 1.224647e-16 -1 801.828 324.3639)" style="fill:none;stroke:#000000;stroke-miterlimit:10;" width="9.337" height="6.742"/>
				
					<rect x="384.731" y="158.811" transform="matrix(-1 -1.224647e-16 1.224647e-16 -1 778.7979 324.3639)" style="fill:none;stroke:#000000;stroke-miterlimit:10;" width="9.337" height="6.742"/>
				
					<rect x="373.215" y="158.811" transform="matrix(-1 -1.224647e-16 1.224647e-16 -1 755.7678 324.3639)" style="fill:none;stroke:#000000;stroke-miterlimit:10;" width="9.337" height="6.742"/>
				
					<rect x="361.7" y="158.811" transform="matrix(-1 -1.224647e-16 1.224647e-16 -1 732.7374 324.3639)" style="fill:none;stroke:#000000;stroke-miterlimit:10;" width="9.337" height="6.742"/>
			</g>
			<g>
				
					<rect x="407.761" y="177.689" transform="matrix(-1 -1.224647e-16 1.224647e-16 -1 824.8585 362.1192)" style="fill:none;stroke:#000000;stroke-miterlimit:10;" width="9.337" height="6.742"/>
				
					<rect x="396.246" y="177.689" transform="matrix(-1 -1.224647e-16 1.224647e-16 -1 801.828 362.1192)" style="fill:none;stroke:#000000;stroke-miterlimit:10;" width="9.337" height="6.742"/>
				
					<rect x="384.731" y="177.689" transform="matrix(-1 -1.224647e-16 1.224647e-16 -1 778.7979 362.1192)" style="fill:none;stroke:#000000;stroke-miterlimit:10;" width="9.337" height="6.742"/>
				
					<rect x="373.215" y="177.689" transform="matrix(-1 -1.224647e-16 1.224647e-16 -1 755.7678 362.1192)" style="fill:none;stroke:#000000;stroke-miterlimit:10;" width="9.337" height="6.742"/>
				
					<rect x="361.7" y="177.689" transform="matrix(-1 -1.224647e-16 1.224647e-16 -1 732.7374 362.1192)" style="fill:none;stroke:#000000;stroke-miterlimit:10;" width="9.337" height="6.742"/>
			</g>
			<line style="fill:none;stroke:#000000;stroke-miterlimit:10;" x1="423.57" y1="113.634" x2="485.047" y2="113.634"/>
			<line style="fill:none;stroke:#000000;stroke-miterlimit:10;" x1="423.57" y1="125.473" x2="485.047" y2="125.473"/>
			<line style="fill:none;stroke:#000000;stroke-miterlimit:10;" x1="423.57" y1="137.312" x2="485.047" y2="137.312"/>
			<line style="fill:none;stroke:#000000;stroke-miterlimit:10;" x1="423.57" y1="149.151" x2="485.047" y2="149.151"/>
			<line style="fill:none;stroke:#000000;stroke-miterlimit:10;" x1="423.57" y1="160.99" x2="485.047" y2="160.99"/>
			<line style="fill:none;stroke:#000000;stroke-miterlimit:10;" x1="423.57" y1="172.829" x2="485.047" y2="172.829"/>
			<line style="fill:none;stroke:#000000;stroke-miterlimit:10;" x1="423.57" y1="184.668" x2="485.047" y2="184.668"/>
			<line style="fill:none;stroke:#000000;stroke-miterlimit:10;" x1="423.57" y1="196.507" x2="485.047" y2="196.507"/>
			<line style="fill:none;stroke:#000000;stroke-miterlimit:10;" x1="423.57" y1="208.346" x2="485.047" y2="208.346"/>
			<line style="fill:none;stroke:#000000;stroke-miterlimit:10;" x1="423.57" y1="220.184" x2="485.047" y2="220.184"/>
			<line style="fill:none;stroke:#000000;stroke-miterlimit:10;" x1="423.57" y1="232.023" x2="485.047" y2="232.023"/>
			<line style="fill:none;stroke:#000000;stroke-miterlimit:10;" x1="423.57" y1="243.862" x2="485.047" y2="243.862"/>
			<line style="fill:none;stroke:#000000;stroke-miterlimit:10;" x1="454.737" y1="102.359" x2="485.047" y2="102.359"/>
		</g>
	</g>
</g>
<g id="Lines">
	<g>
		<line style="fill:none;stroke:#263238;stroke-miterlimit:10;" x1="357.928" y1="107.197" x2="372.703" y2="94.064"/>
		<line style="fill:none;stroke:#263238;stroke-miterlimit:10;" x1="329.968" y1="132.049" x2="352.526" y2="111.998"/>
		<line style="fill:none;stroke:#263238;stroke-miterlimit:10;" x1="302.017" y1="159.629" x2="329.968" y2="132.049"/>
		<line style="fill:none;stroke:#263238;stroke-miterlimit:10;" x1="358.603" y1="145.832" x2="383.868" y2="132.372"/>
		<line style="fill:none;stroke:#263238;stroke-miterlimit:10;" x1="289.965" y1="133.539" x2="264.769" y2="184.611"/>
		<line style="fill:none;stroke:#263238;stroke-miterlimit:10;" x1="312.533" y1="87.795" x2="293.078" y2="127.229"/>
		<line style="fill:none;stroke:#263238;stroke-miterlimit:10;" x1="261.668" y1="75.954" x2="261.668" y2="118.442"/>
		<line style="fill:none;stroke:#263238;stroke-miterlimit:10;" x1="234.024" y1="110.622" x2="222.079" y2="78.64"/>
		<line style="fill:none;stroke:#263238;stroke-miterlimit:10;" x1="225.124" y1="146.953" x2="194.054" y2="108.69"/>
		<line style="fill:none;stroke:#263238;stroke-miterlimit:10;" x1="232.513" y1="156.054" x2="227.727" y2="150.16"/>
		<line style="fill:none;stroke:#263238;stroke-miterlimit:10;" x1="162.968" y1="130.269" x2="219.487" y2="169.287"/>
		<line style="fill:none;stroke:#263238;stroke-miterlimit:10;" x1="135.745" y1="111.477" x2="156.865" y2="126.057"/>
		<line style="fill:none;stroke:#263238;stroke-miterlimit:10;" x1="87.889" y1="161.468" x2="50.143" y2="154.661"/>
		<line style="fill:none;stroke:#263238;stroke-miterlimit:10;" x1="166.559" y1="175.655" x2="95.199" y2="162.786"/>
		<line style="fill:none;stroke:#263238;stroke-miterlimit:10;" x1="363.835" y1="175.837" x2="451.481" y2="163.715"/>
		<line style="fill:none;stroke:#263238;stroke-miterlimit:10;" x1="342.445" y1="179.231" x2="353.823" y2="177.222"/>
	</g>
	<g>
		<line style="fill:none;stroke:#263238;stroke-miterlimit:10;" x1="196.637" y1="255.006" x2="47.047" y2="424.081"/>
		<line style="fill:none;stroke:#263238;stroke-miterlimit:10;" x1="157.04" y1="398.94" x2="114.3" y2="491.962"/>
		<line style="fill:none;stroke:#263238;stroke-miterlimit:10;" x1="370.112" y1="403.968" x2="439.879" y2="492.591"/>
		<line style="fill:none;stroke:#263238;stroke-miterlimit:10;" x1="291.546" y1="351.8" x2="334.286" y2="481.277"/>
		<line style="fill:none;stroke:#263238;stroke-miterlimit:10;" x1="295.317" y1="439.794" x2="306.002" y2="486.306"/>
		<line style="fill:none;stroke:#263238;stroke-miterlimit:10;" x1="214.236" y1="398.311" x2="204.18" y2="451.108"/>
	</g>
</g>
<g id="Characters_2">
	<g>
		<path style="fill:#263238;stroke:#263238;stroke-miterlimit:10;" d="M375.24,219.755c0,0,2.961,12.542,4.007,15.677
			c1.045,3.135,3.832,10.451,3.832,21.251c0,10.8-2.264,34.142-2.264,37.625c0,3.484,0.871,8.884,0.871,8.884l0.523,8.187
			l-3.31,4.877l-4.355,1.394c0,0-4.529,1.568-5.052,0.174c-0.523-1.393-0.523-1.393-0.523-1.393s-0.697-1.568-0.348-4.355
			c0.348-2.787,1.393-7.142,1.393-7.142v-5.051l2.265-7.49l-3.832-31.355l-4.529-21.077l-3.658-17.768L375.24,219.755z
			 M374.369,312.774c0,0,1.045-1.568,1.219-2.613c0.174-1.045,0.174-2.439,0.174-2.439h-2.09l-0.522,3.31L374.369,312.774z"/>
		<path style="fill:#263238;stroke:#263238;stroke-miterlimit:10;" d="M316.729,179.341c0,0-1.823-0.28-3.224,1.122
			c-1.402,1.402-3.505,4.626-4.066,5.468c-0.561,0.841-8.832,5.047-11.215,6.869c-2.383,1.823-5.608,3.925-7.43,7.43
			c-1.823,3.505-3.925,22.852-3.925,22.852s-2.944,2.664,3.925,4.486c6.869,1.822,9.533,1.822,9.533,1.822l0.561,9.113
			l-1.823,22.291l0.14,10.234l-0.981,5.187c0,0-0.09,25.32,1.25,32.551c1.339,7.232,12.588,57.852,12.588,57.852l3.482,34.283
			l5.089,24.641c0,0-0.803,2.41-0.536,5.089c0.268,2.678,3.482,3.214,3.482,3.214h2.143c0,0-2.41,5.357-4.553,9.642
			c-2.143,4.285-2.678,8.838-1.071,10.713c1.607,1.875,8.571,6.16,13.927,1.875c5.357-4.285,3.214-12.32,3.214-12.32l2.678-4.821
			l-1.607-8.303c0,0,4.017-2.946,4.017-4.285c0-1.339-2.946-4.017-2.946-4.017s-6.428-37.229-6.964-43.389
			c-0.536-6.16-0.536-12.32-0.536-12.32s1.071-18.213,0.803-22.766c-0.268-4.553-0.536-12.856-0.536-12.856l1.607-12.588
			l11.249,49.549l1.071,21.159l-2.143,15.534c0,0-3.214,4.017-3.214,5.624c0,1.607-0.536,2.946,0.268,5.089
			c0.803,2.143,1.875,6.696,1.875,6.696s0.803,9.106,0.536,13.124c-0.268,4.017,4.553,5.624,8.303,6.16
			c3.75,0.536,8.571-6.696,8.571-6.696s-2.946-17.945-3.214-19.552c-0.268-1.607,4.285-5.625,4.285-5.625s1.875-0.536,0.803-4.017
			c-1.071-3.482-1.071-5.892-1.071-5.892s4.285-25.98,5.089-32.408c0.803-6.428,0.536-8.035,0.536-8.035s1.607-3.214,1.607-10.981
			c0-7.767,0-27.587,0-27.587s-2.143-19.284-4.017-24.908c-1.875-5.624-3.482-12.32-3.482-12.32l1.607-5.892
			c0,0,1.875-9.91,1.071-15.267c-0.804-5.357-1.071-11.249-1.071-11.249l-0.536-8.303l1.071-8.035l-1.607-10.713
			c0,0,6.964,0.803,9.642-0.268c2.678-1.071,7.231-4.018,7.231-4.018s-6.428-24.105-10.981-28.122
			c-4.553-4.018-13.66-8.571-14.731-9.106c-1.071-0.536-4.285-1.607-5.892-2.678c-1.607-1.071-4.285-4.018-5.625-4.018
			s-2.107,1.165-2.107,1.165L316.729,179.341z"/>
		<path style="fill:#636363;stroke:#263238;stroke-miterlimit:10;" d="M367.235,191.456c-4.553-4.018-13.66-8.571-14.731-9.106
			c-1.071-0.536-4.285-1.607-5.892-2.678c-1.607-1.071-4.285-4.018-5.625-4.018c-1.339,0-2.107,1.165-2.107,1.165l-22.151,2.523
			c0,0-1.823-0.28-3.224,1.122c-1.402,1.402-3.505,4.626-4.066,5.468c-0.561,0.841-8.832,5.047-11.215,6.869
			c-2.383,1.823-5.608,3.925-7.43,7.43c-1.823,3.505-3.926,22.852-3.926,22.852s-2.944,2.664,3.926,4.486
			c6.87,1.823,9.533,1.823,9.533,1.823l0.561,9.113l-1.823,22.291l0.14,10.234l-0.916,4.84c4.38,3.882,16.594,13.356,32.52,14.417
			c20.087,1.339,29.997-6.964,29.997-6.964l1.607-5.892c0,0,1.875-9.91,1.071-15.266c-0.803-5.357-1.071-11.249-1.071-11.249
			l-0.536-8.303l1.071-8.035l-1.607-10.713c0,0,6.964,0.803,9.642-0.268c2.678-1.071,7.232-4.018,7.232-4.018
			S371.788,195.473,367.235,191.456z"/>
		<path style="fill:none;stroke:#263238;stroke-miterlimit:10;" d="M310.055,189.888l0.292,8.462c0,0-0.875,5.544,0.584,4.96
			c1.459-0.584,5.252-6.419,5.836-7.587c0.584-1.167,9.629,3.793,9.629,3.793"/>
		<path style="fill:none;stroke:#263238;stroke-miterlimit:10;" d="M331.064,199.809c0,0,7.587-5.836,9.337-5.252
			s5.544,6.128,6.711,4.377c1.167-1.751,0.584-11.38-0.584-15.757"/>
		<path style="fill:#263238;stroke:#263238;stroke-miterlimit:10;" d="M316.028,171.21c0,0,0,8.131,0,10.795
			c0,2.664-0.701,6.028,2.243,8.412c2.944,2.383,7.711,6.449,7.711,6.449s11.075-7.711,12.758-9.813
			c1.682-2.103,1.402-7.29,1.402-7.29l-1.262-2.944l-0.14-7.57L316.028,171.21z"/>
		<path style="fill:#263238;stroke:#263238;stroke-miterlimit:10;" d="M311.682,141.629c0,0-3.224,5.047-2.523,7.01
			c0.701,1.963,1.682,4.206,1.682,4.206v3.084c0,0-1.823,0.701-1.823,2.804s1.121,4.486,2.243,6.589
			c1.121,2.103,2.103,2.383,2.103,2.383s1.262,4.066,1.822,4.626c0.561,0.561,3.365,5.608,8.271,7.711
			c1.227,0.526,2.55,0.657,3.844,0.559c4.113-0.313,7.667-3.007,9.365-6.766l2.072-4.588l0.701-2.804c0,0,3.505-6.309,3.224-9.113
			c-0.28-2.804-1.262-4.066-1.262-4.066l-2.243-10.514c0,0,2.103-4.486-4.626-7.29c-6.729-2.804-13.459-4.206-19.347-1.542
			C309.299,136.582,311.682,141.629,311.682,141.629z"/>
		<path style="fill:#263238;stroke:#263238;stroke-miterlimit:10;" d="M286.576,225.155c0,0-2.961,12.542-4.006,15.677
			c-1.045,3.135-3.832,10.452-3.832,21.251s-1.916,30.135-1.916,33.619c0,3.484-0.871,8.884-0.871,8.884l-0.523,8.187l3.31,4.877
			l4.355,1.394c0,0,4.529,1.568,5.051,0.174c0.523-1.394,0.523-1.394,0.523-1.394s0.697-1.568,0.348-4.355
			c-0.348-2.787-1.394-7.142-1.394-7.142v-5.052l-2.264-7.49l8.013-27.348l4.529-21.077l3.658-17.768L286.576,225.155z
			 M283.266,314.167c0,0-1.045-1.568-1.219-2.613c-0.174-1.045-0.174-2.439-0.174-2.439h2.09l0.523,3.31L283.266,314.167z"/>
	</g>
	<g>
		<path style="fill:#636363;stroke:#263238;stroke-miterlimit:10;" d="M153.134,297.18l-12.272,11.369l-15.159,7.579
			c0,0-4.873,60.456-3.97,60.997c0.902,0.541,14.798,2.346,15.52,2.346s2.887-0.722,2.887-0.722l6.858-6.858
			c0,0-1.083,4.512,0,5.053c1.083,0.541,17.866,2.346,18.949,0.902c1.083-1.444,3.97-9.745,3.97-9.745s3.248-24.182,2.887-28.333
			c-0.361-4.151-15.701-38.259-16.603-39.702C155.299,298.623,154.397,295.555,153.134,297.18z"/>
		<path style="fill:#263238;stroke:#263238;stroke-miterlimit:10;" d="M185.534,144.58c0,0-9.44,6.294-9.727,10.728
			c-0.286,4.434,3.433,14.018,2.003,17.165c-1.43,3.147-4.148,4.434-5.006,8.582c-0.858,4.148,3.719,5.722,2.718,7.152
			c-1.001,1.43-3.004,2.432-3.576,4.148c-0.572,1.716,0.429,3.862,0.429,3.862l0.858,3.719h39.478c0,0,2.434-4.884,4.293-8.031
			c1.86-3.147-0.937-5.79-4.084-10.939c-3.147-5.149-3.07-10.21-3.07-10.21s1.144-4.291,0.429-8.296
			c-0.715-4.005-0.858-3.576-3.004-6.008c-2.146-2.432-2.861-7.867-6.866-10.585C196.405,143.15,197.549,142.435,185.534,144.58z"/>
		<path style="fill:#636363;stroke:#263238;stroke-miterlimit:10;" d="M140.862,289.78c0,0,15.881-27.792,16.964-29.596
			c1.083-1.805,2.346-5.594,2.346-5.594l-11.559-5.695c0,0-3.961,10.026-4.141,14.537c-0.18,4.512-7.038,24.002-7.038,24.002
			s-6.858,5.955-6.497,7.038s1.805,4.151,1.805,4.151v1.985c0,0-0.388,0.784,0.857,0.76l-0.017,13.677h0.847v-13.775
			c0.138-0.026,0.291-0.061,0.451-0.1l1.593,11.945l0.84-0.112l-1.609-12.06c1.1-0.335,1.995-0.726,2.731-1.163l5.888,7.231
			l0.657-0.535l-5.839-7.171c0.363-0.28,0.674-0.575,0.919-0.89c2.357,2.183,5.433,5.493,7.521,7.886l0.639-0.558
			c-0.617-0.707-4.568-5.204-7.705-8.06c0.229-0.493,0.347-1.02,0.347-1.587C140.862,293.931,140.862,289.78,140.862,289.78z"/>
		<path style="fill:#636363;stroke:#263238;stroke-miterlimit:10;" d="M232.122,311.847c0.333-1.18,0.808-2.525,1.256-3.785
			c0.023-0.065,0.042-0.121,0.065-0.185c0.213,1.637,0.38,3.375,0.477,5.028l0.846-0.05c-0.015-0.258-0.214-3.522-0.71-6.745
			c0.087-0.258,0.163-0.496,0.239-0.734l0.952,0.285c0,0,0.722,0.902,1.444,2.166c0.722,1.263,1.444,0.541,1.444,0.541
			s0.902-0.722,1.263-1.805c0.361-1.083-0.722-2.346-0.361-2.887c0.361-0.541,0.361-2.346,0.541-3.609
			c0.181-1.263-0.722-2.166-0.722-2.166l-5.233-8.843c0,0-1.444-6.136-3.068-11.55c-1.624-5.414-1.805-20.754-1.805-20.754
			l-14.437,2.707l4.692,9.565l7.94,20.753l3.429,9.745l0.035,0.523c-1.437,0.925-3.405,3.217-5.093,5.397
			c-0.314,0.197-0.619,0.391-0.913,0.58l-3.593-2.71l-1.985,1.444l-5.233-4.692l-10.828,6.497l-6.316,61.178l9.926,10.647
			l12.993,1.444l6.136-14.257l15.34-1.624l1.985-44.034L232.122,311.847z M230.47,300.972l0.084,1.26v0.204
			c-0.97,0.484-2.019,1.063-3.072,1.686C228.682,302.689,229.729,301.583,230.47,300.972z M225.381,306.764
			c0.175-0.231,0.348-0.455,0.521-0.677c1.682-1.048,3.3-1.992,4.652-2.706v1.198l2.453,0.46c0.06,0.329,0.117,0.669,0.173,1.018
			c-0.217,0.641-0.432,1.249-0.6,1.72c-0.427,1.2-0.857,2.416-1.184,3.522L225.381,306.764z"/>
		<path style="fill:#263238;stroke:#263238;stroke-miterlimit:10;" d="M212.688,272.275c0-3.429-1.624-6.677-1.624-6.677
			l-46.921-2.166c0,0-3.97,23.28-3.429,35.191c0.541,11.911,9.204,48.004,9.204,48.004s-2.346,22.739-0.722,31.582
			c1.624,8.843,2.707,15.881,2.707,15.881l-1.805,1.083l1.805,5.053l2.346,1.624l3.248,16.422l1.083,7.94
			c0,0-2.166,3.068-1.985,11.911c0.18,8.843-0.361,13.535,1.083,14.798c1.444,1.263,10.647,0.541,12.993-0.902
			c2.346-1.444,2.346-5.955,2.346-5.955l-0.902-10.648c0,0-2.346-14.076-2.165-19.31c0.18-5.234,1.263-12.091,1.263-12.091
			l2.707-11.73c0,0,3.068,0.181,3.429-2.346c0.361-2.527,2.346-6.497,1.444-7.941c-0.902-1.444-1.263-2.526-1.263-2.526
			s5.414-14.437,5.594-27.431c0.18-12.993,0.18-13.896,0.18-13.896s10.106-23.28,10.287-38.078
			C213.77,285.269,212.688,275.704,212.688,272.275z M187.728,315.756l-0.305,25.096l-1.357-9.025v-29.093
			c0.722-3.068,2.217,0,2.217,0L187.728,315.756z"/>
		<path style="fill:#636363;stroke:#263238;stroke-miterlimit:10;" d="M186.738,186.942c0,0-5.447,1.362-7.319,2.893
			c-1.872,1.532-2.042,3.915-2.042,3.915s-11.574,4.255-14.467,6.127c-2.893,1.872-4.766,10.382-4.766,10.382
			s-3.744,7.659-2.383,10.893c1.362,3.234,0.34,6.468,0.34,6.468l-2.553,5.446l-0.17,3.404l-2.893,8.51l-1.872,3.915
			c0,0,3.258,1.905,5.965,3.529c2.707,1.624,5.594,2.166,5.594,2.166l2.527-4.512l0.18,10.828c0,0-1.624,1.624-0.361,2.887
			c1.263,1.263,3.068,1.624,3.068,1.624l25.987,2.346l19.129,0.181c0,0,3.609-3.248,3.429-4.512c-0.181-1.263,0.18-3.97,0.18-3.97
			s-1.805,1.805,5.234,0.18c7.038-1.624,9.204-2.166,9.204-2.887c0-0.722-2.527-11.369-2.527-11.369s-1.624-11.911-1.444-15.159
			c0.18-3.248,0.361-4.873,0.361-4.873s3.79-6.136,2.527-10.828c-1.263-4.692-1.805-4.331-3.609-10.467
			c-1.805-6.136-5.594-7.219-5.594-7.219s-5.234-2.707-7.219-4.151c-1.985-1.444-1.624-2.166-5.955-3.79
			c-4.331-1.624-7.038-1.624-8.843-1.805C194.641,186.915,186.738,186.942,186.738,186.942z"/>
		<path style="fill:#263238;stroke:#263238;stroke-miterlimit:10;" d="M186.063,177.245c0,0,0,5.406-0.159,7.95
			c-0.159,2.544-0.318,3.816-1.59,5.088c-1.272,1.272-3.18,3.021-3.18,3.021s-1.86,3.893-1.315,5.799
			c0.545,1.906,9.259,9.531,9.259,9.531s5.991,3.268,8.442,1.634c2.451-1.634,9.664-6.967,10.481-9.69
			c0.817-2.723-1.077-5.908-1.077-5.908s-2.723-3.54-3.268-4.357c-0.545-0.817-2.996-13.616-2.996-13.616L186.063,177.245z"/>
		<path style="fill:#263238;stroke:#263238;stroke-miterlimit:10;" d="M192.741,149.578c0,0-9.222,2.862-10.494,4.77
			c-1.272,1.908,0.159,6.996-0.159,9.858c-0.318,2.862,0.477,8.904,0.477,8.904s1.272,4.611,3.816,6.042
			c2.544,1.431,3.657,3.18,7.473,2.544c3.816-0.636,7.473-2.544,8.904-6.36c1.431-3.816,0.477-10.017,0.477-10.017l-1.59-9.222
			c0,0-3.975-4.77-5.406-5.724C194.808,149.419,192.741,149.578,192.741,149.578z"/>
	</g>
	<g>
		<path style="fill:#263238;stroke:#263238;stroke-miterlimit:10;" d="M441.835,310.506c0-5.328-0.816-11.181-0.816-11.181
			s-3.67-1.438-7.035-1.999c-3.365-0.561-17.386-4.487-17.386-4.487s-19.349-3.645-29.444-1.402
			c-10.095,2.243-15.534,4.82-15.534,4.82l0.672,26.586l8.132,39.819l-0.841,30.565c0,0,5.328,39.539,7.01,42.623
			c1.682,3.085,2.243,5.889,2.243,5.889l-1.122,5.889l3.926,6.169c0,0,0,3.365-0.841,6.45c-0.841,3.085-5.048,3.365-4.487,7.01
			c0.561,3.645,10.375,5.608,10.375,5.608s7.01,0.841,9.254-3.365c2.243-4.206,0.841-9.254,2.243-12.058
			c1.402-2.804,8.693,3.085,11.217,0.841c2.524-2.243,1.122-11.497,1.402-12.619c0.28-1.122,4.487-7.291,4.487-7.291l2.524-8.413
			c0,0,6.45-26.359,5.889-37.015c-0.561-10.656-2.243-24.677-2.243-24.677l7.571-35.613
			C439.031,332.659,441.835,315.834,441.835,310.506z M410.429,418.186c0,0-0.561,5.889-1.402,7.852
			c-0.841,1.963-3.365,8.132-3.365,8.132s-0.841-8.413-0.841-13.74c0-5.328-1.122-27.2-1.122-27.2s0.841-9.815,1.402-12.899
			c0.561-3.085,1.122-24.396,1.122-24.396l0.841-3.926c0,0,1.682,11.217,1.682,13.18s1.122,11.497,1.402,15.143
			c0.28,3.645,0.28,8.693,0.28,8.693V418.186z"/>
		<path style="fill:#808080;stroke:#263238;stroke-miterlimit:10;" d="M386.19,186.6c0,0-14.953,3.067-16.871,9.585
			c-1.917,6.518-5.368,56.746-5.368,56.746s-2.684,8.435-1.15,12.269c1.534,3.834,7.668,17.254,7.668,17.254l1.15,13.803
			c0,0,17.254-4.218,25.306-3.834c8.052,0.383,29.907,6.902,29.907,6.902h14.186V288.59l1.15-6.135l2.301-8.819l11.119,35.275
			c0,0-5.545,6.445-5.545,9.791c0,3.347,0.209,12.76,0.209,12.76s2.719,4.393,3.138,1.673c0.418-2.719,0-6.484,0.628-7.53
			c0.628-1.046,1.883,3.556,1.883,3.556l0.209,5.648l-4.602,4.811c0,0,1.464,2.719,2.719,2.51c1.255-0.209,6.066-5.438,6.066-5.438
			l1.464-6.066c0,0,2.092-4.602,1.883-10.877c-0.209-6.275-1.673-12.969-1.673-12.969s-1.882-29.493-2.928-39.742
			c-1.046-10.25-1.464-14.433-1.464-14.433l-3.974-25.31l-1.464-16.315c0,0-1.046-12.55-3.765-16.525
			c-2.719-3.974-8.785-7.739-9.831-7.949C437.494,186.297,394.499,182.301,386.19,186.6z"/>
		<path style="fill:#263238;stroke:#263238;stroke-miterlimit:10;" d="M410.034,124.69c0,0-14.009-0.876-16.197,11.382
			c-2.189,12.258-1.313,24.077-1.313,24.077s-14.884,15.322-13.133,21.013c1.751,5.691,3.502,13.133,3.502,13.133
			s-10.069,15.322-7.004,22.764c3.064,7.442,13.133,10.506,13.571,14.884c0.438,4.378-2.189,11.82,7.88,17.073
			c10.069,5.253,14.009,9.193,18.386-2.189c4.378-11.382,4.815-21.013,4.815-21.013s10.944-0.438,16.635-9.631
			c5.691-9.193,0.438-22.764,0.438-22.764s4.378-3.064,3.94-8.318c-0.438-5.253-10.944-15.76-10.944-23.64
			c0-7.88,2.189-21.888-3.502-31.519C421.416,120.312,410.034,124.69,410.034,124.69z"/>
		<path style="fill:#808080;stroke:#263238;stroke-miterlimit:10;" d="M454.009,342.135c0.073,0.006,0.147,0.006,0.219-0.006
			c1.255-0.209,6.066-5.438,6.066-5.438l1.464-6.066c0,0,2.092-4.602,1.883-10.877c-0.209-6.275-1.673-12.969-1.673-12.969
			s-0.879-13.767-1.769-25.759l-12.712,2.119l-0.004,0.05l8.108,25.721c0,0-5.545,6.445-5.545,9.792s0.209,12.759,0.209,12.759
			s2.719,4.393,3.138,1.674c0.418-2.719,0-6.484,0.628-7.53s1.883,3.556,1.883,3.556l0.209,5.648l-4.602,4.811
			C453.835,341.34,453.873,341.369,454.009,342.135z"/>
		<path style="fill:#808080;stroke:#263238;stroke-miterlimit:10;" d="M441.019,299.326v-5.449l-14.194-2.218
			c0,0-19.624-7.425-28.11-6.895s-27.049,4.243-27.049,4.243l-0.612,0.459l0.566,6.792c0,0,17.254-4.218,25.306-3.834
			c8.052,0.383,29.907,6.902,29.907,6.902H441.019z"/>
		<path style="fill:#808080;stroke:#263238;stroke-miterlimit:10;" d="M375.329,230.873l1.641,14.112c0,0-9.547,20.154-7.425,26.519
			c2.122,6.365,0.925,10.951,0.925,10.951"/>
		<line style="fill:#808080;stroke:#263238;stroke-miterlimit:10;" x1="374.318" y1="222.179" x2="374.875" y2="226.971"/>
		<path style="fill:#808080;stroke:#263238;stroke-miterlimit:10;" d="M437.453,236.702c-0.596-5.964-1.081-10.81-1.081-10.81"/>
		<path style="fill:#808080;stroke:#263238;stroke-miterlimit:10;" d="M444.47,273.636c0,0-4.385-10.618-4.916-15.922
			c-0.24-2.4-0.915-9.146-1.581-15.812"/>
	</g>
	<g>
		<path style="fill:#263238;stroke:#263238;stroke-miterlimit:10;" d="M62.348,294.81c0,0,3.403,3.403,3.403,6.806
			c0,3.403-2.188,9.237-2.188,9.237s-1.945,5.834-2.917,3.646c-0.972-2.188,0.243-8.507,0.243-8.507l-2.188-0.243l0.243,11.181
			c0,0,1.458,3.889,0.972,4.861c-0.486,0.972-4.618,0-4.618,0s-4.375-3.16-5.591-4.618c-1.215-1.458-2.188-4.861-2.188-5.834
			c0-0.972,0-8.507,0-8.507l0.729-5.834C48.25,296.998,61.132,293.838,62.348,294.81z"/>
		<path style="fill:#263238;stroke:#263238;stroke-miterlimit:10;" d="M156.254,303.834c0,0-3.502,7.782-4.085,10.895
			c-0.584,3.113-0.584,7.977-0.584,7.977s0,3.891,1.751,3.113c1.751-0.778,1.945-7.004,1.945-7.004l1.751-3.502l2.14,4.864
			c0,0-0.389,4.086-0.973,5.253c-0.584,1.167-3.696,2.724-4.669,3.307c-0.973,0.584-4.28,1.556-3.307,2.529
			c0.973,0.973,7.198,0.389,7.198,0.389l6.615-5.058l2.14-7.198l0.389-10.311L156.254,303.834z"/>
		<path style="fill:#263238;stroke:#263238;stroke-miterlimit:10;" d="M78.275,295.31c0,0-3.433,21.653-3.169,27.991
			c0.264,6.337,3.961,38.817,3.961,38.817l-2.112,5.281l1.056,2.905c0,0-2.641,9.77-3.433,14.787
			c-0.792,5.017-1.32,23.502-1.056,28.519c0.264,5.017-0.528,14.259-0.528,14.259l-1.32,6.602l2.641,5.281
			c0,0-1.584,1.848-0.792,3.961c0.792,2.112,1.848,3.697,1.848,3.697s-0.792,18.484-0.264,21.917
			c0.528,3.433,17.428,3.961,19.805,3.433c2.377-0.528,2.113-6.602,2.113-6.602s-2.641-15.052-2.641-16.636
			c0-1.584-0.264-3.697,0.528-5.545c0.792-1.848,2.113-4.753,2.113-8.45s-0.528-8.978-0.528-8.978s0.792-9.242,1.32-17.956
			c0.528-8.714,0.528-18.484,0.528-18.484l0.528-6.602l3.433-7.13l2.905-16.636c0,0,3.169-17.164,3.697-21.125
			c0.528-3.961,1.848-10.563,1.848-10.563l2.905,16.636c0,0-1.584,14.523-0.264,21.125c1.32,6.602,3.169,12.411,3.169,12.411
			l0.264,22.445c0,0,1.32,12.411,1.848,14.788c0.528,2.377,1.848,6.337,1.848,6.337l-3.169,7.394l2.377,10.298
			c0,0,0.792,9.242,1.32,10.563c0.528,1.32,0.264,7.658,0.528,9.506c0.264,1.849,6.866,2.641,9.242,1.849
			c2.377-0.792,6.866-1.584,8.45-5.017c1.584-3.433,0.792-8.714,0.792-8.714l-1.584-3.169c0,0,2.905-8.186,2.641-10.563
			c-0.264-2.376-2.376-4.753-2.641-6.602c-0.264-1.848,1.32-8.714,1.32-8.714s2.355-28.273,1.574-33.281
			c-0.782-5.008-2.63-12.138-2.63-12.138l-2.113-7.394c0,0,3.697-13.203,4.489-21.917c0.792-8.714,4.514-41.919,4.132-43.449
			c-0.383-1.531-1.403-1.786-1.403-1.786s-8.164,2.934-28.829,0.638c-20.665-2.296-29.977-3.827-31.636-4.592
			c-1.658-0.765-4.082-1.658-4.72-1.276C78.028,293.815,78.275,295.31,78.275,295.31z"/>
		<path style="fill:#808080;stroke:#263238;stroke-miterlimit:10;" d="M96.863,171.818c0,0-26.98,12.883-28.682,14.341
			c-1.701,1.458-2.674,5.348-2.674,5.348l-14.827,49.586l-3.646,17.015l0.486,13.369c0,0-4.132,10.209-3.403,12.639
			c0.729,2.431,3.403,5.104,3.403,5.104l0.972,3.16c0,0-3.16,4.618-0.972,6.806c2.188,2.188,7.049,2.431,9.723,1.215
			c2.674-1.215,5.347-4.375,5.104-5.591c-0.243-1.215-0.972-3.889-0.972-3.889l0.243-5.59l-0.729-6.806
			c0,0,6.563-11.91,8.264-16.771c1.701-4.861,3.16-20.175,3.16-20.175l4.375-10.938l1.945,29.411l-2.674,38.404l15.799,6.563
			l39.863-1.458c0,0,12.925,0.702,13.39-2.201c0.465-2.903-1.966-26.723-2.209-32.071c-0.243-5.347-0.972-9.48-0.972-9.48
			l-1.702-8.021l2.188-11.667l4.618,24.307l7.292,27.467c0,0,0,3.403,0.972,4.861c0.972,1.458-0.972,8.75-0.972,8.75
			s2.431,3.403,5.104,4.618c2.674,1.215,7.292,1.945,7.292,1.945l2.188-5.834l0.486-8.021c0,0,2.917-4.375,3.403-9.966
			c0.486-5.591-1.944-15.313-1.944-15.313l-2.917-30.869c0,0-5.834-30.383-7.778-36.946c-1.945-6.563-0.486-5.834-3.16-11.424
			c-2.674-5.591-15.556-11.91-15.556-11.91l-6.32-3.16c0,0-8.507-6.563-15.313-8.021C112.906,169.145,99.294,170.603,96.863,171.818
			z"/>
		<path style="fill:none;stroke:#263238;stroke-miterlimit:10;" d="M71.856,210.41c-0.641-2.984-1.129-5.538-1.273-6.984"/>
		<path style="fill:none;stroke:#263238;stroke-miterlimit:10;" d="M76.689,230.641c0,0-2.244-8.765-4.021-16.57"/>
		<line style="fill:none;stroke:#263238;stroke-miterlimit:10;" x1="143.754" y1="219.439" x2="144.848" y2="203.702"/>
		<line style="fill:none;stroke:#263238;stroke-miterlimit:10;" x1="142.317" y1="240.12" x2="143.427" y2="224.148"/>
		<path style="fill:#263238;stroke:#263238;stroke-miterlimit:10;" d="M115.822,122.233c0,0-9.966,3.646-11.424,7.535
			c-1.458,3.889-1.458,10.938-1.215,12.396s-1.701,2.188-1.458,4.861c0.243,2.674,0.243,6.563,1.215,7.778
			c0.972,1.215,2.674,1.701,2.674,1.701l0.243,9.723l9.237,0.243l12.153,2.674c0,0,3.16-8.021,3.403-8.75
			c0.243-0.729,3.16-0.729,4.132-3.646c0.972-2.917,1.945-8.264,1.945-8.264l-0.972-3.403c0,0,1.702-11.424-0.729-15.799
			C132.594,124.907,120.684,120.532,115.822,122.233z"/>
		<path style="fill:#808080;stroke:#263238;stroke-miterlimit:10;" d="M135.025,178.624c0,0-2.674-6.563-2.917-7.535
			c-0.243-0.972-3.646-3.889-8.021-5.104c-4.375-1.215-18.23-1.701-18.23-1.701s-4.375,0.972-6.077,2.431
			c-1.701,1.458-2.917,5.104-2.917,5.104s19.688,0.486,23.091,1.215S135.025,178.624,135.025,178.624z"/>
	</g>
</g>
<g id="Character_1_00000150097498381896298400000016620370275553796230_">
	<g>
		<path style="fill:#263238;stroke:#263238;stroke-miterlimit:10;" d="M212.07,289.15c0,0-1.866,11.524,0.905,24.372
			c2.771,12.848,12.848,45.85,13.856,51.393c1.008,5.542-3.023,23.429-3.023,23.429s-1.512,19.65,2.015,26.956
			c3.527,7.306,8.313,28.971,8.313,28.971s1.764,8.565,2.015,9.321c0.252,0.756,2.015,1.763,4.535,1.26
			c2.519-0.504,5.503-2.066,6.007-2.821c0.504-0.756,0.986-7.102,0.986-7.102l-0.986-40.044l1.551-29.389l1.763-11.337
			c0,0-1.26,17.383-1.511,28.719s-1.008,22.421,0,26.956c1.008,4.535,0.252,20.154,0.252,23.429c0,3.275,0.504,6.046,0.504,6.046
			s8.313,6.298,10.077,1.764c1.763-4.535,5.542-15.116,5.542-15.116l7.054-41.064c0,0,0.252-20.91,0.504-21.918
			c0.252-1.008,3.275-14.36,5.794-23.933c2.519-9.573,5.722-12.986,7.283-26.258c1.682-14.295,2.242-35.878,2.242-35.878
			l-75.96-3.083L212.07,289.15z"/>
		<path style="fill:#FFFFFF;stroke:#263238;stroke-miterlimit:10;" d="M223.126,175.656c0,0-8.321-0.149-10.996,4.161
			c-2.675,4.309,8.024,37.593,8.024,37.593l3.863,16.196c0,0-8.466,26.549-10.546,33.683c-2.159,7.403-2.958,15.436-1.847,23.081
			c0,0,15.959,2.523,37.802,3.117c21.843,0.594,38.323-6.579,38.323-6.579s1.091-12.617-0.841-22.424
			c-1.932-9.807-5.653-29.479-5.653-29.479l1.9-19.825l18.128,2.08c0,0,1.04-10.698-0.892-18.425
			c-1.932-7.727-4.755-14.71-4.755-14.71s-0.762-4.922-3.799-7.81c-3.036-2.888-8.534-3.186-11.952-3.334
			c-3.418-0.149-16.048,0.743-20.505,0.892c-4.458,0.149-9.51-7.578-14.116-5.349c-4.606,2.229-6.389,5.498-13.076,6.984
			C225.504,176.993,223.126,175.656,223.126,175.656z"/>
		<g>
			<path style="fill:#92E3A9;" d="M213.785,266.229c-0.115,0.384-0.222,0.746-0.314,1.059c-0.216,0.74-0.407,1.49-0.595,2.241
				h74.762c-0.112-1.11-0.251-2.216-0.422-3.301H213.785z"/>
			<path style="fill:#92E3A9;" d="M216.18,258.428c-0.36,1.157-0.704,2.266-1.024,3.301h71.213c-0.204-1.046-0.419-2.153-0.64-3.301
				H216.18z"/>
			<path style="fill:#92E3A9;" d="M218.625,250.626c-0.347,1.103-0.694,2.207-1.037,3.3h67.274c-0.211-1.099-0.423-2.204-0.633-3.3
				H218.625z"/>
			<path style="fill:#92E3A9;" d="M211.151,281.832c-0.031,1.102-0.019,2.202,0.02,3.301h76.7c0.049-0.854,0.102-1.98,0.14-3.301
				H211.151z"/>
			<path style="fill:#92E3A9;" d="M211.939,274.03c-0.186,1.095-0.338,2.195-0.46,3.301h76.571
				c-0.012-1.061-0.039-2.167-0.089-3.301H211.939z"/>
			<path style="fill:#92E3A9;" d="M214.902,199.317h85.604c-0.037-0.161-0.074-0.323-0.113-0.482
				c-0.239-0.955-0.491-1.898-0.75-2.819h-85.574C214.336,197.112,214.615,198.215,214.902,199.317z"/>
			<path style="fill:#92E3A9;" d="M279.718,289.633h-68.177c0.032,0.245,0.048,0.492,0.084,0.736c0,0,10.224,1.615,25.498,2.565
				h25.594C269.568,292.19,275.404,290.857,279.718,289.633z"/>
			<polygon style="fill:#92E3A9;" points="220.634,219.421 221.422,222.721 282.433,222.721 282.75,219.421 			"/>
			<path style="fill:#92E3A9;" d="M212.382,188.215c0.187,1.05,0.405,2.154,0.65,3.301h85.243c-0.393-1.214-0.772-2.325-1.116-3.301
				H212.382z"/>
			<path style="fill:#92E3A9;" d="M211.895,180.414c-0.206,0.758-0.24,1.887-0.13,3.301h83.795
				c-0.128-0.622-0.438-1.887-1.032-3.301H211.895z"/>
			<path style="fill:#92E3A9;" d="M216.113,203.818c0.315,1.136,0.628,2.239,0.933,3.301h84.439
				c-0.051-1.083-0.131-2.193-0.249-3.301H216.113z"/>
			<path style="fill:#92E3A9;" d="M218.368,211.62c0.384,1.278,0.725,2.396,1.005,3.301h82.073c0.048-0.908,0.092-2.033,0.109-3.301
				H218.368z"/>
			<path style="fill:#92E3A9;" d="M223.566,235.024c-0.259,0.813-0.618,1.941-1.049,3.301h59.368
				c-0.373-1.967-0.607-3.204-0.626-3.301H223.566z"/>
			<path style="fill:#92E3A9;" d="M221.089,242.825c-0.334,1.056-0.684,2.161-1.044,3.301h63.324
				c-0.22-1.151-0.431-2.259-0.629-3.301H221.089z"/>
			<polygon style="fill:#92E3A9;" points="222.495,227.222 223.283,230.523 281.685,230.523 282.002,227.222 			"/>
		</g>
		<g>
			<path style="fill:none;stroke:#263238;stroke-miterlimit:10;" d="M275.591,226.116c0,0-19.818,17.96-25.392,21.676"/>
			<path style="fill:none;stroke:#263238;stroke-miterlimit:10;" d="M248.291,252.527c-2.027,1.358-3.923,2.516-5.523,3.317"/>
			<path style="fill:none;stroke:#263238;stroke-miterlimit:10;" d="M268.779,236.644c0,0-9.316,7.985-17.706,13.957"/>
			<path style="fill:none;stroke:#263238;stroke-miterlimit:10;" d="M283.642,180.596c0,0-2.493,1.963-4.498,8.878"/>
			<path style="fill:none;stroke:#263238;stroke-miterlimit:10;" d="M231.62,186.17c0,0,0.619,10.219-0.619,15.793"/>
		</g>
		<path style="fill:none;stroke:#263238;stroke-miterlimit:10;" d="M223.126,175.656c0,0-8.321-0.149-10.996,4.161
			c-2.675,4.309,8.024,37.593,8.024,37.593l3.863,16.196c0,0-8.466,26.549-10.546,33.683c-2.159,7.403-2.958,15.436-1.847,23.081
			c0,0,15.959,2.523,37.802,3.117c21.843,0.594,38.323-6.579,38.323-6.579s1.091-12.617-0.841-22.424
			c-1.932-9.807-5.653-29.479-5.653-29.479l1.9-19.825l18.128,2.08c0,0,1.04-10.698-0.892-18.425
			c-1.932-7.727-4.755-14.71-4.755-14.71s-0.762-4.922-3.799-7.81c-3.036-2.888-8.534-3.186-11.952-3.334
			c-3.418-0.149-16.048,0.743-20.505,0.892c-4.458,0.149-9.51-7.578-14.116-5.349c-4.606,2.229-6.389,5.498-13.076,6.984
			C225.504,176.993,223.126,175.656,223.126,175.656z"/>
		<path style="fill:#FFFFFF;stroke:#263238;stroke-miterlimit:10;" d="M246.295,172.485c0,0,3.787,23.726,14.871,27.19
			c11.084,3.464,11.777-25.632,11.777-25.632L246.295,172.485z"/>
		<path style="fill:#263238;stroke:#263238;stroke-miterlimit:10;" d="M274.286,128.512c0,0-4.108-6.722-12.324-5.789
			c-8.216,0.934-13.818,4.482-16.993,9.337c-3.174,4.855-3.174,10.27-3.174,10.27s-12.138,10.83-13.631,17.74
			c-1.494,6.909,0.373,9.15,0.373,9.15s-6.909,1.307-7.283,5.415c0,0,3.361,3.361,7.469,5.415
			c4.108,2.054,11.951,2.988,14.565-0.373c2.614-3.361,1.445-6.649,3.735-8.029c2.862-1.726,3.381-9.876,2.428-18.3
			c-0.847-7.48,22.595-6.162,22.595-6.162s1.681,18.673,0.373,22.408c-1.307,3.735,0,6.349,3.361,6.162
			c3.361-0.187,6.909-1.867,10.084-1.681c3.174,0.187,5.975,2.241,5.975,2.241s2.241-4.295,0-9.337
			c-2.241-5.042-5.042-9.897-3.174-11.204c1.867-1.307,8.03-2.428,5.602-9.897c-2.427-7.469-18.113-14.005-18.113-14.005
			L274.286,128.512z"/>
		<path style="fill:#FFFFFF;stroke:#263238;stroke-miterlimit:10;" d="M267.564,138.595c0,0,0.374,3.921-0.934,5.042
			c-1.307,1.12-9.15-0.373-13.631,2.054c-4.482,2.428-3.601,6.684-3.414,10.419c0.187,3.735-1.254,12.176-1.254,12.176
			s7.656,12.324,14.192,11.017c6.536-1.307,16.432-19.233,15.872-27.45c-0.56-8.216-8.216-8.59-8.216-8.59
			S267.937,137.848,267.564,138.595z"/>
		<g>
			<path style="fill:#FFFFFF;stroke:#263238;stroke-miterlimit:10;" d="M227.217,187.683c3.989,5.362,10.416,24.513,10.416,24.513
				s3.195-9.193,5.611-13.653c3.419-6.312,6.83-20.276,6.034-20.588c0,0-1.823-3.315-2.984-5.47
				c-1.16-2.155,0.995-8.785,0.995-8.785s3.481-3.978,4.144-5.139c0.663-1.16,1.658-2.486,2.155-2.321l0.963-0.352
				c0,0,4.243-4.678,4.569-5.657c0.326-0.979,1.523-0.87,2.067-0.326c0.544,0.544,0.544,0.544,0.544,0.544s1.305-0.653,2.176-0.217
				c0.87,0.435,0.762,1.523,0.762,1.523s1.197-0.218,1.741,0.87c0.544,1.088,0.109,3.264,0.109,3.264l-0.326,1.741
				c0,0,0.435,4.243,0,6.201c-0.435,1.958-3.916,13.163-3.916,13.163l-1.849,4.895c0,0-3.372,9.767-4.306,19.29
				c-0.934,9.523-1.12,14.005-3.735,21.101c-2.614,7.096-5.789,11.951-9.337,11.951s-8.806-2.561-15.715-5.922
				c-6.909-3.361-13.62-17.109-14.856-19.501c-3.616-6.999-4.668-19.42-3.921-22.221c0.654-2.451,2.451-6.903,4.891-8.228
				c0,0,2.546-1.513,4.329-1.216c1.783,0.297,5.201,2.526,5.646,3.566"/>
			<g>
				<path style="fill:#92E3A9;" d="M223.424,180.708c-0.119-0.277-0.452-0.639-0.906-1.026l-13.63,5.804
					c-0.13,0.394-0.242,0.767-0.331,1.1c-0.149,0.56-0.225,1.51-0.225,2.719l16.05-6.835L223.424,180.708z"/>
				<path style="fill:#92E3A9;" d="M233.035,199.691l-20.704,8.817c0.049,0.1,0.097,0.202,0.148,0.299
					c0.248,0.48,0.719,1.421,1.365,2.639l20.39-8.683C233.85,201.76,233.449,200.728,233.035,199.691z"/>
				<path style="fill:#92E3A9;" d="M228.111,189.044c-0.308-0.514-0.608-0.977-0.894-1.361l-0.813-1.494l-17.814,7.586
					c0.112,1.08,0.262,2.222,0.451,3.39L228.111,189.044z"/>
				<path style="fill:#92E3A9;" d="M254.508,214.788l-29.04,12.366c0.618,0.458,1.241,0.849,1.865,1.153
					c0.612,0.298,1.207,0.587,1.794,0.871l24.413-10.396C253.937,217.419,254.251,216.11,254.508,214.788z"/>
				<path style="fill:#92E3A9;" d="M231.423,195.796c-0.45-1.045-0.904-2.056-1.353-3.006l-20.188,8.597
					c0.262,1.09,0.558,2.166,0.891,3.203L231.423,195.796z"/>
				<path style="fill:#92E3A9;" d="M252.984,210.857l-1.291-3.032l-31.735,13.514c0.693,0.93,1.415,1.827,2.157,2.663
					L252.984,210.857z"/>
				<path style="fill:#92E3A9;" d="M243.128,207.137l-1.291-3.032l-1.376,0.586c-0.619,1.53-1.195,3.034-1.663,4.29L243.128,207.137
					z"/>
				<path style="fill:#92E3A9;" d="M236.816,209.826c-0.303-0.864-0.679-1.922-1.111-3.109l-19.801,8.432
					c0.536,0.915,1.121,1.873,1.743,2.84L236.816,209.826z"/>
				<path style="fill:#92E3A9;" d="M249.512,228.661c0.745-1.315,1.458-2.825,2.138-4.492l-17.411,7.414
					c1.573,0.702,3.018,1.292,4.334,1.737L249.512,228.661z"/>
			</g>
			<path style="fill:none;stroke:#263238;stroke-miterlimit:10;" d="M227.217,187.683c3.989,5.362,10.416,24.513,10.416,24.513
				s3.195-9.193,5.611-13.653c3.419-6.312,6.83-20.276,6.034-20.588c0,0-1.823-3.315-2.984-5.47
				c-1.16-2.155,0.995-8.785,0.995-8.785s3.481-3.978,4.144-5.139c0.663-1.16,1.658-2.486,2.155-2.321l0.963-0.352
				c0,0,4.243-4.678,4.569-5.657c0.326-0.979,1.523-0.87,2.067-0.326c0.544,0.544,0.544,0.544,0.544,0.544s1.305-0.653,2.176-0.217
				c0.87,0.435,0.762,1.523,0.762,1.523s1.197-0.218,1.741,0.87c0.544,1.088,0.109,3.264,0.109,3.264l-0.326,1.741
				c0,0,0.435,4.243,0,6.201c-0.435,1.958-3.916,13.163-3.916,13.163l-1.849,4.895c0,0-3.372,9.767-4.306,19.29
				c-0.934,9.523-1.12,14.005-3.735,21.101c-2.614,7.096-5.789,11.951-9.337,11.951s-8.806-2.561-15.715-5.922
				c-6.909-3.361-13.62-17.109-14.856-19.501c-3.616-6.999-4.668-19.42-3.921-22.221c0.654-2.451,2.451-6.903,4.891-8.228
				c0,0,2.546-1.513,4.329-1.216c1.783,0.297,5.201,2.526,5.646,3.566"/>
			<path style="fill:#FFFFFF;stroke:#263238;stroke-miterlimit:10;" d="M266.192,163.83c0.435-1.958,0-6.201,0-6.201l0.326-1.741
				c0,0,0.435-2.176-0.109-3.264c-0.544-1.088-1.741-0.87-1.741-0.87s0.109-1.088-0.762-1.523c-0.87-0.435-2.176,0.217-2.176,0.217
				s0,0-0.544-0.544c-0.544-0.544-1.741-0.653-2.067,0.326c-0.326,0.979-4.569,5.657-4.569,5.657l-0.963,0.352
				c-0.497-0.166-1.492,1.16-2.155,2.321c-0.663,1.16-4.144,5.139-4.144,5.139s-2.155,6.63-0.995,8.785
				c1.16,2.155,2.984,5.47,2.984,5.47c0.795,0.312-2.616,14.276-6.034,20.588c-0.96,1.773-2.043,4.292-3,6.686
				c1.405,1.721,3.805,4.065,7.155,5.211c2.6,0.89,5.415,0.894,7.702,0.642c0.364-2.79,0.626-5.899,1.019-9.903
				c0.934-9.523,4.306-19.29,4.306-19.29l1.849-4.895C262.275,176.993,265.757,165.788,266.192,163.83z"/>
			<line style="fill:none;stroke:#263238;stroke-miterlimit:10;" x1="254.551" y1="155.888" x2="249.982" y2="163.83"/>
			<polyline style="fill:none;stroke:#263238;stroke-miterlimit:10;" points="261.731,150.449 258.033,157.52 254.334,164.809 			
				"/>
			<polyline style="fill:none;stroke:#263238;stroke-miterlimit:10;" points="264.669,151.755 262.71,157.955 258.577,166.114 			
				"/>
			<path style="fill:none;stroke:#263238;stroke-miterlimit:10;" d="M266.192,157.629c0,0-2.176,6.636-2.502,7.289
				c-0.326,0.653-1.197,2.393-1.197,2.393"/>
			<path style="fill:#FFFFFF;stroke:#263238;stroke-miterlimit:10;" d="M237.633,212.196c0,0-1.972,5.376-1.081,10.873"/>
		</g>
		<g>
			<path style="fill:#FFFFFF;stroke:#263238;stroke-miterlimit:10;" d="M296.916,210.04l-17.772-20.566l-7.43-12.184l0.569-1.167
				l4.243-4.787l1.958-5.548l-1.088-10.226c0,0-1.305-4.678-2.285-4.46c0,0,0.217-1.632-1.088-1.741
				c-1.305-0.109-1.849,3.046-1.849,3.046s-1.414-1.523-2.393-0.326c-0.979,1.197-0.544,4.895-0.544,4.895s-0.87-1.414-2.176,0.218
				c-1.305,1.632-0.326,8.485-0.653,8.921c-0.326,0.435-3.59,8.594-4.134,10.879s0.87,4.243,1.088,4.678
				c0,0,2.705,5.723,4.488,12.41c1.783,6.687,12.121,27.648,15.836,32.848c3.715,5.201,7.429,7.727,10.55,6.835
				c3.12-0.892,1.577,0.815,6.581-2.701c0.954-0.67,2.761-2.88,2.845-4.503C303.982,220.355,301.388,214.353,296.916,210.04z"/>
			<path style="fill:none;stroke:#263238;stroke-miterlimit:10;" d="M269.238,156.976c0,0,0.435,2.067,0.544,4.243
				c0.109,2.176-0.653,6.31-0.653,6.31"/>
			<path style="fill:none;stroke:#263238;stroke-miterlimit:10;" d="M272.175,152.407c0,0,0.87,3.699,1.088,5.657
				c0.218,1.958-0.979,7.833-0.979,7.833"/>
			<path style="fill:none;stroke:#263238;stroke-miterlimit:10;" d="M275.112,151.102c0,0,0.979,6.527,1.197,8.812
				c0.218,2.285-0.653,4.895-0.653,4.895"/>
			<path style="fill:#FFFFFF;stroke:#263238;stroke-miterlimit:10;" d="M282.018,192.651c-4.211,3.54-8.826,7.275-11.384,8.772
				c3.205,7.213,10.391,21.779,13.052,25.505c3.714,5.2,7.708,8.319,10.909,7.786c4.788-0.797,9.017-3.791,9.093-9.039
				c0.085-5.854-2.594-11.603-6.773-15.635L282.018,192.651z"/>
			<g>
				<path style="fill:#92E3A9;" d="M299.762,213.379l-17.447,11.376c0.531,0.904,0.997,1.65,1.372,2.174
					c0.143,0.2,0.287,0.391,0.43,0.585l17.331-11.3C300.956,215.229,300.391,214.281,299.762,213.379z"/>
				<path style="fill:#92E3A9;" d="M302.99,220.239l-16.142,10.525c0.861,0.889,1.72,1.652,2.565,2.262l14.201-9.259
					C303.511,222.574,303.303,221.394,302.99,220.239z"/>
				<path style="fill:#92E3A9;" d="M292.077,204.392l-2.163-2.524l-14.59,9.513c0.485,0.991,0.979,1.987,1.473,2.974
					L292.077,204.392z"/>
				<path style="fill:#92E3A9;" d="M297.014,210.139c-0.033-0.032-0.064-0.067-0.098-0.099l-2.074-2.42l-16.124,10.513
					c0.529,1.024,1.046,2.006,1.541,2.93L297.014,210.139z"/>
				<path style="fill:#92E3A9;" d="M272.057,204.546c0.442,0.952,0.919,1.964,1.418,3.01l13.674-8.916l-2.163-2.524L272.057,204.546
					z"/>
			</g>
			<path style="fill:none;stroke:#263238;stroke-miterlimit:10;" d="M282.018,192.651c-4.211,3.54-8.826,7.275-11.384,8.772
				c3.205,7.213,10.391,21.779,13.052,25.505c3.714,5.2,7.708,8.319,10.909,7.786c4.788-0.797,9.017-3.791,9.093-9.039
				c0.085-5.854-2.594-11.603-6.773-15.635L282.018,192.651z"/>
		</g>
		<path style="fill:#FFFFFF;stroke:#263238;stroke-miterlimit:10;" d="M264.872,435.957c0,0-7.01-0.927-8.534,1.033
			c-1.524,1.959-0.218,13.063-0.218,13.063s-8.273-2.395-8.708-0.653s-1.524,19.812-0.218,21.336c1.306,1.524,7.62,3.919,7.62,3.919
			l9.797-1.306c0,0,7.62,3.048,9.579,3.048c1.959,0,6.314,1.524,10.015-0.653c3.701-2.177,4.137-5.878,2.613-7.402
			c-2.389-2.39-7.404-2.771-10.423-4.439c-5.394-2.98-11.617-6.854-11.517-13.413C264.9,449.111,266.691,436.198,264.872,435.957z"
			/>
		<path style="fill:#FFFFFF;stroke:#263238;stroke-miterlimit:10;" d="M264.249,454.243c0,0-7.857,2.015-7.013,3.703
			c0.844,1.688,4.853,0,4.853,0s-3.376,2.954-2.11,4.431s5.275-1.266,5.275-1.266s-4.642,3.587-2.532,3.798
			c2.11,0.211,5.486-1.899,5.486-1.899s-2.743,5.486-1.055,5.064c1.688-0.422,5.064-4.009,5.064-4.009s-2.11,4.009-0.211,3.376
			c1.899-0.633,5.486-1.688,5.064-2.532c-0.422-0.844-3.587-3.165-3.587-3.165s-1.899-1.055-2.743-1.688
			c-0.844-0.633-1.899-0.633-1.899-0.633l-1.477-2.11l-1.688-1.477C265.676,455.836,265.987,453.283,264.249,454.243z"/>
		<path style="fill:#FFFFFF;stroke:#263238;stroke-miterlimit:10;" d="M251.331,452.012c0,0,0.871-11.321-0.653-12.627
			c-1.524-1.306-10.45,0-10.886,3.048c-0.436,3.048,0,10.668,0,10.668l-3.483-0.871c0,0-1.524,1.959-1.742,3.919
			c-0.218,1.959-1.524,19.376-1.524,19.376s1.306,3.048,2.613,3.483c1.306,0.435,16.982,1.959,16.982,1.959
			s11.321,0.871,15.675,0.218c4.354-0.653,6.967-5.225,5.876-8.278c-1.444-4.017-6.658-5.559-9.987-7.516
			c-3.668-2.155-9.703-5.235-11.347-9.461C252.855,455.931,251.331,452.012,251.331,452.012z"/>
		<path style="fill:#FFFFFF;stroke:#263238;stroke-miterlimit:10;" d="M252.855,455.931c0,0-7.857,2.015-7.013,3.703
			c0.844,1.688,4.853,0,4.853,0s-3.376,2.954-2.11,4.431c1.266,1.477,5.275-1.266,5.275-1.266s-4.642,3.587-2.532,3.798
			c2.11,0.211,5.486-1.899,5.486-1.899s-2.743,5.486-1.055,5.064c1.688-0.422,5.064-4.009,5.064-4.009s-2.11,4.009-0.211,3.376
			c1.899-0.633,5.486-1.688,5.064-2.532c-0.422-0.844-3.587-3.165-3.587-3.165s-1.899-1.055-2.743-1.688s-1.899-0.633-1.899-0.633
			l-1.477-2.11l-1.688-1.477C254.281,457.524,254.593,454.971,252.855,455.931z"/>
	</g>
</g>
</svg>
