<?xml version="1.0" encoding="utf-8"?>
<!-- Generator: Adobe Illustrator 27.5.0, SVG Export Plug-In . SVG Version: 6.00 Build 0)  -->
<svg version="1.1" xmlns="http://www.w3.org/2000/svg" xmlns:xlink="http://www.w3.org/1999/xlink" x="0px" y="0px"
	 viewBox="0 0 500 500" style="enable-background:new 0 0 500 500;" xml:space="preserve">
<g id="Background_complete">
	<g>
		<g>
			<g>
				<g>
					<path style="fill:#E0E0E0;" d="M443.92,370.764H263.174c-3.232,0-5.862-3.018-5.862-6.727V61.926
						c0-3.709,2.63-6.726,5.862-6.726H443.92c3.232,0,5.862,3.017,5.862,6.726v302.111
						C449.783,367.747,447.153,370.764,443.92,370.764z M263.174,55.487c-3.095,0-5.612,2.889-5.612,6.44v302.111
						c0,3.551,2.518,6.44,5.612,6.44H443.92c3.095,0,5.612-2.889,5.612-6.44V61.926c0-3.551-2.518-6.44-5.612-6.44H263.174z"/>
				</g>
			</g>
			<g>
				<g>
					<path style="fill:#E0E0E0;" d="M235.493,370.764H54.746c-3.232,0-5.862-3.018-5.862-6.727V61.926
						c0-3.709,2.629-6.726,5.862-6.726h180.747c3.232,0,5.862,3.017,5.862,6.726v302.111
						C241.355,367.747,238.725,370.764,235.493,370.764z M54.746,55.487c-3.094,0-5.612,2.889-5.612,6.44v302.111
						c0,3.551,2.518,6.44,5.612,6.44h180.747c3.095,0,5.612-2.889,5.612-6.44V61.926c0-3.551-2.518-6.44-5.612-6.44H54.746z"/>
				</g>
			</g>
		</g>
		<g>
			<g>
				<g>
					<rect x="0" y="410.089" style="fill:#E0E0E0;" width="500" height="0.25"/>
				</g>
			</g>
			<rect x="51.672" y="424.354" style="fill:#E0E0E0;" width="16.06" height="0.25"/>
			<rect x="170.352" y="421.644" style="fill:#E0E0E0;" width="53.53" height="0.25"/>
			<rect x="68.732" y="433.644" style="fill:#E0E0E0;" width="36.25" height="0.25"/>
			<rect x="378.352" y="421.514" style="fill:#E0E0E0;" width="43.19" height="0.25"/>
			<rect x="430.452" y="421.514" style="fill:#E0E0E0;" width="6.33" height="0.25"/>
			<rect x="316.212" y="427.744" style="fill:#E0E0E0;" width="53.89" height="0.25"/>
		</g>
	</g>
	<g>
		<path style="fill:#EBEBEB;" d="M160.831,190.563c-2.407,11.708-2.454,23.535-0.459,34.924l-16.128,8.235l12.893,32.447
			l17.385-5.08c6.36,9.649,14.516,18.218,24.303,25.082l-5.565,17.178l32.061,13.826l8.673-15.837
			c11.709,2.406,23.538,2.454,34.923,0.458l8.236,16.128l32.445-12.895l-5.079-17.38c9.651-6.366,18.219-14.519,25.083-24.305
			l17.178,5.564l13.826-32.062l-15.837-8.673c2.405-11.709,2.454-23.536,0.457-34.922l16.125-8.237l-12.892-32.447l-17.382,5.079
			c-6.363-9.649-14.519-18.217-24.305-25.081l5.565-17.178l-32.061-13.825l-8.673,15.837c-11.71-2.407-23.539-2.456-34.923-0.461
			l-8.237-16.127l-32.446,12.896l5.08,17.381c-9.65,6.364-18.219,14.517-25.082,24.304l-17.178-5.565l-13.826,32.063
			L160.831,190.563z M271.082,165.745c22.687,9.784,33.15,36.109,23.366,58.798c-9.785,22.69-36.112,33.15-58.798,23.367
			c-22.69-9.785-33.15-36.108-23.366-58.799C222.069,166.423,248.392,155.96,271.082,165.745z"/>
	</g>
	<g>
		<path style="fill:#EBEBEB;" d="M69.018,289.698c-0.819,3.982-0.835,8.004-0.156,11.877l-5.485,2.801l4.385,11.034l5.912-1.728
			c2.163,3.281,4.936,6.195,8.265,8.53l-1.892,5.842l10.903,4.702l2.949-5.386c3.982,0.818,8.005,0.835,11.876,0.156l2.801,5.485
			l11.034-4.385l-1.727-5.91c3.282-2.165,6.196-4.938,8.53-8.266l5.842,1.892l4.702-10.903l-5.386-2.949
			c0.818-3.982,0.835-8.004,0.156-11.876l5.484-2.801l-4.384-11.034l-5.911,1.727c-2.164-3.281-4.937-6.195-8.265-8.529l1.892-5.842
			l-10.903-4.702l-2.949,5.386c-3.982-0.819-8.005-0.835-11.876-0.157l-2.801-5.484l-11.034,4.385l1.728,5.911
			c-3.282,2.164-6.196,4.937-8.53,8.265l-5.842-1.892l-4.702,10.904L69.018,289.698z M106.511,281.258
			c7.715,3.327,11.273,12.28,7.946,19.996c-3.328,7.716-12.281,11.273-19.996,7.947c-7.716-3.328-11.273-12.28-7.946-19.996
			C89.843,281.489,98.795,277.931,106.511,281.258z"/>
	</g>
	<g>
		<path style="fill:#EBEBEB;" d="M320.667,352.89c-0.752,3.656-0.766,7.349-0.143,10.905l-5.036,2.571l4.026,10.132l5.428-1.586
			c1.986,3.013,4.533,5.689,7.589,7.832l-1.737,5.364l10.011,4.317l2.708-4.945c3.656,0.751,7.35,0.766,10.905,0.143l2.572,5.036
			l10.131-4.027l-1.586-5.427c3.014-1.988,5.689-4.533,7.832-7.589l5.364,1.737l4.317-10.011l-4.945-2.708
			c0.751-3.656,0.766-7.349,0.143-10.905l5.035-2.572l-4.025-10.132l-5.428,1.586c-1.987-3.013-4.533-5.688-7.589-7.831l1.738-5.364
			l-10.011-4.317l-2.708,4.945c-3.656-0.752-7.35-0.767-10.905-0.144l-2.572-5.036l-10.131,4.027l1.586,5.427
			c-3.013,1.987-5.689,4.533-7.832,7.589l-5.364-1.738l-4.317,10.012L320.667,352.89z M355.094,345.14
			c7.084,3.055,10.351,11.275,7.296,18.36c-3.055,7.085-11.276,10.351-18.36,7.296c-7.085-3.055-10.351-11.275-7.296-18.36
			C339.789,345.352,348.008,342.085,355.094,345.14z"/>
	</g>
	<g>
		<path style="fill:#EBEBEB;" d="M66.451,99.037c-0.752,3.656-0.766,7.349-0.143,10.905l-5.036,2.571l4.026,10.132l5.428-1.586
			c1.986,3.013,4.533,5.689,7.589,7.832l-1.738,5.364l10.011,4.317l2.708-4.945c3.656,0.751,7.35,0.766,10.905,0.143l2.572,5.036
			l10.131-4.027l-1.586-5.427c3.014-1.988,5.689-4.534,7.832-7.589l5.364,1.737l4.317-10.011l-4.945-2.708
			c0.751-3.656,0.766-7.349,0.143-10.905l5.035-2.572l-4.025-10.132l-5.427,1.586c-1.987-3.013-4.533-5.688-7.589-7.831l1.738-5.364
			l-10.011-4.317l-2.708,4.945c-3.656-0.752-7.35-0.767-10.905-0.144l-2.572-5.035l-10.131,4.027l1.586,5.427
			c-3.013,1.987-5.689,4.533-7.832,7.589l-5.364-1.738l-4.317,10.012L66.451,99.037z M100.877,91.287
			c7.084,3.055,10.351,11.275,7.296,18.36c-3.056,7.085-11.276,10.351-18.36,7.296c-7.085-3.055-10.351-11.275-7.296-18.36
			C85.573,91.499,93.792,88.232,100.877,91.287z"/>
	</g>
	<g>
		<path style="fill:#EBEBEB;" d="M375.749,191.607c-0.659,3.203-0.671,6.439-0.125,9.554l-4.412,2.253l3.527,8.877l4.756-1.39
			c1.74,2.64,3.971,4.984,6.649,6.862l-1.522,4.7l8.771,3.782l2.373-4.333c3.203,0.658,6.439,0.671,9.554,0.125l2.253,4.412
			l8.876-3.528l-1.389-4.755c2.64-1.742,4.984-3.972,6.862-6.649l4.7,1.522l3.783-8.771l-4.333-2.373
			c0.658-3.203,0.671-6.439,0.125-9.554l4.411-2.253l-3.527-8.877l-4.755,1.39c-1.741-2.64-3.972-4.984-6.649-6.861l1.522-4.7
			l-8.771-3.782l-2.373,4.333c-3.204-0.659-6.44-0.672-9.554-0.126l-2.253-4.412l-8.876,3.528l1.39,4.755
			c-2.64,1.741-4.984,3.971-6.862,6.649l-4.7-1.522l-3.783,8.771L375.749,191.607z M405.911,184.817
			c6.207,2.677,9.069,9.879,6.392,16.086c-2.677,6.208-9.879,9.069-16.086,6.393c-6.207-2.677-9.069-9.878-6.392-16.086
			C392.502,185.002,399.703,182.14,405.911,184.817z"/>
	</g>
</g>
<g id="Background_simple" style="display:none;">
	<g style="display:inline;">
		<g>
			<path style="fill:#407BFF;" d="M414.244,169.667c-23.094-17.023-53.672-20.569-82.23-17.827s-56.267,11.104-84.601,15.609
				c-13.684,2.176-28.963,3.083-40.109-5.148c-12.361-9.13-15.315-26.142-23.677-39.035c-13.355-20.591-40.448-29.107-64.788-25.959
				c-24.34,3.148-52.82,18.259-65.877,44.598c-13.382,23.743-20.176,51.639-16.387,78.63c3.789,26.991,18.783,52.767,41.913,67.183
				c21.472,13.382,47.806,16.264,73.107,16.303c48.855,0.075,100.407-8.686,144.625,12.09c18.639,8.757,34.902,22.417,54.374,29.12
				c28.835,9.927,63.64,1.84,83.446-21.348c16.507-19.326,21.5-46.279,19.931-71.647
				C452.023,220.752,439.636,188.384,414.244,169.667z"/>
		</g>
		<g style="opacity:0.9;">
			<path style="fill:#FFFFFF;" d="M414.244,169.667c-23.094-17.023-53.672-20.569-82.23-17.827s-56.267,11.104-84.601,15.609
				c-13.684,2.176-28.963,3.083-40.109-5.148c-12.361-9.13-15.315-26.142-23.677-39.035c-13.355-20.591-40.448-29.107-64.788-25.959
				c-24.34,3.148-52.82,18.259-65.877,44.598c-13.382,23.743-20.176,51.639-16.387,78.63c3.789,26.991,18.783,52.767,41.913,67.183
				c21.472,13.382,47.806,16.264,73.107,16.303c48.855,0.075,100.407-8.686,144.625,12.09c18.639,8.757,34.902,22.417,54.374,29.12
				c28.835,9.927,63.64,1.84,83.446-21.348c16.507-19.326,21.5-46.279,19.931-71.647
				C452.023,220.752,439.636,188.384,414.244,169.667z"/>
		</g>
	</g>
</g>
<g id="Shadow">
	<g>
		<g>
			<path style="fill:#F5F5F5;" d="M464.873,460.613c0,10.135-96.202,18.351-214.873,18.351s-214.873-8.216-214.873-18.351
				c0-10.135,96.202-18.351,214.873-18.351S464.873,450.478,464.873,460.613z"/>
		</g>
	</g>
</g>
<g id="Plants">
	<g>
		<g>
			<g>
				<path style="fill:#407BFF;" d="M407.131,422.569c-0.308-0.87-1.148-2.031-1.762-2.719c-0.614-0.688-1.551-1.157-2.456-0.981
					c-1.156,0.225-1.91,1.437-1.989,2.612c-0.079,1.175,0.178,2.731,0.64,3.814c1.968,4.624,3.799,8.861,7.485,12.744
					C410.055,432.984,408.837,427.391,407.131,422.569z"/>
			</g>
		</g>
		<g>
			<g>
				<path style="fill:#263238;" d="M415.795,445.639c-4.849-5.151-8.291-11.481-9.989-18.348c-0.116-0.468-0.839-0.27-0.723,0.199
					c1.728,6.989,5.247,13.437,10.182,18.679C415.596,446.522,416.126,445.991,415.795,445.639L415.795,445.639z"/>
			</g>
		</g>
		<g>
			<path style="fill:#407BFF;" d="M419.03,422.055c-1.146-0.353-2.897,0.839-3.693,1.735c-1.577,1.778-2.413,3.472-3.132,5.738
				c-0.914,2.876-0.339,6.535-0.05,8.874c3.039-3.706,6.131-7.501,7.813-11.989c0.293-0.783,0.545-1.612,0.456-2.443
				C420.335,423.138,419.829,422.302,419.03,422.055z"/>
		</g>
		<g>
			<g>
				<path style="fill:#263238;" d="M412.169,441.009c-0.03-3.696,1.216-6.993,2.861-10.248c0.217-0.43-0.43-0.81-0.648-0.378
					c-0.841,1.663-1.639,3.361-2.185,5.147c-0.543,1.778-0.793,3.621-0.779,5.479C411.423,441.491,412.173,441.492,412.169,441.009
					L412.169,441.009z"/>
			</g>
		</g>
	</g>
	<g>
		<g>
			<g>
				<path style="fill:#407BFF;" d="M77.28,423.314c-0.308-0.87-1.148-2.031-1.762-2.719c-0.614-0.688-1.551-1.157-2.456-0.981
					c-1.156,0.224-1.91,1.437-1.989,2.612c-0.079,1.175,0.179,2.731,0.64,3.815c1.968,4.624,3.799,8.861,7.485,12.744
					C80.204,433.73,78.986,428.137,77.28,423.314z"/>
			</g>
		</g>
		<g>
			<g>
				<path style="fill:#263238;" d="M85.944,446.384c-4.849-5.151-8.291-11.481-9.989-18.348c-0.116-0.468-0.839-0.27-0.723,0.199
					c1.728,6.989,5.247,13.437,10.182,18.678C85.745,447.267,86.275,446.736,85.944,446.384L85.944,446.384z"/>
			</g>
		</g>
		<g>
			<path style="fill:#407BFF;" d="M89.179,422.801c-1.146-0.353-2.897,0.839-3.693,1.735c-1.577,1.778-2.413,3.472-3.132,5.738
				c-0.914,2.876-0.339,6.535-0.05,8.874c3.039-3.706,6.131-7.501,7.813-11.989c0.293-0.783,0.545-1.612,0.456-2.443
				C90.484,423.884,89.978,423.047,89.179,422.801z"/>
		</g>
		<g>
			<g>
				<path style="fill:#263238;" d="M82.318,441.754c-0.03-3.696,1.216-6.993,2.861-10.248c0.217-0.43-0.43-0.81-0.648-0.379
					c-0.841,1.664-1.639,3.361-2.185,5.148c-0.543,1.778-0.793,3.621-0.778,5.479C81.572,442.236,82.322,442.237,82.318,441.754
					L82.318,441.754z"/>
			</g>
		</g>
	</g>
</g>
<g id="Icons">
	<g>
		<rect x="131.24" y="228.677" style="fill:#407BFF;" width="10.367" height="35.802"/>
		
			<rect x="131.448" y="229.671" transform="matrix(6.123234e-17 -1 1 6.123234e-17 -110.154 383.0016)" style="fill:#407BFF;" width="9.952" height="33.814"/>
	</g>
	<g>
		<rect x="261.217" y="96.31" style="fill:#407BFF;" width="3.939" height="14.17"/>
		
			<rect x="261.217" y="96.972" transform="matrix(6.123234e-17 -1 1 6.123234e-17 159.7918 366.5816)" style="fill:#407BFF;" width="3.939" height="12.846"/>
	</g>
	<g>
		<rect x="137.708" y="199.742" style="fill:#407BFF;" width="3.939" height="14.17"/>
		
			<rect x="137.708" y="200.404" transform="matrix(6.123234e-17 -1 1 6.123234e-17 -67.1501 346.5039)" style="fill:#407BFF;" width="3.939" height="12.846"/>
	</g>
	<g>
		<rect x="177.488" y="284.454" style="fill:#407BFF;" width="3.939" height="14.17"/>
		
			<rect x="177.488" y="285.116" transform="matrix(6.123234e-17 -1 1 6.123234e-17 -112.0818 470.9962)" style="fill:#407BFF;" width="3.939" height="12.846"/>
	</g>
</g>
<g id="Shielf">
	<g>
		<path style="fill:#407BFF;" d="M422.813,252.802c-21.033-8.056-33.205-21.953-33.205-23.1c0,1.147-13.303,13.951-34.336,22.007
			c0,0-6.391,65.523,33.381,70.494C428.425,317.232,422.813,252.802,422.813,252.802z"/>
		<path style="opacity:0.2;" d="M355.272,251.709c0,0-6.391,65.523,33.381,70.494l0.955-92.501
			C389.608,230.849,376.305,243.653,355.272,251.709z"/>
		<g>
			<rect x="383.708" y="259.645" style="fill:#FFFFFF;" width="10.132" height="36.449"/>
			
				<rect x="383.708" y="261.347" transform="matrix(6.123234e-17 -1 1 6.123234e-17 110.9043 666.6426)" style="fill:#FFFFFF;" width="10.132" height="33.045"/>
		</g>
		<path style="fill:none;stroke:#000000;stroke-width:0.5;stroke-miterlimit:10;" d="M419.678,254.999
			c-19.084-7.31-30.128-19.918-30.128-20.959c0,1.041-12.07,12.658-31.154,19.968c0,0-5.799,59.451,30.288,63.962
			C424.77,313.459,419.678,254.999,419.678,254.999z"/>
	</g>
</g>
<g id="Hand_2">
	<g>
		<path style="fill:#B97964;" d="M259.561,44.178c-3.672-3.929-4.099-8.722-3.577-12.597c0.53-3.929,4.354-6.524,8.19-5.523
			c49.466,12.91,84.462,23.321,103.102,33.332c20.239,10.869,44.244,76.361,55.08,85.591c10.836,9.23,46.854,21.56,48.459,21.961
			c0,0,2.055,73.276,0,74.915c-9.459,7.548-98.61-58.942-98.61-58.942c-24.433-17.682-41.149-60.76-41.149-60.76
			s-38.578-31.184-49.508-40.828c-10.93-9.644-9.48-15.158-9.48-15.158s-4.576-1.04-10.631-8.755
			C255.382,49.7,259.561,44.178,259.561,44.178z"/>
		<g>
			<g>
				<path style="fill:#A24E3F;" d="M323.245,68.067c-11.764-4.331-23.555-8.661-34.907-14.003
					c-5.138-2.418-10.685-4.836-15.172-8.372c-3.036-2.393-5.181-5.615-5.295-9.55c-0.045-1.557,0.239-3.224,1.29-4.436
					c1.43-1.649,3.745-1.845,5.785-1.721c0.964,0.059,0.961-1.441,0-1.5c-3.69-0.226-7.329,1.097-8.306,4.989
					c-0.782,3.114,0.062,6.757,1.81,9.403c3.196,4.836,9.081,7.492,14.078,10.019c6.074,3.071,12.314,5.803,18.62,8.36
					c7.173,2.908,14.437,5.583,21.699,8.257C323.754,69.848,324.145,68.399,323.245,68.067L323.245,68.067z"/>
			</g>
		</g>
		<g>
			<g>
				<path style="fill:#A24E3F;" d="M337.429,76.122c-1.368,12.702-1.649,25.5-0.84,38.25c0.061,0.959,1.561,0.965,1.5,0
					c-0.808-12.75-0.527-25.548,0.84-38.25C339.033,75.164,337.532,75.171,337.429,76.122L337.429,76.122z"/>
			</g>
		</g>
		<g>
			<g>
				<path style="fill:#A24E3F;" d="M259.356,45.403c18.527,15.72,38.488,29.682,59.624,41.667c6.048,3.43,12.186,6.699,18.395,9.827
					c0.86,0.433,1.62-0.86,0.757-1.295c-21.573-10.868-42.209-23.548-61.445-38.171c-5.542-4.213-10.963-8.584-16.271-13.089
					C259.684,43.721,258.618,44.777,259.356,45.403L259.356,45.403z"/>
			</g>
		</g>
		<g>
			<g>
				<path style="fill:#A24E3F;" d="M272.302,67.64c15.536,11.542,31.529,22.464,47.943,32.72c4.709,2.942,9.452,5.828,14.227,8.662
					c0.832,0.494,1.587-0.802,0.757-1.295c-16.643-9.878-32.892-20.417-48.688-31.601c-4.531-3.208-9.025-6.471-13.482-9.782
					C272.283,65.768,271.535,67.07,272.302,67.64L272.302,67.64z"/>
			</g>
		</g>
		<g>
			<path style="fill:#B97964;" d="M396.571,113.044c-18.054-16.194-36.169-32.321-54.344-48.38
				c-3.684-3.256-8.669-6.722-13.088-4.565c-2.389,1.166-3.816,3.785-4.171,6.419c-0.355,2.634,0.21,5.302,0.918,7.864
				c4.463,16.16,14.933,30.587,28.913,39.839c3.538,2.341,7.431,4.499,9.674,8.101c2.528,4.059,2.469,9.135,2.875,13.899
				c1.318,15.473,8.595,30.364,19.993,40.911"/>
			<g>
				<path style="fill:#A24E3F;" d="M397.101,112.514c-13.142-11.787-26.315-23.539-39.521-35.256
					c-3.271-2.902-6.543-5.801-9.817-8.698c-2.933-2.595-5.778-5.458-9.089-7.578c-2.745-1.758-6.172-3.054-9.375-1.768
					c-2.83,1.136-4.568,4-5.027,6.926c-0.585,3.732,0.542,7.532,1.669,11.057c1.048,3.277,2.345,6.479,3.859,9.568
					c3.002,6.123,6.891,11.812,11.487,16.85c4.726,5.18,10.16,9.272,15.99,13.112c3.182,2.095,6.221,4.488,7.632,8.153
					c1.337,3.473,1.361,7.271,1.655,10.932c1.129,14.037,6.988,27.556,16.437,37.997c1.213,1.34,2.487,2.621,3.809,3.853
					c0.706,0.657,1.769-0.401,1.061-1.061c-10.119-9.426-16.945-22.154-19.201-35.801c-1.077-6.519-0.041-14.249-4.221-19.834
					c-1.956-2.613-4.718-4.444-7.425-6.194c-2.86-1.85-5.633-3.79-8.232-5.997c-10.202-8.664-17.888-20.27-21.75-33.095
					c-1.081-3.591-2.225-7.696-0.721-11.335c1.472-3.56,4.955-4.907,8.517-3.639c3.608,1.284,6.459,4.134,9.268,6.618
					c3.152,2.787,6.302,5.576,9.45,8.367c12.593,11.163,25.157,22.359,37.692,33.588c1.598,1.431,3.195,2.863,4.791,4.295
					C396.757,114.217,397.822,113.16,397.101,112.514L397.101,112.514z"/>
			</g>
		</g>
	</g>
</g>
<g id="Hand_1">
	<g>
		<path style="fill:#B97964;" d="M237.11,42.313c3.672-3.929,4.1-8.722,3.577-12.597c-0.53-3.929-4.354-6.524-8.19-5.523
			c-49.466,12.91-84.462,23.321-103.102,33.332c-20.239,10.869-44.244,76.361-55.08,85.591c-10.836,9.23-46.854,21.56-48.459,21.961
			c0,0-2.038,75.141,0,76.78c9.429,7.586,98.61-60.807,98.61-60.807c24.433-17.681,41.149-60.76,41.149-60.76
			s38.578-31.184,49.508-40.828c10.93-9.644,9.48-15.158,9.48-15.158s4.576-1.04,10.631-8.755
			C241.289,47.835,237.11,42.313,237.11,42.313z"/>
		<g>
			<g>
				<path style="fill:#A24E3F;" d="M173.825,67.649c12.763-4.699,25.564-9.403,37.803-15.369c2.845-1.387,5.682-2.817,8.427-4.394
					c2.443-1.403,4.877-2.994,6.781-5.096c2.366-2.612,3.845-6.347,3.981-9.881c0.061-1.604-0.255-3.321-1.359-4.55
					c-1.429-1.59-3.679-1.849-5.695-1.717c-0.958,0.063-0.965,1.563,0,1.5c1.656-0.108,3.665-0.022,4.759,1.431
					c0.799,1.06,0.871,2.508,0.768,3.779c-0.29,3.579-1.971,7.039-4.595,9.462c-1.964,1.813-4.301,3.19-6.634,4.469
					c-2.638,1.445-5.323,2.805-8.033,4.11c-5.6,2.697-11.322,5.135-17.096,7.433c-6.458,2.571-12.982,4.974-19.505,7.375
					C172.528,66.533,172.916,67.983,173.825,67.649L173.825,67.649z"/>
			</g>
		</g>
		<g>
			<g>
				<path style="fill:#A24E3F;" d="M157.742,74.257c1.368,12.702,1.649,25.5,0.84,38.25c-0.061,0.964,1.439,0.96,1.5,0
					c0.809-12.75,0.527-25.548-0.84-38.25C159.14,73.308,157.638,73.297,157.742,74.257L157.742,74.257z"/>
			</g>
		</g>
		<g>
			<g>
				<path style="fill:#A24E3F;" d="M236.504,42.285c-18.555,15.744-38.564,29.71-59.733,41.711
					c-5.995,3.399-12.078,6.64-18.232,9.741c-0.862,0.434-0.104,1.729,0.757,1.295c21.853-11.009,42.735-23.899,62.195-38.744
					c5.47-4.173,10.827-8.491,16.073-12.942C238.302,42.721,237.236,41.664,236.504,42.285L236.504,42.285z"/>
			</g>
		</g>
		<g>
			<g>
				<path style="fill:#A24E3F;" d="M223.613,64.479c-15.536,11.542-31.529,22.464-47.943,32.72
					c-4.709,2.942-9.452,5.828-14.227,8.662c-0.829,0.492-0.076,1.79,0.757,1.295c16.643-9.878,32.892-20.417,48.688-31.601
					c4.531-3.208,9.025-6.471,13.481-9.782C225.136,65.205,224.389,63.903,223.613,64.479L223.613,64.479z"/>
			</g>
		</g>
		<g>
			<path style="fill:#B97964;" d="M100.101,111.179c18.054-16.194,36.169-32.321,54.344-48.38c3.684-3.256,8.669-6.722,13.088-4.565
				c2.388,1.166,3.816,3.785,4.171,6.419c0.355,2.634-0.21,5.302-0.918,7.864c-4.463,16.16-14.933,30.587-28.913,39.839
				c-3.538,2.341-7.431,4.499-9.674,8.101c-2.528,4.059-2.469,9.135-2.875,13.899c-1.318,15.473-8.595,30.364-19.993,40.911"/>
			<g>
				<path style="fill:#A24E3F;" d="M100.631,111.709c12.528-11.236,25.084-22.441,37.67-33.613c3.146-2.793,6.295-5.584,9.445-8.373
					c3.064-2.713,6.04-5.624,9.296-8.108c2.682-2.045,6.392-4.287,9.842-2.847c3.537,1.476,4.447,5.708,4.095,9.145
					c-0.366,3.575-1.645,7.167-2.918,10.512c-1.201,3.157-2.644,6.221-4.295,9.167c-3.272,5.842-7.368,11.209-12.146,15.901
					c-2.41,2.367-4.989,4.564-7.723,6.548c-2.678,1.943-5.586,3.562-8.193,5.603c-2.613,2.047-4.621,4.548-5.655,7.73
					c-1.062,3.27-1.15,6.762-1.409,10.161c-1.055,13.846-6.809,27.225-16.164,37.496c-1.172,1.287-2.401,2.518-3.674,3.704
					c-0.708,0.66,0.355,1.718,1.061,1.061c10.385-9.674,17.427-22.834,19.651-36.859c1.109-6.994-0.082-15.313,5.456-20.684
					c2.623-2.544,5.924-4.259,8.892-6.35c2.76-1.944,5.383-4.085,7.837-6.403c5.002-4.725,9.325-10.188,12.784-16.135
					c3.457-5.944,6.376-12.617,7.69-19.396c0.662-3.419,0.592-7.141-1.549-10.053c-1.852-2.518-4.862-3.531-7.888-2.89
					c-3.463,0.734-6.412,3.121-9.004,5.405c-3.28,2.891-6.551,5.792-9.823,8.692c-13.151,11.653-26.271,23.341-39.36,35.064
					c-1.659,1.486-3.318,2.973-4.976,4.46C98.85,111.295,99.914,112.353,100.631,111.709L100.631,111.709z"/>
			</g>
		</g>
	</g>
</g>
<g id="Characters">
	<g>
		<path style="fill:#407BFF;" d="M249.547,145.971c0,0,11.414-0.004,16.516,6.52c5.101,6.524,20.841,48.5,24.636,54.237
			c4.504,6.809,7.056,11.442,5.552,13.533c-1.572,2.185-11.028,11.139-14.674,8.474c-6.813-4.979-20.944-34.153-27.646-47.692
			C247.229,167.506,249.547,145.971,249.547,145.971z"/>
		<path style="opacity:0.3;" d="M249.265,145.877c0,0,11.697,0.091,16.799,6.615c5.101,6.524,20.841,48.5,24.636,54.237
			c4.504,6.809,7.056,11.442,5.552,13.533c-1.572,2.185-11.028,11.139-14.674,8.474c-6.813-4.979-20.944-34.153-27.646-47.692
			C247.229,167.506,249.265,145.877,249.265,145.877z"/>
		<g>
			<g>
				<g>
					<polygon style="fill:#263238;" points="262.313,422.302 266.255,451.564 275.319,448.854 277.561,420.604 					"/>
					<g>
						<g>
							<path style="fill:#263238;" d="M263.253,456.425l8.161,0.119c0,0,1.663-0.853,2.63-0.722
								c0.964,0.132,4.316,0.822,4.316,0.822l21.672,0.314c-0.16-0.911-0.362-1.723-0.596-2.444
								c-0.285-0.879-0.619-1.625-0.993-2.257c-1.311-2.211-3.132-3.017-5.122-3.172c-3.032-0.234-12.489-6.747-12.489-6.747
								s-3.447-1.262-3.582-4.953c-0.051-1.384-2.068-3.101-3.037-3.254c-1.978-0.315-3.098,0.924-3.415,2.901l-0.366,2.297
								l-4.567-0.78c0,0-4.623-2.411-4.43-0.131c0.11,1.301,0.81,7.099,1.233,11.698c0.1,1.072,0.193,2.086,0.274,2.975l0.002,0.001
								C263.126,455.068,263.253,456.425,263.253,456.425z"/>
						</g>
					</g>
					<g style="opacity:0.3;">
						<g>
							<path d="M263.253,456.425l8.161,0.119c0,0,1.663-0.853,2.63-0.722c0.964,0.132,4.316,0.822,4.316,0.822l21.672,0.314
								c-0.16-0.911-0.362-1.723-0.596-2.444c-0.285-0.879-0.619-1.625-0.993-2.257c-1.311-2.211-3.132-3.017-5.122-3.172
								c-3.032-0.234-12.489-6.747-12.489-6.747s-3.447-1.262-3.582-4.953c-0.051-1.384-2.068-3.101-3.037-3.254
								c-1.978-0.315-3.098,0.924-3.415,2.901l-0.366,2.297l-4.567-0.78c0,0-4.623-2.411-4.43-0.131
								c0.11,1.301,0.81,7.099,1.233,11.698c0.1,1.072,0.193,2.086,0.274,2.975l0.002,0.001
								C263.126,455.068,263.253,456.425,263.253,456.425z"/>
						</g>
					</g>
					<path style="fill:#407BFF;" d="M285.552,444.773c-0.099-0.1-0.254-0.113-0.372-0.036c-0.542,0.349-1.001,0.846-1.317,1.473
						c-0.166,0.331,0.315,0.659,0.483,0.325c0.281-0.557,0.682-0.997,1.155-1.303c0.158-0.102,0.188-0.321,0.055-0.454
						C285.555,444.776,285.554,444.774,285.552,444.773z"/>
					<path style="fill:#407BFF;" d="M283.843,443.732c-0.099-0.1-0.254-0.113-0.372-0.037c-0.543,0.349-1.001,0.846-1.317,1.473
						c-0.167,0.331,0.315,0.659,0.483,0.325c0.281-0.557,0.682-0.997,1.156-1.303c0.158-0.102,0.188-0.321,0.055-0.455
						C283.846,443.735,283.844,443.734,283.843,443.732z"/>
					<path style="fill:#407BFF;" d="M282.079,442.759c-0.099-0.1-0.254-0.113-0.372-0.036c-0.542,0.349-1.001,0.846-1.317,1.473
						c-0.167,0.33,0.315,0.659,0.483,0.325c0.281-0.557,0.682-0.997,1.156-1.303c0.158-0.102,0.187-0.321,0.055-0.455
						C282.081,442.762,282.08,442.76,282.079,442.759z"/>
				</g>
				<g>
					<g>
						<g>
							<g>
								<polygon style="fill:#263238;" points="221.859,415.954 217.883,445.124 208.376,445.605 205.298,417.483 								"/>
							</g>
						</g>
					</g>
					<g>
						<g>
							<path style="fill:#263238;" d="M200.282,458.668h21.264c0,0,0.464-0.893-0.066-3.271c-0.081-0.37-0.186-0.777-0.324-1.221
								c-0.007-0.022-0.012-0.044-0.02-0.066c-0.199-0.658-0.427-1.467-0.67-2.341c-0.974-3.56-2.12-8.211-2.12-8.211
								s-3.538-7.574-7.677-5.683c-3.631,1.659-2.77,6.406-2.77,6.406s-0.356,2.787-3.109,5.246
								c-1.703,1.519-3.396,2.694-4.21,4.583c-0.152,0.353-0.272,0.728-0.358,1.136c-0.01,0.049-0.02,0.101-0.027,0.152
								C200.027,456.307,200.036,457.374,200.282,458.668z"/>
						</g>
					</g>
					<g style="opacity:0.3;">
						<g>
							<path d="M200.282,458.668h21.264c0,0,0.464-0.893-0.066-3.271c-0.081-0.37-0.186-0.777-0.324-1.221
								c-0.007-0.022-0.012-0.044-0.02-0.066c-0.199-0.658-0.427-1.467-0.67-2.341c-0.974-3.56-2.12-8.211-2.12-8.211
								s-3.538-7.574-7.677-5.683c-3.631,1.659-2.77,6.406-2.77,6.406s-0.356,2.787-3.109,5.246
								c-1.703,1.519-3.396,2.694-4.21,4.583c-0.152,0.353-0.272,0.728-0.358,1.136c-0.01,0.049-0.02,0.101-0.027,0.152
								C200.027,456.307,200.036,457.374,200.282,458.668z"/>
						</g>
					</g>
					<g>
						<g>
							<g>
								<path style="fill:#407BFF;" d="M208.756,445.472c1.196-0.932,2.765-0.811,3.841,0.238c0.289,0.282,0.733-0.161,0.444-0.444
									c-1.343-1.31-3.26-1.383-4.728-0.238C207.994,445.276,208.441,445.718,208.756,445.472L208.756,445.472z"/>
							</g>
						</g>
					</g>
					<g>
						<g>
							<g>
								<path style="fill:#407BFF;" d="M208.156,447.458c1.196-0.932,2.765-0.811,3.841,0.238c0.289,0.282,0.734-0.161,0.444-0.444
									c-1.342-1.309-3.26-1.383-4.729-0.238C207.394,447.262,207.841,447.704,208.156,447.458L208.156,447.458z"/>
							</g>
						</g>
					</g>
					<g>
						<g>
							<g>
								<path style="fill:#407BFF;" d="M207.553,449.284c1.196-0.932,2.765-0.811,3.841,0.238c0.289,0.282,0.733-0.161,0.444-0.444
									c-1.343-1.31-3.26-1.383-4.728-0.238C206.791,449.088,207.238,449.53,207.553,449.284L207.553,449.284z"/>
							</g>
						</g>
					</g>
				</g>
				<g>
					<g>
						<g>
							<path style="fill:#263238;" d="M205.016,225.624l38.513,9.503l25.256-4.672c0,0,7.249,92.481,8.824,108.411
								c1.575,15.93,1.976,101.359,1.976,101.359l-20.794,0.52c0,0-7.451-88.125-9.136-96.744
								c-1.469-7.512-7.755-58.597-11.901-70.842c-0.417,2.508-0.845,5.027-1.281,7.525c-1.049,11.291-4.412,47.288-5.876,60.683
								c0,0-3.181,76.52-6.874,98.741l-19.341,0.035c-2.553-31.545-2.335-145.994-2.335-145.994l0.003-0.002
								C201.179,251.93,205.016,225.624,205.016,225.624z"/>
						</g>
					</g>
				</g>
			</g>
			<path style="fill:#407BFF;" d="M256.824,147.218c-4.604-0.855-9.256-1.428-13.93-1.715c-0.989-0.069-1.995-0.108-3.018-0.116
				c-8.277,0.111-16.542,0.697-24.752,1.754c-1.561,0.193-3.134,0.413-4.669,0.658c-7.804,1.225-10.922,2.702-10.922,2.702
				l1.909,59.743c0.903,17.155-0.466,36.453,0.05,40.877c20.333,3.534,45.322,3.565,71.338-0.431
				C267.277,185.244,256.824,147.218,256.824,147.218z"/>
			<path style="opacity:0.3;" d="M256.824,147.218c-4.604-0.855-9.256-1.428-13.93-1.715c-0.989-0.069-1.995-0.108-3.018-0.116
				c-8.277,0.111-16.542,0.697-24.752,1.754c-1.561,0.193-3.134,0.413-4.669,0.658c-7.804,1.225-10.922,2.702-10.922,2.702
				l1.909,59.743c0.903,17.155-0.466,36.453,0.05,40.877c20.333,3.534,45.322,3.565,71.338-0.431
				C267.277,185.244,256.824,147.218,256.824,147.218z"/>
			<g style="opacity:0.3;">
				<g>
					<path d="M258.168,160.099c6.133,22.492,9.323,45.677,11.686,68.835c0.701,6.868,1.332,13.745,1.78,20.635
						c0.031,0.479,0.781,0.483,0.75,0c-1.45-22.283-4.068-44.673-8.18-66.627c-1.452-7.752-3.238-15.433-5.313-23.042
						C258.764,159.434,258.04,159.632,258.168,160.099L258.168,160.099z"/>
				</g>
			</g>
			<g>
				<g>
					<path style="fill:#263238;" d="M202.955,99.519c-1.212-3.958,0.199-8.585,3.412-11.193c3.214-2.609,8.031-3.038,11.656-1.039
						c0.672-1.294,2.369-3.542,4.866-3.547c1.458-0.003,3.844,0.73,3.844,0.73s0.679-1.499,1.92-2.748
						c1.51-1.518,4.611-1.714,6.426-0.578c1.815,1.136,2.894,2.661,2.188,4.682c4.452-1.558,9.889,0.594,12.068,4.777
						c2.179,4.183-0.644,10.034-4.471,12.79c-0.038,2.827-0.724,7.054-0.763,9.882l-33.979,4.491
						c-0.834-2.433-3.967-8.865-4.802-11.298c-1.869,0.854-4.362-0.221-5.025-2.166C199.634,102.356,200.953,99.983,202.955,99.519z
						"/>
				</g>
				<path style="fill:#263238;" d="M238.574,108.3c6.716,0.889,4.648-7.899,1.963-11.64
					C235.945,90.162,231.857,107.411,238.574,108.3z"/>
				<path style="fill:#A24E3F;" d="M232.482,149.793c-7.372,0.735-12.478-2.89-13.382-2.968c1.434-1.631,1.445-10.694,1.689-13.761
					c0.913-4.881,0.246-1.379-0.53-6.283c-0.379-2.841-0.901-5.66-1.564-8.449l7.694,6.063l8.495,6.603
					c-0.352,1.582-0.581,3.188-0.683,4.806c-0.213,4.527,2.53,9.503,3.629,9.582C239.535,148.084,239.565,149.29,232.482,149.793z"
					/>
				<path style="opacity:0.2;enable-background:new    ;" d="M221.507,132.807c0,0,3.945,8.495,12.71,5.191l-0.019-2.102
					L221.507,132.807z"/>
				<path style="fill:#A24E3F;" d="M212.087,105.146c1.547-8.462,9.66-14.068,18.122-12.521
					c11.669,2.151,16.422,18.251,16.005,28.659c-0.465,11.588-13.097,19.473-23.159,12.685c-6.706-4.514-7.82-11.049-10.683-21.958
					C211.768,109.773,211.67,107.427,212.087,105.146z"/>
				<path style="fill:#263238;" d="M228.737,121.345c-0.116-0.09-0.141-0.256-0.057-0.376c0.091-0.116,0.256-0.141,0.376-0.057
					c1.75,1.508,4.114,2.092,6.365,1.572c0.043-0.018,0.09-0.025,0.136-0.021c0.152,0.015,0.263,0.151,0.248,0.303
					c-0.015,0.152-0.151,0.263-0.303,0.248c-0.389,0.086-0.784,0.146-1.181,0.179C232.285,123.37,230.266,122.702,228.737,121.345z"
					/>
				<path style="fill:#263238;" d="M226.752,112.373c0.296,1.249,1.339,2.027,2.158,1.77c0.818-0.257,1.139-1.464,0.764-2.694
					s-1.36-2.023-2.158-1.771C226.717,109.931,226.371,111.122,226.752,112.373z"/>
				<path style="fill:#263238;" d="M237.593,109.05c0.296,1.249,1.359,2.022,2.158,1.77c0.799-0.252,1.14-1.464,0.764-2.694
					c-0.376-1.23-1.36-2.023-2.158-1.77C237.558,106.609,237.231,107.88,237.593,109.05z"/>
				<path style="fill:#263238;" d="M242.214,102.282c-0.152,0.159-0.376,0.225-0.59,0.174c-1.438-0.412-2.986-0.12-4.177,0.786
					c-0.238,0.218-0.608,0.201-0.826-0.037c-0.218-0.239-0.201-0.608,0.037-0.826c0-0.001,0.001-0.001,0.002-0.002
					c1.475-1.184,3.433-1.579,5.253-1.06c0.315,0.073,0.511,0.386,0.439,0.701c-0.001,0.005-0.002,0.009-0.003,0.014
					C242.317,102.122,242.272,102.206,242.214,102.282z"/>
				<path style="fill:#263238;" d="M225.346,107.876c-0.115,0.032-0.236,0.027-0.347-0.013c-0.276-0.168-0.364-0.528-0.196-0.803
					c0.002-0.004,0.004-0.007,0.007-0.011c0.973-1.629,2.679-2.683,4.572-2.824c0.323-0.005,0.589,0.253,0.594,0.576l0,0.001
					c-0.003,0.321-0.257,0.582-0.577,0.594l0,0c-1.49,0.155-2.82,1.005-3.586,2.294
					C225.692,107.817,225.521,107.885,225.346,107.876z"/>
				<path style="fill:#263238;" d="M235.296,121.685c-2.421,0.016-4.818-0.483-7.031-1.465c-0.094,0.406-0.127,0.824-0.099,1.24
					c0.028,0.741,0.238,1.464,0.612,2.105c0.764,1.311,2.413,2.501,5.999,2.501c0.265,0.013,0.531,0.013,0.796-0.002
					c0.232-1.479,0.57-2.94,1.013-4.371C236.586,121.693,236.101,121.712,235.296,121.685z"/>
				<path style="fill:#FFFFFF;" d="M228.322,120.204c-0.094,0.406-0.127,0.824-0.1,1.24c1.05,1.028,3.421,1.488,6.801,1.516
					l0.329-1.291C232.932,121.685,230.535,121.186,228.322,120.204z"/>
				<path style="fill:#D7504D;" d="M232.762,124.353c-1.271-0.495-2.62-0.762-3.984-0.788c0.764,1.311,2.413,2.501,5.999,2.501
					C234.301,125.299,233.596,124.7,232.762,124.353z"/>
				<path style="fill:#7C2A1F;" d="M235.494,108.589c2.052,2.569,4.45,4.843,7.126,6.755c-1.033,1.366-2.617,2.206-4.328,2.294
					L235.494,108.589z"/>
				<path style="fill:#263238;" d="M209.624,97.409c0.169-0.762,0.369-1.538,0.813-2.181c0.467-0.677,1.17-1.153,1.882-1.564
					c3.258-1.88,7.053-2.717,10.814-2.759c3.761-0.041,7.498,0.686,11.1,1.769c2.17,0.653,4.335,1.454,6.157,2.802
					c1.822,1.349,3.282,3.316,3.594,5.56c0.026,0.183,0.041,0.38-0.048,0.542c-0.166,0.304-0.588,0.327-0.933,0.292
					c-2.348-0.241-9.259,1.091-10.432-3.644c-0.14-0.565-0.236,0.532,0,0c-3.917,1.371-4.367,0.912-8.51,0.683
					c0.94,0.891,0.988,2.5,0.235,3.555c-0.753,1.054-2.152,1.542-3.436,1.372c0.248,1.643,0.437,3.397-0.26,4.906
					c-0.466,1.009-1.601,1.896-2.631,1.476c0.288,1.021,0.521,2.058,0.698,3.103c0.17,1.008,0.281,2.084-0.135,3.018
					c-0.447,1.004-1.415,1.657-2.336,2.257l-7.015-7.028C208.448,106.878,208.599,102.047,209.624,97.409z"/>
				<path style="fill:#A24E3F;" d="M207.771,122.217c1.592,2.661,4.175,4.582,7.181,5.341c3.988,0.978,5.85-2.625,4.642-6.326
					c-1.105-3.279-4.501-7.852-8.456-7.144C207.182,114.796,205.858,118.926,207.771,122.217z"/>
				<g style="opacity:0.3;">
					<g>
						<path d="M210.678,118.317c0.221-0.454,0.729-0.644,1.215-0.579c0.596,0.08,1.127,0.471,1.562,0.861
							c0.86,0.773,1.478,1.777,1.79,2.889c0.13,0.464,0.854,0.267,0.723-0.199c-0.382-1.363-1.185-2.608-2.299-3.486
							c-0.569-0.449-1.25-0.838-1.998-0.826c-0.665,0.011-1.342,0.348-1.641,0.962C209.82,118.371,210.466,118.751,210.678,118.317
							L210.678,118.317z"/>
					</g>
				</g>
				<g style="opacity:0.3;">
					<g>
						<path d="M220.917,103.315c-1.006-0.102-1.911-0.495-2.676-1.155c-0.248-0.214-0.624-0.071-0.64,0.265
							c-0.083,1.767-1.517,3.39-3.321,3.521c-1.768,0.128-3.38-1.179-3.791-2.862c-0.089-0.362-0.629-0.352-0.723,0
							c-0.589,2.19-2.747,3.626-4.99,3.377c-0.479-0.053-0.475,0.697,0,0.75c2.566,0.284,5.046-1.444,5.714-3.928
							c-0.241,0-0.482,0-0.723,0c0.508,2.078,2.57,3.648,4.735,3.391c2.13-0.253,3.751-2.144,3.85-4.25
							c-0.213,0.088-0.427,0.177-0.64,0.265c0.928,0.799,1.989,1.251,3.207,1.374C221.397,104.114,221.393,103.364,220.917,103.315
							L220.917,103.315z"/>
					</g>
				</g>
			</g>
		</g>
		<g>
			<g>
				<polygon style="fill:#B97964;" points="291.825,445.135 281.214,446.174 273.373,419.311 289.514,417.554 				"/>
				<g>
					<path style="fill:#263238;" d="M279.678,441.489h3.788c0.857,0,1.65,0.434,2.156,1.125c2.185,2.983,3.826,1.856,6.202-0.949
						c1.51-0.176,1.917,1.557,2.04,2.023l2.832,10.301c0.246,0.86-0.252,1.757-1.112,2.003c-0.153,0.044-0.312,0.065-0.471,0.062
						c-4.6,0-6.777,0-12.502,0h-17.51c-4.773,0-5.763-4.81-3.797-5.255c8.842-1.954,15.103-4.556,17.836-7.128
						C279.647,443.221,279.127,442.884,279.678,441.489z"/>
					<path style="fill:#407BFF;" d="M274.03,444.999c1.196-0.029,2.385-0.182,3.549-0.458c0.109-0.039,0.166-0.16,0.127-0.269
						c-0.021-0.059-0.068-0.106-0.127-0.127c-0.532-0.259-5.268-2.473-6.455-1.632c-0.223,0.145-0.343,0.404-0.309,0.668
						c0.006,0.491,0.244,0.95,0.643,1.237C272.231,444.881,273.132,445.084,274.03,444.999z M276.837,444.257
						c-1.397,0.26-3.994,0.606-5.07-0.198c-0.279-0.22-0.45-0.548-0.47-0.903c-0.022-0.112,0.027-0.225,0.124-0.285
						C272.076,442.414,274.87,443.391,276.837,444.257z"/>
					<path style="fill:#407BFF;" d="M277.529,444.554c0.048,0.014,0.1,0.014,0.148,0c0.063-0.055,0.087-0.143,0.062-0.223
						c0-0.198-1.113-4.86-3.71-4.563c-0.643,0.086-0.829,0.396-0.853,0.655c-0.161,1.237,2.819,3.574,4.242,4.168L277.529,444.554z
						 M274.289,440.139c1.645,0,2.597,2.721,2.918,3.809c-1.546-0.816-3.71-2.758-3.574-3.512c0-0.062,0-0.235,0.482-0.284
						L274.289,440.139z"/>
					
						<path style="fill:none;stroke:#407BFF;stroke-width:0.5;stroke-linecap:round;stroke-linejoin:round;stroke-miterlimit:10;" d="
						M277.048,444.412c1.305,0.178,2.515,0.958,3.217,2.072"/>
					
						<path style="fill:none;stroke:#407BFF;stroke-width:0.5;stroke-linecap:round;stroke-linejoin:round;stroke-miterlimit:10;" d="
						M274.693,446.184c1.305,0.178,2.515,0.958,3.217,2.072"/>
					
						<path style="fill:none;stroke:#407BFF;stroke-width:0.5;stroke-linecap:round;stroke-linejoin:round;stroke-miterlimit:10;" d="
						M271.764,447.674c1.305,0.178,2.515,0.958,3.217,2.072"/>
				</g>
				<polygon style="opacity:0.3;" points="277.517,433.508 278.479,436.803 290.966,434.885 290.74,432.184 				"/>
			</g>
			<path style="fill:#407BFF;" d="M284.577,237.024c0.256-0.019,0.513-0.04,0.773-0.062l1.668,1.105
				c2.965,5.086,6.916,15.65,6.859,29.798c-0.573,22.147-3.861,56.552-4.156,64.024c-0.029,0.003-0.061,0.005-0.09,0.008
				c0.194,5.706,0.395,10.04,0.595,12.186c2.718,29.073,3.652,94.505,3.652,94.505l-19.767,0.288c0,0-14.782-99.007-15.149-105.078
				c-0.041-0.674-0.087-1.362-0.135-2.055l-0.905-10.598c-0.926-9.689-2.101-20.468-2.681-31.376
				c-2.88-22.869,3.573-46.935,8.485-58.946"/>
			<g>
				<path style="fill:#263238;" d="M319.545,138.415c-3.689-6.939-5.321-14.491-8.083-21.848c-0.824-2.195-2.633-4.583-4.205-6.322
					c-2.387-2.641-8.745-5.684-11.084-5.845l-11.841,1.924c-12.004-1.521-13.986,16.126-14.347,28.012
					c-0.361,11.886,2.975,24.151,9.786,33.899c1.351,1.934,2.859,3.868,4.953,4.954c2.599,1.348,5.692,1.192,8.611,0.964
					c9.849-0.772,20.56-2.435,27.219-9.733c-2.437-3.807-3.952-8.199-4.383-12.698c1.899,3.99,5.04,7.377,8.874,9.573
					c2.513-2.194,5.026-4.387,7.539-6.58C325.868,148.715,323.234,145.354,319.545,138.415z"/>
			</g>
			<g>
				<path style="fill:#407BFF;" d="M323.062,168.967c-0.001,0-0.003-0.001-0.004-0.001c-0.012-0.006-0.024-0.011-0.036-0.017
					L323.062,168.967z"/>
			</g>
			<g>
				<path style="fill:#407BFF;" d="M275.651,160.208c0,0-5.935,0.523-9.876,7.324c-3.941,6.801-7.806,12.365-7.806,12.365
					l12.748,8.501L275.651,160.208z"/>
			</g>
			<g style="opacity:0.4;">
				<path style="fill:#FFFFFF;" d="M275.651,160.208c0,0-5.935,0.523-9.876,7.324c-3.941,6.801-7.806,12.365-7.806,12.365
					l12.748,8.501L275.651,160.208z"/>
			</g>
			<g>
				<polygon style="fill:#B97964;" points="317.645,445.527 307.035,446.566 299.193,419.703 315.335,417.946 				"/>
				<g>
					<path style="fill:#263238;" d="M305.498,441.881h3.788c0.857,0,1.65,0.434,2.157,1.125c2.184,2.983,3.826,1.856,6.202-0.949
						c1.51-0.176,1.917,1.557,2.04,2.023l2.832,10.301c0.246,0.86-0.252,1.757-1.112,2.003c-0.153,0.044-0.312,0.065-0.471,0.062
						c-4.6,0-6.777,0-12.502,0h-17.51c-4.773,0-5.763-4.81-3.796-5.256c8.842-1.954,15.103-4.556,17.836-7.128
						C305.468,443.613,304.947,443.276,305.498,441.881z"/>
					<path style="fill:#407BFF;" d="M299.85,445.391c1.196-0.029,2.385-0.182,3.549-0.458c0.109-0.039,0.166-0.159,0.127-0.269
						c-0.021-0.059-0.068-0.106-0.127-0.127c-0.532-0.26-5.268-2.473-6.455-1.632c-0.223,0.145-0.342,0.404-0.309,0.668
						c0.006,0.491,0.245,0.95,0.643,1.237C298.051,445.273,298.953,445.477,299.85,445.391z M302.657,444.649
						c-1.398,0.26-3.994,0.606-5.07-0.198c-0.279-0.22-0.45-0.548-0.47-0.903c-0.022-0.111,0.027-0.225,0.124-0.284
						C297.896,442.807,300.691,443.784,302.657,444.649z"/>
					<path style="fill:#407BFF;" d="M303.35,444.946c0.048,0.014,0.1,0.014,0.148,0c0.063-0.055,0.088-0.143,0.062-0.223
						c0-0.198-1.113-4.86-3.71-4.563c-0.643,0.086-0.828,0.396-0.853,0.655c-0.161,1.237,2.82,3.574,4.242,4.167L303.35,444.946z
						 M300.11,440.531c1.645,0,2.597,2.721,2.918,3.809c-1.546-0.816-3.71-2.758-3.574-3.512c0-0.062,0-0.235,0.482-0.285
						L300.11,440.531z"/>
					
						<path style="fill:none;stroke:#407BFF;stroke-width:0.5;stroke-linecap:round;stroke-linejoin:round;stroke-miterlimit:10;" d="
						M302.868,444.804c1.305,0.178,2.515,0.958,3.217,2.072"/>
					
						<path style="fill:none;stroke:#407BFF;stroke-width:0.5;stroke-linecap:round;stroke-linejoin:round;stroke-miterlimit:10;" d="
						M300.514,446.576c1.305,0.178,2.515,0.958,3.217,2.072"/>
					
						<path style="fill:none;stroke:#407BFF;stroke-width:0.5;stroke-linecap:round;stroke-linejoin:round;stroke-miterlimit:10;" d="
						M297.585,448.066c1.305,0.178,2.515,0.958,3.217,2.072"/>
				</g>
				<polyline style="opacity:0.3;" points="316.786,435.277 316.56,432.576 303.338,433.901 304.299,437.195 				"/>
			</g>
			<path style="opacity:0.2;enable-background:new    ;" d="M260.668,240.767c0,0,7.792,8.227,23.062,8.368
				c15.27,0.141,32.401-8.754,32.401-8.754l-1.917-3.284l-43.974,4.791l-8.415-4.791L260.668,240.767z"/>
			<g>
				<g>
					<path style="opacity:0.2;enable-background:new    ;" d="M285.935,298.734c0.07,0.353-10.564-43.11-10.564-43.11
						s-2.856,35.475,7.83,52.407L285.935,298.734z"/>
					<path style="fill:#407BFF;" d="M267.102,228.768c0,0,19.054,10.244,45.03,8.326c0.256-0.019,0.513-0.04,0.773-0.062
						l1.668,1.105c2.965,5.085,6.916,15.65,6.859,29.798c-0.573,22.147-3.861,56.552-4.156,64.024
						c-0.029,0.003-0.061,0.005-0.09,0.008c0.194,5.706,0.395,10.04,0.595,12.186c2.718,29.073,3.652,94.505,3.652,94.505
						l-19.767,0.289c0,0-14.782-99.007-15.149-105.078c-0.041-0.674-0.087-1.362-0.135-2.055l-0.905-10.598
						c-0.927-9.689-2.101-20.468-2.681-31.376l-1.509-17.67c-12.977-4.267-19.905-23.362-22.162-26.615
						C262.512,233.077,264.011,234.204,267.102,228.768z"/>
				</g>
			</g>
			<g>
				<path style="fill:#407BFF;" d="M320.4,188.657l6.633-22.617c-4.196-6.262-24.958-11.074-24.958-11.074l-13.678,0.748
					c0,0-5.257,1.173-9.758,2.641c-6.009,1.96-9.258,3.536-10.691,6.87c0,0-2.507,7.387-1,22.61
					c0.415,4.186,1.362,26.277,0.194,33.467l-8.497,16.625c24.993,19.464,56.989,0.008,56.989,0.008
					c-1.123-3.437-3.592-11.049-4.1-14.408c0.367-4.285,1.569-7.099,3.384-14.602C315.268,207.476,319.792,190.064,320.4,188.657z"
					/>
			</g>
			<g style="opacity:0.4;">
				<path style="fill:#FFFFFF;" d="M320.4,188.657l6.633-22.617c-4.196-6.262-24.958-11.074-24.958-11.074l-13.678,0.748
					c0,0-5.257,1.173-9.758,2.641c-6.009,1.96-9.258,3.536-10.691,6.87c0,0-2.507,7.387-1,22.61
					c0.415,4.186,1.362,26.277,0.194,33.467l-8.497,16.625c24.993,19.464,56.989,0.008,56.989,0.008
					c-1.123-3.437-3.592-11.049-4.1-14.408c0.367-4.285,1.569-7.099,3.384-14.602C315.268,207.476,319.792,190.064,320.4,188.657z"
					/>
			</g>
			<g>
				<g>
					<path style="fill:#B97964;" d="M289.35,155.787c1.431-1.429,2.077-1.752,1.806-3.832c-0.189-1.599-0.704-3.26-1.319-4.879
						l2.135-2.32l11.103-10.421c-0.53,7.209-0.878,18.011,4.622,22.134l-18.346,14.828V155.787z"/>
					<path style="opacity:0.2;" d="M291.214,152.437c3.009-1.642,6.351-4.558,6.09-8.038c-0.12-1.465-0.384-2.859-0.702-3.758
						l-6.298,7.742C290.749,149.677,290.925,150.491,291.214,152.437z"/>
					<path style="fill:#B97964;" d="M305.986,122.848c-1.407,10.969-1.771,15.629-7.659,21.193
						c-8.857,8.37-21.893,4.974-23.76-6.017c-1.68-9.892,0.904-26.167,11.875-30.401
						C297.252,103.453,307.394,111.879,305.986,122.848z"/>
					<path style="fill:#263238;" d="M290.107,126.998c-0.009,1.247-0.602,2.306-1.324,2.366c-0.723,0.059-1.301-0.903-1.293-2.15
						c0.009-1.247,0.602-2.306,1.325-2.366C289.537,124.788,290.116,125.751,290.107,126.998z"/>
					<path style="fill:#263238;" d="M279.102,126.096c0.049,1.207-0.492,2.276-1.209,2.387c-0.716,0.111-1.337-0.778-1.385-1.985
						c-0.048-1.207,0.493-2.276,1.209-2.387C278.434,123.999,279.053,124.888,279.102,126.096z"/>
					<path style="fill:#263238;" d="M292.33,122.799c-0.141,0.009-0.281-0.038-0.385-0.144c-1.622-1.647-3.556-1.185-3.578-1.179
						c-0.286,0.069-0.565-0.104-0.617-0.395c-0.051-0.291,0.143-0.586,0.433-0.659c0.101-0.025,2.528-0.608,4.541,1.437
						c0.201,0.204,0.189,0.548-0.026,0.768C292.594,122.732,292.462,122.79,292.33,122.799z"/>
					<path style="fill:#263238;" d="M275.38,117.785c-0.127-0.042-0.236-0.129-0.297-0.254c-0.126-0.257-0.003-0.574,0.274-0.707
						c2.778-1.34,4.942-0.178,5.033-0.127c0.257,0.142,0.333,0.461,0.169,0.713c-0.163,0.252-0.503,0.341-0.76,0.201
						c-0.084-0.047-1.777-0.924-3.986,0.142C275.671,117.823,275.515,117.83,275.38,117.785z"/>
					<path style="fill:#A24E3F;" d="M283.722,125.058c0,0-1.871,4.057-3.907,6.555c-0.356,0.437-0.17,1.099,0.351,1.313
						c1.341,0.55,2.948,0.155,2.948,0.155L283.722,125.058z"/>
					<path style="fill:#263238;" d="M289.138,124.899l-2.553-0.478C286.585,124.421,288.055,126.239,289.138,124.899z"/>
					<path style="fill:#263238;" d="M278.155,124.198l-2.577-0.325C275.578,123.873,277.153,125.601,278.155,124.198z"/>
					<path style="fill:#263238;" d="M308.958,116.837c1.493,2.157-1.48,8.423-1.48,8.423s-5.278-1.57-5.567,6.382
						c-1.947,0.322-4.132-7.102-3.814-14.565C298.488,112.86,306.322,113.03,308.958,116.837z"/>
					<path style="fill:#263238;" d="M283.255,107.993c2.328-4.84,6.398-6.613,17.304-1.94c9.853,4.208,3.592,18.879,1.352,25.589
						c-0.476,1.425-13.025-14.464-13.025-14.464L283.255,107.993z"/>
					<path style="fill:#B97964;" d="M308.991,131.938c-1.382,2.21-3.546,3.55-5.5,3.966c-2.939,0.625-4.274-4.113-3.174-6.996
						c0.991-2.595,3.916-4.23,6.73-3.554C309.82,126.02,310.571,129.411,308.991,131.938z"/>
					
						<path style="opacity:0.2;fill:none;stroke:#000000;stroke-width:0.5;stroke-linecap:round;stroke-linejoin:round;stroke-miterlimit:10;" d="
						M304.944,128.094c0.933-0.358,1.901,0.258,2.208,1.029c0.371,0.933-0.143,3.099-3,3.779"/>
				</g>
				<g>
					<g>
						<path style="fill:#263238;" d="M286.705,135.325c-0.766,1.086-2.126,1.649-3.434,1.5c-0.202-0.023-0.375,0.189-0.375,0.375
							c0,0.222,0.173,0.352,0.375,0.375c1.581,0.18,3.172-0.581,4.082-1.871c0.117-0.166,0.03-0.417-0.135-0.513
							C287.031,135.081,286.822,135.159,286.705,135.325L286.705,135.325z"/>
					</g>
				</g>
			</g>
			<g>
				<g>
					<path style="fill:#263238;" d="M280.105,272.073c0.154,5.802,0.913,11.615,1.575,17.376c0.711,6.191,1.477,12.378,2.358,18.547
						c1.144,8.01,2.34,15.995,3.124,24.052c0.649,6.676,1.066,13.371,1.647,20.053c0.705,8.111,1.815,16.163,3.358,24.158
						c0.091,0.473,0.814,0.273,0.723-0.199c-1.401-7.263-2.461-14.576-3.149-21.941c-0.613-6.562-1.009-13.142-1.606-19.706
						c-1.296-14.252-3.747-28.36-5.425-42.569c-0.774-6.551-1.678-13.169-1.854-19.771
						C280.843,271.592,280.092,271.59,280.105,272.073L280.105,272.073z"/>
				</g>
			</g>
		</g>
		<path style="fill:#407BFF;" d="M247.575,194.85c0,0-8.958-14.357,4.049-20.738c13.007-6.381,20.124,8.467,25.891,11.044
			s41.598,23.192,33.254,33.99c-8.344,10.798-31.291,9.694-43.193,3.927C255.674,217.305,247.575,194.85,247.575,194.85z"/>
		<g>
			<g>
				<g>
					<g>
						<path style="fill:#407BFF;" d="M326.389,165.88c7.416,6.212,1.506,32.718,1.506,32.718l-22.571-4.258
							c0,0,3.871-19.926,8.814-25.232C318.327,164.635,322.309,162.351,326.389,165.88z"/>
					</g>
				</g>
			</g>
			<g style="opacity:0.4;">
				<g>
					<g>
						<path style="fill:#FFFFFF;" d="M326.389,165.88c7.416,6.212,1.506,32.718,1.506,32.718l-22.571-4.258
							c0,0,3.871-19.926,8.814-25.232C318.327,164.635,322.309,162.351,326.389,165.88z"/>
					</g>
				</g>
			</g>
			<path style="fill:#B97964;" d="M265.137,218.753c0,0-11.584-9.495-11.908-8.899c-0.324,0.596-3.279,6.716,12.305,14.29
				c4.428,2.152,30.537,11.121,38.43,7.607c8.527-3.796,21.556-33.6,21.556-33.6l-15.863-2.992c0,0-8.166,21.603-13.934,21.777
				c-5.769,0.175-30.013,2.086-30.013,2.086"/>
		</g>
		<g>
			<path style="fill:#B97964;" d="M252.603,191.305c4.109,4.55,8.974,7.526,13.538,5.154c6.53-3.519,5.935-8.836,4.537-12.385
				c-3.043-5.489-8.189-11.889-14.642-7.344C249.654,181.227,249.514,186.241,252.603,191.305z"/>
			<g>
				<g>
					<path style="fill:#263238;" d="M259.072,187.179c0.399,0.476,1.025,0.837,1.661,0.723c0.29-0.052,0.552-0.243,0.699-0.496
						c0.165-0.283,0.179-0.612,0.121-0.927c-0.07-0.384-0.281-0.729-0.527-1.025c-0.126-0.152-0.402-0.14-0.53,0
						c-0.148,0.161-0.134,0.369,0,0.53c0.009,0.011,0.033,0.033,0.037,0.045c0-0.002-0.04-0.054-0.015-0.019
						c0.019,0.027,0.039,0.053,0.058,0.08c0.041,0.06,0.079,0.122,0.114,0.187c0.015,0.027,0.029,0.055,0.042,0.082
						c0.008,0.016,0.014,0.032,0.022,0.047c0.018,0.037-0.012-0.03-0.013-0.031c0.011,0.062,0.047,0.126,0.063,0.187
						c0.013,0.05,0.014,0.114,0.034,0.16c-0.003-0.007-0.009-0.095-0.005-0.033c0.001,0.011,0.002,0.022,0.003,0.033
						c0.002,0.033,0.003,0.065,0.002,0.098c-0.001,0.025-0.005,0.049-0.004,0.074c0,0.039,0.008-0.051,0.007-0.048
						c-0.004,0.012-0.005,0.029-0.007,0.04c-0.005,0.023-0.01,0.046-0.017,0.068c-0.005,0.019-0.037,0.101-0.011,0.038
						c0.026-0.064-0.007,0.011-0.015,0.025c-0.012,0.02-0.034,0.043-0.042,0.065c0,0.001,0.055-0.062,0.029-0.038
						c-0.009,0.009-0.017,0.02-0.026,0.029c-0.018,0.019-0.039,0.035-0.057,0.054c-0.031,0.032,0.07-0.047,0.031-0.025
						c-0.008,0.005-0.015,0.011-0.023,0.015c-0.018,0.012-0.037,0.021-0.056,0.032c-0.07,0.04,0.069-0.022,0.014-0.005
						c-0.027,0.008-0.053,0.017-0.08,0.023c-0.009,0.002-0.018,0.004-0.027,0.006c-0.056,0.014,0.04-0.005,0.044-0.005
						c-0.022,0-0.045,0.004-0.067,0.005c-0.05,0.002-0.099-0.007-0.149-0.006c0.111-0.002,0.036,0.005-0.002-0.003
						c-0.024-0.005-0.049-0.011-0.072-0.018c-0.025-0.007-0.049-0.014-0.073-0.023c-0.014-0.005-0.028-0.01-0.042-0.015
						c-0.047-0.017,0.013,0.005,0.027,0.012c-0.059-0.03-0.12-0.056-0.177-0.09c-0.06-0.035-0.113-0.084-0.174-0.116
						c0.001,0,0.057,0.047,0.026,0.02c-0.016-0.014-0.033-0.027-0.049-0.041c-0.026-0.023-0.052-0.046-0.077-0.07
						c-0.058-0.056-0.112-0.115-0.164-0.177c-0.126-0.151-0.402-0.14-0.53,0C258.924,186.809,258.937,187.018,259.072,187.179
						L259.072,187.179z"/>
				</g>
			</g>
			<g>
				<g>
					<path style="fill:#263238;" d="M263.876,183.106c0.385,0.456,0.985,0.802,1.597,0.698c0.273-0.046,0.52-0.225,0.658-0.464
						c0.158-0.272,0.169-0.589,0.118-0.892c-0.063-0.376-0.261-0.712-0.492-1.007c-0.055-0.07-0.181-0.11-0.265-0.11
						c-0.092,0-0.202,0.041-0.265,0.11c-0.066,0.072-0.114,0.165-0.11,0.265c0.005,0.106,0.045,0.182,0.11,0.265
						c-0.007-0.009-0.047-0.064-0.008-0.01c0.008,0.011,0.016,0.022,0.024,0.034c0.018,0.026,0.036,0.052,0.053,0.079
						c0.038,0.059,0.073,0.12,0.105,0.183c0.014,0.027,0.025,0.054,0.039,0.081c0.019,0.037-0.013-0.032-0.013-0.032
						c0.004,0.015,0.013,0.031,0.018,0.046c0.021,0.056,0.04,0.113,0.055,0.172c0.007,0.026,0.013,0.052,0.018,0.079
						c0.006,0.032,0.009,0.127,0.004,0.011c0.002,0.053,0.009,0.106,0.008,0.159c-0.001,0.024-0.003,0.047-0.004,0.071
						c-0.004,0.065,0.019-0.09,0-0.012c-0.011,0.047-0.027,0.09-0.04,0.136c0.03-0.106,0.017-0.041-0.002-0.007
						c-0.009,0.015-0.055,0.076-0.011,0.022c0.044-0.055-0.008,0.007-0.017,0.017c-0.017,0.017-0.037,0.031-0.053,0.049
						c0.002-0.002,0.081-0.055,0.035-0.028c-0.007,0.004-0.014,0.009-0.021,0.014c-0.017,0.01-0.034,0.019-0.052,0.028
						c-0.048,0.026,0.09-0.03,0.019-0.009c-0.025,0.007-0.049,0.015-0.075,0.02c-0.008,0.002-0.017,0.003-0.026,0.005
						c-0.044,0.012,0.093-0.007,0.047-0.006c-0.021,0-0.042,0.003-0.063,0.004c-0.022,0-0.043,0-0.065-0.001
						c-0.009-0.001-0.019-0.002-0.028-0.002c-0.07-0.002,0.074,0.014,0.033,0.005c-0.046-0.01-0.091-0.017-0.136-0.03
						c-0.023-0.007-0.046-0.014-0.069-0.022c-0.013-0.005-0.026-0.01-0.04-0.014c-0.062-0.021,0.062,0.029,0.02,0.009
						c-0.031-0.015-0.336-0.172-0.324-0.193c0.001-0.001,0.073,0.06,0.019,0.014c-0.012-0.011-0.025-0.021-0.038-0.032
						c-0.025-0.022-0.05-0.044-0.074-0.067c-0.056-0.053-0.108-0.11-0.158-0.169c-0.127-0.15-0.401-0.141-0.53,0
						C263.729,182.736,263.74,182.945,263.876,183.106L263.876,183.106z"/>
				</g>
			</g>
			<path style="fill:#263238;" d="M258.668,183.212c0.017-0.07,0.012-0.144-0.013-0.212c-0.089-0.172-0.3-0.24-0.473-0.152
				c-1.021,0.485-1.738,1.441-1.917,2.556c-0.02,0.19,0.118,0.36,0.308,0.38c0.003,0,0.006,0.001,0.009,0.001l0,0
				c0.19,0.01,0.356-0.128,0.381-0.317l0,0c0.16-0.886,0.743-1.637,1.562-2.011C258.603,183.397,258.654,183.309,258.668,183.212z"
				/>
			<path style="fill:#263238;" d="M264.341,178.189c0.035-0.065,0.052-0.138,0.051-0.211c-0.036-0.191-0.218-0.319-0.41-0.288
				c-1.118,0.167-2.083,0.87-2.585,1.882c-0.072,0.179,0.011,0.383,0.187,0.462l0,0c0.179,0.065,0.378-0.016,0.461-0.187l0,0
				c0.413-0.798,1.193-1.342,2.085-1.453C264.225,178.355,264.3,178.282,264.341,178.189z"/>
			<path style="fill:#A24E3F;" d="M263.187,183.423l2.239,2.586c0.639-0.55,1.099-1.28,1.318-2.095
				C265.538,183.966,264.333,183.799,263.187,183.423z"/>
			<path style="fill:#B97964;" d="M255.773,190.476c0,0-2.696-1.662-4.034,1.182c-0.965,2.052,3.295,6.715,6.22,4.458
				C260.255,194.343,258.05,191.232,255.773,190.476z"/>
			<g style="opacity:0.3;">
				<g>
					<path d="M253.941,191.43c-0.368,0.362-0.565,0.881-0.542,1.397c0.024,0.52,0.256,0.989,0.601,1.372
						c0.676,0.754,1.98,1.399,2.828,0.524c0.336-0.347-0.194-0.878-0.53-0.53c-0.226,0.234-0.554,0.251-0.871,0.13
						c-0.34-0.13-0.655-0.385-0.896-0.653c-0.113-0.126-0.21-0.27-0.281-0.429c-0.058-0.129-0.094-0.299-0.1-0.413
						c-0.015-0.324,0.083-0.631,0.322-0.866C254.816,191.621,254.286,191.091,253.941,191.43L253.941,191.43z"/>
				</g>
			</g>
			<g>
				<g>
					<path style="fill:#263238;" d="M265.679,188.731c-0.022,0.031-0.037,0.049-0.088,0.106c-0.039,0.043-0.08,0.085-0.123,0.124
						c-0.101,0.095-0.126,0.112-0.229,0.18c-0.103,0.067-0.212,0.126-0.324,0.176c0.045-0.02-0.021,0.008-0.036,0.014
						c-0.024,0.009-0.049,0.018-0.073,0.026c-0.062,0.021-0.124,0.04-0.187,0.056c-0.057,0.015-0.114,0.027-0.171,0.038
						c-0.026,0.005-0.051,0.009-0.077,0.013c0.058-0.008-0.025,0.002-0.036,0.003c-0.123,0.011-0.246,0.013-0.369,0.006
						c-0.026-0.002-0.052-0.004-0.077-0.006c-0.121-0.01,0.034,0.007-0.035-0.004c-0.057-0.009-0.115-0.021-0.171-0.034
						c-0.063-0.015-0.125-0.033-0.186-0.054c-0.025-0.008-0.049-0.017-0.073-0.027c-0.115-0.043,0.058,0.028-0.054-0.024
						c-0.184-0.085-0.404-0.052-0.513,0.135c-0.095,0.162-0.05,0.428,0.135,0.513c1.165,0.54,2.578,0.173,3.336-0.861
						c0.12-0.163,0.027-0.418-0.135-0.513C266.001,188.485,265.799,188.567,265.679,188.731L265.679,188.731z"/>
				</g>
			</g>
		</g>
		<g>
			<path style="fill:#B97964;" d="M284.915,300.717c-1.086,0.448-13.978,0.128-15.685-1.074c-1.707-1.201-7.346-12.679-9.037-15.973
				l-9.4,7.599c3.275,5.97,11.117,21.029,15.082,21.427c3.965,0.398,19.962-2.789,20.93-4.619
				C287.773,306.247,286,300.27,284.915,300.717z"/>
			<path style="fill:#407BFF;" d="M246.31,272.556c0,0,7.988-0.859,13.323,6.406c5.335,7.265,6.662,10.668,6.681,11.119
				c0.042,0.998-9.859,8.556-12.016,8.102C252.141,297.729,246.31,272.556,246.31,272.556z"/>
			<path style="opacity:0.3;fill:#FFFFFF;" d="M246.31,272.556c0,0,7.988-0.859,13.323,6.406c5.335,7.265,6.662,10.668,6.681,11.119
				c0.042,0.998-9.859,8.556-12.016,8.102C252.141,297.729,246.31,272.556,246.31,272.556z"/>
			<g>
				<g>
					<path style="fill:#407BFF;" d="M190.749,359.248c0,0-7.282,1.564-18.554,3.035c-11.272,1.471-15.746-0.712-20.936-6.176
						c-5.19-5.464-7.339-15.124-5.192-19.32c2.146-4.195,9.482-8.761,4.651-9.485c-4.831-0.724-14.134,7.126-16.102,13.509
						c-1.967,6.383,2.508,16.588,2.508,16.588s-5.727-5.025-5.905-4.697c-0.179,0.328-3.219,8.171,6.086,15.818
						c9.305,7.647,17.114,8.915,17.114,8.915l-7.271,2.56c0,0,2.685,4.737,10.915,4.364c8.231-0.374,19.144-9.501,19.144-9.501
						l14.473-16.095"/>
					<path style="opacity:0.2;" d="M190.749,359.248c0,0-7.282,1.564-18.554,3.035c-11.272,1.471-15.746-0.712-20.936-6.176
						c-5.19-5.464-7.339-15.124-5.192-19.32c2.146-4.195,9.482-8.761,4.651-9.485c-4.831-0.724-14.134,7.126-16.102,13.509
						c-1.967,6.383,2.508,16.588,2.508,16.588s-5.727-5.025-5.905-4.697c-0.179,0.328-3.219,8.171,6.086,15.818
						c9.305,7.647,17.114,8.915,17.114,8.915l-7.271,2.56c0,0,2.685,4.737,10.915,4.364c8.231-0.374,19.144-9.501,19.144-9.501
						l14.473-16.095"/>
					<g>
						<path style="opacity:0.4;" d="M151.259,356.107c-5.19-5.464-7.339-15.124-5.192-19.32c2.146-4.195,9.482-8.761,4.651-9.485
							c-1.96-0.294-4.654,0.836-7.297,2.694c-2.129,1.655-4.738,4.833-6.11,7.515c-2.307,4.51,0.002,14.894,5.581,20.767
							c5.579,5.873,10.387,8.219,22.504,6.638c12.117-1.581,19.945-3.262,19.945-3.262l1-0.523l4.095-1.818
							c-1.491,0.308-8.316,1.674-18.242,2.969C160.922,363.754,156.448,361.571,151.259,356.107z"/>
						<path style="opacity:0.4;" d="M191.679,358.762l-1.243,0.552c0.202-0.042,0.313-0.066,0.313-0.066L191.679,358.762z"/>
					</g>
					<path style="fill:#407BFF;" d="M237.687,389.799c0.048,0.083,0.019,0.459-0.086,1.069c-0.687,3.978-4.654,17.937-12.254,25.925
						c-8.766,9.213-12.881,8.59-12.881,8.59l6.984,25.089c0,0,7.538,2.292,5.649,6.268c-1.889,3.976-11.238-0.824-11.238-0.824
						s-13.203-27.692-14.814-31.823c-1.611-4.131,1.212-12.196,1.472-12.554c0.261-0.358,1.922-14.589,1.922-14.589l9.81-16.122
						l25.457,9.428"/>
					<path style="opacity:0.2;" d="M237.687,389.799c0.048,0.083,0.019,0.459-0.086,1.069c-0.687,3.978-4.654,17.937-12.254,25.925
						c-8.766,9.213-12.881,8.59-12.881,8.59l6.984,25.089c0,0,7.538,2.292,5.649,6.268c-1.889,3.976-11.238-0.824-11.238-0.824
						s-13.203-27.692-14.814-31.823c-1.611-4.131,1.212-12.196,1.472-12.554c0.261-0.358,1.922-14.589,1.922-14.589l9.81-16.122
						l25.457,9.428"/>
					<path style="fill:#407BFF;" d="M299.015,363.961c0.972,7.355-7.13,35.959-8.163,44.646c-1.377,11.58-3.666,37.659-2.045,40.09
						c1.62,2.431,5.056,2.291,3.517,5.916c-1.539,3.625-7.385,2.065-10.5,0.222c-3.115-1.843-4.968-6.632-6.391-15.797
						c-1.424-9.165-0.127-46.362-0.127-46.362L299.015,363.961z"/>
					<path style="opacity:0.2;" d="M299.015,363.961c0.972,7.355-7.13,35.959-8.163,44.646c-1.377,11.58-3.666,37.659-2.045,40.09
						c1.62,2.431,5.056,2.291,3.517,5.916c-1.539,3.625-7.385,2.065-10.5,0.222c-3.115-1.843-4.968-6.632-6.391-15.797
						c-1.424-9.165-0.127-46.362-0.127-46.362L299.015,363.961z"/>
					<path style="fill:#407BFF;" d="M295.843,302.863c0,0,5.285-15.091,9.192-14.861c3.908,0.23,6.514,11.503,3.451,19.57
						l-6.743-0.677L295.843,302.863z"/>
					<path style="opacity:0.2;" d="M295.843,302.863c0,0,5.285-15.091,9.192-14.861c3.908,0.23,6.514,11.503,3.451,19.57
						l-6.743-0.677L295.843,302.863z"/>
					<path style="fill:#407BFF;" d="M328.951,326.794c2.078-4.455,2.145-7.244,0.608-7.825c-4.406-1.625-12.355-1.526-13.409-2.718
						c-1.054-1.192-3.955-7.389-8.277-10.479c-0.948-0.6-0.26-1.213-1.381-1.427c1.707-1.312,2.428-3.443,1.839-5.435
						c0,0-1.822,2.978-4.468,3.253c0.538-0.448,0.818-1.109,0.756-1.78c0,0-2.998,2.543-8.911,1.789
						c-7.232-0.886-13.321,2.838-13.782,7.047l2.23,0.868c-2.523,4.389-7.587,15.438,1.175,21.728
						c11.084,7.945,22.629,7.373,33.371,3.818l0.256-0.095l-0.134,0.61c2.111-0.369,4.079-1.261,5.699-2.585l-0.651,2.119
						c1.883-1.524,3.334-3.461,4.224-5.639l0,0.854c0.764-1.342,1.114-2.858,1.011-4.375L328.951,326.794z"/>
					<path style="opacity:0.2;" d="M328.951,326.794c2.078-4.455,2.145-7.244,0.608-7.825c-4.406-1.625-12.355-1.526-13.409-2.718
						c-1.054-1.192-3.955-7.389-8.277-10.479c-0.948-0.6-0.26-1.213-1.381-1.427c1.707-1.312,2.428-3.443,1.839-5.435
						c0,0-1.822,2.978-4.468,3.253c0.538-0.448,0.818-1.109,0.756-1.78c0,0-2.998,2.543-8.911,1.789
						c-7.232-0.886-13.321,2.838-13.782,7.047l2.23,0.868c-2.523,4.389-7.587,15.438,1.175,21.728
						c11.084,7.945,22.629,7.373,33.371,3.818l0.256-0.095l-0.134,0.61c2.111-0.369,4.079-1.261,5.699-2.585l-0.651,2.119
						c1.883-1.524,3.334-3.461,4.224-5.639l0,0.854c0.764-1.342,1.114-2.858,1.011-4.375L328.951,326.794z"/>
					<path style="opacity:0.4;" d="M328.951,326.794l0.155-0.272c0.103,1.518-0.247,3.033-1.011,4.375l0-0.854
						c-0.89,2.177-2.341,4.115-4.224,5.639l0.651-2.119c-1.619,1.324-3.587,2.216-5.699,2.585l0.134-0.61l-0.256,0.095
						c-5.368,1.777-10.936,2.808-16.548,2.404c0,0,0-0.001-0.001-0.001c-1.96-3.276-1.77-13.135,2.498-16.631
						s11.499-5.153,11.499-5.153c1.054,1.192,9.003,1.092,13.409,2.718C331.096,319.551,331.029,322.339,328.951,326.794z"/>
					<path style="fill:#263238;" d="M303.168,317.67c0,1.844-0.915,3.33-1.944,3.331c-1.029,0.001-1.945-1.487-1.945-3.327
						s0.894-3.326,1.944-3.327C302.273,314.346,303.168,315.825,303.168,317.67z"/>
					<path style="fill:#263238;" d="M312.897,313.948c0.303,1.536-0.105,2.966-0.932,3.181c-0.827,0.215-1.705-0.854-2.004-2.386
						c-0.299-1.532,0.109-2.97,0.919-3.198C311.692,311.318,312.595,312.412,312.897,313.948z"/>
					<path style="fill:#263238;" d="M324.163,320.469c1.438-1.734,3.764-2.405,5.879-1.697c1.76,0.991-1.465,5.274-1.465,5.274
						S323.185,322.652,324.163,320.469z"/>
					<path style="fill:#263238;" d="M299.045,308.182c0.348,0,0.63-0.288,0.63-0.642c0-0.355-0.282-0.642-0.63-0.641
						c-1.806,0.039-3.494,0.925-4.573,2.401c-0.17,0.307-0.069,0.696,0.227,0.877c0.297,0.155,0.66,0.054,0.84-0.232
						c-0.055,0.077,0.038-0.047,0.038-0.047l0.101-0.12c0.059-0.073,0.126-0.141,0.189-0.21c0.126-0.129,0.256-0.249,0.391-0.364
						c0.119-0.098,0.244-0.19,0.374-0.274c0.151-0.094,0.302-0.184,0.462-0.266l0.252-0.124l0.05-0.022l0.118-0.043
						c0.176-0.066,0.355-0.122,0.538-0.167l0.273-0.06l0.122-0.022c0.025,0,0.071,0,0,0c0.187-0.024,0.375-0.037,0.563-0.039
						L299.045,308.182z"/>
					<path style="fill:#263238;" d="M310.69,306.211c0.33,0.062,0.65-0.15,0.731-0.482c0.054-0.335-0.15-0.657-0.472-0.744
						c-1.675-0.529-3.495-0.255-4.949,0.745c-0.261,0.194-0.337,0.557-0.174,0.842c0.174,0.306,0.56,0.41,0.861,0.232
						c1.168-0.816,2.641-1.032,3.986-0.582L310.69,306.211z"/>
					<path style="fill:#407BFF;" d="M294.388,304.799c0,0,0.002-0.166-0.007-0.468c-0.046-1.491-0.369-6.294-2.6-10.771
						c-2.682-5.384-4.522-7.412-5.671-6.786c-1.149,0.626-5.976,5.628-6.664,13.592c-0.688,7.964,1.24,18.723,1.24,18.723
						L294.388,304.799z"/>
					<path style="opacity:0.2;" d="M294.388,304.799c0,0,0.002-0.166-0.007-0.468c-0.046-1.491-0.369-6.294-2.6-10.771
						c-2.682-5.384-4.522-7.412-5.671-6.786c-1.149,0.626-5.976,5.628-6.664,13.592c-0.688,7.964,1.24,18.723,1.24,18.723
						L294.388,304.799z"/>
					<path d="M240.453,370.806c0,0.47-7.94,13.431-4.505,26.987l-6.287-1.789c0,0-5.03-14.38,1.728-25.188L240.453,370.806z"/>
					<path style="opacity:0.2;" d="M290.506,302.43l-7.196,2.501c0,0,0.122-14.724,3.531-13.294
						C289.711,292.842,290.506,302.43,290.506,302.43z"/>
					<g>
						<path style="fill:#407BFF;" d="M265.469,332.082L265.469,332.082c-6.21,4.884-25.486,11.107-40.292,12.952
							c-18.586,2.316-36.722,12.508-37.178,12.724c-1.923,6.475,4.736,37,4.736,37s7.739-8.187,30.1-0.909
							c22.362,7.278,17.774,4.07,18.348,4.361c0.574,0.292,4.117,22.449,4.018,32.418c-0.043,4.307,0.347,8.593,0.347,8.593
							c0.335,6.565-1.81,10.625,3.164,15.466c5.13,4.993,8.55,4.016,12.699,1.934c3.225-1.618-2.733-3.809-3.594-6.437
							c-0.86-2.628,3.532-37.141,3.532-37.141c3.499-14,7.809-14.004,7.809-14.004l30.43-33.239
							c-1.148-6.425,1.589-29.016,1.589-29.016l-15.369-13.918l-2.959-18.435c-0.347,0.089-2.458,0.003-7.189,8.19
							c-2.113,3.655-5.628,10.193-11.817,12.575c-3.586,1.38,3.253,1.061,3.253,1.061s-7.139,3.845-5.049,5.307
							C264.135,333.025,265.469,332.082,265.469,332.082z"/>
						<path style="opacity:0.2;" d="M265.469,332.082L265.469,332.082c-6.21,4.884-25.486,11.107-40.292,12.952
							c-18.586,2.316-36.722,12.508-37.178,12.724c-1.923,6.475,4.736,37,4.736,37s7.739-8.187,30.1-0.909
							c22.362,7.278,17.774,4.07,18.348,4.361c0.574,0.292,4.117,22.449,4.018,32.418c-0.043,4.307,0.347,8.593,0.347,8.593
							c0.335,6.565-1.81,10.625,3.164,15.466c5.13,4.993,8.55,4.016,12.699,1.934c3.225-1.618-2.733-3.809-3.594-6.437
							c-0.86-2.628,3.532-37.141,3.532-37.141c3.499-14,7.809-14.004,7.809-14.004l30.43-33.239
							c-1.148-6.425,1.589-29.016,1.589-29.016l-15.369-13.918l-2.959-18.435c-0.347,0.089-2.458,0.003-7.189,8.19
							c-2.113,3.655-5.628,10.193-11.817,12.575c-3.586,1.38,3.253,1.061,3.253,1.061s-7.139,3.845-5.049,5.307
							C264.135,333.025,265.469,332.082,265.469,332.082z"/>
						<path style="fill:#407BFF;" d="M185.573,362.064c-0.001,0-0.002-0.002-0.003-0.001
							C185.563,362.068,185.565,362.068,185.573,362.064z"/>
					</g>
					
						<path style="fill:none;stroke:#263238;stroke-width:0.75;stroke-linecap:round;stroke-linejoin:round;stroke-miterlimit:10;" d="
						M328.413,322.384c0,0,0.757,4.425-0.441,6.74c-1.198,2.315-11.913-0.724-11.913-0.724"/>
					
						<path style="fill:none;stroke:#263238;stroke-width:0.75;stroke-linecap:round;stroke-linejoin:round;stroke-miterlimit:10;" d="
						M278.036,320.145c-2.512,3.003-5.196,5.855-8.034,8.539c2.98,0.056,5.972-0.714,8.571-2.205
						c-1.245,2.727-2.713,5.348-4.383,7.828"/>
					<g>
						<path style="fill:#407BFF;" d="M210.172,390.322c0.539,0.823-6.461,18.943-21.543,27.192
							c-15.081,8.249-18.852,8.802-18.852,8.802l-6.73,21.413c0,0,7.811,2.736,5.118,7.404c0,0-5.925,1.104-9.157,0.01
							c-3.232-1.094-4.58-6.581-4.58-6.581l1.342-31.835c0,0,3.771-0.004,10.501-16.477c6.731-16.473,7.806-28.549,7.806-28.549
							s3.276-5.701,7.729-10.295c2.943-3.036,15.367-7.312,23.78-8.675C220.939,350.243,210.172,390.322,210.172,390.322z"/>
						<path style="opacity:0.2;" d="M210.172,390.322c0.539,0.823-6.461,18.943-21.543,27.192
							c-15.081,8.249-18.852,8.802-18.852,8.802l-6.73,21.413c0,0,7.811,2.736,5.118,7.404c0,0-5.925,1.104-9.157,0.01
							c-3.232-1.094-4.58-6.581-4.58-6.581l1.342-31.835c0,0,3.771-0.004,10.501-16.477c6.731-16.473,7.806-28.549,7.806-28.549
							s3.276-5.701,7.729-10.295c2.943-3.036,15.367-7.312,23.78-8.675C220.939,350.243,210.172,390.322,210.172,390.322z"/>
						<path style="fill:none;stroke:#407BFF;stroke-linecap:round;stroke-linejoin:round;stroke-miterlimit:10;" d="
							M166.967,387.446c-0.566,8.35-4.359,16.432-10.383,22.127"/>
						
							<path style="fill:none;stroke:#263238;stroke-width:0.75;stroke-linecap:round;stroke-linejoin:round;stroke-miterlimit:10;" d="
							M178.286,396.512c-1.789,3.488-3.925,6.791-6.364,9.842c2.484-1.145,4.969-2.291,7.453-3.436
							c-1.063,2.978-3.028,5.615-5.557,7.458c1.777,0.07,3.572-0.487,5.011-1.553"/>
					</g>
					<path style="opacity:0.4;" d="M172.963,378.548L172.963,378.548c0.731-4.489,2.471-8.754,5.086-12.476
						c0.874-1.244,1.512-2.16,1.394-2.014c-0.335,0.412-8.979,3.089-11.419,16.975L172.963,378.548z"/>
					
						<path style="fill:none;stroke:#263238;stroke-width:0.75;stroke-linecap:round;stroke-linejoin:round;stroke-miterlimit:10;" d="
						M242.374,401.931c-1.663-4.799-2.966-9.728-3.895-14.729"/>
					<g>
						<g>
							<path style="fill:#263238;" d="M200.023,408.462c5.081-3.935,10.149-9.469,11.579-15.928
								c-0.154,0.087-0.308,0.175-0.461,0.262c7.212,1.564,14.424,3.128,21.636,4.692c1.024,0.222,2.048,0.444,3.072,0.666
								c0.471,0.102,0.672-0.621,0.199-0.723c-7.212-1.564-14.424-3.128-21.636-4.692c-1.024-0.222-2.048-0.444-3.072-0.666
								c-0.19-0.041-0.415,0.055-0.461,0.262c-1.404,6.343-6.396,11.732-11.386,15.597
								C199.111,408.227,199.645,408.754,200.023,408.462L200.023,408.462z"/>
						</g>
					</g>
				</g>
				<g>
					<g>
						<path style="fill:#263238;" d="M268.376,399.651c6.726-5.916,13.34-12.602,18.015-20.297c0.251-0.414-0.397-0.791-0.648-0.379
							c-4.641,7.638-11.22,14.271-17.898,20.145C267.483,399.44,268.015,399.969,268.376,399.651L268.376,399.651z"/>
					</g>
				</g>
				<g>
					<path style="fill:#263238;" d="M300.814,345.004c-12.818,4.548-27.249-0.689-36.171-12.165l-2.881,1.558
						c0,0,6.12,11.257,22.016,14.438c12.335,2.469,16.596-0.92,16.596-0.92L300.814,345.004z"/>
				</g>
				<g>
					<g>
						<path style="fill:#263238;" d="M209.574,392.611c1.443-4.907,1.279-10.192-0.482-14.995c-0.165-0.449-0.89-0.255-0.723,0.199
							c1.719,4.686,1.891,9.807,0.482,14.596C208.714,392.876,209.437,393.074,209.574,392.611L209.574,392.611z"/>
					</g>
				</g>
			</g>
			<g>
				<path style="fill:#B97964;" d="M212.103,359.527c0,0-1.357,27.971-0.864,34.507c0.494,6.536-3.069,40.773,0.469,54.392
					l9.285-0.015c0,0,5.734-39.43,6.566-49.492c0.832-10.062,6.419-37.076,6.419-37.076L212.103,359.527z"/>
				<path style="fill:#407BFF;" d="M211.61,448.031c0,0-1.765-8.051-1.502-15.341l13.265-0.032l-2.099,15.106L211.61,448.031z"/>
				<path style="opacity:0.7;fill:#FFFFFF;" d="M211.61,448.031c0,0-1.765-8.051-1.502-15.341l13.265-0.032l-2.099,15.106
					L211.61,448.031z"/>
				<g>
					<path style="fill:#407BFF;" d="M225.115,448.096c1.22-0.015,2.385-0.249,2.768-0.76c0.201-0.296,0.192-0.687-0.023-0.973
						c-0.16-0.266-0.423-0.454-0.727-0.518c-1.579-0.407-4.864,1.528-4.998,1.643c-0.086,0.044-0.132,0.141-0.11,0.236
						c0.016,0.089,0.086,0.158,0.175,0.172C223.164,448.05,224.14,448.117,225.115,448.096z M226.592,446.238
						c0.145-0.005,0.29,0.01,0.431,0.045c0.184,0.035,0.345,0.144,0.446,0.301c0.164,0.285,0.111,0.414,0.052,0.499
						c-0.429,0.616-2.823,0.664-4.592,0.479C224.051,446.884,225.295,446.433,226.592,446.238L226.592,446.238z"/>
					<path style="fill:#407BFF;" d="M222.243,447.869l0.1-0.01c1.134-0.522,3.373-2.595,3.18-3.695
						c-0.027-0.255-0.228-0.571-0.838-0.619c-0.453-0.045-0.905,0.1-1.248,0.399c-1.184,1.009-1.416,3.511-1.422,3.669
						c-0.002,0.08,0.036,0.155,0.1,0.203C222.148,447.849,222.195,447.869,222.243,447.869z M224.508,444l0.133-0.014
						c0.407,0.036,0.436,0.201,0.44,0.246c0.068,0.654-1.411,2.277-2.558,2.991c0.088-1.082,0.509-2.109,1.207-2.94
						C223.946,444.096,224.223,443.996,224.508,444L224.508,444z"/>
					<path style="fill:#263238;" d="M221.221,446.563l-10.346,0.138c-0.391,0.006-0.726,0.284-0.805,0.667l-1.754,8.447
						c-0.16,0.747,0.316,1.482,1.063,1.642c0.106,0.023,0.214,0.033,0.322,0.03c3.732-0.12,6.991-0.371,11.694-0.435
						c5.486-0.079,4.098,0.593,10.536,0.605c3.89-0.002,4.538-4.431,2.882-4.617c-7.545-0.85-8.363-3.108-11.299-5.773
						C222.863,446.755,222.046,446.505,221.221,446.563z"/>
				</g>
				<path style="fill:#B97964;" d="M238.612,358.874c0,0,1.081,27.983,2.142,34.451c1.061,6.468,0.49,40.886,5.2,54.145l9.248-0.823
					c0,0,2.281-39.779,2.234-49.876c-0.046-10.097,3.168-37.493,3.168-37.493L238.612,358.874z"/>
				<path style="fill:#407BFF;" d="M245.483,446.616c0,0-2.356-9.826-2.511-15.299l13.095-0.547l-0.839,15.437L245.483,446.616z"/>
				<path style="opacity:0.7;fill:#FFFFFF;" d="M245.483,446.616c0,0-2.356-9.826-2.511-15.299l13.095-0.547l-0.839,15.437
					L245.483,446.616z"/>
				<g>
					<path style="fill:#407BFF;" d="M260.11,447.092c1.218-0.085,2.367-0.385,2.72-0.918c0.184-0.307,0.152-0.697-0.079-0.97
						c-0.175-0.257-0.448-0.429-0.755-0.476c-1.599-0.316-4.768,1.805-4.895,1.927c-0.083,0.049-0.123,0.149-0.096,0.242
						c0.021,0.088,0.095,0.153,0.185,0.162C258.16,447.159,259.138,447.169,260.11,447.092z M261.478,445.152
						c0.144-0.013,0.29-0.007,0.433,0.02c0.185,0.024,0.353,0.124,0.463,0.275c0.18,0.276,0.134,0.408,0.081,0.495
						c-0.393,0.64-2.781,0.826-4.557,0.742C258.978,445.943,260.195,445.422,261.478,445.152L261.478,445.152z"/>
					<path style="fill:#407BFF;" d="M257.23,447.03l0.099-0.016c1.102-0.586,3.219-2.784,2.962-3.872
						c-0.041-0.253-0.26-0.556-0.872-0.57c-0.455-0.019-0.898,0.152-1.223,0.47c-1.124,1.076-1.212,3.587-1.209,3.745
						c0.003,0.08,0.044,0.153,0.111,0.197C257.134,447.016,257.182,447.033,257.23,447.03z M259.269,443.037l0.132-0.022
						c0.409,0.013,0.447,0.176,0.454,0.22c0.106,0.649-1.277,2.355-2.382,3.133c0.025-1.085,0.388-2.135,1.036-3.005
						C258.714,443.166,258.984,443.05,259.269,443.037L259.269,443.037z"/>
					<path style="fill:#263238;" d="M256.135,445.785l-10.321,0.732c-0.39,0.029-0.708,0.325-0.765,0.712l-1.265,8.533
						c-0.117,0.755,0.401,1.461,1.155,1.578c0.107,0.017,0.216,0.021,0.324,0.012c3.719-0.335,6.959-0.772,11.65-1.106
						c5.472-0.394,4.126,0.356,10.553-0.002c3.884-0.226,4.276-4.685,2.612-4.775c-7.581-0.415-8.528-2.622-11.612-5.114
						C257.785,445.883,256.955,445.68,256.135,445.785z"/>
				</g>
				<path style="fill:#263238;" d="M207.215,389.084c0,0,23.032,0.83,23.658-0.32c1.202-2.209,4.409-25.092,4.409-25.092
					l1.819,25.702c0,0,24.674,0,24.661-2.696c-0.004-0.696-1.426-42.075-3.819-52.133l-48.108,2.298
					C209.836,336.843,206.814,384.271,207.215,389.084z"/>
				<path style="fill:#407BFF;" d="M254.865,283.199c-0.414-4.148-4.46-9.699-8.555-10.644c-2.18-0.517-1.207-0.254,0,0
					c-6.773-0.688-13.58-0.992-20.388-0.91l-0.247-0.02c-2.829,1.015-15.331,2.737-14.795,7.226
					c3.408,30.15-1.956,51.707-1.982,58.443c17.584,2.952,34.529,0.663,51.942-0.465
					C258.752,308.246,255.712,291.555,254.865,283.199z"/>
				<path style="opacity:0.3;fill:#FFFFFF;" d="M254.865,283.199c-0.414-4.148-4.46-9.699-8.555-10.644c-2.18-0.517-1.207-0.254,0,0
					c-6.773-0.688-13.58-0.992-20.388-0.91l-0.247-0.02c-2.829,1.015-15.331,2.737-14.795,7.226
					c3.408,30.15-1.956,51.707-1.982,58.443c17.584,2.952,34.529,0.663,51.942-0.465
					C258.752,308.246,255.712,291.555,254.865,283.199z"/>
				<g>
					<g>
						<path style="fill:#263238;" d="M259.144,241.228c-0.665-0.296-1.399-0.413-2.063-0.713c-1.036-0.468-1.858-1.39-2.204-2.473
							c-0.407-1.276-0.164-2.664-0.345-3.991c-0.294-2.153-1.792-4.102-3.798-4.938c-2.135-0.89-4.634-0.556-6.757-1.474
							c-1.575-0.681-2.786-1.982-4.218-2.926c-2.899-1.911-8.353-1.752-11.668,1.548l7.71,1.136
							c7.355,2.791,12.926,9.813,13.971,17.609c0.048,0.361,0.112,0.766,0.409,0.977c0.158,0.112,0.356,0.148,0.547,0.176
							c2.682,0.4,5.479-0.004,7.938-1.147c0.928-0.431,1.933-1.19,1.839-2.209C260.438,242.078,259.809,241.524,259.144,241.228z"/>
					</g>
					<path style="fill:#B97964;" d="M240.457,272.342c-1.362-1.417-1.35-4.426-1.304-6.39c0.042-1.741,0.456-3.453,1.214-5.02
						l-5.709-0.046l-8.54-0.693c1.376,1.416-0.444,2.593,0.409,4.374c0.958,3.843-0.305,5.396-0.824,7.717
						c0,0,7.89,6.812,14.342,4.106C243.193,275.069,240.457,272.342,240.457,272.342z"/>
					<path style="opacity:0.2;enable-background:new    ;" d="M239.773,263.019l-5.049,0.201l-10.299,0.108
						c1.377,1.416,6.517,7.13,14.927,6.339c-0.059-0.307-0.189-1.26-0.224-1.816C239.171,266.111,239.014,264.586,239.773,263.019z"
						/>
					<path style="fill:#B97964;" d="M215.352,246.051c1.106,9.255,8.184,19.847,15.931,20.91
						c14.229,1.962,18.185-1.519,19.303-12.102c1.04-9.485-2.947-24.258-14.733-26.51
						C224.066,226.096,213.868,233.22,215.352,246.051z"/>
					<path style="fill:#263238;" d="M231.589,235.902l-4.639-7.8c-11.992,0.28-20.086,4.413-12.608,16.77
						c-2.643,12.641,10.328,19.36,10.328,19.36c-0.082-8.432,4.324-14.557,2.814-20.864
						C225.973,237.059,231.589,235.902,231.589,235.902z"/>
					<path style="fill:#263238;" d="M234.017,248.428c0.089,1.174,0.799,2.093,1.606,2.018c0.806-0.074,1.309-1.074,1.211-2.251
						c-0.099-1.176-0.803-2.074-1.604-2.028C234.429,246.213,233.918,247.252,234.017,248.428z"/>
					<path style="fill:#263238;" d="M243.555,247.589c0.089,1.124,0.769,1.996,1.503,1.926c0.734-0.07,1.229-1.031,1.169-2.148
						c-0.06-1.118-0.771-1.986-1.511-1.938C243.976,245.477,243.465,246.465,243.555,247.589z"/>
					<path style="fill:#263238;" d="M236.435,243.245c0.082-0.073,0.142-0.168,0.17-0.274c0.04-0.292-0.162-0.561-0.454-0.603
						c-1.692-0.294-3.421,0.263-4.623,1.49c-0.192,0.219-0.169,0.551,0.049,0.742c0.003,0.003,0.007,0.006,0.01,0.008l0,0
						c0.227,0.179,0.554,0.153,0.751-0.059l0,0c0.976-0.959,2.36-1.38,3.704-1.125C236.192,243.418,236.333,243.354,236.435,243.245
						z"/>
					<path style="fill:#263238;" d="M247.886,241.991c0.1-0.05,0.186-0.125,0.248-0.217c0.123-0.269,0.01-0.587-0.256-0.717
						c-1.534-0.774-3.349-0.749-4.861,0.068c-0.246,0.16-0.323,0.485-0.173,0.737l0,0c0.165,0.238,0.483,0.312,0.737,0.173l0,0
						c1.213-0.628,2.658-0.618,3.863,0.026C247.596,242.094,247.753,242.069,247.886,241.991z"/>
					<path style="fill:#A24E3F;" d="M241.86,247.473l0.51,5.176c1.277-0.122,2.487-0.625,3.475-1.443
						C244.302,250.211,242.952,248.947,241.86,247.473z"/>
					<path style="fill:#B97964;" d="M226.466,249.721c0,0-1.888-4.428-6.045-2.073c-2.999,1.699-1.804,11.227,3.808,10.992
						C228.636,258.456,228.63,252.658,226.466,249.721z"/>
					<g style="opacity:0.3;">
						<g>
							<path d="M223.352,249.499c-1.524,0.254-2.336,1.789-2.162,3.232c0.177,1.467,1.106,3.304,2.862,2.988
								c0.474-0.085,0.273-0.808-0.199-0.723c-1.265,0.228-1.862-1.496-1.932-2.461c-0.079-1.082,0.504-2.125,1.631-2.313
								C224.027,250.143,223.825,249.42,223.352,249.499L223.352,249.499z"/>
						</g>
					</g>
					<g>
						<g>
							<path style="fill:#263238;" d="M240.43,256.407c-1.378,0.461-2.993-0.138-3.719-1.403c-0.24-0.418-0.888-0.041-0.648,0.379
								c0.884,1.541,2.876,2.314,4.566,1.748C241.084,256.978,240.889,256.253,240.43,256.407L240.43,256.407z"/>
						</g>
					</g>
					<g>
						<path style="fill:#263238;" d="M251.571,237.797c-0.394-2.929-2.283-5.553-4.782-7.133c-2.114-1.337-4.624-1.956-7.133-1.989
							c-4.715-1.903-12.478-3.664-15.457-3.971c-1.402-0.145-2.918-0.097-4.077,0.704c-0.874,0.604-1.434,1.562-2.225,2.27
							c-0.952,0.853-2.186,1.303-3.359,1.812c-1.383,0.6-2.751,1.33-3.761,2.45c-1.009,1.12-1.611,2.7-1.244,4.162
							c0.169,0.676,0.53,1.288,0.744,1.952c0.214,0.663,0.258,1.448-0.163,2.003c-0.466,0.615-1.361,0.776-1.833,1.387
							c-0.716,0.927-0.047,2.327,0.908,3.006c1.383,0.983,3.193,1.112,4.886,1.014c1.694-0.098,3.401-0.387,5.075-0.109
							c1.688,0.28,3.237,1.121,4.912,1.471c1.675,0.35,3.705,0.042,4.599-1.417c0.625-1.02,0.525-2.302,0.543-3.498
							c0.018-1.196,0.273-2.552,1.287-3.186c1.121-0.7,2.76-0.235,3.75-1.111c1.245-1.102,0.4-3.22,1.041-4.754
							c0.394-0.942,2.716-1.891,4.771-2.338c0.487,0.417,0.852,0.976,0.972,1.608c0.199,1.048-0.173,2.225,0.368,3.144
							c0.553,0.939,1.792,1.166,2.878,1.253c1.086,0.086,2.309,0.192,3.006,1.03c0.868,1.042,0.661,2.941,1.912,3.464
							c0.751,0.314,1.656-0.148,2.066-0.851C251.666,239.468,251.679,238.603,251.571,237.797z"/>
					</g>
				</g>
			</g>
			<g>
				<g>
					<path style="fill:#B97964;" d="M213.667,328.067c3.19,1.286,6.501,2.272,9.875,2.938c0.454,0.09,0.928,0.182,1.296,0.463
						c0.368,0.281,0.589,0.814,0.367,1.22c-0.178,0.324-0.565,0.464-0.923,0.555c-1.104,0.279-4.896-0.741-3.893,0.825
						c1.33,2.628,3.916,4.403,6.31,6.118c0.62,0.444,1.236,0.922,1.578,1.604c0.342,0.682-0.475,1.687-1.08,1.574
						c0.177,0.471,0.453,0.725,0.012,1.317c-0.259,0.348-0.92,0.583-1.333,0.296c-0.717,0.892-2.513,1.109-5.095-0.635
						c0.336,0.293,0.113,0.903-0.295,1.083c-0.408,0.18-0.909,0.131-1.305-0.073c-5.417-2.783-9.497-7.51-10.351-13.451
						c-0.055-0.385,0.05-0.778,0.268-1.1C210.523,328.689,211.618,327.848,213.667,328.067z"/>
				</g>
				<g>
					<g>
						<path style="fill:#A24E3F;" d="M216.429,341.517c1.385,1.135,2.81,2.222,4.272,3.257c0.165,0.117,0.417,0.03,0.513-0.134
							c0.11-0.188,0.031-0.396-0.135-0.513c-1.41-0.998-2.784-2.045-4.12-3.14c-0.156-0.128-0.377-0.153-0.53,0
							C216.296,341.119,216.271,341.388,216.429,341.517L216.429,341.517z"/>
					</g>
				</g>
				<g>
					<g>
						<path style="fill:#A24E3F;" d="M218.588,340.474c2.283,1.564,4.567,3.128,6.85,4.692c0.399,0.273,0.775-0.376,0.378-0.648
							c-2.283-1.564-4.567-3.128-6.85-4.693C218.567,339.553,218.192,340.203,218.588,340.474L218.588,340.474z"/>
					</g>
				</g>
				<g>
					<g>
						<path style="fill:#A24E3F;" d="M220.414,338.907c2.139,1.478,4.101,3.193,6.24,4.671c0.398,0.275,0.773-0.375,0.378-0.648
							c-2.139-1.478-4.101-3.193-6.24-4.671C220.394,337.984,220.019,338.634,220.414,338.907L220.414,338.907z"/>
					</g>
				</g>
			</g>
			<path style="fill:#B97964;" d="M203.589,286.186c-4.151,6.65-11.854,24.926-10.021,29.132
				c1.833,4.206,15.74,18.502,18.123,18.444c2.383-0.058,3.117-4.735,2.056-5.574c-1.061-0.838-7.999-13.965-7.754-16.356
				c0.245-2.391,6.208-13.698,7.948-17.831"/>
			<g>
				<g>
					<path style="fill:#263238;" d="M257.724,297.984c-0.55-5.456-1.678-10.833-3.383-16.046c-0.149-0.457-0.874-0.261-0.723,0.199
						c1.684,5.148,2.813,10.457,3.356,15.846C257.022,298.46,257.772,298.464,257.724,297.984L257.724,297.984z"/>
				</g>
			</g>
			<path style="fill:#407BFF;" d="M199.331,291.826c-0.235,0.41,13.484,10.936,15.443,9.446c1.96-1.49,7.178-26.303,2.61-26.738
				C212.817,274.098,207.814,277.025,199.331,291.826z"/>
			<path style="opacity:0.3;fill:#FFFFFF;" d="M199.331,291.826c-0.235,0.41,13.484,10.936,15.443,9.446
				c1.96-1.49,7.178-26.303,2.61-26.738C212.817,274.098,207.814,277.025,199.331,291.826z"/>
			<g>
				<g>
					<path style="fill:#263238;" d="M134.304,327.338c-5.757,2.813-9.655,8.695-10.186,15.051c-0.12,1.443,2.13,1.435,2.25,0
						c0.467-5.593,4.055-10.658,9.072-13.109C136.741,328.646,135.602,326.705,134.304,327.338L134.304,327.338z"/>
				</g>
			</g>
		</g>
		<g>
			<g>
				<g>
					<path style="fill:#A24E3F;" d="M217.552,282.657c0,0,1.296,1.008,2.472-0.149c0.727-0.716,1.339-5.664-0.668-11.785
						c0,0,1.093,1.772,2.596,4.783c0.601,1.204,0.479,2.97,1.555,4.21c1.508,1.739,2.743-2.918,1.244-6.454
						c-1.499-3.536-6.541-8.654-10.178-12.221c-0.398-0.39-0.896-0.846-1.447-1.334l-5.199-5.293l-5.648,5.474
						c1.575,1.93,1.487,4.739,2.065,6.525c0.928,2.87,4.089,4.292,4.359,5.582c0.723,3.455-0.583,10.044,1.46,10.317
						c2.043,0.273,2.557-7.04,2.557-7.04s0.428,7.871,2.342,8.076C217.711,283.632,217.552,282.657,217.552,282.657z"/>
					<g>
						<g>
							<path style="fill:#7C2A1F;" d="M217.635,282.667c0.187-2.195,0.341-4.408-0.057-6.59c-0.463-2.537-1.664-4.859-3.016-7.029
								c-0.255-0.409-0.904-0.033-0.648,0.379c1.321,2.12,2.488,4.37,2.941,6.85c0.385,2.109,0.211,4.27,0.031,6.391
								C216.844,283.148,217.594,283.146,217.635,282.667L217.635,282.667z"/>
						</g>
					</g>
					<g>
						<g>
							<path style="fill:#7C2A1F;" d="M213.046,275.419c-0.191-1.078-0.327-2.185-0.626-3.24c-0.259-0.913-0.703-1.805-1.46-2.404
								c-0.16-0.127-0.374-0.153-0.53,0c-0.132,0.129-0.158,0.405,0,0.53c0.721,0.57,1.095,1.395,1.319,2.267
								c0.257,0.998,0.394,2.032,0.574,3.046C212.407,276.093,213.13,275.892,213.046,275.419L213.046,275.419z"/>
						</g>
					</g>
				</g>
			</g>
			<g>
				<path style="fill:#407BFF;" d="M199.531,150.5c-1.732,0.741-8.541,3.726-13.837,21.778
					c-5.296,18.052-12.008,38.218-11.136,46.562c0.872,8.344,19.862,45.212,24.973,44.004c5.111-1.208,13.142-7.265,11.194-10.654
					c-1.948-3.39-15.866-35.772-15.866-35.772s12.427-39.824,12.741-49.772C207.915,156.697,199.531,150.5,199.531,150.5z"/>
				<path style="opacity:0.3;" d="M199.531,150.5c-1.732,0.741-8.541,3.726-13.837,21.778
					c-5.296,18.052-12.008,38.218-11.136,46.562c0.872,8.344,19.862,45.212,24.973,44.004c5.111-1.208,13.142-7.265,11.194-10.654
					c-1.948-3.39-15.866-35.772-15.866-35.772s12.427-39.824,12.741-49.772C207.915,156.697,199.531,150.5,199.531,150.5z"/>
				<g style="opacity:0.3;">
					<g>
						<path d="M204.334,178.584c-0.163-0.132-0.025-0.024-0.073,0.248c-0.054,0.308-0.083,0.622-0.137,0.931
							c-0.172,0.985-0.388,1.962-0.607,2.937c-0.694,3.086-1.47,6.153-2.26,9.216c-1.923,7.459-3.954,14.893-6.129,22.282
							c-0.222,0.753-0.749,1.735-0.552,2.497c0.092,0.357,0.328,0.725,0.479,1.059c0.767,1.697,1.534,3.395,2.299,5.093
							c2.371,5.262,4.733,10.527,7.072,15.802c1.2,2.707,2.396,5.415,3.566,8.135c0.614,1.427,1.318,2.864,1.778,4.352
							c0.142,0.46,0.866,0.264,0.723-0.199c-1.103-3.565-2.923-7.013-4.426-10.418c-2.416-5.476-4.865-10.937-7.321-16.395
							c-0.887-1.97-1.774-3.939-2.664-5.907c-0.235-0.52-0.53-1.045-0.717-1.585c-0.215-0.622,0.016-0.649,0.245-1.419
							c2.212-7.455,4.263-14.961,6.212-22.489c0.888-3.429,1.766-6.864,2.528-10.323c0.224-1.016,0.453-2.037,0.598-3.068
							c0.045-0.321,0.231-1.023-0.085-1.279C204.492,177.753,203.958,178.281,204.334,178.584L204.334,178.584z"/>
					</g>
				</g>
			</g>
		</g>
	</g>
</g>
</svg>
